<svg width="24" height="24" viewBox="0 0 24 24" fill="none" xmlns="http://www.w3.org/2000/svg">
<path fill-rule="evenodd" clip-rule="evenodd" d="M9.75 7.5C9.75 7.08579 10.0858 6.75 10.5 6.75C10.9142 6.75 11.25 7.08579 11.25 7.5C11.25 7.91421 10.9142 8.25 10.5 8.25C10.0858 8.25 9.75 7.91421 9.75 7.5ZM10.5 5.25C9.25736 5.25 8.25 6.25736 8.25 7.5C8.25 8.74264 9.25736 9.75 10.5 9.75C11.7426 9.75 12.75 8.74264 12.75 7.5C12.75 6.25736 11.7426 5.25 10.5 5.25ZM10.5 11.75C11.7653 11.75 12.7222 12.4187 13.0879 13.25H7.91212C8.27781 12.4187 9.23465 11.75 10.5 11.75ZM10.5 10.25C8.26542 10.25 6.25 11.8246 6.25 14C6.25 14.4142 6.58579 14.75 7 14.75H14C14.4142 14.75 14.75 14.4142 14.75 14C14.75 11.8246 12.7346 10.25 10.5 10.25Z" fill="black"/>
<path d="M18.2857 10.1429C18.2857 5.64568 14.64 2 10.1429 2C5.64568 2 2 5.64568 2 10.1429C2 14.64 5.64568 18.2857 10.1429 18.2857" stroke="black" stroke-width="1.5" stroke-linecap="round" stroke-linejoin="round"/>
<path d="M20.3619 17.019H15.2952C14.8955 17.019 14.5714 17.3431 14.5714 17.7429V20.2762C14.5714 20.6759 14.8955 21 15.2952 21H20.3619C20.7616 21 21.0857 20.6759 21.0857 20.2762V17.7429C21.0857 17.3431 20.7616 17.019 20.3619 17.019Z" stroke="#006EFA" stroke-width="1.5" stroke-linecap="round" stroke-linejoin="round"/>
<path d="M16.019 17.019V15.5714C16.019 15.0915 16.2097 14.6313 16.549 14.2919C16.8884 13.9525 17.3487 13.7619 17.8286 13.7619C18.3085 13.7619 18.7687 13.9525 19.1081 14.2919C19.4474 14.6313 19.6381 15.0915 19.6381 15.5714V17.019" stroke="#006EFA" stroke-width="1.5" stroke-linecap="round" stroke-linejoin="round"/>
</svg>
