<svg xmlns="http://www.w3.org/2000/svg" viewBox="0 0 32.87 31.7"><defs><style>.cls-1{fill:#444;}</style></defs><title>advertising</title><g id="Layer_2" data-name="Layer 2"><g id="Layer_1-2" data-name="Layer 1"><path class="cls-1" d="M11.93,31.7H8.82A3.07,3.07,0,0,1,6,29.45l-2.2-9.3H3.27A3.27,3.27,0,0,1,0,16.89v-4A3.27,3.27,0,0,1,3.27,9.65H12c4.74,0,9.47-4.94,12-7.59C25.51.46,26,0,26.54,0h.31a2.6,2.6,0,0,1,2.59,2.59V9.81a5.5,5.5,0,0,1,0,10.18v7.22a2.6,2.6,0,0,1-2.59,2.59h-.31c-.57,0-1-.46-2.57-2.06-2.54-2.65-7.27-7.59-12-7.59H10.85c0,.44.05.88.06,1.31a6.83,6.83,0,0,0,.79,3.66l2.07,3.26a2.06,2.06,0,0,1,0,2.11A2.15,2.15,0,0,1,11.93,31.7ZM5.21,20.15l2.13,9A1.67,1.67,0,0,0,8.82,30.3h3.11a.84.84,0,0,0,.58-.48.76.76,0,0,0,.09-.69l-2.07-3.26a8,8,0,0,1-1-4.36c0-.47,0-.92-.07-1.35ZM26.7,28.43Zm0,0h.19A1.19,1.19,0,0,0,28,27.21v-7.5h0a.7.7,0,0,1,0-.39V10.5a.7.7,0,0,1,0-.39h0V2.59A1.19,1.19,0,0,0,26.85,1.4h-.19A17.8,17.8,0,0,0,25,3c-2.54,2.65-7.15,7.46-12.15,8V18.8c5,.51,9.61,5.33,12.15,8A17.79,17.79,0,0,0,26.65,28.41Zm-16.6-9.65h1.38v-7.7H3.27A1.87,1.87,0,0,0,1.4,12.92v4a1.87,1.87,0,0,0,1.87,1.87Zm19.39-7.38v7.07a4.1,4.1,0,0,0,0-7.07Z"/></g></g></svg>