<svg xmlns="http://www.w3.org/2000/svg" viewBox="0 0 33.9 31.6"><defs><style>.cls-1{fill:#444;}</style></defs><title>animal_careers</title><g id="Layer_2" data-name="Layer 2"><g id="Layer_1-2" data-name="Layer 1"><path class="cls-1" d="M3.84,19.11a3.32,3.32,0,0,1-2.52-1C0,16.67-.55,13.63.7,12h0c1.29-1.64,3.83-1.7,5.92-.13A3.51,3.51,0,0,1,8,14.69a4.65,4.65,0,0,1-1.37,3.49A4.52,4.52,0,0,1,3.84,19.11Zm-2-6.22c-.79,1-.35,3.27.56,4.29s2.64.58,3.38-.06a3.31,3.31,0,0,0,.89-2.38A2.14,2.14,0,0,0,5.78,13c-1.67-1.25-3.3-1-4-.13Z"/><path class="cls-1" d="M11.23,12.9a5,5,0,0,1-3-1A6.15,6.15,0,0,1,5.87,7.81C5.4,4.74,7.43.92,10,.11a3.13,3.13,0,0,1,2.68.58,9.85,9.85,0,0,1,4,6.23,5.1,5.1,0,0,1-4.37,5.89h0A6.28,6.28,0,0,1,11.23,12.9ZM10.68,1.4a.88.88,0,0,0-.27,0C8.68,2,6.85,5,7.25,7.6A4.78,4.78,0,0,0,9,10.82a3.85,3.85,0,0,0,3,.62h0c2.22-.36,3.42-2,3.2-4.39a8.52,8.52,0,0,0-3.33-5.19A2.33,2.33,0,0,0,10.68,1.4Z"/><path class="cls-1" d="M22.92,31.6a8.42,8.42,0,0,1-3.37-1.07,7.87,7.87,0,0,0-3-1,6.19,6.19,0,0,0-2.76.9,7.12,7.12,0,0,1-3.51,1,5.1,5.1,0,0,1-3.92-2.42c-.9-1.41-1.63-3.9,0-7.75a12.52,12.52,0,0,1,10.9-7.62c2.63,0,7.77,1.6,10.31,7.62,1.09,2.57,1.22,4.8.39,6.63a6.89,6.89,0,0,1-4.11,3.5A3,3,0,0,1,22.92,31.6Zm-6.35-3.46a8.79,8.79,0,0,1,3.57,1.12c1.24.59,2.42,1.15,3.28.86h0a5.49,5.49,0,0,0,3.28-2.75c.66-1.46.53-3.32-.4-5.51a10.46,10.46,0,0,0-9-6.76,11.11,11.11,0,0,0-9.61,6.76c-1.39,3.29-.83,5.33-.11,6.45a3.7,3.7,0,0,0,2.79,1.77,5.93,5.93,0,0,0,2.83-.89A7.35,7.35,0,0,1,16.57,28.15Z"/><path class="cls-1" d="M30.06,19.11a4.52,4.52,0,0,1-2.82-.94,4.66,4.66,0,0,1-1.37-3.49,3.52,3.52,0,0,1,1.41-2.79c2.09-1.57,4.64-1.51,5.92.13s.68,4.64-.62,6.09A3.32,3.32,0,0,1,30.06,19.11Zm.36-7a3.88,3.88,0,0,0-2.3.86,2.13,2.13,0,0,0-.85,1.72,3.3,3.3,0,0,0,.89,2.38c.74.65,2.6.93,3.38.06s1.35-3.28.56-4.29h0A2.09,2.09,0,0,0,30.41,12.16Z"/><path class="cls-1" d="M22.67,12.9a6.28,6.28,0,0,1-1-.08,5.1,5.1,0,0,1-4.37-5.89,9.85,9.85,0,0,1,4-6.23A3.15,3.15,0,0,1,23.92.11C26.46.92,28.5,4.74,28,7.81a6.15,6.15,0,0,1-2.34,4.13A5,5,0,0,1,22.67,12.9Zm.55-11.5A2.33,2.33,0,0,0,22,1.86,8.52,8.52,0,0,0,18.68,7c-.22,2.38,1,4,3.2,4.39h0a3.85,3.85,0,0,0,3-.62A4.78,4.78,0,0,0,26.64,7.6C27,5,25.21,2,23.49,1.44A.88.88,0,0,0,23.22,1.4Z"/></g></g></svg>