<svg xmlns="http://www.w3.org/2000/svg" viewBox="0 0 29.8 36.16"><defs><style>.cls-1{fill:#444;}</style></defs><title>annuities</title><g id="Layer_2" data-name="Layer 2"><g id="Layer_1-2" data-name="Layer 1"><path class="cls-1" d="M14.62,17.66a.7.7,0,0,1-.7-.7v-2.1a.7.7,0,1,1,1.4,0V17A.7.7,0,0,1,14.62,17.66Z"/><path class="cls-1" d="M14.62,28.91a.7.7,0,0,1-.7-.7v-2.1a.7.7,0,0,1,1.4,0v2.1A.7.7,0,0,1,14.62,28.91Z"/><path class="cls-1" d="M15,26.48a6.88,6.88,0,0,1-.78,0,13.27,13.27,0,0,1-2.66-.69l-.19-.06a.7.7,0,1,1,.44-1.33l.19.06a12.17,12.17,0,0,0,2.37.63c1.55.18,2.46-.3,2.8-.8a.92.92,0,0,0,.07-1c-.34-.64-1.32-1-2.62-1h0c-1.89,0-3.32-.64-3.91-1.76a2.3,2.3,0,0,1,.15-2.41A4.3,4.3,0,0,1,15,16.63a13.24,13.24,0,0,1,2.69.7l.17.06a.7.7,0,1,1-.44,1.33l-.17-.06a12.12,12.12,0,0,0-2.4-.63c-1.56-.17-2.5.31-2.85.83a.9.9,0,0,0-.07,1c.34.64,1.34,1,2.68,1h0c1.85,0,3.26.64,3.85,1.77A2.32,2.32,0,0,1,18.38,25,3.9,3.9,0,0,1,15,26.48Z"/><path class="cls-1" d="M14.62,36.16A14.62,14.62,0,1,1,29.24,21.54,14.64,14.64,0,0,1,14.62,36.16Zm0-27.84A13.22,13.22,0,1,0,27.84,21.54,13.24,13.24,0,0,0,14.62,8.31Z"/><path class="cls-1" d="M13,8.31a.7.7,0,0,1-.7-.7V4.46a.7.7,0,0,1,1.4,0V7.61A.7.7,0,0,1,13,8.31Z"/><path class="cls-1" d="M16.25,8.31a.7.7,0,0,1-.7-.7V4.46a.7.7,0,1,1,1.4,0V7.61A.7.7,0,0,1,16.25,8.31Z"/><path class="cls-1" d="M25.6,13.3a.7.7,0,0,1-.5-1.2l3-3-1-1-3,3a.7.7,0,0,1-1-1l3.5-3.5a.7.7,0,0,1,1,0l2,2a.7.7,0,0,1,0,1l-3.5,3.5A.7.7,0,0,1,25.6,13.3Z"/><path class="cls-1" d="M18.26,4.8H11A1.33,1.33,0,0,1,9.65,3.47V1.33A1.33,1.33,0,0,1,11,0h7.28a1.33,1.33,0,0,1,1.33,1.33V3.47A1.33,1.33,0,0,1,18.26,4.8ZM11.05,3.4h7.14v-2H11.05Zm7.21-2h0Z"/><path class="cls-1" d="M14.62,33.31A11.77,11.77,0,1,1,26.39,21.54,11.78,11.78,0,0,1,14.62,33.31Zm0-22.14A10.37,10.37,0,1,0,25,21.54,10.38,10.38,0,0,0,14.62,11.17Z"/></g></g></svg>