<?xml version="1.0" encoding="utf-8"?>
<!-- Generator: Adobe Illustrator 24.1.0, SVG Export Plug-In . SVG Version: 6.00 Build 0)  -->
<svg version="1.1" id="Laag_1" xmlns="http://www.w3.org/2000/svg" xmlns:xlink="http://www.w3.org/1999/xlink" x="0px" y="0px"
	 viewBox="0 0 400 400" style="enable-background:new 0 0 400 400;" xml:space="preserve">
<style type="text/css">
	.st0{fill:none;stroke:#000000;stroke-width:15;stroke-linecap:round;stroke-miterlimit:10;}
</style>
<g>
	<g>
		<path d="M160.4,158.7c-1.1,0-2.1-0.2-3.1-0.7c-3.8-1.7-5.4-6.2-3.7-10l57-123.7c1.7-3.8,6.2-5.4,10-3.7c3.8,1.7,5.4,6.2,3.7,10
			l-57,123.7C166,157,163.3,158.7,160.4,158.7z"/>
		<path d="M200,186.3c-2,0-3.9-0.8-5.4-2.3c-2.9-3-2.8-7.7,0.2-10.6L342.6,29.9c3-2.9,7.7-2.8,10.6,0.2c2.9,3,2.8,7.7-0.2,10.6
			L205.2,184.2C203.8,185.6,201.9,186.3,200,186.3z"/>
		<path d="M233.4,221.4c-2.9,0-5.6-1.6-6.8-4.4c-1.7-3.8,0-8.2,3.8-9.9l115.1-51.9c3.8-1.7,8.2,0,9.9,3.8c1.7,3.8,0,8.2-3.8,9.9
			l-115.1,51.9C235.5,221.2,234.4,221.4,233.4,221.4z"/>
	</g>
	<g>
		<path d="M172.4,380H58c-7.7,0-13.9-6.2-13.9-13.9v-33.9c0-7.7,6.2-13.9,13.9-13.9h37.3c4.1,0,7.5,3.4,7.5,7.5s-3.4,7.5-7.5,7.5H59
			V365h112.3v-31.7h-36.2c-4.1,0-7.5-3.4-7.5-7.5s3.4-7.5,7.5-7.5h37.3c7.7,0,13.9,6.2,13.9,13.9v33.9
			C186.3,373.8,180.1,380,172.4,380z"/>
		<path d="M165.7,315.2c-3.5,0-7.1-1.3-9.8-4L129.8,285l10.6-10.6l25.3,25.3l43.3-43.3l-97.3-97.3l-43.3,43.3l32.1,32.1l-10.6,10.6
			L57,212.2c-2.6-2.6-4-6.1-4-9.8c0-3.7,1.4-7.2,4-9.8l45-45c5.4-5.4,14.2-5.4,19.6,0l98.9,98.9c2.6,2.6,4,6.1,4,9.8
			c0,3.7-1.4,7.2-4,9.8l-45,45C172.8,313.9,169.3,315.2,165.7,315.2z"/>
		<g>
			<path class="st0" d="M95.2,335.4"/>
			<path d="M135.1,333.3c-4.1,0-7.5-3.4-7.5-7.5v-92.1c-0.1,0-0.3-0.1-0.5-0.1h-23.9c-0.2,0-0.4,0-0.5,0.1v92.1
				c0,4.1-3.4,7.5-7.5,7.5s-7.5-3.4-7.5-7.5v-93.2c0-7.7,7-13.9,15.5-13.9h23.9c8.5,0,15.5,6.2,15.5,13.9v93.2
				C142.6,329.9,139.3,333.3,135.1,333.3z"/>
			<path class="st0" d="M135.1,340.6"/>
		</g>
	</g>
</g>
</svg>
