<?xml version="1.0" encoding="utf-8"?>
<!-- Generator: Adobe Illustrator 24.1.0, SVG Export Plug-In . SVG Version: 6.00 Build 0)  -->
<svg version="1.1" id="Laag_1" xmlns="http://www.w3.org/2000/svg" xmlns:xlink="http://www.w3.org/1999/xlink" x="0px" y="0px"
	 viewBox="0 0 400 400" style="enable-background:new 0 0 400 400;" xml:space="preserve">
<g>
	<path d="M318.8,346.9c-11.9,0-23.6-5.6-30.9-16l-22.2-31.8l69.7-48.6l22.2,31.7c11.9,17,7.7,40.4-9.3,52.2l-8.1,5.6
		C333.7,344.7,326.2,346.9,318.8,346.9z M286.6,302.9l13.6,19.4c7.2,10.2,21.3,12.7,31.5,5.5l0,0l8.1-5.6
		c10.1-7.1,12.6-21.2,5.5-31.3l-13.6-19.5L286.6,302.9z"/>
	<path d="M264.7,316.5c-2.4,0-4.7-1.1-6.2-3.2c-2.4-3.4-1.6-8.1,1.8-10.4l80.1-56.1c3.4-2.4,8.1-1.6,10.4,1.8
		c2.4,3.4,1.6,8.1-1.8,10.4L269,315.1C267.7,316.1,266.2,316.5,264.7,316.5z"/>
	<path d="M318.7,278.7c-3,0-5.8-1.8-7-4.7L215.3,30.3c-1.5-3.9,0.4-8.2,4.2-9.7c3.9-1.5,8.2,0.4,9.7,4.2l96.4,243.7
		c1.5,3.9-0.4,8.2-4.2,9.7C320.6,278.5,319.6,278.7,318.7,278.7z"/>
	<path d="M290.4,298.5c-1.8,0-3.5-0.6-4.9-1.9L36.5,78.1c-3.1-2.7-3.4-7.5-0.7-10.6c2.7-3.1,7.5-3.4,10.6-0.7l249,218.5
		c3.1,2.7,3.4,7.5,0.7,10.6C294.6,297.6,292.5,298.5,290.4,298.5z"/>
	<path d="M346.8,380.1h-44.3c-4.1,0-7.5-3.4-7.5-7.5s3.4-7.5,7.5-7.5h40.8l-9.2-32c-1.1-4,1.2-8.1,5.1-9.3c4-1.1,8.1,1.1,9.3,5.1
		l10.2,35.4c1.1,3.8,0.4,7.7-2,10.8C354.4,378.3,350.8,380.1,346.8,380.1z M344.3,368.5C344.3,368.5,344.3,368.5,344.3,368.5
		L344.3,368.5z"/>
</g>
<g>
	<path d="M82.6,346.9c-7.6,0-15-2.3-21.4-6.8l-8.1-5.6c-17-11.9-21.1-35.3-9.3-52.3L66,250.5l69.5,48.7L113.2,331
		c-5.7,8.1-14.2,13.6-24,15.3C87,346.7,84.8,346.9,82.6,346.9z M69.6,271.5L56,290.9c-7.1,10.2-4.6,24.2,5.5,31.4l8.1,5.6
		c5,3.5,11,4.8,16.9,3.7c5.9-1,11-4.3,14.4-9.2l13.6-19.5L69.6,271.5z"/>
	<path d="M136.5,316.5c-1.5,0-3-0.4-4.3-1.4l-80-56.1c-3.4-2.4-4.2-7.1-1.8-10.4c2.4-3.4,7.1-4.2,10.4-1.8l80,56.1
		c3.4,2.4,4.2,7.1,1.8,10.4C141.2,315.4,138.9,316.5,136.5,316.5z"/>
	<path d="M110.8,298.5c-2.1,0-4.2-0.9-5.7-2.6c-2.7-3.1-2.4-7.9,0.7-10.6L353.7,69.7c3.1-2.7,7.9-2.4,10.6,0.7
		c2.7,3.1,2.4,7.9-0.7,10.6L115.7,296.7C114.3,297.9,112.5,298.5,110.8,298.5z"/>
	<path d="M84.6,280.1c-0.9,0-1.8-0.2-2.7-0.5c-3.9-1.5-5.8-5.8-4.3-9.7l93.8-245.1c1.5-3.9,5.8-5.8,9.7-4.3c3.9,1.5,5.8,5.8,4.3,9.7
		L91.6,275.3C90.5,278.3,87.6,280.1,84.6,280.1z"/>
	<path d="M97.7,380.1H53.4c-4,0-7.6-1.8-9.9-4.9c-2.3-3.1-3.1-7.1-2-10.9l10.2-35.4c1.1-4,5.3-6.3,9.3-5.1c4,1.1,6.3,5.3,5.1,9.3
		l-9.2,32h40.8c4.1,0,7.5,3.4,7.5,7.5S101.8,380.1,97.7,380.1z M55.9,368.5L55.9,368.5C55.9,368.5,55.9,368.5,55.9,368.5z"/>
</g>
</svg>
