<?xml version="1.0" encoding="utf-8"?>
<!-- Generator: Adobe Illustrator 24.1.0, SVG Export Plug-In . SVG Version: 6.00 Build 0)  -->
<svg version="1.1" id="Laag_1" xmlns="http://www.w3.org/2000/svg" xmlns:xlink="http://www.w3.org/1999/xlink" x="0px" y="0px"
	 viewBox="0 0 400 400" style="enable-background:new 0 0 400 400;" xml:space="preserve">
<g>
	<path d="M367.5,380h-335c-6.9,0-12.5-5.6-12.5-12.5v-335C20,25.6,25.6,20,32.5,20h335c6.9,0,12.5,5.6,12.5,12.5v335
		C380,374.4,374.4,380,367.5,380z M35,365h330V35H35V365z"/>
	<path d="M223.2,90.2h-45c-4.1,0-7.5-3.4-7.5-7.5s3.4-7.5,7.5-7.5h45c4.1,0,7.5,3.4,7.5,7.5S227.4,90.2,223.2,90.2z"/>
	<path d="M76.5,232.9c-4.1,0-7.5-3.4-7.5-7.5v-45c0-4.1,3.4-7.5,7.5-7.5s7.5,3.4,7.5,7.5v45C84,229.5,80.6,232.9,76.5,232.9z"/>
	<path d="M223.2,338.4h-45c-4.1,0-7.5-3.4-7.5-7.5s3.4-7.5,7.5-7.5h45c4.1,0,7.5,3.4,7.5,7.5S227.4,338.4,223.2,338.4z"/>
	<path d="M325,232.9c-4.1,0-7.5-3.4-7.5-7.5v-45c0-4.1,3.4-7.5,7.5-7.5s7.5,3.4,7.5,7.5v45C332.5,229.5,329.1,232.9,325,232.9z"/>
	<path d="M80.3,328.2c-2.2,0-4.3-0.8-6-2.4c-2.8-2.7-3.3-6.9-1.4-10.3l66-115.5L72.8,84.5c-1.9-3.3-1.3-7.5,1.4-10.2
		c2.7-2.7,6.9-3.3,10.2-1.4L200,138.9l115.6-66.1c3.3-1.9,7.5-1.3,10.2,1.4c2.7,2.7,3.3,6.9,1.4,10.2l-66.1,115.6l66,115.5
		c1.9,3.4,1.3,7.6-1.4,10.3c-2.8,2.7-7,3.2-10.3,1.2l-115.2-68.9l-115.6,69C83.3,327.9,81.8,328.2,80.3,328.2z M323.1,314.2
		L323.1,314.2C323.1,314.2,323.1,314.2,323.1,314.2z M97.7,97.7l56.1,98.1c1.5,2.6,1.5,5.8,0,8.4l-55.6,97.2l97.7-58.3
		c2.7-1.6,6-1.6,8.7,0l97.2,58.2l-55.5-97.1c-1.5-2.6-1.5-5.8,0-8.4l56.1-98.1l-98.1,56.1c-2.6,1.5-5.8,1.5-8.4,0L97.7,97.7z"/>
</g>
</svg>
