<?xml version="1.0" encoding="utf-8"?>
<!-- Generator: Adobe Illustrator 24.1.0, SVG Export Plug-In . SVG Version: 6.00 Build 0)  -->
<svg version="1.1" id="Laag_1" xmlns="http://www.w3.org/2000/svg" xmlns:xlink="http://www.w3.org/1999/xlink" x="0px" y="0px"
	 viewBox="0 0 400 400" style="enable-background:new 0 0 400 400;" xml:space="preserve">
<path d="M327.1,380.5H61.4c-4,0-7.2-3.2-7.2-7.2s3.2-7.2,7.2-7.2h265.7c4,0,7.2,3.2,7.2,7.2C334.3,377.3,331.1,380.5,327.1,380.5z"
	/>
<path d="M194.2,161.7c-25.3,0-45.9-20.6-45.9-45.9s20.6-45.9,45.9-45.9s45.9,20.6,45.9,45.9S219.5,161.7,194.2,161.7z M194.2,84.4
	c-17.3,0-31.4,14.1-31.4,31.4s14.1,31.4,31.4,31.4s31.4-14.1,31.4-31.4S211.6,84.4,194.2,84.4z"/>
<path d="M131.4,380.5c-1.7,0-3.5-0.6-4.9-1.9c-3-2.7-3.2-7.3-0.5-10.2l46.1-50.4c0.4-0.4,0.6-1,0.6-1.6V151.8c0-4,3.2-7.2,7.2-7.2
	s7.2,3.2,7.2,7.2v164.6c0,4.2-1.6,8.3-4.4,11.4l-46.1,50.4C135.3,379.7,133.4,380.5,131.4,380.5z"/>
<path d="M257.2,380.5c-2,0-3.9-0.8-5.4-2.4l-46.1-50.4c-2.9-3.1-4.4-7.2-4.4-11.4V151.8c0-4,3.2-7.2,7.2-7.2s7.2,3.2,7.2,7.2v164.6
	c0,0.6,0.2,1.2,0.6,1.6l46.1,50.4c2.7,3,2.5,7.5-0.5,10.2C260.7,379.9,258.9,380.5,257.2,380.5z"/>
<path d="M223.2,380.5c-2,0-4-0.8-5.4-2.5l-23.6-26.8l-24.5,26.9c-2.7,3-7.3,3.2-10.2,0.5c-3-2.7-3.2-7.3-0.5-10.2l26.3-28.9
	c2.3-2.5,5.6-3.9,9-3.9s6.7,1.5,9,4.1l25.4,28.8c2.6,3,2.4,7.6-0.6,10.2C226.6,379.9,224.9,380.5,223.2,380.5z"/>
<path d="M324.9,111c-1.6,0-3.2-0.3-4.8-1c-3-1.3-5.3-3.6-6.4-6.6L290.5,45c-2.5-6.2,0.6-13.2,6.8-15.7l22.4-8.9
	c3-1.2,6.3-1.1,9.2,0.1c3,1.3,5.3,3.6,6.4,6.6l23.2,58.4c1.2,3,1.1,6.3-0.1,9.2s-3.6,5.3-6.6,6.4l-22.4,8.9
	C327.9,110.7,326.4,111,324.9,111z M327.2,98L327.2,98L327.2,98z M304.8,41.9l21.4,53.9l18-7.1l-21.4-53.9L304.8,41.9z"/>
<path d="M232.9,123.1c-2.9,0-5.6-1.7-6.7-4.5c-1.5-3.7,0.3-7.9,4-9.4l79.4-32.4c3.7-1.5,7.9,0.3,9.4,4s-0.3,7.9-4,9.4l-79.4,32.4
	C234.7,122.9,233.8,123.1,232.9,123.1z"/>
<path d="M57.7,191.1c-1.7,0-3.5-0.4-5.1-1.1c-3-1.4-5.3-3.9-6.4-7.1l-5.1-14.8c-2.1-6.1,1-12.8,7-15.1L153,111.5
	c3.7-1.5,7.9,0.3,9.4,4.1c1.5,3.7-0.3,7.9-4.1,9.4L55.7,165.7l3.5,10.2l103.6-41c3.7-1.5,7.9,0.3,9.4,4.1c1.5,3.7-0.3,7.9-4.1,9.4
	l-106,41.9C60.7,190.9,59.2,191.1,57.7,191.1z"/>
<path d="M224,98.5c-2.9,0-5.6-1.7-6.7-4.6c-1.5-3.7,0.3-7.9,4.1-9.4l80-31.7c3.7-1.5,7.9,0.3,9.4,4.1c1.5,3.7-0.3,7.9-4.1,9.4
	l-80,31.7C225.8,98.3,224.9,98.5,224,98.5z"/>
</svg>
