<?xml version="1.0" encoding="utf-8"?>
<!-- Generator: Adobe Illustrator 24.1.0, SVG Export Plug-In . SVG Version: 6.00 Build 0)  -->
<svg version="1.1" id="Laag_1" xmlns="http://www.w3.org/2000/svg" xmlns:xlink="http://www.w3.org/1999/xlink" x="0px" y="0px"
	 viewBox="0 0 400 400" style="enable-background:new 0 0 400 400;" xml:space="preserve">
<g>
	<path d="M340,380H60c-6.9,0-12.5-5.6-12.5-12.5v-335C47.5,25.6,53.1,20,60,20h280c6.9,0,12.5,5.6,12.5,12.5v335
		C352.5,374.4,346.9,380,340,380z M62.5,365h275V35h-275V365z"/>
	<path d="M200,337.1c-51,0-92.5-41.5-92.5-92.5s41.5-92.5,92.5-92.5s92.5,41.5,92.5,92.5S251,337.1,200,337.1z M200,167.1
		c-42.7,0-77.5,34.8-77.5,77.5s34.8,77.5,77.5,77.5s77.5-34.8,77.5-77.5S242.7,167.1,200,167.1z"/>
	<path d="M200,280.5c-20.7,0-37.5-16.8-37.5-37.5s16.8-37.5,37.5-37.5s37.5,16.8,37.5,37.5S220.7,280.5,200,280.5z M200,220.5
		c-12.4,0-22.5,10.1-22.5,22.5s10.1,22.5,22.5,22.5c12.4,0,22.5-10.1,22.5-22.5S212.4,220.5,200,220.5z"/>
	<path d="M200,132.5c-20.7,0-37.5-16.8-37.5-37.5s16.8-37.5,37.5-37.5s37.5,16.8,37.5,37.5S220.7,132.5,200,132.5z M200,72.5
		c-12.4,0-22.5,10.1-22.5,22.5s10.1,22.5,22.5,22.5c12.4,0,22.5-10.1,22.5-22.5S212.4,72.5,200,72.5z"/>
</g>
</svg>
