<?xml version="1.0" encoding="utf-8"?>
<!-- Generator: Adobe Illustrator 24.1.0, SVG Export Plug-In . SVG Version: 6.00 Build 0)  -->
<svg version="1.1" id="Laag_1" xmlns="http://www.w3.org/2000/svg" xmlns:xlink="http://www.w3.org/1999/xlink" x="0px" y="0px"
	 viewBox="0 0 400 400" style="enable-background:new 0 0 400 400;" xml:space="preserve">
<path d="M163.6,376h-34.8l-6.2-37.7c-1.2-3.3-2.5-4.7-3.3-5c-1.5-0.4-4.4,1-6.4,2.4L90.4,376H42.9l34.7-66.4l-0.2-18.8l-6.3,6.1
	c-4.4,6.2-9.7,8.1-13.4,8.6c-9.2,1.2-16.6-4.8-17.4-5.5l-0.6-0.6c-7.3-7.9-5.9-20.3,3.9-33.2c0,0,0.1-0.1,0.2-0.3
	c15.5-28.9,50.3-35.8,60.7-37.2c1.6-0.2,3.3-0.3,5.1-0.2c10.2,0.4,34.4-1.6,38.1-30v0c0.5-4,2.4-7.7,5.3-10.4
	c2.7-2.6,5.9-4.3,9.4-5.2c3.1-0.8,6.5-0.7,9.7,0.4c13.9,4.4,16.4,15.4,14.8,22.1c-7.4,49.5-33,62.9-45.6,66.6l-0.3,26.6
	c29.6,28.6,23.9,69.3,23.6,71.1L163.6,376z M141.5,361h8.6c0.2-11.5-2-36.3-21.7-53.6l-2.6-2.3l0.6-46.5l7.1-0.3
	c1.2-0.1,30.9-2.8,38.6-55.5l0.2-0.9c0.3-2.2-2.4-3.5-4.7-4.3c-0.6-0.2-1.1-0.2-1.5-0.1c-1,0.3-1.9,0.8-2.8,1.6
	c-0.4,0.3-0.6,0.8-0.7,1.4l0,0c-2.9,21.8-18.5,44.6-53.7,43c-0.9,0-1.7,0-2.4,0.1c-6.1,0.8-37,6.2-49.5,29.4
	c-0.4,0.8-0.9,1.5-1.4,2.2c-3.7,4.9-6.5,11.4-5.1,13.7c1.2,0.8,3.5,2,5.3,1.8c1.1-0.2,2.3-1.1,3.4-2.8l0.4-0.6L92,255.6l0.7,57.6
	l-25,47.8h13.9l19.5-35l0.9-0.8c1.1-0.9,10.7-9.2,21.1-6.3c4.4,1.2,10.4,4.8,13.9,15.3l0.2,0.5L141.5,361z"/>
<path d="M103.4,244.4c-17.9,0-32.5-14.6-32.5-32.5s14.6-32.5,32.5-32.5s32.5,14.6,32.5,32.5S121.3,244.4,103.4,244.4z M103.4,194.4
	c-9.6,0-17.5,7.9-17.5,17.5s7.9,17.5,17.5,17.5s17.5-7.9,17.5-17.5S113,194.4,103.4,194.4z"/>
<path d="M338.3,376H323c-5.6,0-10.5-3.7-12-9.1l-10.7-37.9c-0.2-0.9-2.4-1.7-4.2-2l-13.4,0l-0.3,0c-0.9-0.1-2.4,1.3-3.5,3.1
	l-10.4,36.8c-1.5,5.4-6.5,9.1-12,9.1h-16.1c-6.7,0-12.2-5.3-12.5-12c-0.9-21.4,2.1-40,9-55.3c5.2-11.7,11.5-18.6,15.3-22l0-20.3
	c0-0.7-0.1-0.9-0.1-0.9c-0.1-0.1-0.8-0.4-1.2-0.4l-0.4-0.1c-37.5-5.2-42.7-53.5-43.3-60.2c-1.4-6.5,0.4-12.7,5.1-17.6
	c3.7-3.8,8.8-5.8,14.1-5.3c8.1,0.7,13,5.9,14.7,8.1c0.9,1.2,1.6,2.6,2.1,4.1c5.1,17.1,12.2,25.9,14,27.9c12.1,8.5,35.9,8.7,48.1,7.4
	c0.1,0,0.2,0,0.3,0c8-1.6,26.6-7.8,27.5-29.5c0.2-3.8,1.6-7.5,4-10.4c6.6-7.8,14.9-7.4,17-7.2c8.2,0.7,14.4,6,17,14.7
	c0.8,2.7,0.9,5.6,0.3,8.5l-5.3,25.6c-0.8,7.7-5.7,15.4-14.6,22.9c-6.4,5.3-13,9-15.5,10.4c-1.1,0.6-2.3,1-3.5,1.2
	c-2.6,0.5-4.1,1.1-4.9,1.4v19c25.5,26.3,24.9,63.7,23.4,78.7C350.1,371.2,344.7,376,338.3,376z M324.9,361H336
	c0.9-12.3,0.9-44.1-20-65.1c-2.3-2.4-3.6-5.5-3.6-8.9v-20c-0.2-1.8-0.2-4.4,1.5-7.3c2.5-4.4,7.5-7.2,15.2-8.7
	c14.5-7.8,21.5-16.6,21.9-21.5l0-0.5l5.5-26.5c0.1-0.4,0.1-0.8,0-1.1c-1.2-3.9-3.1-4-3.9-4.1l-0.6,0c-0.6,0-2.3,0.2-3.7,2
	c-0.3,0.4-0.5,0.8-0.5,1.4c-0.3,8.4-4.2,36.3-39.4,43.6c-0.6,0.1-1.2,0.2-1.8,0.3c-6.5,0.7-39.7,3.2-58.6-10.3
	c-0.7-0.5-1.4-1.1-2-1.8c-2.5-2.8-11.2-13.4-17.3-33.4c-0.7-0.7-2-1.8-3.8-2c-0.7-0.1-1.4,0.2-1.9,0.7c-1.5,1.6-1.5,2.9-1.2,4.1
	c0.1,0.6,0.2,1.2,0.3,1.7c0.1,1.3,1.1,12.9,5.9,24.3c5.5,13.3,13.7,20.8,24.4,22.3c1.2,0.1,4.2,0.6,7.2,2.4c5.2,3,7.9,8.4,7.6,14.7
	v20.7c0,3.7-1.6,7.1-4.4,9.5c-5,4.3-21.1,21.3-20,63.6h11.8l10-35.3c0.3-1,0.7-2,1.3-2.9c4.2-7.1,10.7-11.1,17.5-10.7l13,0
	c0.4,0,0.9,0,1.3,0.1c6.9,0.7,15.1,4.6,17.3,13.1L324.9,361z M278.9,329.8L278.9,329.8C278.9,329.8,278.9,329.8,278.9,329.8z
	 M296.2,327.1C296.2,327.1,296.2,327.1,296.2,327.1L296.2,327.1z M207,204.6C207,204.6,207,204.6,207,204.6
	C207,204.6,207,204.6,207,204.6z"/>
<path d="M289.2,244.4c-17.9,0-32.5-14.6-32.5-32.5s14.6-32.5,32.5-32.5s32.5,14.6,32.5,32.5S307.1,244.4,289.2,244.4z M289.2,194.4
	c-9.6,0-17.5,7.9-17.5,17.5s7.9,17.5,17.5,17.5s17.5-7.9,17.5-17.5S298.9,194.4,289.2,194.4z"/>
<path d="M371.5,376h-345c-4.1,0-7.5-3.4-7.5-7.5s3.4-7.5,7.5-7.5h345c4.1,0,7.5,3.4,7.5,7.5S375.6,376,371.5,376z"/>
<path d="M200.3,139c-26.2,0-47.5-21.3-47.5-47.5S174.1,44,200.3,44c26.2,0,47.5,21.3,47.5,47.5S226.5,139,200.3,139z M200.3,59
	c-17.9,0-32.5,14.6-32.5,32.5s14.6,32.5,32.5,32.5s32.5-14.6,32.5-32.5S218.2,59,200.3,59z"/>
<rect x="192.3" y="31.5" width="15" height="20"/>
<rect x="253.8" y="133.5" width="12" height="12"/>
<rect x="265.8" y="121.5" width="12" height="12"/>
<rect x="277.8" y="133.5" width="12" height="12"/>
<rect x="265.8" y="145.5" width="12" height="12"/>
<rect x="344" y="85.5" width="12" height="12"/>
<rect x="356" y="73.5" width="12" height="12"/>
<rect x="368" y="85.5" width="12" height="12"/>
<rect x="356" y="97.5" width="12" height="12"/>
<rect x="20" y="157.5" width="12" height="12"/>
<rect x="32" y="145.5" width="12" height="12"/>
<rect x="44" y="157.5" width="12" height="12"/>
<rect x="32" y="169.5" width="12" height="12"/>
<rect x="109" y="55.5" width="12" height="12"/>
<rect x="121" y="43.5" width="12" height="12"/>
<rect x="133" y="55.5" width="12" height="12"/>
<rect x="121" y="67.5" width="12" height="12"/>
</svg>
