<?xml version="1.0" encoding="utf-8"?>
<!-- Generator: Adobe Illustrator 24.1.0, SVG Export Plug-In . SVG Version: 6.00 Build 0)  -->
<svg version="1.1" id="Laag_1" xmlns="http://www.w3.org/2000/svg" xmlns:xlink="http://www.w3.org/1999/xlink" x="0px" y="0px"
	 viewBox="0 0 400 400" style="enable-background:new 0 0 400 400;" xml:space="preserve">
<path d="M306.2,288.7c-4.4,0-8-3.6-8-8V121.4c0-4.4,3.6-8,8-8c4.4,0,8,3.6,8,8v159.3C314.1,285.1,310.6,288.7,306.2,288.7z"/>
<path d="M253.1,299.8c-4.4,0-8-3.6-8-8V106c0-4.4,3.6-8,8-8c4.4,0,8,3.6,8,8v185.8C261.1,296.2,257.5,299.8,253.1,299.8z"/>
<path d="M200,380.5c-4.4,0-8-3.6-8-8V27.5c0-4.4,3.6-8,8-8c4.4,0,8,3.6,8,8v345.1C208,376.9,204.4,380.5,200,380.5z"/>
<path d="M146.9,326.4c-4.4,0-8-3.6-8-8V79.5c0-4.4,3.6-8,8-8c4.4,0,8,3.6,8,8v238.9C154.9,322.8,151.3,326.4,146.9,326.4z"/>
<path d="M93.8,289.7c-4.4,0-8-3.6-8-8V122.5c0-4.4,3.6-8,8-8c4.4,0,8,3.6,8,8v159.3C101.8,286.2,98.2,289.7,93.8,289.7z"/>
<path d="M359.3,235.6c-4.4,0-8-3.6-8-8v-53.1c0-4.4,3.6-8,8-8s8,3.6,8,8v53.1C367.2,232,363.7,235.6,359.3,235.6z"/>
<path d="M40.7,234.5c-4.4,0-8-3.6-8-8v-53.1c0-4.4,3.6-8,8-8s8,3.6,8,8v53.1C48.7,230.9,45.1,234.5,40.7,234.5z"/>
</svg>
