<svg xmlns="http://www.w3.org/2000/svg" viewBox="0 0 35.42 35.41"><defs><style>.cls-1{fill:#444;}</style></defs><title>aviation</title><g id="Layer_2" data-name="Layer 2"><g id="Layer_1-2" data-name="Layer 1"><path class="cls-1" d="M15.48,9.81l-.15,0L8.84,8.37A.7.7,0,0,1,9.14,7l6.11,1.35,3-3a.7.7,0,1,1,1,1L16,9.61A.7.7,0,0,1,15.48,9.81Z"/><path class="cls-1" d="M26.29,20.63a.7.7,0,0,1-.68-.55l-1.36-6.16a.7.7,0,0,1,.19-.65L33.22,4.5a2.86,2.86,0,0,0,.55-.75A2.39,2.39,0,0,0,34,3,1.69,1.69,0,0,0,34,2.28a1.18,1.18,0,0,0-.81-.81,1.64,1.64,0,0,0-.68-.05,2.37,2.37,0,0,0-.78.24,2.87,2.87,0,0,0-.75.54L22.14,11a.7.7,0,0,1-.65.19L15.32,9.8a.7.7,0,1,1,.3-1.37l5.8,1.28,8.5-8.5A4.28,4.28,0,0,1,31,.4,3.75,3.75,0,0,1,32.29,0a3,3,0,0,1,1.25.1,2.58,2.58,0,0,1,1.75,1.75,3.08,3.08,0,0,1,.1,1.25A3.78,3.78,0,0,1,35,4.37a4.3,4.3,0,0,1-.81,1.12L25.7,14,27,19.78a.7.7,0,0,1-.53.83Z"/><path class="cls-1" d="M27.72,27.12a.7.7,0,0,1-.68-.55l-1.43-6.49a.7.7,0,0,1,.19-.65l3-3a.7.7,0,1,1,1,1l-2.74,2.74,1.35,6.11a.7.7,0,0,1-.53.83Z"/><path class="cls-1" d="M26.52,35.41l-.22,0c-.94-.18-1.53-1.39-2.26-3.08-.1-.24-.2-.47-.29-.65l-.3-.65c-1.58-3.36-3.08-6.54-4.74-9.77a70.64,70.64,0,0,0-5.19,4.92l-1.17,1.18.29,2.83A2.69,2.69,0,0,1,12,32.35l-.56.56a1.89,1.89,0,0,1-1.64.77c-.64-.13-1-.76-1.2-1.29L7,28.43,3,26.81c-.54-.22-1.17-.55-1.29-1.2A1.89,1.89,0,0,1,2.51,24l.56-.56a2.94,2.94,0,0,1,1.8-.62l.16,0a.81.81,0,0,1,.21,0l2.83.29c1.13-1.14,2.19-2.29,3.22-3.41s1.83-2,2.81-3C10.9,15,7.73,13.52,4.4,12l-.65-.3-.65-.29C1.41,10.63.2,10,0,9.1A1.22,1.22,0,0,1,.39,8L1.81,6.58A3.53,3.53,0,0,1,4.65,6l4.11.91,2.75-2.75a.7.7,0,0,1,1,1l-3,3a.7.7,0,0,1-.65.19l-4.48-1a2.44,2.44,0,0,0-1.56.19L1.46,8.91a9.75,9.75,0,0,0,2.2,1.17l.69.31.65.31C8.63,12.4,12.07,14,15.59,15.86A.7.7,0,0,1,15.76,17c-1.21,1.21-2.34,2.44-3.44,3.63s-2.26,2.45-3.49,3.69a.69.69,0,0,1-.57.2l-3.07-.31L5,24.2c-.67.07-.89.16-1,.22L3.51,25a3.28,3.28,0,0,0-.32.36,2.62,2.62,0,0,0,.38.19l4.22,1.73a.7.7,0,0,1,.38.38L9.9,31.85a2.67,2.67,0,0,0,.19.38,3.2,3.2,0,0,0,.36-.32l.56-.56a1.37,1.37,0,0,0,.25-1l-.32-3.16a.7.7,0,0,1,.2-.57l1.4-1.41a64.65,64.65,0,0,1,6-5.57.69.69,0,0,1,.58-.14.7.7,0,0,1,.47.36c1.84,3.52,3.45,7,5.16,10.58l.3.65c.09.2.19.43.31.69a9.79,9.79,0,0,0,1.17,2.19l1.34-1.34A1.84,1.84,0,0,0,28,31.05l-1-4.48a.7.7,0,0,1,.19-.65l3.7-3.7a.7.7,0,0,1,1,1l-3.43,3.43.9,4.11a3.23,3.23,0,0,1-.57,2.85L27.41,35A1.25,1.25,0,0,1,26.52,35.41Z"/></g></g></svg>