<?xml version="1.0" encoding="utf-8"?>
<!-- Generator: Adobe Illustrator 24.1.0, SVG Export Plug-In . SVG Version: 6.00 Build 0)  -->
<svg version="1.1" id="Laag_1" xmlns="http://www.w3.org/2000/svg" xmlns:xlink="http://www.w3.org/1999/xlink" x="0px" y="0px"
	 viewBox="0 0 400 400" style="enable-background:new 0 0 400 400;" xml:space="preserve">
<g>
	<path d="M218.3,340.4c-2.9,0-4.8-0.1-5.3-0.2c-51.2-2.8-102.2-22-104.3-22.9l-0.2-0.1l-55.8-23c-31.6-13.6-32.6-48.6-32.6-52.6
		C17.7,199.1,50.6,179.8,52,179c3.6-2.1,8.2-0.8,10.2,2.8c2.1,3.6,0.8,8.2-2.8,10.2c-1,0.6-26.3,15.7-24.3,49l0,0.3l0,0.3
		c0,1.1,0.1,28.7,23.5,38.9l55.5,22.9c2.4,0.9,52,19.2,99.8,21.9l0.2,0c0.3,0,31.1,2.2,49.1-14.3l0.3-0.3
		c0.4-0.4,45.3-37.7,93.2-106.8c1-1.6,10.7-19.1,7.6-39.6l0-0.4c0-0.1-1.8-16.8-12.8-34.1c-11.9-18.8-29.7-31-52.9-36.5l10.2,17.1
		c0.2,0.3,3.9,7,6.9,15.1c4.7,12.6,5.2,21.6,1.5,27.5c-1.7,2.7-5.8,7.1-14.4,6.6l-0.1,0L54.7,142.6l-0.2-15
		c71.8-6.6,122.4-22.4,152.2-34.5c32.2-13.1,47.7-24.8,47.8-24.9c6.4-4.9,12.5-6.7,18.2-5.4c5.4,1.3,8.3,4.9,9.6,6.9l5.4,6.2
		c42.9,5.3,65.5,28,76.9,46.3c12.1,19.3,14.4,37.5,14.7,39.9c4,26.9-9.2,48.7-9.8,49.6l-0.2,0.3c-48.3,69.7-92.5,107-96,109.9
		C255.3,338.4,229.5,340.4,218.3,340.4z M303.8,144.5c0.4,0,0.7,0,0.9,0c1-3.8-3.1-16.4-8.9-26.8l-18-30.1l-8.3-9.5l-0.1-0.4
		c-0.1-0.1-0.1-0.1-0.2-0.1c-0.6-0.1-2.5,0.3-5.5,2.7c-2.1,1.6-44.5,33.5-137.4,52.2L303.8,144.5z M305.1,144.4L305.1,144.4
		L305.1,144.4z"/>
	<path d="M205.7,286.5c-0.7,0-1.4,0-2.1,0l-0.3,0c-2.2-0.1-53.8-3.9-139.6-40.9c-3.8-1.6-5.6-6.1-3.9-9.9c1.6-3.8,6.1-5.6,9.9-3.9
		c43.4,18.7,77.7,28.5,98.9,33.5c21.7,5.1,34.4,6.1,35.7,6.2c9.2,0.3,15.7-1.8,19.6-6.1c5.5-6.1,4.4-15.5,4.3-15.6l-0.1-0.9l0.1-0.8
		c0.7-8.3-1.2-14.3-5.8-17.8c-3.6-2.7-7.6-3.2-7.6-3.2l-0.6,0l-0.5-0.1l-156.9-38c-12.8-3-21.1-9.1-24.6-18.2
		c-2.6-6.8-2.1-15,1.3-23.7c2.3-6,5.3-10.2,5.6-10.6l1-1.4l126.2-71.3c10.2-5.8,22.1-3.9,23.4-3.7l0.8,0.2l55.5,16.4
		c4,1.2,6.2,5.3,5.1,9.3s-5.3,6.2-9.3,5.1l-55-16.2c-2.4-0.3-8.6-0.5-13.1,2L50.4,146.4c-2.5,4.1-6.6,12.9-4.3,19
		c1.6,4.1,6.3,7.1,14,8.9l156.5,37.9c2.8,0.3,12.2,2.1,19.2,10.3c5.6,6.6,8.1,15.4,7.3,26.1c0.3,3.7,0.8,16.8-8,26.7
		C228.5,282.8,218.6,286.5,205.7,286.5z"/>
</g>
</svg>
