<svg xmlns="http://www.w3.org/2000/svg" viewBox="0 0 34.54 34.45"><defs><style>.cls-1{fill:#444;}</style></defs><title>banking_and_loans</title><g id="Layer_2" data-name="Layer 2"><g id="Layer_1-2" data-name="Layer 1"><path class="cls-1" d="M25.76,34.45h-17a.7.7,0,0,1-.7-.7V7a.7.7,0,1,1,1.4,0v26H25.06V7a.7.7,0,0,1,1.4,0V33.75A.7.7,0,0,1,25.76,34.45Z"/><path class="cls-1" d="M17.27,22.32c-3.43,0-6.22-2.17-6.22-4.84s2.79-4.84,6.22-4.84,6.22,2.17,6.22,4.84S20.7,22.32,17.27,22.32Zm0-8.29c-2.66,0-4.82,1.54-4.82,3.44s2.16,3.44,4.82,3.44,4.82-1.54,4.82-3.44S19.93,14,17.27,14Z"/><path class="cls-1" d="M19.9,33.63a.7.7,0,0,1-.7-.7A5.82,5.82,0,0,1,25,27.12a.7.7,0,0,1,0,1.4,4.41,4.41,0,0,0-4.41,4.41A.7.7,0,0,1,19.9,33.63Z"/><path class="cls-1" d="M14.64,33.63a.7.7,0,0,1-.7-.7,4.41,4.41,0,0,0-4.41-4.41.7.7,0,1,1,0-1.4,5.82,5.82,0,0,1,5.81,5.81A.7.7,0,0,1,14.64,33.63Z"/><path class="cls-1" d="M17.27,27.55A1.77,1.77,0,1,1,19,25.77,1.77,1.77,0,0,1,17.27,27.55Zm0-2.14a.37.37,0,1,0,.37.37A.37.37,0,0,0,17.27,25.4Z"/><path class="cls-1" d="M17.27,11A1.77,1.77,0,1,1,19,9.2,1.77,1.77,0,0,1,17.27,11Zm0-2.14a.37.37,0,1,0,.37.37A.37.37,0,0,0,17.27,8.82Z"/><path class="cls-1" d="M28.52,12H25.89a.7.7,0,1,1,0-1.4h2.64a.36.36,0,0,0,.36-.36V8a.37.37,0,0,0-.36-.36H6A.37.37,0,0,0,5.66,8V10.2a.37.37,0,0,0,.36.36H8.65a.7.7,0,0,1,0,1.4H6A1.76,1.76,0,0,1,4.25,10.2V8A1.76,1.76,0,0,1,6,6.2H28.52A1.76,1.76,0,0,1,30.28,8V10.2A1.76,1.76,0,0,1,28.52,12Z"/><path class="cls-1" d="M32.47,17.48H25.89a.7.7,0,1,1,0-1.4h6.59a.69.69,0,0,0,.67-.67V2.07a.68.68,0,0,0-.67-.67H2.07a.67.67,0,0,0-.67.67V15.42a.68.68,0,0,0,.67.67H8.65a.7.7,0,0,1,0,1.4H2.07A2.09,2.09,0,0,1,0,15.42V2.07A2.07,2.07,0,0,1,2.07,0h30.4a2.09,2.09,0,0,1,2.07,2.07V15.42A2.09,2.09,0,0,1,32.47,17.48Z"/></g></g></svg>