<svg xmlns="http://www.w3.org/2000/svg" viewBox="0 0 34.84 34.04"><defs><style>.cls-1{fill:#444;}</style></defs><title>bankruptcy</title><g id="Layer_2" data-name="Layer 2"><g id="Layer_1-2" data-name="Layer 1"><path class="cls-1" d="M17.12,28.79H.7a.7.7,0,1,1,0-1.4H17.12a.7.7,0,1,1,0,1.4Z"/><path class="cls-1" d="M19.36,18.79a.7.7,0,0,1-.7-.7V11.36a.7.7,0,0,1,.7-.7h5.52a.7.7,0,0,1,.7.7v4.31a.7.7,0,0,1-1.4,0V12.06H20.06v6A.7.7,0,0,1,19.36,18.79Z"/><path class="cls-1" d="M16.11,28.58a.7.7,0,0,1-.7-.7V7H11.29V27.88a.7.7,0,1,1-1.4,0V6.3a.7.7,0,0,1,.7-.7h5.52a.7.7,0,0,1,.7.7V27.88A.7.7,0,0,1,16.11,28.58Z"/><path class="cls-1" d="M1.81,28.73a.7.7,0,0,1-.7-.7V.7a.7.7,0,0,1,.7-.7H7.33A.7.7,0,0,1,8,.7V27.6a.7.7,0,0,1-1.4,0V1.4H2.51V28A.7.7,0,0,1,1.81,28.73Z"/><path class="cls-1" d="M25.43,34a9.41,9.41,0,1,1,9.41-9.41A9.42,9.42,0,0,1,25.43,34Zm0-17.42a8,8,0,1,0,8,8A8,8,0,0,0,25.43,16.62Z"/><path class="cls-1" d="M28.74,28.79a.72.72,0,0,1-.28-.06c-.47-.19-1.57-1.28-5.34-5.26-.94-1-1.75-1.85-2-2.13a.7.7,0,0,1,1-1c.32.31,1.11,1.14,2.1,2.19,1.54,1.63,4.4,4.65,4.9,5a.68.68,0,0,1,.36.9A.71.71,0,0,1,28.74,28.79Z"/><path class="cls-1" d="M28.73,28.79H22.55a.7.7,0,1,1,0-1.4H28V21.91a.7.7,0,0,1,1.4,0v6.18A.7.7,0,0,1,28.73,28.79Z"/></g></g></svg>