<?xml version="1.0" encoding="utf-8"?>
<!-- Generator: Adobe Illustrator 24.1.0, SVG Export Plug-In . SVG Version: 6.00 Build 0)  -->
<svg version="1.1" id="Laag_1" xmlns="http://www.w3.org/2000/svg" xmlns:xlink="http://www.w3.org/1999/xlink" x="0px" y="0px"
	 viewBox="0 0 400 400" style="enable-background:new 0 0 400 400;" xml:space="preserve">
<path d="M367.5,380h-335c-6.9,0-12.5-5.6-12.5-12.5v-335C20,25.6,25.6,20,32.5,20h335c6.9,0,12.5,5.6,12.5,12.5v335
	C380,374.4,374.4,380,367.5,380z M35,365h330V35H35V365z"/>
<path d="M120,152.5c-17.9,0-32.5-14.6-32.5-32.5s14.6-32.5,32.5-32.5s32.5,14.6,32.5,32.5S137.9,152.5,120,152.5z M120,102.5
	c-9.6,0-17.5,7.9-17.5,17.5s7.9,17.5,17.5,17.5s17.5-7.9,17.5-17.5S129.6,102.5,120,102.5z"/>
<path d="M280,312.5c-17.9,0-32.5-14.6-32.5-32.5s14.6-32.5,32.5-32.5s32.5,14.6,32.5,32.5S297.9,312.5,280,312.5z M280,262.5
	c-9.6,0-17.5,7.9-17.5,17.5s7.9,17.5,17.5,17.5s17.5-7.9,17.5-17.5S289.6,262.5,280,262.5z"/>
<path d="M120,312.5c-17.9,0-32.5-14.6-32.5-32.5s14.6-32.5,32.5-32.5s32.5,14.6,32.5,32.5S137.9,312.5,120,312.5z M120,262.5
	c-9.6,0-17.5,7.9-17.5,17.5s7.9,17.5,17.5,17.5s17.5-7.9,17.5-17.5S129.6,262.5,120,262.5z"/>
<path d="M280,152.5c-17.9,0-32.5-14.6-32.5-32.5s14.6-32.5,32.5-32.5s32.5,14.6,32.5,32.5S297.9,152.5,280,152.5z M280,102.5
	c-9.6,0-17.5,7.9-17.5,17.5s7.9,17.5,17.5,17.5s17.5-7.9,17.5-17.5S289.6,102.5,280,102.5z"/>
</svg>
