<?xml version="1.0" encoding="utf-8"?>
<!-- Generator: Adobe Illustrator 24.1.0, SVG Export Plug-In . SVG Version: 6.00 Build 0)  -->
<svg version="1.1" id="Laag_1" xmlns="http://www.w3.org/2000/svg" xmlns:xlink="http://www.w3.org/1999/xlink" x="0px" y="0px"
	 viewBox="0 0 400 400" style="enable-background:new 0 0 400 400;" xml:space="preserve">
<g>
	<path d="M367.5,312.7h-335c-6.9,0-12.5-5.6-12.5-12.5v-115c0-6.9,5.6-12.5,12.5-12.5h168.9v15H35v110h330v-110h-50.2v-15h52.7
		c6.9,0,12.5,5.6,12.5,12.5v115C380,307.1,374.4,312.7,367.5,312.7z"/>
	<path d="M258.1,267.3c-37.2,0-67.5-30.3-67.5-67.5c0-37.2,30.3-67.5,67.5-67.5s67.5,30.3,67.5,67.5
		C325.6,237,295.3,267.3,258.1,267.3z M258.1,147.3c-28.9,0-52.5,23.6-52.5,52.5s23.6,52.5,52.5,52.5s52.5-23.6,52.5-52.5
		S287,147.3,258.1,147.3z"/>
	<path d="M258.1,232.3c-17.9,0-32.5-14.6-32.5-32.5s14.6-32.5,32.5-32.5s32.5,14.6,32.5,32.5S276,232.3,258.1,232.3z M258.1,182.3
		c-9.6,0-17.5,7.9-17.5,17.5c0,9.6,7.9,17.5,17.5,17.5s17.5-7.9,17.5-17.5C275.6,190.2,267.7,182.3,258.1,182.3z"/>
	<path d="M128.7,347.7h-65c-6.9,0-12.5-5.6-12.5-12.5v-25c0-6.9,5.6-12.5,12.5-12.5h65c6.9,0,12.5,5.6,12.5,12.5v25
		C141.2,342.1,135.6,347.7,128.7,347.7z M66.2,332.7h60v-20h-60V332.7z"/>
	<path d="M150,272c-4.1,0-7.5-3.4-7.5-7.5v-45c0-4.1,3.4-7.5,7.5-7.5s7.5,3.4,7.5,7.5v45C157.5,268.7,154.1,272,150,272z"/>
	<path d="M258.1,112.3c-4.1,0-7.5-3.4-7.5-7.5v-45c0-4.1,3.4-7.5,7.5-7.5s7.5,3.4,7.5,7.5v45C265.6,109,262.2,112.3,258.1,112.3z"/>
	<path d="M341.8,347.7h-65c-6.9,0-12.5-5.6-12.5-12.5v-25c0-6.9,5.6-12.5,12.5-12.5h65c6.9,0,12.5,5.6,12.5,12.5v25
		C354.3,342.1,348.7,347.7,341.8,347.7z M279.3,332.7h60v-20h-60V332.7z"/>
	<path d="M199.9,130.3c-2.3,0-4.5-1-6-3l-27.1-35.9c-2.5-3.3-1.8-8,1.5-10.5c3.3-2.5,8-1.8,10.5,1.5l27.1,35.9
		c2.5,3.3,1.8,8-1.5,10.5C203,129.8,201.4,130.3,199.9,130.3z"/>
	<path d="M314,128.6c-1.5,0-3-0.5-4.3-1.4c-3.4-2.4-4.2-7.1-1.8-10.5L334,80c2.4-3.4,7.1-4.2,10.5-1.8c3.4,2.4,4.2,7.1,1.8,10.5
		l-26.1,36.7C318.7,127.5,316.4,128.6,314,128.6z"/>
	<path d="M110,272c-4.1,0-7.5-3.4-7.5-7.5v-45c0-4.1,3.4-7.5,7.5-7.5s7.5,3.4,7.5,7.5v45C117.5,268.7,114.1,272,110,272z"/>
	<path d="M70,272c-4.1,0-7.5-3.4-7.5-7.5v-45c0-4.1,3.4-7.5,7.5-7.5s7.5,3.4,7.5,7.5v45C77.5,268.7,74.1,272,70,272z"/>
</g>
</svg>
