<svg xmlns="http://www.w3.org/2000/svg" viewBox="0 0 34.07 34.45"><defs><style>.cls-1{fill:#444;}</style></defs><title>beauty_and_health_care</title><g id="Layer_2" data-name="Layer 2"><g id="Layer_1-2" data-name="Layer 1"><path class="cls-1" d="M17.35,32.24H2.78A2.75,2.75,0,0,1,0,29.53V15c0-1.5,1.16-2.28,2.19-3S4,10.81,4,9.83v-.7a2.13,2.13,0,0,1-1.48-2v-5A2.13,2.13,0,0,1,4.63,0h12a2.13,2.13,0,0,1,2.12,2.12v5a2.13,2.13,0,0,1-1.47,2v.7c0,1,.68,1.5,1.8,2.25s2.19,1.46,2.19,3V27.73a.7.7,0,0,1-1.4,0V15c0-.71-.59-1.15-1.56-1.79s-2.42-1.61-2.42-3.41v-.6H5.38v.6c0,1.8-1.34,2.69-2.42,3.41S1.4,14.32,1.4,15v1.22H13a.7.7,0,0,1,.7.7v10a.7.7,0,0,1-.7.7H1.4v1.9a1.35,1.35,0,0,0,1.38,1.31H17.35a.7.7,0,0,1,0,1.4Zm-15.95-6H12.27V17.66H1.4ZM4.63,1.4a.72.72,0,0,0-.72.72v5a.73.73,0,0,0,.72.72h12a.72.72,0,0,0,.72-.72v-5a.72.72,0,0,0-.72-.72Zm26,26.1a3.42,3.42,0,0,1-2.19-.79l-3.83-3.2A3.43,3.43,0,0,1,29,18.24l3.83,3.19a3.43,3.43,0,0,1-2.2,6.06Zm-3.82-8.65h-.19a2,2,0,0,0-1.12,3.58l3.83,3.2a2,2,0,0,0,2.6-3.12l-3.83-3.19h0A2,2,0,0,0,26.82,18.85Z"/><rect class="cls-1" x="25.7" y="21.77" width="6.06" height="1.4" transform="translate(-6.93 30.16) rotate(-50.2)"/><path class="cls-1" d="M25.1,34.45h-5a3.43,3.43,0,0,1,0-6.86h5a3.43,3.43,0,0,1,0,6.86Zm-5-5.46a2,2,0,0,0,0,4.06h5a2,2,0,0,0,0-4.06Z"/><rect class="cls-1" x="21.9" y="27.99" width="1.4" height="6.06"/></g></g></svg>