<svg xmlns="http://www.w3.org/2000/svg" viewBox="0 0 32.03 35.3"><defs><style>.cls-1{fill:#444;}</style></defs><title>becoming_an_owner</title><g id="Layer_2" data-name="Layer 2"><g id="Layer_1-2" data-name="Layer 1"><path class="cls-1" d="M11.89,26.93a.7.7,0,0,1-.7-.65,4.27,4.27,0,0,0-2-3.77c-1.38-1.07-2.94-2.28-3.23-6.75a8.37,8.37,0,0,1,2.34-6.3,10.8,10.8,0,0,1,15.55,0,8.3,8.3,0,0,1,2.31,6.28c-.31,4.34-1.82,5.54-3.15,6.6a4.67,4.67,0,0,0-1.82,2.27.7.7,0,1,1-1.32-.46,6,6,0,0,1,2.27-2.91c1.21-1,2.36-1.88,2.63-5.61a6.92,6.92,0,0,0-1.94-5.22,9.4,9.4,0,0,0-13.5,0,7,7,0,0,0-2,5.25c.25,3.84,1.44,4.76,2.7,5.73a5.58,5.58,0,0,1,2.58,4.79.7.7,0,0,1-.65.74Z"/><path class="cls-1" d="M12,33.7a.7.7,0,0,1-.18-1.38l8.47-2.22a.7.7,0,1,1,.36,1.35l-8.47,2.22Z"/><path class="cls-1" d="M12,30.51a.7.7,0,0,1-.18-1.38l8.47-2.22a.7.7,0,1,1,.36,1.35l-8.47,2.22Z"/><path class="cls-1" d="M12,27.32a.7.7,0,0,1-.18-1.38l8.47-2.22a.7.7,0,1,1,.36,1.35l-8.47,2.22Z"/><path class="cls-1" d="M16,35.3a3.87,3.87,0,0,1-3.08-1.45A.7.7,0,1,1,14.05,33a2.46,2.46,0,0,0,2,.9A2.16,2.16,0,0,0,18.34,32a.7.7,0,1,1,1.4,0A3.55,3.55,0,0,1,16,35.3Z"/><path class="cls-1" d="M16.31,4.25a.7.7,0,0,1-.7-.7V.7A.7.7,0,0,1,17,.7V3.55A.7.7,0,0,1,16.31,4.25Z"/><path class="cls-1" d="M24.63,7.35a.7.7,0,0,1-.5-1.2l2-2a.7.7,0,0,1,1,1l-2,2A.7.7,0,0,1,24.63,7.35Z"/><path class="cls-1" d="M31.33,16.42H28.49a.7.7,0,1,1,0-1.4h2.85a.7.7,0,0,1,0,1.4Z"/><path class="cls-1" d="M26.23,27a.7.7,0,0,1-.5-.21l-2-2a.7.7,0,1,1,1-1l2,2a.7.7,0,0,1-.5,1.2Z"/><path class="cls-1" d="M7.82,7.35a.7.7,0,0,1-.5-.21l-2-2a.7.7,0,0,1,1-1l2,2a.7.7,0,0,1-.5,1.2Z"/><path class="cls-1" d="M3.55,15.84H.7a.7.7,0,1,1,0-1.4H3.55a.7.7,0,1,1,0,1.4Z"/><path class="cls-1" d="M5.39,27a.7.7,0,0,1-.5-1.2l2-2a.7.7,0,1,1,1,1l-2,2A.7.7,0,0,1,5.39,27Z"/></g></g></svg>