<svg xmlns="http://www.w3.org/2000/svg" viewBox="0 0 33.37 33.15"><defs><style>.cls-1{fill:#444;}</style></defs><title>biotech_industry</title><g id="Layer_2" data-name="Layer 2"><g id="Layer_1-2" data-name="Layer 1"><path class="cls-1" d="M10,29.56a10,10,0,0,1-4-19.21V.7a.7.7,0,0,1,.7-.7h6.51a.7.7,0,0,1,.7.7v9.65a10,10,0,0,1-4,19.21ZM7.45,1.4v9.42a.7.7,0,0,1-.46.66,8.61,8.61,0,1,0,6,0,.7.7,0,0,1-.46-.66V1.4Z"/><path class="cls-1" d="M14.62,1.4H5.41a.7.7,0,0,1,0-1.4h9.21a.7.7,0,0,1,0,1.4Z"/><path class="cls-1" d="M17.88,15.28H2.14a.7.7,0,0,1,0-1.4H17.88a.7.7,0,0,1,0,1.4Z"/><path class="cls-1" d="M29.76,33.15H14a4,4,0,0,1-3.07-2.22,3,3,0,0,1-.24-3c.83-1.37,1.68-2.81,2.53-4.28,1.57-2.7,3.2-5.48,4.85-7.92v-9a.7.7,0,0,1,.7-.7H25a.7.7,0,0,1,.7.7v9c1.66,2.43,3.28,5.23,4.86,7.93.85,1.46,1.69,2.91,2.52,4.27a3,3,0,0,1-.25,3A4,4,0,0,1,29.76,33.15ZM19.46,7.47v8.47a.7.7,0,0,1-.12.4c-1.67,2.43-3.32,5.27-4.92,8-.86,1.47-1.71,2.93-2.55,4.3a1.79,1.79,0,0,0,.27,1.6A2.71,2.71,0,0,0,14,31.75H29.76a2.71,2.71,0,0,0,1.85-1.51,1.79,1.79,0,0,0,.27-1.59c-.83-1.37-1.68-2.82-2.54-4.29-1.6-2.75-3.26-5.6-4.93-8a.7.7,0,0,1-.12-.4V7.47Z"/><path class="cls-1" d="M26.12,7.47H17.63a.7.7,0,0,1,0-1.4h8.48a.7.7,0,0,1,0,1.4Z"/><path class="cls-1" d="M28.45,22.14H15.66a.7.7,0,1,1,0-1.4H28.45a.7.7,0,1,1,0,1.4Z"/></g></g></svg>