<svg xmlns="http://www.w3.org/2000/svg" viewBox="0 0 34.29 33.15"><defs><style>.cls-1{fill:#444;}</style></defs><title>bond_investing</title><g id="Layer_2" data-name="Layer 2"><g id="Layer_1-2" data-name="Layer 1"><path class="cls-1" d="M12.37,25.42a.7.7,0,0,1-.39-.12L.31,17.58a.7.7,0,0,1,.77-1.17l11.29,7.48,7.34-4.65a.7.7,0,0,1,.75,1.18l-7.73,4.89A.7.7,0,0,1,12.37,25.42Z"/><path class="cls-1" d="M12.37,21.56a.7.7,0,0,1-.39-.12L.31,13.72a.7.7,0,0,1,0-1.18L8.22,7.72a.7.7,0,0,1,.73,1.2L2,13.16,12.38,20l7.34-4.65a.7.7,0,0,1,.75,1.18l-7.73,4.89A.7.7,0,0,1,12.37,21.56Z"/><path class="cls-1" d="M12.37,33.15A.7.7,0,0,1,12,33L.31,25.31a.7.7,0,0,1,.77-1.17l11.29,7.48L19.72,27a.7.7,0,0,1,.75,1.18L12.74,33A.7.7,0,0,1,12.37,33.15Z"/><path class="cls-1" d="M12.37,29.28a.7.7,0,0,1-.39-.12L.31,21.44a.7.7,0,0,1,.77-1.17l11.29,7.48,7.34-4.65a.7.7,0,0,1,.75,1.18l-7.73,4.89A.7.7,0,0,1,12.37,29.28Z"/><path class="cls-1" d="M26.48,16.75a.7.7,0,0,1-.39-1.28l7.1-4.71A.7.7,0,1,1,34,11.92l-7.1,4.71A.7.7,0,0,1,26.48,16.75Z"/><path class="cls-1" d="M26.48,12.81a.7.7,0,0,1-.37-1.29l5.79-3.66L21.31,1.52,14.94,5.45a.7.7,0,0,1-.74-1.19L20.94.1a.7.7,0,0,1,.73,0L33.59,7.24a.7.7,0,0,1,0,1.19L26.86,12.7A.7.7,0,0,1,26.48,12.81Z"/><path class="cls-1" d="M26.48,20.14a.7.7,0,0,1-.39-1.28l7.1-4.71A.7.7,0,1,1,34,15.31L26.87,20A.7.7,0,0,1,26.48,20.14Z"/><path class="cls-1" d="M26.48,23.35a.7.7,0,0,1-.39-1.28l7.1-4.71A.7.7,0,1,1,34,18.52l-7.1,4.71A.7.7,0,0,1,26.48,23.35Z"/><path class="cls-1" d="M20.44,29a.7.7,0,0,1-.7-.69l-.17-12.62L7.37,8.31a.7.7,0,0,1,0-1.2l5.74-3.39a.7.7,0,0,1,.72,0l13,7.79a.7.7,0,0,1,.34.6V24a.7.7,0,0,1-.29.57l-6,4.38A.69.69,0,0,1,20.44,29ZM9.1,7.72l11.53,7a.7.7,0,0,1,.34.59L21.12,27l4.66-3.38V12.5L13.47,5.14Z"/></g></g></svg>