<svg xmlns="http://www.w3.org/2000/svg" viewBox="0 0 35.13 32.7"><defs><style>.cls-1{fill:#444;}</style></defs><title>book_publishing</title><g id="Layer_2" data-name="Layer 2"><g id="Layer_1-2" data-name="Layer 1"><path class="cls-1" d="M8.21,32.7H1.76A1.76,1.76,0,0,1,0,30.94V2.46A1.76,1.76,0,0,1,1.76.7H8.21A1.76,1.76,0,0,1,10,2.46V30.94A1.76,1.76,0,0,1,8.21,32.7ZM1.76,2.1a.37.37,0,0,0-.36.36V30.94a.37.37,0,0,0,.36.36H8.21a.37.37,0,0,0,.36-.36V2.46a.37.37,0,0,0-.36-.36Z"/><path class="cls-1" d="M7,8.45H3A.7.7,0,0,1,3,7H7a.7.7,0,1,1,0,1.4Z"/><path class="cls-1" d="M7,5.65H3a.7.7,0,0,1,0-1.4H7a.7.7,0,1,1,0,1.4Z"/><path class="cls-1" d="M7,28.49H3a.7.7,0,0,1,0-1.4H7a.7.7,0,0,1,0,1.4Z"/><path class="cls-1" d="M7,25.69H3a.7.7,0,0,1,0-1.4H7a.7.7,0,0,1,0,1.4Z"/><path class="cls-1" d="M16.9,32.7H10.46a1.76,1.76,0,0,1-1.76-1.76V2.46A1.76,1.76,0,0,1,10.46.7H16.9a1.76,1.76,0,0,1,1.76,1.76V30.94A1.76,1.76,0,0,1,16.9,32.7ZM10.46,2.1a.37.37,0,0,0-.36.36V30.94a.37.37,0,0,0,.36.36H16.9a.37.37,0,0,0,.36-.36V2.46a.37.37,0,0,0-.36-.36Z"/><path class="cls-1" d="M15.7,8.45h-4a.7.7,0,0,1,0-1.4h4a.7.7,0,0,1,0,1.4Z"/><path class="cls-1" d="M15.7,5.65h-4a.7.7,0,0,1,0-1.4h4a.7.7,0,0,1,0,1.4Z"/><path class="cls-1" d="M15.7,28.49h-4a.7.7,0,0,1,0-1.4h4a.7.7,0,0,1,0,1.4Z"/><path class="cls-1" d="M15.7,25.69h-4a.7.7,0,0,1,0-1.4h4a.7.7,0,0,1,0,1.4Z"/><path class="cls-1" d="M27.15,32.7a1.77,1.77,0,0,1-1.7-1.31L18.07,3.89a1.77,1.77,0,0,1,1.25-2.16h0L25.54.06a1.73,1.73,0,0,1,1.34.18,1.75,1.75,0,0,1,.82,1.07l7.37,27.51A1.77,1.77,0,0,1,33.83,31L27.6,32.64A1.74,1.74,0,0,1,27.15,32.7ZM19.68,3.08a.36.36,0,0,0-.22.17.36.36,0,0,0,0,.27L26.8,31a.36.36,0,0,0,.44.26l6.22-1.67a.37.37,0,0,0,.22-.17.36.36,0,0,0,0-.27L26.35,1.67a.36.36,0,0,0-.17-.22.37.37,0,0,0-.27,0Z"/><path class="cls-1" d="M22.3,8.93a.7.7,0,0,1-.18-1.38L26,6.5a.7.7,0,1,1,.36,1.35l-3.91,1Z"/><path class="cls-1" d="M21.58,6.22a.7.7,0,0,1-.18-1.38l3.91-1a.7.7,0,1,1,.36,1.35l-3.91,1Z"/><path class="cls-1" d="M27.49,28.29a.7.7,0,0,1-.18-1.38l3.91-1a.7.7,0,1,1,.36,1.35l-3.91,1Z"/><path class="cls-1" d="M26.76,25.58a.7.7,0,0,1-.18-1.38l3.91-1a.7.7,0,1,1,.36,1.35l-3.91,1Z"/></g></g></svg>