<?xml version="1.0" encoding="utf-8"?>
<!-- Generator: Adobe Illustrator 24.1.0, SVG Export Plug-In . SVG Version: 6.00 Build 0)  -->
<svg version="1.1" id="Laag_1" xmlns="http://www.w3.org/2000/svg" xmlns:xlink="http://www.w3.org/1999/xlink" x="0px" y="0px"
	 viewBox="0 0 400 400" style="enable-background:new 0 0 400 400;" xml:space="preserve">
<g>
	<path d="M380,374.4H20v-42.5c0-20.7,16.8-37.5,37.5-37.5h285c20.7,0,37.5,16.8,37.5,37.5V374.4z M35,359.4h330v-27.5
		c0-12.4-10.1-22.5-22.5-22.5h-285c-12.4,0-22.5,10.1-22.5,22.5V359.4z"/>
	<path d="M295,270.2H104.4c-4.1,0-7.5-3.4-7.5-7.5s3.4-7.5,7.5-7.5H295c4.1,0,7.5,3.4,7.5,7.5S299.1,270.2,295,270.2z"/>
	<path d="M340,309.4c-4.1,0-7.5-3.4-7.5-7.5c0-3.3,2.1-6,5-7.1V129.4H320c-9.6,0-17.5,7.9-17.5,17.5v115.8c0,4.1-3.4,7.5-7.5,7.5
		s-7.5-3.4-7.5-7.5V146.9c0-17.9,14.6-32.5,32.5-32.5h20c6.9,0,12.5,5.6,12.5,12.5v170C352.5,303.8,346.9,309.4,340,309.4z"/>
	<path d="M199.7,231.1C143,231.1,96.9,185,96.9,128.3S143,25.6,199.7,25.6c56.7,0,102.8,46.1,102.8,102.8S256.4,231.1,199.7,231.1z
		 M199.7,40.6c-48.4,0-87.8,39.4-87.8,87.8s39.4,87.8,87.8,87.8s87.8-39.4,87.8-87.8S248.1,40.6,199.7,40.6z"/>
	<path d="M200,170.8c-23.4,0-42.5-19.1-42.5-42.5s19.1-42.5,42.5-42.5s42.5,19.1,42.5,42.5S223.4,170.8,200,170.8z M200,100.8
		c-15.2,0-27.5,12.3-27.5,27.5s12.3,27.5,27.5,27.5c15.2,0,27.5-12.3,27.5-27.5S215.2,100.8,200,100.8z"/>
	<path d="M59.4,309.4c-6.9,0-12.5-5.6-12.5-12.5v-170c0-6.9,5.6-12.5,12.5-12.5h20c17.9,0,32.5,14.6,32.5,32.5v115.8
		c0,4.1-3.4,7.5-7.5,7.5s-7.5-3.4-7.5-7.5V146.9c0-9.6-7.9-17.5-17.5-17.5H61.9v165.4c2.9,1,5,3.8,5,7.1
		C66.9,306.1,63.6,309.4,59.4,309.4z"/>
</g>
</svg>
