<svg xmlns="http://www.w3.org/2000/svg" viewBox="0 0 34.4 27.73"><defs><style>.cls-1{fill:#444;}</style></defs><title>car_insurance_loans</title><g id="Layer_2" data-name="Layer 2"><g id="Layer_1-2" data-name="Layer 1"><path class="cls-1" d="M32.56,27.73H27.39a.7.7,0,0,1-.7-.7V22.2a.7.7,0,1,1,1.4,0v4.13h3.77V13l-2.79-2a.7.7,0,0,1-.26-.37L26.08,1.4H8.32L5.59,10.65a.7.7,0,0,1-.26.37L2.54,13V26.33H6.31V22.2a.7.7,0,1,1,1.4,0V27a.7.7,0,0,1-.7.7H1.84a.7.7,0,0,1-.7-.7V12.67a.7.7,0,0,1,.29-.57L4.32,10,7.12.5A.7.7,0,0,1,7.79,0H26.61a.7.7,0,0,1,.67.5L30.08,10,33,12.1a.7.7,0,0,1,.29.57V27A.7.7,0,0,1,32.56,27.73Z"/><path class="cls-1" d="M3.29,12.32H.7a.7.7,0,0,1-.7-.7V7.84a.7.7,0,0,1,.7-.7H5.31a.7.7,0,0,1,0,1.4H1.4v2.39H3.29a.7.7,0,0,1,0,1.4Z"/><path class="cls-1" d="M7.79,19.35a2.84,2.84,0,1,1,2.84-2.84A2.85,2.85,0,0,1,7.79,19.35Zm0-4.28a1.44,1.44,0,1,0,1.44,1.44A1.44,1.44,0,0,0,7.79,15.07Z"/><path class="cls-1" d="M33.7,12.32H31.11a.7.7,0,1,1,0-1.4H33V8.54H29.08a.7.7,0,0,1,0-1.4H33.7a.7.7,0,0,1,.7.7v3.79A.7.7,0,0,1,33.7,12.32Z"/><path class="cls-1" d="M26.61,19.35a2.84,2.84,0,1,1,2.84-2.84A2.85,2.85,0,0,1,26.61,19.35Zm0-4.28A1.44,1.44,0,1,0,28,16.51,1.44,1.44,0,0,0,26.61,15.07Z"/><path class="cls-1" d="M21.11,17H13.4a.7.7,0,0,1,0-1.4h7.7a.7.7,0,0,1,0,1.4Z"/><path class="cls-1" d="M32.16,22.51H1.84a.7.7,0,1,1,0-1.4H32.16a.7.7,0,1,1,0,1.4Z"/><path class="cls-1" d="M29.48,11.28H4.92a.7.7,0,0,1,0-1.4H29.48a.7.7,0,0,1,0,1.4Z"/></g></g></svg>