<?xml version="1.0" encoding="utf-8"?>
<!-- Generator: Adobe Illustrator 24.1.0, SVG Export Plug-In . SVG Version: 6.00 Build 0)  -->
<svg version="1.1" id="Laag_1" xmlns="http://www.w3.org/2000/svg" xmlns:xlink="http://www.w3.org/1999/xlink" x="0px" y="0px"
	 viewBox="0 0 400 400" style="enable-background:new 0 0 400 400;" xml:space="preserve">
<style type="text/css">
	.st0{fill:none;stroke:#000000;stroke-width:15;stroke-miterlimit:10;}
</style>
<path d="M367.4,380h-335c-6.9,0-12.5-5.6-12.5-12.5v-335c0-6.9,5.6-12.5,12.5-12.5h335c6.9,0,12.5,5.6,12.5,12.5v335
	C379.9,374.4,374.3,380,367.4,380z M34.9,365h330V35h-330V365z"/>
<path d="M207.4,372.5l-15,0l0.2-121.4c0-11.6-4.5-22.6-12.7-30.8c-8.2-8.2-19.2-12.8-30.8-12.8H27.6v-15H149
	c15.6,0,30.4,6.1,41.4,17.2s17.1,25.8,17.1,41.4L207.4,372.5z"/>
<path class="st0" d="M27.6,249.6"/>
<rect x="27.6" y="307.7" width="172.3" height="15"/>
<path class="st0" d="M200,251.1"/>
<rect x="27.6" y="248.1" width="172.5" height="15"/>
<rect x="248.6" y="200.2" width="15" height="172.3"/>
<rect x="308.2" y="200.7" width="15" height="171.8"/>
<rect x="136.7" y="27.5" transform="matrix(1 -5.361110e-03 5.361110e-03 1 -0.6078 0.7747)" width="15" height="172.5"/>
<rect x="76" y="27.5" width="15" height="173.2"/>
<path d="M372.6,207.5H251.2c-15.6,0-30.4-6.1-41.4-17.2c-11.1-11.1-17.1-25.8-17.1-41.4l0.2-121.4l15,0l-0.2,121.4
	c0,11.6,4.5,22.6,12.7,30.8c8.2,8.2,19.2,12.8,30.8,12.8h121.4V207.5z"/>
<rect x="200.3" y="77.3" width="172.3" height="15"/>
<rect x="200.1" y="136.9" width="172.5" height="15"/>
</svg>
