<?xml version="1.0" encoding="utf-8"?>
<!-- Generator: Adobe Illustrator 24.1.0, SVG Export Plug-In . SVG Version: 6.00 Build 0)  -->
<svg version="1.1" id="Laag_1" xmlns="http://www.w3.org/2000/svg" xmlns:xlink="http://www.w3.org/1999/xlink" x="0px" y="0px"
	 viewBox="0 0 400 400" style="enable-background:new 0 0 400 400;" xml:space="preserve">
<g>
	<path d="M217.5,328.8c-3.4,0-6.5-1.3-8.9-3.7L74.9,191.4c-4.9-4.9-4.9-12.9,0-17.8l72.2-72.2c4.9-4.9,12.9-4.9,17.8,0l52.4,52.4
		l-10.6,10.6l-50.7-50.7l-68.9,68.9l130.3,130.3l68.9-68.9l-50.7-50.7l10.6-10.6l52.4,52.4c2.4,2.4,3.7,5.5,3.7,8.9
		s-1.3,6.5-3.7,8.9l-72.2,72.2C224,327.4,220.9,328.8,217.5,328.8z"/>
	<path d="M287.9,240.3c-3.2,0-6.5-1.2-8.9-3.7l10.6-10.6c-0.9-0.9-2.4-0.9-3.4,0l77.8-77.8L251.8,36L174,113.8
		c0.4-0.4,0.7-1.1,0.7-1.7s-0.3-1.2-0.7-1.7L163.4,121c-2.4-2.4-3.7-5.5-3.7-8.9s1.3-6.5,3.7-8.9l79.5-79.5c2.4-2.4,5.5-3.7,8.9-3.7
		c3.4,0,6.5,1.3,8.9,3.7l115.6,115.6c4.9,4.9,4.9,12.9,0,17.8l-79.5,79.5C294.4,239,291.2,240.3,287.9,240.3z"/>
	<path d="M123.7,363.8c-3.3,0-6.5-1.3-8.9-3.7l-74.9-74.9c-3.4-3.4-4.6-8.6-3-13.1L69.6,180c1.4-3.9,5.7-5.9,9.6-4.6
		c3.9,1.4,5.9,5.7,4.6,9.6l-32.1,90.7l72.8,72.8l90.7-32.1c3.9-1.4,8.2,0.7,9.6,4.6c1.4,3.9-0.7,8.2-4.6,9.6l-92.1,32.7
		C126.5,363.6,125.1,363.8,123.7,363.8z"/>
	<path d="M77.6,367.7c-3.3,0-6.5-1.3-8.8-3.7l0,0c0,0,0,0,0,0l-32.7-32.7c-2.4-2.4-3.7-5.5-3.7-8.8s1.3-6.5,3.7-8.8l18.2-18.2
		c4.9-4.9,12.8-4.9,17.7,0l32.7,32.7c4.9,4.9,4.9,12.8,0,17.7l-18.2,18.2C84,366.4,80.9,367.7,77.6,367.7z M79.3,353.4L79.3,353.4
		C79.3,353.5,79.3,353.5,79.3,353.4z M48.4,322.6l29.1,29.1L92.2,337l-29.1-29.1L48.4,322.6z"/>
	<path d="M27.5,380c-1.9,0-3.8-0.7-5.3-2.2c-2.9-2.9-2.9-7.7,0-10.6l28.9-28.9c2.9-2.9,7.7-2.9,10.6,0c2.9,2.9,2.9,7.7,0,10.6
		l-28.9,28.9C31.3,379.3,29.4,380,27.5,380z"/>
	<path d="M194.7,233.4c-7,0-14.1-2.7-19.4-8l0,0l-0.6-0.6c-10.7-10.7-10.7-28.2,0-38.9l54.6-54.6c4.9-4.9,12.8-4.9,17.7,0l21.8,21.8
		c4.9,4.9,4.9,12.8,0,17.7l-54.6,54.6C208.8,230.7,201.7,233.4,194.7,233.4z M185.8,214.8c2.4,2.4,5.5,3.7,8.8,3.7
		c3.3,0,6.5-1.3,8.8-3.7l52.8-52.8L238,143.7l-52.8,52.8c-4.9,4.9-4.9,12.8,0,17.7L185.8,214.8z"/>
	<rect x="239.6" y="109.8" transform="matrix(0.7071 -0.7071 0.7071 0.7071 -0.121 234.2752)" width="86.3" height="15"/>
</g>
</svg>
