<?xml version="1.0" encoding="utf-8"?>
<!-- Generator: Adobe Illustrator 24.1.0, SVG Export Plug-In . SVG Version: 6.00 Build 0)  -->
<svg version="1.1" id="Laag_1" xmlns="http://www.w3.org/2000/svg" xmlns:xlink="http://www.w3.org/1999/xlink" x="0px" y="0px"
	 viewBox="0 0 400 400" style="enable-background:new 0 0 400 400;" xml:space="preserve">
<g>
	<path d="M329.4,166.4c-3.3,0-6.5-1.3-8.8-3.7l0,0l-83.2-83.2c-4.9-4.9-4.9-12.8,0-17.7l38.1-38.1c2.4-2.4,5.5-3.7,8.8-3.7
		s6.5,1.3,8.8,3.7l83.2,83.2c2.4,2.4,3.7,5.5,3.7,8.8c0,3.3-1.3,6.5-3.7,8.8l-38.1,38.1C335.9,165.1,332.7,166.4,329.4,166.4z
		 M331.1,152.1L331.1,152.1L331.1,152.1z M249.7,70.6l79.7,79.7l34.5-34.5l-79.7-79.7L249.7,70.6z"/>
	<path d="M303.3,237.6c-3.3,0-6.5-1.3-8.8-3.7L166.1,105.5c-2.4-2.4-3.7-5.5-3.7-8.8s1.3-6.5,3.7-8.8l41.6-41.6
		c2.4-2.4,5.5-3.7,8.8-3.7s6.5,1.3,8.8,3.7l128.4,128.4c2.4,2.4,3.7,5.5,3.7,8.8s-1.3,6.5-3.7,8.8l-41.6,41.6
		C309.8,236.3,306.7,237.6,303.3,237.6z M178.5,96.7l124.9,124.9l38-38L216.5,58.6L178.5,96.7z"/>
	<path d="M163.6,321.7c-3.3,0-6.5-1.3-8.8-3.7L82,245.2c-2.4-2.4-3.7-5.5-3.7-8.8s1.3-6.5,3.7-8.8l104.8-104.8
		c2.4-2.4,5.5-3.7,8.8-3.7s6.5,1.3,8.8,3.7l72.8,72.8c4.9,4.9,4.9,12.8,0,17.7L172.5,318C170.1,320.4,167,321.7,163.6,321.7z
		 M94.4,236.4l69.3,69.3l101.3-101.3l-69.3-69.3L94.4,236.4z"/>
	<path d="M130.6,372c-3.3,0-6.5-1.3-8.8-3.7l-90.2-90.2c-2.4-2.4-3.7-5.5-3.7-8.8s1.3-6.5,3.7-8.8l34.6-34.6
		c2.4-2.4,5.5-3.7,8.8-3.7s6.5,1.3,8.8,3.7l90.2,90.2c4.9,4.9,4.9,12.8,0,17.7l-34.6,34.6C137.1,370.7,134,372,130.6,372z M44,269.4
		l86.6,86.6l31.1-31.1l-86.6-86.6L44,269.4z"/>
	<path d="M63.7,380c-3.3,0-6.5-1.3-8.8-3.7l-31.1-31.1c-2.4-2.4-3.7-5.5-3.7-8.8s1.3-6.5,3.7-8.8l30.4-30.4c4.9-4.9,12.8-4.9,17.7,0
		l31.1,31.1c2.4,2.4,3.7,5.5,3.7,8.8s-1.3,6.5-3.7,8.8l-30.4,30.4C70.2,378.7,67,380,63.7,380z M36.1,336.3l27.6,27.6l26.8-26.8
		l-27.6-27.6L36.1,336.3z"/>
	<path d="M308.5,99c-1.9,0-3.8-0.7-5.3-2.2c-2.9-2.9-2.9-7.7,0-10.6l20.8-20.8c2.9-2.9,7.7-2.9,10.6,0c2.9,2.9,2.9,7.7,0,10.6
		l-20.8,20.8C312.4,98.2,310.5,99,308.5,99z"/>
</g>
</svg>
