<?xml version="1.0" encoding="utf-8"?>
<!-- Generator: Adobe Illustrator 24.1.0, SVG Export Plug-In . SVG Version: 6.00 Build 0)  -->
<svg version="1.1" id="Laag_1" xmlns="http://www.w3.org/2000/svg" xmlns:xlink="http://www.w3.org/1999/xlink" x="0px" y="0px"
	 viewBox="0 0 400 400" style="enable-background:new 0 0 400 400;" xml:space="preserve">
<path d="M295.4,162.2c-7.7-66-55.4-89.1-93.9-88.7c-23.5,0.2-46,8.4-63.5,23.1c-19.2,16.1-30.8,38.8-33.4,65.5l-14.9-1.5
	c3-30.7,16.4-56.8,38.7-75.5c20.1-16.9,46.1-26.3,73-26.6c26.3-0.2,51.3,8.5,70.4,24.7c21.4,18.2,34.7,44.9,38.5,77.3L295.4,162.2z"
	/>
<path d="M348.7,161.3h-15c0-39.4-14-72.3-40.6-95C269.5,46.1,237.3,35,202.4,35c-35,0-69.1,11.7-93.5,32.1
	c-27.6,23-42.2,55.6-42.2,94.2h-15c0-43.2,16.5-79.8,47.6-105.7C126.8,32.6,163.4,20,202.4,20c38.4,0,74.1,12.4,100.4,34.9
	C332.9,80.5,348.7,117.3,348.7,161.3z"/>
<path d="M135.5,361.8c-18.7,0-32.6-4.3-42.2-12.9c-17.6-15.7-17.6-42.4-17.5-68.1l0-3.9h15l0,3.9c0,23.5-0.1,45.7,12.5,56.9
	c9.2,8.2,25,10.8,48.4,8.1l1.7,14.9C147,361.4,141,361.8,135.5,361.8z"/>
<path d="M225.2,380h-49.9c-14.8,0-26.8-12-26.8-26.8s12-26.8,26.8-26.8h49.9c14.8,0,26.8,12,26.8,26.8S240,380,225.2,380z
	 M175.3,341.4c-6.5,0-11.8,5.3-11.8,11.8s5.3,11.8,11.8,11.8h49.9c6.5,0,11.8-5.3,11.8-11.8s-5.3-11.8-11.8-11.8H175.3z"/>
<path d="M334.2,286.8h-25c-15.2,0-27.5-12.3-27.5-27.5v-78c0-15.2,12.3-27.5,27.5-27.5h25c15.2,0,27.5,12.3,27.5,27.5v78
	C361.7,274.5,349.3,286.8,334.2,286.8z M309.1,168.8c-6.9,0-12.5,5.6-12.5,12.5v78c0,6.9,5.6,12.5,12.5,12.5h25
	c6.9,0,12.5-5.6,12.5-12.5v-78c0-6.9-5.6-12.5-12.5-12.5H309.1z"/>
<path d="M91,286.8h-25c-15.2,0-27.5-12.3-27.5-27.5v-78c0-15.2,12.3-27.5,27.5-27.5h25c15.2,0,27.5,12.3,27.5,27.5v78
	C118.5,274.5,106.2,286.8,91,286.8z M65.9,168.8c-6.9,0-12.5,5.6-12.5,12.5v78c0,6.9,5.6,12.5,12.5,12.5h25
	c6.9,0,12.5-5.6,12.5-12.5v-78c0-6.9-5.6-12.5-12.5-12.5H65.9z"/>
</svg>
