<svg xmlns="http://www.w3.org/2000/svg" viewBox="0 0 34.17 32.48"><defs><style>.cls-1{fill:#444;}</style></defs><title>commodities</title><g id="Layer_2" data-name="Layer 2"><g id="Layer_1-2" data-name="Layer 1"><g id="Layer0_4_MEMBER_0_MEMBER_0_1_STROKES" data-name="Layer0 4 MEMBER 0 MEMBER 0 1 STROKES"><path class="cls-1" d="M23.43,32.48a.71.71,0,0,1-.21,0,.7.7,0,0,1-.45-.88c1.39-4.33,4.05-7.41,8.91-10.27a.7.7,0,1,1,.71,1.21c-4.54,2.68-7,5.52-8.29,9.49A.7.7,0,0,1,23.43,32.48Zm-7.19-1.56a.7.7,0,0,1-.59-1.08c3.51-5.54,7.16-7.75,12.28-9.69a.7.7,0,0,1,.5,1.31c-5,1.88-8.27,3.89-11.59,9.13A.7.7,0,0,1,16.24,30.91ZM8.93,29.66a.7.7,0,0,1-.53-1.16c4.51-5.24,10.52-8.81,15.69-9.33a.69.69,0,0,1,.77.63.7.7,0,0,1-.63.77c-4.82.49-10.48,3.88-14.77,8.86A.7.7,0,0,1,8.93,29.66Zm-6-1.5A.7.7,0,0,1,2.38,27c3.42-4.1,8.47-6.77,15.9-8.42a.7.7,0,0,1,.3,1.37c-7.11,1.58-11.92,4.1-15.13,7.95A.7.7,0,0,1,2.92,28.16Z"/></g><g id="Layer0_4_MEMBER_0_MEMBER_1_1_STROKES" data-name="Layer0 4 MEMBER 0 MEMBER 1 1 STROKES"><path class="cls-1" d="M33.47,23.1a.69.69,0,0,1-.24,0C24.89,20,16.91,18.74.81,21.29a.7.7,0,0,1-.22-1.38c16.41-2.6,24.57-1.3,33.12,1.83a.7.7,0,0,1-.24,1.36Z"/></g><g id="Layer0_4_MEMBER_0_MEMBER_2_1_STROKES" data-name="Layer0 4 MEMBER 0 MEMBER 2 1 STROKES"><path class="cls-1" d="M3.57,20.57a.7.7,0,0,1-.7-.7V3.19A.7.7,0,0,1,3,2.79C4.32.94,5.7,0,7.11,0h0C8.53,0,9.9.94,11.21,2.79a.7.7,0,0,1,.13.4V9.61a.7.7,0,1,1-1.4,0V5.91H4.27v14A.7.7,0,0,1,3.57,20.57Zm.7-16.05H9.94V3.42C9,2.08,8,1.4,7.11,1.4h0c-.89,0-1.85.68-2.84,2Z"/></g><g id="Layer0_4_MEMBER_0_MEMBER_3_1_STROKES" data-name="Layer0 4 MEMBER 0 MEMBER 3 1 STROKES"><path class="cls-1" d="M22.24,19.72a.7.7,0,0,1-.7-.7V13.3H8.93V19a.7.7,0,0,1-1.4,0V12.6h0a.7.7,0,0,1,.16-.44l2.37-3a.7.7,0,0,1,.55-.26h9.26a.7.7,0,0,1,.55.26l2.37,3a.7.7,0,0,1,.16.44h0V19A.7.7,0,0,1,22.24,19.72ZM9.69,11.9H20.78l-1.25-1.56H10.94Zm9.59,4.33h-2.2a.7.7,0,1,1,0-1.4h2.2a.7.7,0,1,1,0,1.4Zm-6,0h-2.2a.7.7,0,0,1,0-1.4h2.2a.7.7,0,0,1,0,1.4Z"/></g><g id="Layer0_4_MEMBER_1_1_STROKES" data-name="Layer0 4 MEMBER 1 1 STROKES"><path class="cls-1" d="M29.16,20.69a.7.7,0,0,1-.7-.7v-1.5c-1.31-.33-2.67-1.32-2.84-4a15.86,15.86,0,0,1,3-8.45.7.7,0,0,1,.57-.3h0a.7.7,0,0,1,.57.3,15.72,15.72,0,0,1,3,8.37c-.2,2.72-1.56,3.72-2.87,4V20A.7.7,0,0,1,29.16,20.69Zm0-12.94A14.18,14.18,0,0,0,27,14.51c.14,2.12,1.2,2.57,2.14,2.69.88-.11,2-.55,2.17-2.78A14,14,0,0,0,29.16,7.75Z"/></g></g></g></svg>