<?xml version="1.0" encoding="utf-8"?>
<!-- Generator: Adobe Illustrator 24.1.0, SVG Export Plug-In . SVG Version: 6.00 Build 0)  -->
<svg version="1.1" id="Laag_1" xmlns="http://www.w3.org/2000/svg" xmlns:xlink="http://www.w3.org/1999/xlink" x="0px" y="0px"
	 viewBox="0 0 400 400" style="enable-background:new 0 0 400 400;" xml:space="preserve">
<g>
	<path d="M85,313.1c-20,0-36.2-16.3-36.2-36.2S65,240.6,85,240.6s36.2,16.3,36.2,36.2S105,313.1,85,313.1z M85,255.6
		c-11.7,0-21.2,9.5-21.2,21.2s9.5,21.2,21.2,21.2s21.2-9.5,21.2-21.2S96.7,255.6,85,255.6z"/>
	<path d="M315,313.1c-20,0-36.2-16.3-36.2-36.2s16.3-36.2,36.2-36.2s36.2,16.3,36.2,36.2S335,313.1,315,313.1z M315,255.6
		c-11.7,0-21.2,9.5-21.2,21.2s9.5,21.2,21.2,21.2s21.2-9.5,21.2-21.2S326.7,255.6,315,255.6z"/>
	<g>
		<path d="M150,370.6h-15v-7.5c0-27.6-22.4-50-50-50s-50,22.4-50,50v7.5H20v-7.5c0-35.8,29.2-65,65-65s65,29.2,65,65V370.6z"/>
		<rect x="20" y="355.6" width="130" height="15"/>
	</g>
	<g>
		<path d="M380,370.6h-15v-7.5c0-27.6-22.4-50-50-50s-50,22.4-50,50v7.5h-15v-7.5c0-35.8,29.2-65,65-65s65,29.2,65,65V370.6z"/>
		<rect x="250" y="355.6" width="130" height="15"/>
	</g>
	<path d="M200,313.1c-20,0-36.2-16.3-36.2-36.2s16.3-36.2,36.2-36.2s36.2,16.3,36.2,36.2S220,313.1,200,313.1z M200,255.6
		c-11.7,0-21.2,9.5-21.2,21.2s9.5,21.2,21.2,21.2c11.7,0,21.2-9.5,21.2-21.2S211.7,255.6,200,255.6z"/>
	<g>
		<path d="M265,370.6h-15v-7.5c0-27.6-22.4-50-50-50s-50,22.4-50,50v7.5h-15v-7.5c0-35.8,29.2-65,65-65c35.8,0,65,29.2,65,65V370.6z
			"/>
		<rect x="135" y="355.6" width="130" height="15"/>
	</g>
</g>
<g>
	<path d="M223.1,217.6c-6.3,0-12.6-1.1-18.7-3.2c-22.1-8-43.5-22-63.5-41.7c-1-0.9-25.9-25.1-34.4-59.9c-4.4-18,1.3-37.5,14.8-50.7
		c5.2-5.1,12-7.8,19.2-7.6c7.2,0.2,13.9,3.1,18.9,8.4l13.7,14.6c6.4,6.9,6.1,17.7-0.8,24.1l-9.9,9.3c-0.8,0.7-0.9,1.8-0.3,2.7
		c7.6,11.2,23.8,32.3,47,46.7c0.8,0.5,1.8,0.4,2.5-0.3l10.2-9.5c6.8-6.4,17.2-6.2,23.8,0.4l15,15.1c5.2,5.2,7.9,12.4,7.6,19.7
		c-0.3,7.3-3.7,14.2-9.4,18.9C248.6,213.2,235.9,217.6,223.1,217.6z M139.9,69.5c-3.1,0-6,1.2-8.2,3.3c-9.7,9.6-13.8,23.5-10.7,36.4
		c7.4,30.4,30,52.4,30.2,52.7c18.5,18.2,38.1,31.1,58.2,38.3c13.5,4.8,28.7,2.1,39.6-7.1c2.4-2,3.9-4.9,4-8.1c0.1-3.2-1-6.2-3.2-8.4
		l-15-15.1c-0.8-0.8-2.1-0.8-2.9-0.1l-10.2,9.5c-5.6,5.3-14.1,6.1-20.7,2.1c-25.5-15.9-43.2-38.8-51.5-51c-4.7-7-3.7-16.2,2.5-22
		l9.9-9.3c0.8-0.8,0.9-2.1,0.1-2.9l-13.7-14.6c-2.2-2.3-5.1-3.6-8.3-3.7C140.1,69.5,140,69.5,139.9,69.5z"/>
	<path d="M244.4,128.5c-4.1,0-7.5-3.4-7.5-7.5c0-19.6-16-35.6-35.6-35.6c-4.1,0-7.5-3.4-7.5-7.5s3.4-7.5,7.5-7.5
		c27.9,0,50.6,22.7,50.6,50.6C251.9,125.2,248.5,128.5,244.4,128.5z"/>
	<path d="M287.5,130.6c-4.1,0-7.5-3.4-7.5-7.5c0-43.4-35.3-78.8-78.8-78.8c-4.1,0-7.5-3.4-7.5-7.5s3.4-7.5,7.5-7.5
		c51.7,0,93.8,42.1,93.8,93.8C295,127.3,291.6,130.6,287.5,130.6z"/>
</g>
</svg>
