<svg xmlns="http://www.w3.org/2000/svg" viewBox="0 0 35.41 34.59"><defs><style>.cls-1{fill:#444;}</style></defs><title>construction</title><g id="Layer_2" data-name="Layer 2"><g id="Layer_1-2" data-name="Layer 1"><path class="cls-1" d="M8.74,34.59a.7.7,0,0,1-.7-.7V10.34a.7.7,0,1,1,1.4,0V33.89A.7.7,0,0,1,8.74,34.59Z"/><path class="cls-1" d="M13.83,34.59a.7.7,0,0,1-.7-.7V10.34a.7.7,0,1,1,1.4,0V33.89A.7.7,0,0,1,13.83,34.59Z"/><path class="cls-1" d="M13.55,34.59H8.84a.7.7,0,0,1-.48-1.21l4.45-4.17L8.36,25a.7.7,0,0,1,0-1l4.45-4.17L8.36,15.67a.7.7,0,0,1,0-1l5-4.68a.7.7,0,1,1,1,1L9.86,15.16l4.45,4.17a.7.7,0,0,1,0,1L9.86,24.52l4.45,4.17a.7.7,0,0,1,0,1L10.6,33.19h2.95a.7.7,0,0,1,0,1.4Z"/><path class="cls-1" d="M.7,11A.7.7,0,0,1,.52,9.59L6.87,7.93a.7.7,0,0,1,.36,1.35L.88,10.94Z"/><path class="cls-1" d="M16.51,6.83a.7.7,0,0,1-.18-1.38L34.53.68A.7.7,0,1,1,34.89,2L16.69,6.8Z"/><path class="cls-1" d="M29.46,10.29a.7.7,0,0,1-.7-.7V2.73a.7.7,0,1,1,1.4,0V9.58A.7.7,0,0,1,29.46,10.29Z"/><path class="cls-1" d="M14.32,11H9.06A2.2,2.2,0,0,1,6.86,8.85V5.73A2.2,2.2,0,0,1,9.06,3.53h5.26a2.2,2.2,0,0,1,2.19,2.19V8.85A2.2,2.2,0,0,1,14.32,11ZM9.06,4.93a.8.8,0,0,0-.79.79V8.85a.79.79,0,0,0,.79.79h5.26a.79.79,0,0,0,.79-.79V5.73a.8.8,0,0,0-.79-.79Z"/><path class="cls-1" d="M25.6,16.18A.7.7,0,0,1,25,15.1l4-6.33a.7.7,0,0,1,.59-.33h0a.7.7,0,0,1,.59.33l4,6.33a.7.7,0,1,1-1.18.75l-3.41-5.39-3.41,5.39A.7.7,0,0,1,25.6,16.18Z"/><path class="cls-1" d="M34.71,22.37H24.22a.7.7,0,0,1-.7-.7V16.28a.7.7,0,0,1,.7-.7H34.71a.7.7,0,0,1,.7.7v5.39A.7.7,0,0,1,34.71,22.37ZM24.92,21H34V17H24.92Z"/><path class="cls-1" d="M13.15,4.22a.7.7,0,0,1-.59-.33L11.35,2l-1.2,1.9A.7.7,0,0,1,9,3.14L10.76.3a.73.73,0,0,1,1.18,0l1.79,2.84a.7.7,0,0,1-.59,1.07Z"/></g></g></svg>