<svg xmlns="http://www.w3.org/2000/svg" viewBox="0 0 35.81 34.02"><defs><style>.cls-1{fill:#444;}</style></defs><title>credit_and_debt</title><g id="Layer_2" data-name="Layer 2"><g id="Layer_1-2" data-name="Layer 1"><path class="cls-1" d="M29.17,34h-26A3.21,3.21,0,0,1,0,30.74V15.86a3.21,3.21,0,0,1,3.13-3.28h26a3.21,3.21,0,0,1,3.13,3.28V30.74A3.21,3.21,0,0,1,29.17,34Zm-26-20A1.81,1.81,0,0,0,1.4,15.86V30.74a1.81,1.81,0,0,0,1.73,1.88h26a1.83,1.83,0,0,0,1.73-1.88V15.86A1.81,1.81,0,0,0,29.17,14Z"/><path class="cls-1" d="M9.59,30.06H4.13a.7.7,0,1,1,0-1.4H9.59a.7.7,0,1,1,0,1.4Z"/><path class="cls-1" d="M16.77,30.06H13.35a.7.7,0,1,1,0-1.4h3.42a.7.7,0,0,1,0,1.4Z"/><path class="cls-1" d="M19.95,13.91l-.19,0L3.64,9.32A.7.7,0,0,1,4,8l16.12,4.56a.7.7,0,0,1-.19,1.37Z"/><path class="cls-1" d="M34.5,13.73l-.19,0L4.66,5.3A.7.7,0,0,1,5,3.95l29.65,8.4a.7.7,0,0,1-.19,1.37Z"/><path class="cls-1" d="M33.48,17.75l-.19,0L31.8,17.3A.7.7,0,0,1,32.18,16l1.49.42a.7.7,0,0,1-.19,1.37Z"/><path class="cls-1" d="M27.19,27.11H4a.7.7,0,0,1,0-1.4H27.19a.7.7,0,1,1,0,1.4Z"/><path class="cls-1" d="M31.6,25.37l-.17,0a.7.7,0,0,1-.51-.85l3.43-13.58a1.92,1.92,0,0,0-1.23-2.31L8,1.46a1.61,1.61,0,0,0-1.25.16,1.84,1.84,0,0,0-.86,1.16L3.14,13.55a.7.7,0,0,1-1.36-.34L4.5,2.44A3.28,3.28,0,0,1,6,.41,3,3,0,0,1,8.35.11L33.5,7.26a3.31,3.31,0,0,1,2.21,4L32.28,24.84A.7.7,0,0,1,31.6,25.37Z"/><path class="cls-1" d="M12.23,22.86H5.56A1.34,1.34,0,0,1,4.23,21.5V17.68a1.34,1.34,0,0,1,1.32-1.36h6.67a1.34,1.34,0,0,1,1.32,1.36V21.5A1.34,1.34,0,0,1,12.23,22.86Zm-.08-5.17-6.6,0,.08,3.77,6.6,0Z"/></g></g></svg>