<svg width="18" height="18" viewBox="0 0 18 18" fill="none" xmlns="http://www.w3.org/2000/svg">
<path fill-rule="evenodd" clip-rule="evenodd" d="M9 0C4.02944 0 0 4.02944 0 9C0 13.9706 4.02944 18 9 18C13.9706 18 18 13.9706 18 9C18 4.02944 13.9706 0 9 0ZM8 5C8 4.44772 8.44771 4 9 4C9.55228 4 10 4.44772 10 5V9C10 9.55228 9.55228 10 9 10C8.44771 10 8 9.55228 8 9V5ZM10 13C10 13.5523 9.55228 14 9 14C8.44771 14 8 13.5523 8 13C8 12.4477 8.44771 12 9 12C9.55228 12 10 12.4477 10 13Z" fill="#E12437"/>
</svg>
