<?xml version="1.0" encoding="utf-8"?>
<!-- Generator: Adobe Illustrator 24.1.0, SVG Export Plug-In . SVG Version: 6.00 Build 0)  -->
<svg version="1.1" id="Laag_1" xmlns="http://www.w3.org/2000/svg" xmlns:xlink="http://www.w3.org/1999/xlink" x="0px" y="0px"
	 viewBox="0 0 400 400" style="enable-background:new 0 0 400 400;" xml:space="preserve">
<path d="M366.9,367.6H33.1c-7.2,0-13.1-5.8-13.1-13v-93.9c0-7.2,5.9-13,13.1-13h333.7c7.2,0,13.1,5.8,13.1,13v93.9
	C380,361.8,374.1,367.6,366.9,367.6z M35,352.6h330v-90H35V352.6z"/>
<path d="M352.5,262.6h-85c-4.1,0-7.5-3.4-7.5-7.5v-35c0-4.1,3.4-7.5,7.5-7.5h85c4.1,0,7.5,3.4,7.5,7.5v35
	C360,259.3,356.6,262.6,352.5,262.6z M275,247.6h70v-20h-70V247.6z"/>
<path d="M255.6,262.7l-80.5-0.5l-0.5-7.2l-2-36.4l-0.3-9.5c-4.6,3.6-9.4,5.9-14.4,6.6c-4.8,0.7-8.3-0.2-9.9-0.7
	c-15.7-4.5-18.4-20.3-17.6-28c1.9-21.6,7.4-48,7.6-49.1l0.1-0.7l0.3-0.6c6.4-15.8,20.9-16.4,27.9-14.4c6.6,1.5,11.1,4.6,14.2,8.1
	c6-8,13.4-13.2,21.8-15.4c10.2-2.7,19.6-0.3,25.6,2c13.6-20.1,18.6-36.4,22.7-49.5c1.7-5.5,3.3-10.7,5.3-15.5
	c3.4-8.1,8.8-11.5,12.8-12.9c9.3-3.4,18.4,0.9,19.4,1.4l0.2,0.1c13.5,7.2,15.5,19.5,14.5,25.6l-0.1,0.6
	c-12.8,52.9-42.6,91.6-50.2,100.8c-0.8,21.1,2.6,86.6,2.6,87.3L255.6,262.7z M189.2,247.2l50.6,0.3c-0.9-19.4-3.1-68.2-2.1-83.5
	l0.2-2.5l1.7-1.9c0.3-0.4,35-40.3,48.5-95.9c0.1-1.5-0.2-6.4-6.6-9.9c-1.2-0.5-4.8-1.7-7.5-0.7c-0.6,0.2-2.5,0.9-4.1,4.7
	c-1.7,4-3.2,8.7-4.8,14.1c-4.4,14.3-9.9,32.1-25.3,54.6l-0.3,0.4l-7.4,9.5l-5.7-3.6c-0.1,0-9.8-5.9-20.1-3.2
	c-6.9,1.9-12.8,7.4-17.6,16.3l-0.5,0.9L169.6,166l1.8-20.8c0-1.6-0.8-6.6-8.5-8.4l-0.5-0.1c-2.1-0.5-7-1-9.8,5
	c-0.9,4.4-5.5,27.8-7.2,46.7c-0.1,1.1-0.6,10.1,7,12.2l0.9,0.3c1.2,0.2,6.4,0.7,13.5-7.1l0.3-0.3l7.8-6.8l11.5-5.8l1.2,37.1
	L189.2,247.2z"/>
<path d="M196.2,105.7c-20.2,0-36.7-16.4-36.7-36.7s16.4-36.7,36.7-36.7s36.7,16.4,36.7,36.7S216.4,105.7,196.2,105.7z M196.2,47.4
	c-11.9,0-21.7,9.7-21.7,21.7s9.7,21.7,21.7,21.7c11.9,0,21.7-9.7,21.7-21.7S208.2,47.4,196.2,47.4z"/>
<path d="M132.5,262.6h-85c-4.1,0-7.5-3.4-7.5-7.5v-35c0-4.1,3.4-7.5,7.5-7.5h85c4.1,0,7.5,3.4,7.5,7.5v35
	C140,259.3,136.6,262.6,132.5,262.6z M55,247.6h70v-20H55V247.6z"/>
</svg>
