<?xml version="1.0" encoding="utf-8"?>
<!-- Generator: Adobe Illustrator 24.1.0, SVG Export Plug-In . SVG Version: 6.00 Build 0)  -->
<svg version="1.1" id="Laag_1" xmlns="http://www.w3.org/2000/svg" xmlns:xlink="http://www.w3.org/1999/xlink" x="0px" y="0px"
	 viewBox="0 0 400 400" style="enable-background:new 0 0 400 400;" xml:space="preserve">
<g>
	<path d="M367.5,380h-335c-6.9,0-12.5-5.6-12.5-12.5v-335C20,25.6,25.6,20,32.5,20h335c6.9,0,12.5,5.6,12.5,12.5v335
		C380,374.4,374.4,380,367.5,380z M35,365h330V35H35V365z"/>
	<path d="M181,317.5c-64.8,0-117.5-52.7-117.5-117.5c0-64.8,52.7-117.5,117.5-117.5c64.8,0,117.5,52.7,117.5,117.5
		c0,7.9-0.8,15.8-2.3,23.5c-0.8,4.1-4.8,6.7-8.8,5.9c-4.1-0.8-6.7-4.8-5.9-8.8c1.4-6.7,2.1-13.6,2.1-20.5
		c0-56.5-46-102.5-102.5-102.5S78.5,143.5,78.5,200s46,102.5,102.5,102.5c21.8,0,42.6-6.7,60.2-19.5c3.4-2.4,8-1.7,10.5,1.7
		c2.4,3.4,1.7,8-1.7,10.5C229.8,309.8,206,317.5,181,317.5z"/>
	<path d="M181,237.5c-20.7,0-37.5-16.8-37.5-37.5c0-20.7,16.8-37.5,37.5-37.5s37.5,16.8,37.5,37.5
		C218.5,220.7,201.7,237.5,181,237.5z M181,177.5c-12.4,0-22.5,10.1-22.5,22.5s10.1,22.5,22.5,22.5s22.5-10.1,22.5-22.5
		S193.4,177.5,181,177.5z"/>
	<path d="M328.8,265.4h-89.6c-4.1,0-7.5-3.4-7.5-7.5s3.4-7.5,7.5-7.5h89.6c4.1,0,7.5,3.4,7.5,7.5S333,265.4,328.8,265.4z"/>
	<path d="M330,265.4c-4.1,0-7.5-3.4-7.5-7.5V82.3c0-4.1,3.4-7.5,7.5-7.5s7.5,3.4,7.5,7.5v175.6C337.5,262,334.1,265.4,330,265.4z"/>
	<path d="M323,338h-30c-4.1,0-7.5-3.4-7.5-7.5s3.4-7.5,7.5-7.5h30c4.1,0,7.5,3.4,7.5,7.5S327.1,338,323,338z"/>
</g>
</svg>
