<?xml version="1.0" encoding="utf-8"?>
<!-- Generator: Adobe Illustrator 24.1.0, SVG Export Plug-In . SVG Version: 6.00 Build 0)  -->
<svg version="1.1" id="Laag_1" xmlns="http://www.w3.org/2000/svg" xmlns:xlink="http://www.w3.org/1999/xlink" x="0px" y="0px"
	 viewBox="0 0 400 400" style="enable-background:new 0 0 400 400;" xml:space="preserve">
<g>
	<path d="M368.1,340.3H31.9c-6.6,0-11.9-5.6-11.9-12.4V99.8c0-6.8,5.3-12.4,11.9-12.4h114.3v15H35v222.8h330V102.4H254v-15h114.1
		c6.6,0,11.9,5.6,11.9,12.4v228.1C380,334.7,374.7,340.3,368.1,340.3z"/>
	<path d="M245.7,148.9h-91c-7,0-12.5-6.4-12.5-14.6V74.4c0-8.2,5.5-14.6,12.5-14.6h91c7,0,12.5,6.4,12.5,14.6v59.9
		C258.2,142.5,252.7,148.9,245.7,148.9z M157.1,133.9h86V74.7h-86V133.9z"/>
</g>
<g>
	<path d="M280,306c-38.6,0-70-31.4-70-70c0-38.6,31.4-70,70-70s70,31.4,70,70C350,274.6,318.6,306,280,306z M280,181
		c-30.3,0-55,24.7-55,55s24.7,55,55,55s55-24.7,55-55S310.3,181,280,181z"/>
	<path d="M280,260c-13.2,0-24-10.8-24-24s10.8-24,24-24s24,10.8,24,24S293.2,260,280,260z M280,227c-5,0-9,4-9,9s4,9,9,9s9-4,9-9
		S285,227,280,227z"/>
</g>
<g>
	<path d="M120,260c-13.2,0-24-10.8-24-24s10.8-24,24-24s24,10.8,24,24S133.2,260,120,260z M120,227c-5,0-9,4-9,9s4,9,9,9s9-4,9-9
		S125,227,120,227z"/>
	<path d="M120,306c-38.6,0-70-31.4-70-70c0-38.6,31.4-70,70-70s70,31.4,70,70C190,274.6,158.6,306,120,306z M120,181
		c-30.3,0-55,24.7-55,55s24.7,55,55,55s55-24.7,55-55S150.3,181,120,181z"/>
</g>
<g>
	<path d="M110,144.1H60c-4.1,0-7.5-3.4-7.5-7.5s3.4-7.5,7.5-7.5h50c4.1,0,7.5,3.4,7.5,7.5S114.1,144.1,110,144.1z"/>
	<path d="M340,139.2h-50c-4.1,0-7.5-3.4-7.5-7.5s3.4-7.5,7.5-7.5h50c4.1,0,7.5,3.4,7.5,7.5S344.1,139.2,340,139.2z"/>
</g>
</svg>
