<?xml version="1.0" encoding="utf-8"?>
<!-- Generator: Adobe Illustrator 24.1.0, SVG Export Plug-In . SVG Version: 6.00 Build 0)  -->
<svg version="1.1" id="Laag_1" xmlns="http://www.w3.org/2000/svg" xmlns:xlink="http://www.w3.org/1999/xlink" x="0px" y="0px"
	 viewBox="0 0 400 400" style="enable-background:new 0 0 400 400;" xml:space="preserve">
<style type="text/css">
	.st0{fill:none;stroke:#000000;stroke-width:15;stroke-miterlimit:10;}
	.st1{fill:none;stroke:#000000;stroke-width:15;stroke-linecap:round;stroke-miterlimit:10;}
</style>
<path class="st0" d="M367.5,79.8h-335c-2.8,0-5,2.2-5,5v230.4c0,2.8,2.2,5,5,5h335c2.8,0,5-2.2,5-5V84.8
	C372.5,82.1,370.3,79.8,367.5,79.8z"/>
<path class="st1" d="M372.5,320.2c0,0-88.6-77.8-36.7-172.7c2.1-3.9-1.5-8.5-5.8-7.2c-9.8,2.8-21.8,7.8-30.6-4.3
	c0,0-12.7-14.3-20.8,10.2c0,0-4,16.2-12.9,14.9c0,0-6.7,2.4-12-12.3c0,0-4-19.3-11.1-16.4c0,0-8.6,1.8-12.3,17.9
	c0,0-3.4,15.1-13.8,13.2c0,0-6.5,2.4-14-16.7c0,0-6.1-18.9-13.2-17.1c0,0-7.3-0.2-8.1,17.8c-0.3,7-7.7,16.5-12.3,15.2
	c0,0-10.1-0.3-13.6-16.2c0,0-3.4-16.9-9.2-16.7c0,0-7.6,0.1-16.2,19.3c0,0-3.7,11-8.2,11c0,0-8.6,1.7-11.9-13.9
	c0,0-3.5-18.8-6.1-14.5c-7.5,12.7-10.7,17.9-15,15.8c-4.2-2-24.4-6.8-21.6-0.9c0,0,60.2,63.3-40,173.7"/>
</svg>
