<svg xmlns="http://www.w3.org/2000/svg" viewBox="0 0 34.28 30.26"><defs><style>.cls-1{fill:#444;}</style></defs><title>e-commerce</title><g id="Layer_2" data-name="Layer 2"><g id="Layer_1-2" data-name="Layer 1"><path class="cls-1" d="M15,30.26a3.61,3.61,0,1,1,3.61-3.61A3.61,3.61,0,0,1,15,30.26Zm0-5.82a2.21,2.21,0,1,0,2.21,2.21A2.21,2.21,0,0,0,15,24.45Z"/><path class="cls-1" d="M26.17,30.26a3.61,3.61,0,1,1,3.61-3.61A3.61,3.61,0,0,1,26.17,30.26Zm0-5.82a2.21,2.21,0,1,0,2.21,2.21A2.21,2.21,0,0,0,26.17,24.45Z"/><path class="cls-1" d="M30.44,19.31H12.1a.7.7,0,0,1-.67-.5L6.1,1.4H.7A.7.7,0,0,1,.7,0H6.61a.7.7,0,0,1,.67.5l5.33,17.42H30.44a.7.7,0,0,1,0,1.4Z"/><path class="cls-1" d="M32.37,14.61H11.06a.7.7,0,0,1,0-1.4H32.37a.7.7,0,0,1,0,1.4Z"/><path class="cls-1" d="M33.58,9.89H9.65a.7.7,0,1,1,0-1.4H33.58a.7.7,0,0,1,0,1.4Z"/></g></g></svg>