<svg xmlns="http://www.w3.org/2000/svg" viewBox="0 0 39.78 28.59"><defs><style>.cls-1{fill:#444;}</style></defs><title>ebay</title><g id="Layer_2" data-name="Layer 2"><g id="Layer_1-2" data-name="Layer 1"><path class="cls-1" d="M33.32,22.13H6.45A2.25,2.25,0,0,1,4.2,19.88V2.25A2.25,2.25,0,0,1,6.45,0H33.32a2.25,2.25,0,0,1,2.25,2.25V19.88A2.25,2.25,0,0,1,33.32,22.13ZM6.45,1.4a.85.85,0,0,0-.85.85V19.88a.85.85,0,0,0,.85.85H33.32a.85.85,0,0,0,.85-.85V2.25a.85.85,0,0,0-.85-.85Z"/><path class="cls-1" d="M39,28a.7.7,0,0,1-.52-.24L33.4,22a.7.7,0,0,1,1-.93l5.12,5.77A.7.7,0,0,1,39,28Z"/><path class="cls-1" d="M38.46,28.59a.7.7,0,0,1-.11-1.39.7.7,0,0,1,1.26-.29.92.92,0,0,1,.06,1A1.44,1.44,0,0,1,38.46,28.59Zm0-.88h0Z"/><path class="cls-1" d="M38.46,28.59H1.33a1.45,1.45,0,0,1-1.25-.77.9.9,0,0,1,.14-1l5.12-5.77a.7.7,0,0,1,1,.93L1.82,27.16l36.64,0a.7.7,0,1,1,0,1.4Z"/><path class="cls-1" d="M17.7,17.35a1.41,1.41,0,1,1,1.41-1.41A1.41,1.41,0,0,1,17.7,17.35Zm0-1.42h0Z"/><path class="cls-1" d="M22.22,17.35a1.41,1.41,0,1,1,1.41-1.41A1.41,1.41,0,0,1,22.22,17.35Zm0-1.42h0Z"/><path class="cls-1" d="M23.94,13.4h-7.4a.7.7,0,0,1-.67-.5L13.82,6.18H11.95a.7.7,0,1,1,0-1.4h2.38a.7.7,0,0,1,.67.5L17.06,12h6.88a.7.7,0,1,1,0,1.4Z"/><path class="cls-1" d="M24.72,11.2H16.13a.7.7,0,0,1,0-1.4h8.59a.7.7,0,0,1,0,1.4Z"/><path class="cls-1" d="M25.21,9H15.56a.7.7,0,0,1,0-1.4h9.65a.7.7,0,1,1,0,1.4Z"/></g></g></svg>