<svg xmlns="http://www.w3.org/2000/svg" viewBox="0 0 31.17 35.04"><defs><style>.cls-1{fill:#444;}</style></defs><title>entertainment_careers</title><g id="Layer_2" data-name="Layer 2"><g id="Layer_1-2" data-name="Layer 1"><path class="cls-1" d="M28.49,35H3.85a2.69,2.69,0,0,1-2.68-2.68V15a.7.7,0,0,1,.7-.7H30.47a.7.7,0,0,1,.7.7V32.36A2.69,2.69,0,0,1,28.49,35ZM2.56,15.7V32.36a1.29,1.29,0,0,0,1.28,1.28H28.49a1.29,1.29,0,0,0,1.28-1.28V15.7Z"/><path class="cls-1" d="M30.47,21.33H1.86a.7.7,0,1,1,0-1.4H30.47a.7.7,0,0,1,0,1.4Z"/><path class="cls-1" d="M2.86,21.33a.7.7,0,0,1-.5-1.2l5.51-5.5a.7.7,0,1,1,1,1l-5.51,5.5A.7.7,0,0,1,2.86,21.33Z"/><path class="cls-1" d="M9.83,21.33a.7.7,0,0,1-.5-1.2l5.39-5.39a.7.7,0,1,1,1,1l-5.39,5.39A.7.7,0,0,1,9.83,21.33Z"/><path class="cls-1" d="M16.8,21.33a.7.7,0,0,1-.5-1.2l5.35-5.35a.7.7,0,1,1,1,1l-5.35,5.35A.7.7,0,0,1,16.8,21.33Z"/><path class="cls-1" d="M23.77,21.33a.7.7,0,0,1-.5-1.2l5.49-5.49a.7.7,0,1,1,1,1l-5.49,5.49A.7.7,0,0,1,23.77,21.33Z"/><path class="cls-1" d="M2.1,16a.7.7,0,0,1-.66-.46L.16,12a2.69,2.69,0,0,1,1.6-3.44L24.92.16a2.69,2.69,0,0,1,3.44,1.6l1.28,3.52a.7.7,0,0,1-.42.9L2.34,16A.71.71,0,0,1,2.1,16ZM25.83,1.4a1.28,1.28,0,0,0-.43.08L2.25,9.9a1.29,1.29,0,0,0-.77,1.65l1,2.86L28.09,5.11,27,2.24a1.28,1.28,0,0,0-.67-.72A1.3,1.3,0,0,0,25.83,1.4Z"/><path class="cls-1" d="M8.38,13.65a.71.71,0,0,1-.3-.07L1,10.3A.7.7,0,0,1,1.62,9l7.05,3.29a.7.7,0,0,1-.3,1.33Z"/><path class="cls-1" d="M14.93,11.27a.71.71,0,0,1-.3-.07L7.5,7.88a.7.7,0,0,1,.59-1.27l7.13,3.33a.7.7,0,0,1-.3,1.33Z"/><path class="cls-1" d="M21.48,8.89a.71.71,0,0,1-.3-.07l-7-3.27a.7.7,0,0,1,.59-1.27l7,3.27a.7.7,0,0,1-.3,1.33Z"/><path class="cls-1" d="M28,6.5a.71.71,0,0,1-.3-.07L20.47,3.05a.7.7,0,0,1,.59-1.27l7.26,3.38A.7.7,0,0,1,28,6.5Z"/><path class="cls-1" d="M26.31,26.37H6A.7.7,0,0,1,6,25H26.31a.7.7,0,0,1,0,1.4Z"/><path class="cls-1" d="M26.31,30H6a.7.7,0,1,1,0-1.4H26.31a.7.7,0,1,1,0,1.4Z"/></g></g></svg>