<svg xmlns="http://www.w3.org/2000/svg" viewBox="0 0 34.8 34.76"><defs><style>.cls-1{fill:#444;}</style></defs><title>estate_planning</title><g id="Layer_2" data-name="Layer 2"><g id="Layer_1-2" data-name="Layer 1"><path class="cls-1" d="M23.3,30.11A6.74,6.74,0,1,1,30,23.37,6.74,6.74,0,0,1,23.3,30.11ZM23.3,18a5.34,5.34,0,1,0,5.34,5.34A5.34,5.34,0,0,0,23.3,18Z"/><path class="cls-1" d="M29.87,25a.7.7,0,0,1,0-1.4l3-.13A.58.58,0,0,0,33.4,23V9.4H27.33A1.93,1.93,0,0,1,25.4,7.47V1.4H1.93a.53.53,0,0,0-.53.53V23a.55.55,0,0,0,.53.53l14.85.13a.7.7,0,0,1,.69.71.68.68,0,0,1-.71.69L1.92,24.92A1.94,1.94,0,0,1,0,23V1.93A1.93,1.93,0,0,1,1.93,0h24.2a.69.69,0,0,1,.44.18h0l8,8h0a.7.7,0,0,1,.18.44V23a2,2,0,0,1-1.9,1.93l-3,.13ZM26.8,2.39V7.47a.53.53,0,0,0,.53.53h5.08Zm-5,12H5A.7.7,0,1,1,5,13H21.77a.7.7,0,0,1,0,1.4Zm0-3.83H5a.7.7,0,1,1,0-1.4H21.77a.7.7,0,0,1,0,1.4Zm0-3.83H5a.7.7,0,1,1,0-1.4H21.77a.7.7,0,0,1,0,1.4Z"/><path class="cls-1" d="M23.3,26.95a3.58,3.58,0,1,1,3.58-3.58A3.58,3.58,0,0,1,23.3,26.95Zm0-5.75a2.18,2.18,0,1,0,2.18,2.18A2.18,2.18,0,0,0,23.3,21.19Z"/><path class="cls-1" d="M26.15,34.76a.7.7,0,0,1-.59-.32L23.36,31l-2.21,3.44a.7.7,0,0,1-.9.25L15,32.12a.7.7,0,0,1-.31-1l2.8-5.09a.7.7,0,0,1,1.23.67l-2.44,4.45,4.06,2,2.46-3.83a.73.73,0,0,1,1.18,0l2.46,3.83,4.14-2-2.49-4.75a.7.7,0,0,1,1.24-.65l2.83,5.4a.7.7,0,0,1-.32,1L26.46,34.7A.7.7,0,0,1,26.15,34.76Z"/></g></g></svg>