<svg xmlns="http://www.w3.org/2000/svg" viewBox="0 0 34.55 32.36"><defs><style>.cls-1{fill:#444;}</style></defs><title>event_planning</title><g id="Layer_2" data-name="Layer 2"><g id="Layer_1-2" data-name="Layer 1"><path class="cls-1" d="M13.4,24.82c-5.15,0-11-4.07-12.75-9.36-2.09-6.26,1-13,6.87-14.91a10.83,10.83,0,0,1,8.67.83,12.31,12.31,0,0,1,5.78,7c1.36,4.08.2,8.62-1.34,11.51-1.32,2.49-3.06,4.14-4.88,4.64A8.79,8.79,0,0,1,13.4,24.82ZM10.88,1.4A9.16,9.16,0,0,0,8,1.88C2.82,3.59.14,9.49,2,15c1.79,5.38,8.55,9.49,13.4,8.14,1.43-.4,2.89-1.84,4-4A14,14,0,0,0,20.64,8.8,10.53,10.53,0,0,0,10.88,1.4Z"/><path class="cls-1" d="M23.49,24.81a4.83,4.83,0,0,1-1.29-.17,8.9,8.9,0,0,1-4-2.59.7.7,0,1,1,1-1,7.51,7.51,0,0,0,3.39,2.2,6.53,6.53,0,0,0,4.74-1.16,12.22,12.22,0,0,0,5.6-7.23c1.1-5-1.76-9.82-6.36-10.84a8.32,8.32,0,0,0-6.74,1.5A.7.7,0,0,1,19,4.45,9.72,9.72,0,0,1,26.86,2.7c5.36,1.19,8.69,6.8,7.43,12.51A13.6,13.6,0,0,1,28,23.34,9.09,9.09,0,0,1,23.49,24.81Z"/><path class="cls-1" d="M13,29.57a.7.7,0,0,1-.66-.94l1.7-4.71a.7.7,0,0,1,1.17-.24l3.43,3.64a.7.7,0,0,1-.37,1.17l-5.13,1.07Zm2-4.11-.89,2.46,2.68-.56Z"/><path class="cls-1" d="M24.23,28.58l-.15,0-4-.91a.7.7,0,0,1-.35-1.17l2.76-2.82a.69.69,0,0,1,.66-.19.7.7,0,0,1,.51.46l1.27,3.73a.7.7,0,0,1-.66.93Zm-2.65-2,1.59.36-.5-1.47Z"/><path class="cls-1" d="M16.41,32.36a.7.7,0,0,1-.52-.23,4.89,4.89,0,0,1-.95-3.94.7.7,0,0,1,1.37.28,3.52,3.52,0,0,0,.61,2.72.7.7,0,0,1-.52,1.17Z"/><path class="cls-1" d="M19.13,32a.7.7,0,0,1-.25-1.35,4,4,0,0,0,2.52-3.18.7.7,0,0,1,1.39.14A5.44,5.44,0,0,1,19.38,32,.68.68,0,0,1,19.13,32Z"/></g></g></svg>