<svg width="24" height="24" viewBox="0 0 24 24" fill="none" xmlns="http://www.w3.org/2000/svg">
<path d="M4.78304 11.9833C5.90147 11.9833 6.80814 11.0766 6.80814 9.95815C6.80814 8.83971 5.90147 7.93304 4.78304 7.93304C3.6646 7.93304 2.75793 8.83971 2.75793 9.95815C2.75793 11.0766 3.6646 11.9833 4.78304 11.9833Z" stroke="#006EFA" stroke-width="1.32692" stroke-linecap="round" stroke-linejoin="round"/>
<path d="M18.5816 11.9833C19.7001 11.9833 20.6067 11.0766 20.6067 9.95815C20.6067 8.83971 19.7001 7.93304 18.5816 7.93304C17.4632 7.93304 16.5565 8.83971 16.5565 9.95815C16.5565 11.0766 17.4632 11.9833 18.5816 11.9833Z" stroke="#006EFA" stroke-width="1.32692" stroke-linecap="round" stroke-linejoin="round"/>
<path d="M11.6212 11.0674C13.0481 11.0674 14.2048 9.93301 14.2048 8.53369C14.2048 7.13437 13.0481 6 11.6212 6C10.1943 6 9.0376 7.13437 9.0376 8.53369C9.0376 9.93301 10.1943 11.0674 11.6212 11.0674Z" stroke="black" stroke-width="1.32692" stroke-linecap="round" stroke-linejoin="round"/>
<path d="M11.7699 13C8.97383 13 6.70715 15.2667 6.70715 18.0628H16.8327C16.8327 15.2667 14.566 13 11.7699 13Z" stroke="black" stroke-width="1.32692" stroke-linecap="round" stroke-linejoin="round"/>
<path d="M5.05021 14C2.81334 14 1 15.8133 1 18.0502H3.99163" stroke="#006EFA" stroke-width="1.32692" stroke-linecap="round" stroke-linejoin="round"/>
<path d="M18.9498 14C21.1867 14 23 15.8133 23 18.0502H20.0084" stroke="#006EFA" stroke-width="1.32692" stroke-linecap="round" stroke-linejoin="round"/>
</svg>
