<?xml version="1.0" encoding="utf-8"?>
<!-- Generator: Adobe Illustrator 24.1.0, SVG Export Plug-In . SVG Version: 6.00 Build 0)  -->
<svg version="1.1" id="Laag_1" xmlns="http://www.w3.org/2000/svg" xmlns:xlink="http://www.w3.org/1999/xlink" x="0px" y="0px"
	 viewBox="0 0 400 400" style="enable-background:new 0 0 400 400;" xml:space="preserve">
<path d="M102.6,258c-3.8,0-7-3.2-7-7V84.5c0-3.8,3.2-7,7-7s7,3.2,7,7V251C109.6,254.9,106.4,258,102.6,258z"/>
<path d="M147.6,244.6c-3.8,0-7-3.2-7-7V84.5c0-3.8,3.2-7,7-7c3.8,0,7,3.2,7,7v153.1C154.6,241.4,151.5,244.6,147.6,244.6z"/>
<path d="M186.4,165.8L186.4,165.8V84.5c0-3.8,3.2-7,7-7s7,3.2,7,7v75.8l0,0C192.8,160.3,191,160.6,186.4,165.8z"/>
<path d="M234.3,160.3V84.5c0-3.8,3.2-7,7-7c3.8,0,7,3.2,7,7v75.8H234.3z"/>
<path d="M360.9,363.5H227.7c-7,0-12.6-5.7-12.6-12.6V235.5c0-7,5.7-12.6,12.6-12.6h133.3c7,0,12.6,5.7,12.6,12.6v115.2
	C373.6,357.7,367.9,363.5,360.9,363.5z M230,348.5h128.6V237.8H230V348.5z"/>
<path d="M371.1,237.8H217c-7,0-12.6-5.7-12.6-12.6v-24.7c0-7,5.7-12.6,12.6-12.6h154.1c7,0,12.6,5.7,12.6,12.6v24.7
	C383.8,232.2,378.1,237.8,371.1,237.8z M219.4,222.8h149.4v-20H219.4V222.8z"/>
<path d="M328.9,308.4h-70.6c-7,0-12.6-5.7-12.6-12.6v-24.9c0-7,5.7-12.6,12.6-12.6h70.6c7,0,12.6,5.7,12.6,12.6v24.9
	C341.5,302.7,335.9,308.4,328.9,308.4z M260.6,293.4h65.9v-20.2h-65.9V293.4z"/>
<path d="M325.7,160.3l14.6,0V51c0-3.8-3.2-7-7-7H56.7c-3.9,0-7,3.2-7,7v276.4H30.8c-3.8,0-7,3.2-7,7s3.2,7,7,7h58.7c3.8,0,7-3.2,7-7
	s-3.2-7-7-7H63.7v-17.8c4.5,2.8,9.9,4.4,15.5,4.4c9.2,0,17.5-4.2,22.9-10.8c5.5,6.6,13.7,10.8,22.9,10.8s17.5-4.2,22.9-10.8
	c5.5,6.6,13.7,10.8,22.9,10.8c4.8,0,9.4-1.2,13.5-3.3l0-18.7c-2.9,3.7-8.7,8-13.7,8c-8.7,0-15.8-7.1-15.8-15.8c0-3.8-3.1-7-7-7
	c-0.1,0-0.1,0-0.2,0s-0.1,0-0.2,0c-3.8,0-7,3.2-7,7c0,8.7-7.1,15.8-15.8,15.8s-15.8-7.1-15.8-15.8c0-3.8-3.2-7-7-7
	c-0.1,0-0.1,0-0.2,0c-0.1,0-0.1,0-0.2,0c-3.8,0-7,3.2-7,7c0,8.7-7.1,15.8-15.8,15.8c-7.9,0-14.5-5.9-15.5-13.5V58h262.6V160.3"/>
<path d="M280.1,160.3V84.5c0-3.8,3.2-7,7-7c3.8,0,7,3.2,7,7v75.8H280.1z"/>
</svg>
