<?xml version="1.0" encoding="utf-8"?>
<!-- Generator: Adobe Illustrator 24.1.0, SVG Export Plug-In . SVG Version: 6.00 Build 0)  -->
<svg version="1.1" id="Laag_1" xmlns="http://www.w3.org/2000/svg" xmlns:xlink="http://www.w3.org/1999/xlink" x="0px" y="0px"
	 viewBox="0 0 400 400" style="enable-background:new 0 0 400 400;" xml:space="preserve">
<g>
	<path d="M314.9,305.9c-20.1,0-36.4-16.3-36.4-36.4s16.3-36.4,36.4-36.4c20.1,0,36.4,16.3,36.4,36.4S335,305.9,314.9,305.9z
		 M314.9,248.1c-11.8,0-21.4,9.6-21.4,21.4s9.6,21.4,21.4,21.4s21.4-9.6,21.4-21.4S326.7,248.1,314.9,248.1z"/>
	<g>
		<path d="M380,363.3h-15v-7.5c0-27.6-22.5-50.1-50.1-50.1c-27.6,0-50.1,22.5-50.1,50.1v7.5h-15v-7.5c0-35.9,29.2-65.1,65.1-65.1
			s65.1,29.2,65.1,65.1V363.3z"/>
		<rect x="249.8" y="348.3" width="130.2" height="15"/>
	</g>
	<path d="M199.7,305.9c-20.1,0-36.4-16.3-36.4-36.4s16.3-36.4,36.4-36.4c20.1,0,36.4,16.3,36.4,36.4S219.8,305.9,199.7,305.9z
		 M199.7,248.1c-11.8,0-21.4,9.6-21.4,21.4s9.6,21.4,21.4,21.4c11.8,0,21.4-9.6,21.4-21.4S211.5,248.1,199.7,248.1z"/>
	<g>
		<path d="M264.8,363.3h-15v-7.5c0-27.6-22.5-50.1-50.1-50.1c-27.6,0-50.1,22.5-50.1,50.1v7.5h-15v-7.5c0-35.9,29.2-65.1,65.1-65.1
			s65.1,29.2,65.1,65.1V363.3z"/>
		<rect x="134.6" y="348.3" width="130.2" height="15"/>
	</g>
</g>
<g>
	<path d="M222.2,186.6H52.4c-6.9,0-12.5-5.6-12.5-12.5V49.2c0-6.9,5.6-12.5,12.5-12.5h169.9c6.9,0,12.5,5.6,12.5,12.5l0,125.2
		C234.5,181.2,229,186.6,222.2,186.6z M54.9,171.6h164.9V51.7H54.9V171.6z"/>
	<path d="M52.7,184.5l-10.5-10.7l60.5-59.4c2.4-2.4,5.9-3.8,9.3-3.6c3.5,0.2,6.8,1.8,9.1,4.6l48.4,59l-11.6,9.5L111.2,127
		L52.7,184.5z M113.2,125L113.2,125C113.2,125,113.2,125,113.2,125z"/>
	<path d="M222.7,157.9l-52.2-50.5l-39.2,31.5l-9.4-11.7l40.9-32.9c4.9-3.9,11.9-3.6,16.5,0.7l53.9,52.1L222.7,157.9z"/>
	<circle cx="89" cy="78.6" r="16"/>
</g>
</svg>
