<?xml version="1.0" encoding="utf-8"?>
<!-- Generator: Adobe Illustrator 24.1.0, SVG Export Plug-In . SVG Version: 6.00 Build 0)  -->
<svg version="1.1" id="Laag_1" xmlns="http://www.w3.org/2000/svg" xmlns:xlink="http://www.w3.org/1999/xlink" x="0px" y="0px"
	 viewBox="0 0 400 400" style="enable-background:new 0 0 400 400;" xml:space="preserve">
<path d="M200,380c-99.3,0-180-80.7-180-180c0-99.3,80.7-180,180-180c99.3,0,180,80.7,180,180C380,299.3,299.3,380,200,380z M200,35
	c-91,0-165,74-165,165s74,165,165,165s165-74,165-165S291,35,200,35z"/>
<path d="M200,237.5c-20.7,0-37.5-16.8-37.5-37.5s16.8-37.5,37.5-37.5s37.5,16.8,37.5,37.5S220.7,237.5,200,237.5z M200,177.5
	c-12.4,0-22.5,10.1-22.5,22.5c0,12.4,10.1,22.5,22.5,22.5c12.4,0,22.5-10.1,22.5-22.5C222.5,187.6,212.4,177.5,200,177.5z"/>
<path d="M165.7,193.1c-1.5-1.5-35.7-37.4-34.7-73.5c0.4-14.3,6.1-26.6,16.9-36.6l0.2-0.2c0.6-0.5,14.2-12,34.3-17
	c18.8-4.7,46.8-4.3,73.5,23.9c2.7,2.5,16.9,16.2,14.5,32c-1.5,9.7-8.6,17.5-21.3,23.1l-0.2,0.1c-0.2,0.1-20.6,8.8-28.4,29.5l-14-5.3
	c10-26.3,34.5-37.1,36.6-38c7.6-3.4,11.8-7.3,12.4-11.6c1.1-7.2-6.9-16.2-9.8-18.8l-0.5-0.5c-40.8-43.3-84.2-8.7-87.2-6.1
	c-7.8,7.3-11.7,15.8-12,25.9c-0.4,15.4,7.8,31.5,14.8,42.3c7.8,12.1,15.6,20.3,15.7,20.4L165.7,193.1z"/>
<path d="M139.6,306.6c-5.3,0-10.7-0.8-16.2-2.5l-0.3-0.1c-0.7-0.3-17.6-6.3-31.9-21.2c-13.4-14-27.1-38.4-16-75.6
	c0.8-3.6,5.5-22.7,20.5-28.5c9.2-3.6,19.4-1.3,30.5,6.8c0.9,0.6,19.7,13,41.4,9.5l2.4,14.8c-28.2,4.6-51.4-11.4-52.4-12.1l-0.1-0.1
	c-6.7-4.9-12.2-6.6-16.3-5c-7,2.7-10.7,14.8-11.3,17.9l-0.2,0.7c-17.1,57,34.6,77.2,38.3,78.6c10.2,3.1,19.5,2.3,28.5-2.6
	c13.5-7.3,23.4-22.5,29.3-34c6.6-12.8,9.7-23.7,9.8-23.8l14.4,4.1c-0.6,2-14.5,49.6-46.3,66.8C155.9,304.5,147.9,306.6,139.6,306.6z
	"/>
<path d="M252.1,306.6c-6.3,0-13.5-1.3-19.2-6c-7.7-6.2-10.8-16.2-9.4-30l0-0.2c0-0.2,2.6-22.2-11.4-39.4l11.6-9.5
	c17.8,21.8,14.9,48.5,14.6,50.8c-0.9,8.2,0.4,13.8,3.8,16.6c5.7,4.6,17.5,2.1,21.2,0.9l0.7-0.2c24.8-5.9,40.6-19.8,46.8-41.3
	c4.5-15.7,2.3-29.7,2.1-31.2c-2.4-10.4-7.8-18-16.5-23.4c-13.1-8-31.2-9-44-8.4c-14.4,0.7-25.4,3.4-25.5,3.4l-3.6-14.6
	c2-0.5,50.2-12.2,81,6.7c12.2,7.5,20,18.6,23.3,33l0.1,0.3c0.1,0.7,3.3,18.4-2.4,38.2c-5.4,18.6-19.7,42.7-57.5,51.7
	C266,304.7,259.6,306.6,252.1,306.6z"/>
</svg>
