<svg xmlns="http://www.w3.org/2000/svg" viewBox="0 0 33.04 34.28"><defs><style>.cls-1{fill:#444;}</style></defs><title>fiction_writing</title><g id="Layer_2" data-name="Layer 2"><g id="Layer_1-2" data-name="Layer 1"><path class="cls-1" d="M11.88,21.86a.7.7,0,0,1-.67-.91l1.43-4.5a.7.7,0,0,1,.17-.28l16-16a.7.7,0,0,1,1,0l3.07,3.07a.7.7,0,0,1,0,1l-16,16a.71.71,0,0,1-.28.17l-4.5,1.43A.69.69,0,0,1,11.88,21.86Zm2-4.83-1,3.05,3.05-1L31.35,3.77,29.27,1.69Z"/><path class="cls-1" d="M29.85,7a.7.7,0,0,1-.5-.21L26.28,3.73a.7.7,0,0,1,1-1l3.08,3.08a.7.7,0,0,1-.5,1.2Z"/><path class="cls-1" d="M25.85,34.28H.7a.7.7,0,0,1-.7-.7V4.91a.7.7,0,0,1,.7-.7H25a.7.7,0,0,1,0,1.4H1.4V32.88H25.15V11a.7.7,0,0,1,1.4,0V33.58A.7.7,0,0,1,25.85,34.28Z"/><path class="cls-1" d="M17.53,12.29H5a.7.7,0,1,1,0-1.4H17.53a.7.7,0,1,1,0,1.4Z"/><path class="cls-1" d="M13.31,17.14H5a.7.7,0,1,1,0-1.4h8.29a.7.7,0,1,1,0,1.4Z"/><path class="cls-1" d="M11.57,22H5a.7.7,0,0,1,0-1.4h6.56a.7.7,0,0,1,0,1.4Z"/></g></g></svg>