<svg xmlns="http://www.w3.org/2000/svg" viewBox="0 0 34.28 31.49"><defs><style>.cls-1{fill:#444;}</style></defs><title>finance_careers</title><g id="Layer_2" data-name="Layer 2"><g id="Layer_1-2" data-name="Layer 1"><path class="cls-1" d="M33.58,31.49H.7a.7.7,0,0,1,0-1.4H33.58a.7.7,0,0,1,0,1.4Z"/><path class="cls-1" d="M6.88,27.57H2.49a.7.7,0,0,1-.7-.7V14.62a.7.7,0,0,1,.7-.7h4.4a.7.7,0,0,1,.7.7V26.87A.7.7,0,0,1,6.88,27.57Zm-3.7-1.4h3V15.32h-3Z"/><path class="cls-1" d="M15.19,27.57h-4.4a.7.7,0,0,1-.7-.7V7.51a.7.7,0,0,1,.7-.7h4.4a.7.7,0,0,1,.7.7V26.87A.7.7,0,0,1,15.19,27.57Zm-3.7-1.4h3v-18h-3Z"/><path class="cls-1" d="M23.49,27.57H19.1a.7.7,0,0,1-.7-.7V11.37a.7.7,0,0,1,.7-.7h4.4a.7.7,0,0,1,.7.7V26.87A.7.7,0,0,1,23.49,27.57Zm-3.7-1.4h3V12.07h-3Z"/><path class="cls-1" d="M31.8,27.57H27.4a.7.7,0,0,1-.7-.7V.7a.7.7,0,0,1,.7-.7h4.4a.7.7,0,0,1,.7.7V26.87A.7.7,0,0,1,31.8,27.57Zm-3.7-1.4h3V1.4h-3Z"/></g></g></svg>