<svg xmlns="http://www.w3.org/2000/svg" viewBox="0 0 35.42 31.37"><defs><style>.cls-1{fill:#444;}</style></defs><title>financial_software</title><g id="Layer_2" data-name="Layer 2"><g id="Layer_1-2" data-name="Layer 1"><path class="cls-1" d="M12.69,24.5a.7.7,0,0,1-.44-.16L6.78,19.89a.7.7,0,0,1,0-1.09l5.47-4.46a.7.7,0,0,1,.88,1.09l-4.8,3.91,4.8,3.91a.7.7,0,0,1-.44,1.24Z"/><path class="cls-1" d="M22.73,24.5a.7.7,0,0,1-.44-1.24l4.8-3.91-4.8-3.91a.7.7,0,0,1,.88-1.09l5.47,4.46a.7.7,0,0,1,0,1.09l-5.47,4.46A.7.7,0,0,1,22.73,24.5Z"/><path class="cls-1" d="M16.6,26.68l-.15,0a.7.7,0,0,1-.54-.83l2.84-13.26a.7.7,0,0,1,1.37.29L17.28,26.13A.7.7,0,0,1,16.6,26.68Z"/><path class="cls-1" d="M34.72,31.37H.7a.7.7,0,0,1-.7-.7V.7A.7.7,0,0,1,.7,0h34a.7.7,0,0,1,.7.7v30A.7.7,0,0,1,34.72,31.37ZM1.4,30H34V1.4H1.4Z"/><path class="cls-1" d="M34.72,8.2H.7a.7.7,0,0,1,0-1.4h34a.7.7,0,0,1,0,1.4Z"/><path class="cls-1" d="M30.43,5.82a1.43,1.43,0,1,1,1.43-1.43A1.44,1.44,0,0,1,30.43,5.82Zm0-1.47a0,0,0,0,0,0,0Z"/><path class="cls-1" d="M25.58,5.82A1.43,1.43,0,1,1,27,4.38,1.44,1.44,0,0,1,25.58,5.82Zm0-1.47a0,0,0,0,0,0,0Z"/></g></g></svg>