<?xml version="1.0" encoding="utf-8"?>
<!-- Generator: Adobe Illustrator 24.1.0, SVG Export Plug-In . SVG Version: 6.00 Build 0)  -->
<svg version="1.1" id="Laag_1" xmlns="http://www.w3.org/2000/svg" xmlns:xlink="http://www.w3.org/1999/xlink" x="0px" y="0px"
	 viewBox="0 0 400 400" style="enable-background:new 0 0 400 400;" xml:space="preserve">
<g>
	<path d="M362.5,355.1h-325c-9.6,0-17.5-7.9-17.5-17.5V180c0-9.6,7.9-17.5,17.5-17.5h325c9.6,0,17.5,7.9,17.5,17.5v157.6
		C380,347.3,372.1,355.1,362.5,355.1z M37.5,177.5c-1.4,0-2.5,1.1-2.5,2.5v157.6c0,1.4,1.1,2.5,2.5,2.5h325c1.4,0,2.5-1.1,2.5-2.5
		V180c0-1.4-1.1-2.5-2.5-2.5H37.5z"/>
	<path d="M330.8,177.5h-88.6c-9.6,0-17.5-7.9-17.5-17.5v-41.1c0-9.6,7.9-17.5,17.5-17.5h88.6c9.6,0,17.5,7.9,17.5,17.5V160
		C348.3,169.7,340.5,177.5,330.8,177.5z M242.2,116.4c-1.4,0-2.5,1.1-2.5,2.5V160c0,1.4,1.1,2.5,2.5,2.5h88.6c1.4,0,2.5-1.1,2.5-2.5
		v-41.1c0-1.4-1.1-2.5-2.5-2.5H242.2z"/>
	<g>
		<path d="M132.7,122.1c-21.3,0-38.6-17.3-38.6-38.6s17.3-38.6,38.6-38.6s38.6,17.3,38.6,38.6S154,122.1,132.7,122.1z M132.7,59.9
			c-13,0-23.6,10.6-23.6,23.6s10.6,23.6,23.6,23.6s23.6-10.6,23.6-23.6S145.7,59.9,132.7,59.9z"/>
		<path d="M183,170.5c-0.1-1.9-3.9-46.9-50.5-47.9c-19.3-0.4-33.3,6.9-41.7,21.8c-6.6,11.7-7.2,24-7.2,24.2l-15-0.6
			c0-0.6,0.7-15.5,8.8-30.3c7.7-14.1,23.6-30.7,55.4-30.1c31.6,0.7,47.7,17.6,55.7,31.7c8.4,14.9,9.5,29.6,9.5,30.2L183,170.5z"/>
	</g>
	<path d="M76.1,313.3c-4.1,0-7.5-3.4-7.5-7.5V205.1c0-4.1,3.4-7.5,7.5-7.5s7.5,3.4,7.5,7.5v100.7C83.6,309.9,80.3,313.3,76.1,313.3z
		"/>
	<path d="M137.6,287.8c-4.1,0-7.5-3.4-7.5-7.5v-75.8c0-4.1,3.4-7.5,7.5-7.5s7.5,3.4,7.5,7.5v75.8
		C145.1,284.5,141.8,287.8,137.6,287.8z"/>
	<path d="M322.2,302.5c-4.1,0-7.5-3.4-7.5-7.5v-90.5c0-4.1,3.4-7.5,7.5-7.5s7.5,3.4,7.5,7.5V295
		C329.7,299.2,326.3,302.5,322.2,302.5z"/>
	<path d="M260.7,308.7c-4.1,0-7.5-3.4-7.5-7.5v-96.7c0-4.1,3.4-7.5,7.5-7.5s7.5,3.4,7.5,7.5v96.7
		C268.2,305.4,264.8,308.7,260.7,308.7z"/>
	<path d="M199.2,293.5c-4.1,0-7.5-3.4-7.5-7.5v-81.4c0-4.1,3.4-7.5,7.5-7.5s7.5,3.4,7.5,7.5V286
		C206.7,290.1,203.3,293.5,199.2,293.5z"/>
</g>
</svg>
