<svg xmlns="http://www.w3.org/2000/svg" viewBox="0 0 33.04 33.85"><defs><style>.cls-1{fill:#444;}</style></defs><title>food_and_beverage</title><g id="Layer_2" data-name="Layer 2"><g id="Layer_1-2" data-name="Layer 1"><path class="cls-1" d="M24.4,25.18a.7.7,0,0,1-.36-1.3A24.22,24.22,0,0,1,28.21,22c2-.71,3.18-1.2,3.37-2.13a1.89,1.89,0,0,0-.54-2,3.68,3.68,0,0,0-3.49-.19A.7.7,0,1,1,27,16.46a5.06,5.06,0,0,1,4.93.37,3.26,3.26,0,0,1,1,3.36c-.35,1.75-2.16,2.41-4.26,3.17a23,23,0,0,0-3.93,1.73A.7.7,0,0,1,24.4,25.18Z"/><path class="cls-1" d="M19.52,10.82a.7.7,0,0,1-.47-.18,3.61,3.61,0,0,1-.44-4.78A2.13,2.13,0,0,0,18.43,3a.7.7,0,1,1,1-1,3.51,3.51,0,0,1,.31,4.65A2.24,2.24,0,0,0,20,9.6a.7.7,0,0,1-.47,1.22Zm-8.91,0a.7.7,0,0,1-.47-.18A3.61,3.61,0,0,1,9.7,5.86,2.13,2.13,0,0,0,9.51,3a.7.7,0,1,1,1-1,3.51,3.51,0,0,1,.31,4.65,2.24,2.24,0,0,0,.25,2.91.7.7,0,0,1-.47,1.22ZM15,10.27a.7.7,0,0,1-.42-.14A3.69,3.69,0,0,1,13,7.54,3.92,3.92,0,0,1,14,4.62a2.24,2.24,0,0,0-.27-3.39A.7.7,0,1,1,14.62.17,3.66,3.66,0,0,1,15,5.53a2.5,2.5,0,0,0-.59,1.86,2.33,2.33,0,0,0,1,1.62A.7.7,0,0,1,15,10.27Z"/><path class="cls-1" d="M22.14,33.85H7.33c-2.9,0-7.09-3.24-7.32-4.77a.7.7,0,0,1,.69-.81H28.77a.7.7,0,0,1,.69.8C29.24,30.57,25,33.85,22.14,33.85ZM2,29.67c1.11,1.11,3.5,2.78,5.33,2.78H22.14c1.75,0,4.16-1.67,5.3-2.78Z"/><path class="cls-1" d="M9.56,29.48a.7.7,0,0,1-.34-.09C4.08,26.55.93,18.26,1.32,14.06a.7.7,0,0,1,.7-.64H27.46a.7.7,0,0,1,.7.64c.42,4.56-3.34,12.81-7.91,15.33a.7.7,0,0,1-.68-1.22C23.44,26,26.78,19,26.79,14.83H2.68c0,3.92,2.86,10.94,7.22,13.34a.7.7,0,0,1-.34,1.31Z"/></g></g></svg>