<svg xmlns="http://www.w3.org/2000/svg" viewBox="0 0 33.55 35.83"><defs><style>.cls-1{fill:#444;}</style></defs><title>forex_trading</title><g id="Layer_2" data-name="Layer 2"><g id="Layer_1-2" data-name="Layer 1"><path class="cls-1" d="M32.45,16.72a.7.7,0,0,1-.69-.61,14.62,14.62,0,0,0-3-7.25A14.87,14.87,0,0,0,26.92,7a14.72,14.72,0,0,0-2.11-1.56,14.53,14.53,0,0,0-5-1.89.7.7,0,0,1,.25-1.38,16,16,0,0,1,7.79,3.78,16.12,16.12,0,0,1,4.66,7.15,16.06,16.06,0,0,1,.63,2.88.7.7,0,0,1-.61.78Z"/><path class="cls-1" d="M13.63,33.7H13.5a16,16,0,0,1-7.79-3.78,16.17,16.17,0,0,1-3.54-4.48A16,16,0,0,1,.42,19.89a.7.7,0,0,1,1.39-.17,14.59,14.59,0,0,0,1.6,5.05A14.74,14.74,0,0,0,4.85,27a15,15,0,0,0,1.8,1.9,14.77,14.77,0,0,0,2.11,1.56,14.61,14.61,0,0,0,5,1.89.7.7,0,0,1-.12,1.39Z"/><path class="cls-1" d="M10.89,35.83a.7.7,0,0,1-.4-1.28l2.75-1.89-1.89-2.75a.7.7,0,0,1,1.15-.79l2.29,3.33a.7.7,0,0,1-.18,1l-3.33,2.29A.69.69,0,0,1,10.89,35.83Z"/><path class="cls-1" d="M21.65,7a.7.7,0,0,1-.58-.3L18.78,3.39a.7.7,0,0,1,.18-1L22.29.12a.7.7,0,1,1,.79,1.15L20.33,3.17l1.89,2.75a.7.7,0,0,1-.18,1A.69.69,0,0,1,21.65,7Z"/><path class="cls-1" d="M9.37,19.8a9.37,9.37,0,1,1,9.37-9.37A9.38,9.38,0,0,1,9.37,19.8Zm0-17.34a8,8,0,1,0,8,8A8,8,0,0,0,9.37,2.46Z"/><path class="cls-1" d="M11.32,9.67H4.63a.7.7,0,0,1,0-1.4h6.68a.7.7,0,0,1,0,1.4Z"/><path class="cls-1" d="M10.84,12.62H4.16a.7.7,0,0,1,0-1.4h6.68a.7.7,0,1,1,0,1.4Z"/><path class="cls-1" d="M10.16,15.79a3.87,3.87,0,0,1-1.8-.45,4.52,4.52,0,0,1-1.43-1.18A5.51,5.51,0,0,1,6,12.47,6.35,6.35,0,0,1,6,8.39,5.49,5.49,0,0,1,6.94,6.7,4.56,4.56,0,0,1,8.36,5.52a3.88,3.88,0,0,1,3.6,0A4.55,4.55,0,0,1,13.39,6.7a.7.7,0,0,1-1.08.88,3.16,3.16,0,0,0-1-.82A2.49,2.49,0,0,0,9,6.76a3.18,3.18,0,0,0-1,.82,4.11,4.11,0,0,0-.69,1.26,5,5,0,0,0,0,3.17A4.13,4.13,0,0,0,8,13.28a3.17,3.17,0,0,0,1,.82,2.48,2.48,0,0,0,2.31,0,3.15,3.15,0,0,0,1-.82.7.7,0,0,1,1.08.88A4.53,4.53,0,0,1,12,15.34,3.87,3.87,0,0,1,10.16,15.79Z"/><path class="cls-1" d="M24.19,22a.7.7,0,0,1-.7-.7V19.49a.7.7,0,0,1,1.4,0v1.86A.7.7,0,0,1,24.19,22Z"/><path class="cls-1" d="M24.19,32a.7.7,0,0,1-.7-.7V29.46a.7.7,0,0,1,1.4,0v1.86A.7.7,0,0,1,24.19,32Z"/><path class="cls-1" d="M24.19,34.76a9.36,9.36,0,1,1,9.36-9.36A9.37,9.37,0,0,1,24.19,34.76Zm0-17.32a8,8,0,1,0,8,8A8,8,0,0,0,24.19,17.44Z"/><path class="cls-1" d="M24.56,29.86a6.11,6.11,0,0,1-.7,0,11.84,11.84,0,0,1-2.38-.62l-.16-.05a.7.7,0,1,1,.44-1.33l.16.05a10.65,10.65,0,0,0,2.09.55,2.49,2.49,0,0,0,2.41-.67.73.73,0,0,0,.05-.79,2.48,2.48,0,0,0-2.25-.87h0c-1.71,0-3-.58-3.54-1.6a2.11,2.11,0,0,1,.14-2.21A3.87,3.87,0,0,1,24.56,21a11.78,11.78,0,0,1,2.38.62l.16.05A.7.7,0,1,1,26.67,23l-.16-.05a10.59,10.59,0,0,0-2.1-.55,2.56,2.56,0,0,0-2.45.7.72.72,0,0,0-.06.77c.22.42.94.86,2.3.86h0a3.72,3.72,0,0,1,3.48,1.61,2.13,2.13,0,0,1-.13,2.23A3.53,3.53,0,0,1,24.56,29.86Z"/></g></g></svg>