<svg xmlns="http://www.w3.org/2000/svg" viewBox="0 0 29.45 34.79"><defs><style>.cls-1{fill:#444;}</style></defs><title>franchises</title><g id="Layer_2" data-name="Layer 2"><g id="Layer_1-2" data-name="Layer 1"><path class="cls-1" d="M27.5,9.25H1.95a2,2,0,0,1-1.53-.7A1.66,1.66,0,0,1,0,7.21L.28,5.49A2,2,0,0,1,2.21,3.66H5.1A.7.7,0,0,1,4.95,3l.42-1.88A1.36,1.36,0,0,1,6.66,0H22.78a1.36,1.36,0,0,1,1.3,1.18l.51,2.48h2.64a2,2,0,0,1,1.93,1.83l.26,1.71A1.65,1.65,0,0,1,29,8.55,2,2,0,0,1,27.5,9.25Zm-12-5.62a.7.7,0,0,1,0,1.4H8.85l-6.64,0c-.43,0-.54.58-.54.64L1.4,7.42a.27.27,0,0,0,.08.22.65.65,0,0,0,.47.21H27.5A.65.65,0,0,0,28,7.64.27.27,0,0,0,28,7.42L27.78,5.7c0-.07-.11-.64-.54-.64H24a.7.7,0,0,1-.7-.72l-.6-2.88,0-.06H6.75l0,.07L6.31,3.35a.7.7,0,0,1-.15.3H8.84Z"/><path class="cls-1" d="M25.93,18.27H19.25a.7.7,0,0,1,0-1.4h6l.6-7.43a.7.7,0,1,1,1.39.11l-.65,8.07A.7.7,0,0,1,25.93,18.27Z"/><path class="cls-1" d="M10.2,18.27H3.52a.7.7,0,0,1-.7-.64L2.17,9.55a.7.7,0,0,1,1.39-.11l.6,7.43h6a.7.7,0,0,1,0,1.4Z"/><path class="cls-1" d="M25.26,26.57H25.2a.7.7,0,0,1-.64-.75l.67-8.3a.69.69,0,0,1,.75-.64.7.7,0,0,1,.64.75L26,25.92A.7.7,0,0,1,25.26,26.57Z"/><path class="cls-1" d="M22.89,34.79H6.56A2.62,2.62,0,0,1,4,32.29l-.51-6.37a.7.7,0,0,1,.7-.76h6.17a.7.7,0,1,1,0,1.4H4.95l.45,5.61a1.23,1.23,0,0,0,1.16,1.21H22.89a1.24,1.24,0,0,0,1.16-1.21l.45-5.61H19.08a.7.7,0,0,1,0-1.4h6.18a.7.7,0,0,1,.7.76l-.51,6.37A2.62,2.62,0,0,1,22.89,34.79Z"/><path class="cls-1" d="M4.19,26.57a.7.7,0,0,1-.7-.64l-.67-8.3a.7.7,0,1,1,1.39-.11l.67,8.3a.7.7,0,0,1-.64.75Z"/><path class="cls-1" d="M14.72,28.93A4.84,4.84,0,0,1,11,27a8.18,8.18,0,0,1-1.74-5.18A8.18,8.18,0,0,1,11,16.61a4.84,4.84,0,0,1,3.71-2,4.84,4.84,0,0,1,3.71,2h0a8.18,8.18,0,0,1,1.74,5.18A8.18,8.18,0,0,1,18.44,27,4.85,4.85,0,0,1,14.72,28.93Zm0-12.88a3.48,3.48,0,0,0-2.63,1.44,6.79,6.79,0,0,0-1.42,4.3,6.79,6.79,0,0,0,1.42,4.3,3.17,3.17,0,0,0,5.26,0,6.78,6.78,0,0,0,1.42-4.3,6.79,6.79,0,0,0-1.42-4.3A3.49,3.49,0,0,0,14.72,16Z"/></g></g></svg>