<svg xmlns="http://www.w3.org/2000/svg" viewBox="0 0 34.28 34.32"><defs><style>.cls-1{fill:#444;}</style></defs><title>freelancing_and_consulting</title><g id="Layer_2" data-name="Layer 2"><g id="Layer_1-2" data-name="Layer 1"><path class="cls-1" d="M6,34.32a.68.68,0,0,1-.3-.07.7.7,0,0,1-.4-.63v-6.5H.7a.7.7,0,0,1-.7-.7V6a.7.7,0,0,1,.7-.7H5.23V.7a.7.7,0,0,1,.7-.7H33.58a.7.7,0,0,1,.7.7V21.16a.7.7,0,0,1-.7.7H29.06v4.57a.7.7,0,0,1-.7.7H14.85l-8.41,7A.7.7,0,0,1,6,34.32ZM1.4,25.72H6a.7.7,0,0,1,.7.7v5.7l7.46-6.24a.7.7,0,0,1,.45-.16H27.66V6.67H1.4Zm27.66-5.27h3.83V1.4H6.63V5.27H28.36a.7.7,0,0,1,.7.7Z"/></g></g></svg>