<svg xmlns="http://www.w3.org/2000/svg" viewBox="0 0 33.47 35.25"><defs><style>.cls-1{fill:#444;}</style></defs><title>getting_started_with_money</title><g id="Layer_2" data-name="Layer 2"><g id="Layer_1-2" data-name="Layer 1"><path class="cls-1" d="M7.31,35.25a1.38,1.38,0,0,1-1.08-.5A1.25,1.25,0,0,1,6,33.69l.75-3.47a6.77,6.77,0,0,1-3.44-3.39H1.86c-.46,0-1.86,0-1.86-1.48V21a1.79,1.79,0,0,1,1.83-1.94h.91a10.19,10.19,0,0,1,2-3.65,6.89,6.89,0,0,0-1.2-2.91c-.24-.4-.49-.81-.74-1.28a.7.7,0,0,1,.54-1c3.57-.42,5.75.46,7,1.38a15.63,15.63,0,0,1,2.61-.65.7.7,0,1,1,.23,1.38,13.67,13.67,0,0,0-2.71.72.69.69,0,0,1-.7-.11,7.47,7.47,0,0,0-5.21-1.4l.17.28a7.93,7.93,0,0,1,1.42,3.8.7.7,0,0,1-.17.52,8.6,8.6,0,0,0-2,3.82.7.7,0,0,1-.68.55H1.83c-.14,0-.43,0-.43.54v4.34c0,.08.31.08.46.08H3.73a.7.7,0,0,1,.65.43,5.39,5.39,0,0,0,3.36,3.24.7.7,0,0,1,.48.82l-.84,3.92,3.77,0a.29.29,0,0,0,.24-.16l.48-2.25a.71.71,0,0,1,.82-.54,17.74,17.74,0,0,0,6.34,0,.71.71,0,0,1,.82.54l.48,2.25a.28.28,0,0,0,.24.16l3.77,0-.85-4.25a.7.7,0,0,1,.29-.71,8.92,8.92,0,0,0,4.15-7.26,8.67,8.67,0,0,0-3.4-6.7.7.7,0,1,1,.89-1.08,10,10,0,0,1,3.91,7.78,10.2,10.2,0,0,1-4.37,8.15l.78,3.93a1.26,1.26,0,0,1-.26,1.06,1.38,1.38,0,0,1-1.08.49h0l-3.83,0A1.66,1.66,0,0,1,19,34l-.34-1.59a19.52,19.52,0,0,1-5.52,0L12.75,34a1.66,1.66,0,0,1-1.6,1.27l-3.83,0ZM24.36,34h0Z"/><path class="cls-1" d="M30.55,21.45a3.92,3.92,0,0,1-2.31-.86.7.7,0,0,1,.83-1.13,2.29,2.29,0,0,0,1.79.56,2.23,2.23,0,0,0,1.29-1,.7.7,0,0,1,1.22.69,3.56,3.56,0,0,1-2.22,1.73A2.91,2.91,0,0,1,30.55,21.45Z"/><path class="cls-1" d="M20.68,13A6.51,6.51,0,1,1,27.2,6.51,6.52,6.52,0,0,1,20.68,13Zm0-11.62A5.11,5.11,0,1,0,25.8,6.51,5.12,5.12,0,0,0,20.68,1.4Z"/><path class="cls-1" d="M20.55,10a3.73,3.73,0,0,1-1.71-.37.7.7,0,1,1,.63-1.25,2.55,2.55,0,0,0,1.23.22c.54,0,.78-.34.78-.65s-.36-.63-.94-.63a2.15,2.15,0,0,1-2.41-2,2.12,2.12,0,0,1,2.24-2.07,3.57,3.57,0,0,1,1.81.37.7.7,0,0,1-.64,1.25,2.26,2.26,0,0,0-1.12-.22c-.62,0-.9.35-.89.65s.4.62,1,.63a2.11,2.11,0,0,1,2.33,2A2.08,2.08,0,0,1,20.74,10Z"/><path class="cls-1" d="M6.75,20.54a.7.7,0,0,1-.61-1A5.35,5.35,0,0,1,7,18.32a.7.7,0,0,1,1,1,4,4,0,0,0-.67.87A.7.7,0,0,1,6.75,20.54Z"/></g></g></svg>