<svg xmlns="http://www.w3.org/2000/svg" viewBox="0 0 36.94 32.55"><defs><style>.cls-1{fill:#444;}</style></defs><title>government_careers</title><g id="Layer_2" data-name="Layer 2"><g id="Layer_1-2" data-name="Layer 1"><path class="cls-1" d="M36.22,32.55H.72a.72.72,0,0,1,0-1.44h35.5a.72.72,0,0,1,0,1.44Z"/><path class="cls-1" d="M34.38,29.78H2.55a.72.72,0,0,1,0-1.44H34.38a.72.72,0,0,1,0,1.44Z"/><path class="cls-1" d="M33.54,10.29H3.4a.72.72,0,0,0,0,1.44H5.57V25.55H4.2A.72.72,0,0,0,4.2,27H32.74a.72.72,0,0,0,0-1.44H30.82V11.73h2.72a.72.72,0,0,0,0-1.44ZM9.24,25.55H7V11.73H9.24Zm6.4,0h-5V11.73h5Zm3.67,0H17.08V11.73h2.23Zm6.4,0h-5V11.73h5Zm3.67,0H27.15V11.73h2.23Z"/><path class="cls-1" d="M33.55,7.93,18.81.08a.72.72,0,0,0-.68,0L3.39,7.93a.72.72,0,0,0,.34,1.36H33.21a.72.72,0,0,0,.34-1.36ZM6.61,7.84,18.47,1.54,30.33,7.84Z"/></g></g></svg>