<?xml version="1.0" encoding="utf-8"?>
<!-- Generator: Adobe Illustrator 24.1.0, SVG Export Plug-In . SVG Version: 6.00 Build 0)  -->
<svg version="1.1" id="Laag_1" xmlns="http://www.w3.org/2000/svg" xmlns:xlink="http://www.w3.org/1999/xlink" x="0px" y="0px"
	 viewBox="0 0 400 400" style="enable-background:new 0 0 400 400;" xml:space="preserve">
<g>
	<path d="M278.6,380h-30.9c-7.7,0-13.9-6.9-13.9-15.4v-44.1h15v44.1c0,0.2,0,0.3,0,0.4h28.6c0-0.1,0-0.3,0-0.4v-45.5h15v45.5
		C292.5,373.1,286.3,380,278.6,380z"/>
	<path d="M292.2,326.5H107.8c-6.9,0-12.5-5.6-12.5-12.5V32.5c0-6.9,5.6-12.5,12.5-12.5h184.3c6.9,0,12.5,5.6,12.5,12.5V314
		C304.7,320.9,299,326.5,292.2,326.5z M110.3,311.5h179.3V35H110.3V311.5z"/>
	<path d="M152.3,380h-30.9c-7.7,0-13.9-6.9-13.9-15.4v-44.1h15v44.1c0,0.2,0,0.3,0,0.4h28.6c0-0.1,0-0.3,0-0.4v-45.5h15v45.5
		C166.2,373.1,160,380,152.3,380z"/>
	<path d="M253.3,287.6H146.7c-6.9,0-12.5-5.6-12.5-12.5V71.4c0-6.9,5.6-12.5,12.5-12.5h106.6c6.9,0,12.5,5.6,12.5,12.5v203.7
		C265.8,282,260.2,287.6,253.3,287.6z M149.2,272.6h101.6V73.9H149.2V272.6z"/>
	<path d="M232.2,252.9c-2,0-3.9-0.8-5.4-2.3l-64.3-66.7c-2.9-3-2.8-7.7,0.2-10.6s7.7-2.8,10.6,0.2l64.3,66.7c2.9,3,2.8,7.7-0.2,10.6
		C235.9,252.2,234,252.9,232.2,252.9z"/>
	<path d="M232.2,175.2c-2,0-3.9-0.8-5.4-2.3l-64.3-66.7c-2.9-3-2.8-7.7,0.2-10.6c3-2.9,7.7-2.8,10.6,0.2l64.3,66.7
		c2.9,3,2.8,7.7-0.2,10.6C235.9,174.5,234,175.2,232.2,175.2z"/>
</g>
</svg>
