<?xml version="1.0" encoding="utf-8"?>
<!-- Generator: Adobe Illustrator 24.1.0, SVG Export Plug-In . SVG Version: 6.00 Build 0)  -->
<svg version="1.1" id="Laag_1" xmlns="http://www.w3.org/2000/svg" xmlns:xlink="http://www.w3.org/1999/xlink" x="0px" y="0px"
	 viewBox="0 0 400 400" style="enable-background:new 0 0 400 400;" xml:space="preserve">
<style type="text/css">
	.st0{display:none;fill:none;stroke:#000000;stroke-width:15;stroke-miterlimit:10;}
	.st1{display:none;}
	.st2{display:inline;fill:none;stroke:#8BFF8B;stroke-width:15;stroke-miterlimit:10;}
	.st3{display:inline;}
	.st4{fill:none;stroke:#8BFF8B;stroke-width:15;stroke-linecap:square;stroke-miterlimit:10;}
</style>
<g>
	<path d="M165.7,304.8c-23.2,0-42.1-18.9-42.1-42.1s18.9-42.1,42.1-42.1s42.1,18.9,42.1,42.1S189,304.8,165.7,304.8z M165.7,235.5
		c-15,0-27.1,12.2-27.1,27.1s12.2,27.1,27.1,27.1s27.1-12.2,27.1-27.1S180.7,235.5,165.7,235.5z"/>
	<g>
		<path d="M242.1,373.7h-15v-7.5c0-33.9-27.6-61.5-61.5-61.5s-61.5,27.6-61.5,61.5v7.5h-15v-7.5c0-42.2,34.3-76.5,76.5-76.5
			s76.5,34.3,76.5,76.5V373.7z"/>
		<rect x="89.1" y="358.7" width="153.2" height="15"/>
	</g>
</g>
<image style="display:none;overflow:visible;enable-background:new    ;" width="512" height="512" xlink:href="../../../../../../Downloads/podium.png"  transform="matrix(0.75 0 0 0.75 -2 36.9787)">
</image>
<path class="st0" d="M202.9,179.4h-109c-2.9,0-5.2,2.5-5,5.5l9.1,100c0.2,2.6,2.4,4.5,5,4.5h71.1h19.7c2.6,0,4.7-2,5-4.5l3.3-36.7
	l5.8-63.3C208.1,182,205.8,179.4,202.9,179.4z"/>
<path d="M27.5,266.4c-4.1,0-7.5-3.4-7.5-7.5V33.8c0-4.1,3.4-7.5,7.5-7.5s7.5,3.4,7.5,7.5v225.1C35,263,31.6,266.4,27.5,266.4z"/>
<path d="M20,118.3V37.5l113.2,40.4L20,118.3z M35,58.7V97l53.6-19.1L35,58.7z"/>
<g>
	<path d="M303.5,304.8c-23.2,0-42.1-18.9-42.1-42.1c0-23.2,18.9-42.1,42.1-42.1c23.2,0,42.1,18.9,42.1,42.1
		C345.6,285.9,326.7,304.8,303.5,304.8z M303.5,235.5c-15,0-27.1,12.2-27.1,27.1s12.2,27.1,27.1,27.1s27.1-12.2,27.1-27.1
		S318.4,235.5,303.5,235.5z"/>
	<g>
		<path d="M379.9,373.7h-15v-7.5c0-33.9-27.6-61.5-61.5-61.5s-61.5,27.6-61.5,61.5v7.5h-15v-7.5c0-42.2,34.3-76.5,76.5-76.5
			s76.5,34.3,76.5,76.5V373.7z"/>
		<rect x="226.8" y="358.7" width="153.2" height="15"/>
	</g>
</g>
<g class="st1">
	<circle class="st2" cx="418.7" cy="-51.8" r="33.1"/>
	<g class="st3">
		<path class="st4" d="M352.6,47.1c0-36.5,29.5-65.9,65.9-65.9s65.9,29.5,65.9,65.9"/>
		<line class="st4" x1="352.6" y1="47.1" x2="484.6" y2="47.1"/>
	</g>
</g>
<g>
	<path d="M96.6,197.5c-23.2,0-42.1-18.9-42.1-42.1s18.9-42.1,42.1-42.1s42.1,18.9,42.1,42.1S119.9,197.5,96.6,197.5z M96.6,128.3
		c-15,0-27.1,12.2-27.1,27.1s12.2,27.1,27.1,27.1s27.1-12.2,27.1-27.1S111.6,128.3,96.6,128.3z"/>
	<g>
		<path d="M35,266.4H20v-7.5c0-42.2,34.3-76.5,76.5-76.5c29.1,0,55.3,16.2,68.4,42.2l3.4,6.7l-13.4,6.7l-3.4-6.7
			c-10.5-20.9-31.6-33.9-55-33.9C62.6,197.4,35,225,35,258.9V266.4z"/>
		<rect x="20" y="251.4" width="117.2" height="15"/>
	</g>
</g>
</svg>
