<?xml version="1.0" encoding="utf-8"?>
<!-- Generator: Adobe Illustrator 24.1.0, SVG Export Plug-In . SVG Version: 6.00 Build 0)  -->
<svg version="1.1" id="Laag_1" xmlns="http://www.w3.org/2000/svg" xmlns:xlink="http://www.w3.org/1999/xlink" x="0px" y="0px"
	 viewBox="0 0 400 400" style="enable-background:new 0 0 400 400;" xml:space="preserve">
<g>
	<path d="M314.9,334.5c-3.3,0-6.5-1.3-8.8-3.7l0,0c0,0,0,0,0,0L69.2,93.9c-4.9-4.9-4.9-12.8,0-17.7l58.5-58.5
		c4.9-4.9,12.8-4.9,17.7,0l236.9,236.9c2.4,2.4,3.7,5.5,3.7,8.8c0,3.3-1.3,6.5-3.7,8.8l-58.5,58.5
		C321.4,333.2,318.3,334.5,314.9,334.5z M81.6,85.1l233.3,233.3l54.9-54.9L136.5,30.1L81.6,85.1z"/>
	<path d="M103.3,382.2c-3.2,0-6.4-1.2-8.8-3.7l-73-73c-2.4-2.4-3.7-5.5-3.7-8.8s1.3-6.5,3.7-8.8l22.1-22.1c2.4-2.4,5.5-3.7,8.8-3.7
		c3.3,0,6.5,1.3,8.8,3.7l73,73c2.4,2.4,3.7,5.5,3.7,8.8s-1.3,6.5-3.7,8.8l-22.1,22.1C109.7,381,106.5,382.2,103.3,382.2z M105.1,368
		L105.1,368L105.1,368z M33.8,296.7l69.5,69.5l18.5-18.5l-69.5-69.5L33.8,296.7z"/>
	<path d="M48.7,385.9c-3.3,0-6.5-1.3-8.8-3.7l-22.1-22.1c-2.4-2.4-3.7-5.5-3.7-8.8s1.3-6.5,3.7-8.8l22.1-22.1
		c4.9-4.9,12.8-4.9,17.7,0l22.1,22.1c2.4,2.4,3.7,5.5,3.7,8.8s-1.3,6.5-3.7,8.8l-22.1,22.1C55.1,384.6,52,385.9,48.7,385.9z
		 M30.1,351.3l18.5,18.5l18.5-18.5l-18.5-18.5L30.1,351.3z"/>
	<path d="M163.4,384c-3.3,0-6.6-1.3-9-3.7L19.7,245.6c-2.8-2.8-4.1-6.8-3.6-10.7l12.6-89.1c0.4-2.7,1.7-5.2,3.6-7.2l46.1-46.1
		c2.9-2.9,7.7-2.9,10.6,0c2.9,2.9,2.9,7.7,0,10.6l-45.6,45.6l-12.3,87.1l133,133l87.7-12.9l45-45c2.9-2.9,7.7-2.9,10.6,0
		c2.9,2.9,2.9,7.7,0,10.6L262,367.1c-1.9,1.9-4.4,3.2-7.1,3.6l-89.7,13.2C164.6,384,164,384,163.4,384z"/>
	<circle cx="161" cy="93.4" r="12.9"/>
	<circle cx="306.6" cy="239" r="12.9"/>
</g>
</svg>
