<?xml version="1.0" encoding="utf-8"?>
<!-- Generator: Adobe Illustrator 24.1.0, SVG Export Plug-In . SVG Version: 6.00 Build 0)  -->
<svg version="1.1" id="Laag_1" xmlns="http://www.w3.org/2000/svg" xmlns:xlink="http://www.w3.org/1999/xlink" x="0px" y="0px"
	 viewBox="0 0 400 400" style="enable-background:new 0 0 400 400;" xml:space="preserve">
<g>
	<path d="M188,371.6c-10.9,0-21.8-4.1-30.1-12.4L40.8,242.1c-8-8-12.4-18.7-12.4-30.1c0-11.4,4.4-22,12.4-30.1L153.5,69.3
		c4.9-4.9,12.8-4.9,17.7,0l159.5,159.5c2.4,2.4,3.7,5.5,3.7,8.8c0,3.3-1.3,6.5-3.7,8.8L218.1,359.2
		C209.8,367.4,198.9,371.6,188,371.6z M168.6,348.5c10.7,10.7,28.2,10.7,38.9,0l110.9-110.9l-156-156L51.5,192.6
		c-5.2,5.2-8.1,12.1-8.1,19.4c0,7.3,2.9,14.3,8.1,19.4L168.6,348.5z"/>
	<path d="M311.2,224.6c-3.2,0-6.4-1.2-8.8-3.7L179,97.7c-2.4-2.4-3.7-5.5-3.7-8.8c0-3.3,1.3-6.5,3.7-8.8l56.3-56.3
		c2.4-2.4,5.5-3.7,8.8-3.7s6.5,1.3,8.8,3.7l123.3,123.3c2.4,2.4,3.7,5.5,3.7,8.8c0,3.3-1.3,6.5-3.7,8.8L320,221
		C317.6,223.4,314.4,224.6,311.2,224.6z M191.4,88.8l119.8,119.8l52.8-52.8L244.2,36L191.4,88.8z"/>
	<path d="M120.6,380c-3.3,0-6.5-1.3-8.8-3.7l-88.1-88.1c-2.4-2.4-3.7-5.5-3.7-8.8s1.3-6.5,3.7-8.8L48.3,246c4.9-4.9,12.8-4.9,17.7,0
		L154,334c2.4,2.4,3.7,5.5,3.7,8.8s-1.3,6.5-3.7,8.8l-24.6,24.6C127,378.7,123.9,380,120.6,380z M36,279.4l84.5,84.5l21.1-21.1
		l-84.5-84.5L36,279.4z"/>
	<path d="M235.4,108.7c-1.9,0-3.8-0.7-5.3-2.2c-2.9-2.9-2.9-7.7,0-10.6l21.1-21.1c2.9-2.9,7.7-2.9,10.6,0c2.9,2.9,2.9,7.7,0,10.6
		l-21.1,21.1C239.2,107.9,237.3,108.7,235.4,108.7z"/>
	<path d="M187.2,319c-1.9,0-3.8-0.7-5.3-2.2l-98.6-98.6c-2.9-2.9-2.9-7.7,0-10.6c2.9-2.9,7.7-2.9,10.6,0l98.6,98.6
		c2.9,2.9,2.9,7.7,0,10.6C191,318.2,189.1,319,187.2,319z"/>
	<path d="M298.8,172.1c-1.9,0-3.8-0.7-5.3-2.2c-2.9-2.9-2.9-7.7,0-10.6l21.1-21.1c2.9-2.9,7.7-2.9,10.6,0c2.9,2.9,2.9,7.7,0,10.6
		l-21.1,21.1C302.7,171.4,300.7,172.1,298.8,172.1z"/>
	<path d="M44.8,362.7c-1.9,0-3.8-0.7-5.3-2.2c-2.9-2.9-2.9-7.7,0-10.6l28.2-28.2c2.9-2.9,7.7-2.9,10.6,0c2.9,2.9,2.9,7.7,0,10.6
		l-28.2,28.2C48.6,362,46.7,362.7,44.8,362.7z"/>
</g>
</svg>
