<?xml version="1.0" encoding="utf-8"?>
<!-- Generator: Adobe Illustrator 24.1.0, SVG Export Plug-In . SVG Version: 6.00 Build 0)  -->
<svg version="1.1" id="Laag_1" xmlns="http://www.w3.org/2000/svg" xmlns:xlink="http://www.w3.org/1999/xlink" x="0px" y="0px"
	 viewBox="0 0 400 400" style="enable-background:new 0 0 400 400;" xml:space="preserve">
<g>
	<path d="M64.9,221.5c-1.7-49.8,11.1-89.4,37.9-117.6c39.5-41.6,94.7-43,97-43l0.2,0l0.2,0c55.2,2.3,96,31,118.1,83
		c16.3,38.5,16.5,75.8,16.5,77.4l-7.5,0l-7.5,0c0-0.4-0.2-36.2-15.5-72c-19.9-46.6-55-71.3-104.4-73.4c-3.4,0.1-52.4,2.6-86.3,38.5
		C89.7,139.5,78.4,175.4,79.9,221L64.9,221.5z"/>
	<path d="M372.2,236.1l-14.8-2.7l7.4,1.3l-7.4-1.3c0-0.3,4.7-27.5-0.9-61.6C349.1,126.6,328,91.1,294,66.4
		c-26.1-19-57.6-29.5-93.4-31.4c0,0,0,0,0,0c-3.2,0-70,0.7-115.2,48.7c-32.4,34.4-46.5,84.9-41.9,149.9l-15,1.1
		c-5-69.5,10.5-123.8,46-161.4C125.3,19.5,197.8,19.9,200.9,20l0.3,0c38.9,1.9,73.1,13.5,101.6,34.2c37,26.9,60.7,66.9,68.6,115.7
		C377.3,206.5,372.4,234.9,372.2,236.1z"/>
	<path d="M77.7,380c-17.1,0-32.5-11.7-36.5-29.1L21,263.5c-2.3-9.8-0.6-19.8,4.7-28.3c5.3-8.5,13.6-14.4,23.4-16.7l40.9-9.5
		c6.7-1.6,13.4,2.7,15,9.4l31.4,136.2c1.6,6.7-2.7,13.4-9.4,15L86.1,379C83.3,379.7,80.5,380,77.7,380z M90.9,224.2l-38.5,8.9
		c-5.9,1.4-10.8,4.9-14,10c-3.2,5.1-4.2,11.1-2.8,17l20.2,87.5c2.8,12.1,14.9,19.7,27,16.9l38.5-8.9L90.9,224.2z"/>
	<path d="M322.3,379.8c-2.8,0-5.6-0.3-8.4-1h0l-40.9-9.5c-3.3-0.8-6-2.7-7.8-5.6c-1.8-2.8-2.3-6.2-1.6-9.4L295,218.2
		c1.6-6.7,8.3-10.9,15-9.4l40.9,9.5c9.8,2.3,18.1,8.2,23.4,16.7s7,18.5,4.7,28.3l-20.2,87.5C354.8,368.1,339.4,379.8,322.3,379.8z
		 M317.2,364.2c12.1,2.8,24.2-4.8,27-16.9l20.2-87.5c1.4-5.9,0.3-11.9-2.8-17c-3.2-5.1-8.2-8.6-14-10l-38.5-8.9l-30.3,131.3
		L317.2,364.2L317.2,364.2z"/>
</g>
</svg>
