<?xml version="1.0" encoding="utf-8"?>
<!-- Generator: Adobe Illustrator 24.1.0, SVG Export Plug-In . SVG Version: 6.00 Build 0)  -->
<svg version="1.1" id="Laag_1" xmlns="http://www.w3.org/2000/svg" xmlns:xlink="http://www.w3.org/1999/xlink" x="0px" y="0px"
	 viewBox="0 0 400 400" style="enable-background:new 0 0 400 400;" xml:space="preserve">
<g>
	<path d="M199.6,380c-21,0-37.7-9.1-40.8-10.9c-12.9-6.5-22.9-18.1-28.8-33.6c-5.5-14.4-5.9-27.9-5.9-31.8
		c0-10.1,3.5-22.6,13.4-27.3c0.3-0.1,0.6-0.3,1-0.5c4-2.1,12.3-6.4,22.6-1.6c10.4,4.8,16.6,13.7,16.4,23.2
		c-0.4,15.3,5.9,22.9,5.9,23l0.1,0.1c3.7,4.6,7.8,7.1,11.9,7.4c6.9,0.6,12.9-4.6,13-4.7c0.1-0.1,8.9-8.1,8.5-17.3
		c-0.2-5.1-3.4-10.1-9.6-14.7c-21.6-16.4-31.9-43.1-34.3-54.9l14.7-3c2.3,11.5,11.9,33.2,28.7,46c9.9,7.5,15.1,16.3,15.5,26.2
		c0.6,16.3-13,28.5-13.6,29c-1,0.9-10.8,9.4-24,8.4c-8.5-0.6-16-5-22.5-12.9c-1.8-2.1-10-13-9.5-33c0.1-3.4-2.9-7-7.7-9.2
		c-3.3-1.6-5.9-0.5-9.4,1.3c-0.5,0.2-0.9,0.5-1.3,0.7c-2.7,1.3-4.9,7.5-4.9,13.8c0,4,0.8,39.3,26.6,52.1l0.6,0.3
		c2.7,1.6,27.5,15.5,53,5.2c26.1-10.6,33.9-34.6,36.1-48c3.1-17.9-2-32.7-15-44.1c-2.5-2.2-4.8-4.1-6.9-5.9
		c-11.4-9.6-18.2-15.5-21.2-26.8l14.5-3.7c1.6,6.4,5.5,9.9,16.3,19.1c2.1,1.8,4.5,3.8,7,6c17,14.8,23.9,34.8,20,57.9
		c-2.8,16.5-12.4,46.1-45.3,59.4C216.2,378.7,207.6,380,199.6,380z"/>
	<path d="M180.3,242.4c-1.3,0-2.5-0.2-3.7-0.6c-5.1-1.6-21.4-9.3-20.1-40.6v-4.9c0-7,4.8-12.6,10.9-12.6l63.6-0.1h0c0,0,0,0,0,0
		c2.7,0,5.2,1.1,7.2,3c2.4,2.4,3.7,5.8,3.7,9.5v4.9c1.3,31.3-15,39-20.1,40.6c-1.2,0.4-2.4,0.6-3.7,0.6L180.3,242.4
		C180.4,242.4,180.3,242.4,180.3,242.4z M171.5,198.7l0,3c-0.9,20.1,6.9,24.8,9.3,25.7l36.8-0.1c2.4-0.9,10.2-5.5,9.3-25.7l0-0.3
		v-2.6L171.5,198.7z M231.1,198.6L231.1,198.6L231.1,198.6z"/>
	<path d="M236.2,198.6h-73.8c-4.1,0-7.8-2-10-5.3l-33.5-50.6c-1.6-2.4-2.5-5.2-2.5-8.1V74.7c0-6.3,5.3-11.4,11.8-11.4h143.5
		c6.5,0,11.8,5.1,11.8,11.4V135c0,3-0.9,5.9-2.6,8.4L246,193.5C243.8,196.7,240.1,198.6,236.2,198.6z M163.9,183.6h70.7l33.9-48.8
		V78.3H131.4v56.2L163.9,183.6z"/>
	<path d="M187.5,78.3h-55V32.5c0-6.9,5.6-12.5,12.5-12.5h30c6.9,0,12.5,5.6,12.5,12.5V78.3z M147.5,63.3h25V35h-25V63.3z"/>
	<path d="M267.5,78.3h-55V32.5c0-6.9,5.6-12.5,12.5-12.5h30c6.9,0,12.5,5.6,12.5,12.5V78.3z M227.5,63.3h25V35h-25V63.3z"/>
</g>
</svg>
