<svg xmlns="http://www.w3.org/2000/svg" viewBox="0 0 34.28 33.25"><defs><style>.cls-1{fill:#444;}</style></defs><title>home_business</title><g id="Layer_2" data-name="Layer 2"><g id="Layer_1-2" data-name="Layer 1"><path class="cls-1" d="M28.16,33.25H6.41a.7.7,0,0,1-.7-.7V15.91a.7.7,0,0,1,1.4,0V31.85H27.46V15.91a.7.7,0,0,1,1.4,0V32.55A.7.7,0,0,1,28.16,33.25Z"/><path class="cls-1" d="M21.3,26h-8a.7.7,0,0,1-.7-.7v-8a.7.7,0,0,1,.7-.7h8a.7.7,0,0,1,.7.7v8A.7.7,0,0,1,21.3,26ZM14,24.63H20.6V18H14Z"/><path class="cls-1" d="M6.41,10.89a.7.7,0,0,1-.7-.7V.7a.7.7,0,0,1,.7-.7h4.54a.7.7,0,0,1,.7.7V6.11a.7.7,0,1,1-1.4,0V1.4H7.11v8.79A.7.7,0,0,1,6.41,10.89Z"/><path class="cls-1" d="M31.14,19a.7.7,0,0,1-.47-.18L17.14,6.75,3.61,18.81A.74.74,0,0,1,3.1,19a.7.7,0,0,1-.48-.23L.18,16A.7.7,0,0,1,0,15.5a.75.75,0,0,1,0-.1.7.7,0,0,1,.22-.67L16.53.18A.69.69,0,0,1,17.14,0a.69.69,0,0,1,.61.16L34,14.73a.7.7,0,0,1,.22.67.75.75,0,0,1,0,.1.7.7,0,0,1-.18.51l-2.44,2.74a.7.7,0,0,1-.48.23ZM1.55,15.44,3.2,17.3l13.48-12a.7.7,0,0,1,.93,0l13.48,12,1.65-1.86h0L17.17,1.53h0L1.55,15.44Z"/></g></g></svg>