<svg xmlns="http://www.w3.org/2000/svg" viewBox="0 0 35.42 34.09"><defs><style>.cls-1{fill:#444;}</style></defs><title>home_buying</title><g id="Layer_2" data-name="Layer 2"><g id="Layer_1-2" data-name="Layer 1"><path class="cls-1" d="M32.13,34.09a.7.7,0,0,1-.7-.7V11.2a.7.7,0,1,1,1.4,0V33.39A.7.7,0,0,1,32.13,34.09Z"/><path class="cls-1" d="M3.29,34.09a.7.7,0,0,1-.7-.7V11.2a.7.7,0,1,1,1.4,0V33.39A.7.7,0,0,1,3.29,34.09Z"/><path class="cls-1" d="M34.72,11.7H23.17a.7.7,0,0,1-.48-.19l-5-4.72-5,4.72a.7.7,0,0,1-.48.19H.7a.7.7,0,0,1-.59-1.07L6.54.33A.7.7,0,0,1,7.13,0H28.28a.7.7,0,0,1,.59.33l6.43,10.3a.7.7,0,0,1-.59,1.07ZM23.45,10.3h10L27.9,1.4H7.52L2,10.3H12l5.26-5a.7.7,0,0,1,1,0Z"/><path class="cls-1" d="M21.45,34.09a.7.7,0,0,1-.7-.7V25.28a3.05,3.05,0,0,0-6.09,0v8.12a.7.7,0,1,1-1.4,0V25.28a4.45,4.45,0,0,1,8.9,0v8.12A.7.7,0,0,1,21.45,34.09Z"/><path class="cls-1" d="M10.14,20.36H7.05a.7.7,0,0,1-.7-.7V15.3a.7.7,0,0,1,.7-.7h3.08a.7.7,0,0,1,.7.7v4.36A.7.7,0,0,1,10.14,20.36ZM7.76,19H9.44V16H7.76Z"/><path class="cls-1" d="M10.14,30H7.05a.7.7,0,0,1-.7-.7V23.8a.7.7,0,0,1,.7-.7h3.08a.7.7,0,0,1,.7.7v5.5A.7.7,0,0,1,10.14,30Zm-2.38-1.4H9.44V24.5H7.76Z"/><path class="cls-1" d="M28.36,30H25.28a.7.7,0,0,1-.7-.7V23.8a.7.7,0,0,1,.7-.7h3.08a.7.7,0,0,1,.7.7v5.5A.7.7,0,0,1,28.36,30ZM26,28.59h1.68V24.5H26Z"/><path class="cls-1" d="M28.36,20.36H25.28a.7.7,0,0,1-.7-.7V15.3a.7.7,0,0,1,.7-.7h3.08a.7.7,0,0,1,.7.7v4.36A.7.7,0,0,1,28.36,20.36ZM26,19h1.68V16H26Z"/><path class="cls-1" d="M17.71,17.06A3.09,3.09,0,1,1,20.8,14,3.09,3.09,0,0,1,17.71,17.06Zm0-4.78A1.69,1.69,0,1,0,19.4,14,1.69,1.69,0,0,0,17.71,12.28Z"/><path class="cls-1" d="M34.1,34.09H1.32a.7.7,0,1,1,0-1.4H34.1a.7.7,0,0,1,0,1.4Z"/></g></g></svg>