<svg xmlns="http://www.w3.org/2000/svg" viewBox="0 0 33.78 25.4"><defs><style>.cls-1{fill:#444;}</style></defs><title>human_resources</title><g id="Layer_2" data-name="Layer 2"><g id="Layer_1-2" data-name="Layer 1"><path class="cls-1" d="M11.14,15.71a.69.69,0,0,1-.24,0C7.12,14.3,5.36,11.73,5.36,7.58,5.36,4,7.84,1.3,11.14,1.3S16.93,4,16.93,7.58c0,2.68-.58,6.44-5.57,8.09A.69.69,0,0,1,11.14,15.71Zm0-13c-2.5,0-4.38,2.1-4.38,4.88,0,3.49,1.32,5.5,4.39,6.69,3.06-1.09,4.38-3.11,4.38-6.69C15.53,4.8,13.64,2.7,11.14,2.7Z"/><path class="cls-1" d="M21.5,25.4h0a.7.7,0,0,1-.69-.71l0-3.11a5,5,0,0,0-5-5H6.46a5,5,0,0,0-5,5l0,3.12a.7.7,0,0,1-.7.69h0A.7.7,0,0,1,0,24.69l0-3.11a6.42,6.42,0,0,1,6.41-6.41h9.37a6.42,6.42,0,0,1,6.41,6.42l0,3.12A.7.7,0,0,1,21.5,25.4Z"/><path class="cls-1" d="M25.33,11.1a.69.69,0,0,1-.24,0c-2.9-1-4.25-3-4.25-6.19a4.5,4.5,0,1,1,9,0c0,2.05-.44,4.93-4.27,6.2A.68.68,0,0,1,25.33,11.1Zm0-9.7a3.18,3.18,0,0,0-3.09,3.46c0,2.49.93,3.93,3.1,4.79,2.16-.79,3.08-2.24,3.08-4.79A3.18,3.18,0,0,0,25.33,1.4Z"/><path class="cls-1" d="M33,18.31h0a.7.7,0,0,1-.69-.71l0-2.31a3.56,3.56,0,0,0-3.56-3.55h-7a3.56,3.56,0,0,0-3.56,3.56.7.7,0,1,1-1.4,0,5,5,0,0,1,5-5h7a5,5,0,0,1,5,5l0,2.32A.7.7,0,0,1,33,18.31Z"/></g></g></svg>