<?xml version="1.0" encoding="utf-8"?>
<!-- Generator: Adobe Illustrator 24.1.0, SVG Export Plug-In . SVG Version: 6.00 Build 0)  -->
<svg version="1.1" id="Laag_1" xmlns="http://www.w3.org/2000/svg" xmlns:xlink="http://www.w3.org/1999/xlink" x="0px" y="0px"
	 viewBox="0 0 400 400" style="enable-background:new 0 0 400 400;" xml:space="preserve">
<style type="text/css">
	.st0{display:none;}
	.st1{display:inline;fill:none;stroke:#000000;stroke-width:15;stroke-miterlimit:10;}
	.st2{display:inline;fill:none;stroke:#000000;stroke-width:15;stroke-linecap:round;stroke-miterlimit:10;}
	.st3{display:inline;}
	.st4{fill:none;stroke:#000000;stroke-width:15;stroke-linecap:round;stroke-miterlimit:10;}
</style>
<path class="st0" d="M296.5,380c-5.1,0-10.5-0.4-16.2-1.2c-18.9-2.5-34.5-8.4-35.1-8.7c-75.2-28.8-126.6-83.3-130.9-87.9
	c-64.8-60.2-89-145.4-90-149c-11.5-40,6.8-65,7.6-66l0.3-0.4l38.3-38.7c14.1-14.2,33.6-6.8,41.9-0.8l0.5,0.3l51.2,50.2
	c7.7,7.7,11.4,16.1,11,25c-0.6,13.1-10.1,21.9-12.1,23.7l-24.6,24.2l-0.4,0.3c-3.1,2.3-4.3,4.2-4.4,5.2c0,0.1,0,0.3,0.1,0.5
	c0,0,0,0,0,0l0.6,0.6l0.5,1c11.9,24.3,39.4,53.5,41.1,55.2c40.9,40.2,57.2,47.3,58.7,47.9l1.3,0.3l0.8,0.7c3.1,2.2,5.1,2.5,5.7,2.3
	c0.1,0,0,0.2,0.1,0.2c0,0,0,0,0,0l0.5-0.9l28.9-28.4c8.9-8.9,20.5-11.8,32.6-8c8.5,2.6,14.3,7.6,15,8.1l0.3,0.3l47.9,46.1
	c8.1,7.9,12.1,16.6,12.1,25.7c0,12.9-8.2,21.7-9.6,23.2l-31.7,33.5C329,374.9,315,380,296.5,380z M43.6,76.6
	c-1.9,2.8-13.7,22-4.9,52.6c0.3,0.9,24.3,85,86,142.3l0.4,0.4c0.5,0.6,51.9,56.1,125.4,84.2c15.6,5.9,59.8,17.1,76.6-1.6l0.1-0.1
	l32-33.9c2.1-2.1,11.9-13.6-2.4-27.6l-47.7-45.9c-2-1.7-15.6-12.1-27-0.7l-27.7,27.2c-1.3,1.8-4.1,4.8-9,5.9
	c-5.2,1.2-10.9-0.1-16.9-4.1c-5.1-2.1-23.2-11.5-63.6-51.2l-0.2-0.2c-1.2-1.3-30-31.5-43.4-58.4c-1.3-1.8-3.4-5.6-3-10.8
	c0.5-5.7,3.9-10.9,10-15.5l24.6-24.1c0,0,6.7-5.8,7-13.2c0.2-4.4-2-9-6.6-13.6l-50.2-49.3c-2.4-1.6-14.3-8.5-22.2-0.6l-5.3-5.3
	l5.3,5.3L43.6,76.6z M234.2,261.5L234.2,261.5L234.2,261.5z"/>
<g>
	<path d="M367.5,330h-335c-6.9,0-12.5-5.6-12.5-12.5v-235C20,75.6,25.6,70,32.5,70h335c6.9,0,12.5,5.6,12.5,12.5v235
		C380,324.4,374.4,330,367.5,330z M35,315h330V85H35V315z"/>
	<path d="M200,234.5c-2.9,0-5.9-1-8.2-3.1L22.6,83.1l9.9-11.3L200,218.7L367.6,71.9l9.9,11.3L208.2,231.4
		C205.9,233.5,202.9,234.5,200,234.5z"/>
	<rect x="2" y="251.2" transform="matrix(0.7245 -0.6893 0.6893 0.7245 -152.2988 136.4382)" width="185" height="15"/>
	<rect x="297.7" y="166.4" transform="matrix(0.6868 -0.7268 0.7268 0.6868 -92.6111 302.953)" width="15" height="185.1"/>
</g>
<g class="st0">
	<path class="st1" d="M128.2,219.8l236.5-35.5c2.4-0.4,4.3-2.5,4.3-5V68.5c0-2.8-2.2-5-5-5H79L128.2,219.8z"/>
	<path class="st2" d="M128.6,219.8L99.3,267c-0.4,0.7,0.1,1.5,0.8,1.5h240"/>
	<g class="st3">
		<line class="st4" x1="31" y1="27.5" x2="67.6" y2="27.5"/>
		<line class="st4" x1="67.6" y1="27.5" x2="79" y2="63.4"/>
	</g>
	<ellipse class="st1" cx="118.8" cy="333.7" rx="35" ry="35.1"/>
	<ellipse class="st1" cx="310.3" cy="337.4" rx="35" ry="35.1"/>
</g>
</svg>
