<?xml version="1.0" encoding="utf-8"?>
<!-- Generator: Adobe Illustrator 24.1.0, SVG Export Plug-In . SVG Version: 6.00 Build 0)  -->
<svg version="1.1" id="Laag_1" xmlns="http://www.w3.org/2000/svg" xmlns:xlink="http://www.w3.org/1999/xlink" x="0px" y="0px"
	 viewBox="0 0 400 400" style="enable-background:new 0 0 400 400;" xml:space="preserve">
<style type="text/css">
	.st0{display:none;}
	.st1{display:inline;fill:none;stroke:#000000;stroke-width:15;stroke-miterlimit:10;}
	.st2{display:inline;fill:none;stroke:#000000;stroke-width:15;stroke-linecap:round;stroke-miterlimit:10;}
	.st3{display:inline;}
	.st4{fill:none;stroke:#000000;stroke-width:15;stroke-linecap:round;stroke-miterlimit:10;}
</style>
<path d="M268.5,330c-3.7,0-7.6-0.3-11.8-0.8c-13.6-1.8-24.9-6.1-25.4-6.3c-53.5-20.5-90.2-59.2-93.7-62.9
	c-46.4-43.2-63.7-104.2-64.5-106.8c-8.4-29.4,5.1-48,5.7-48.7l0.3-0.4l27.3-27.6c5.8-5.9,13.7-7.8,22.2-5.6
	c1.5,0.4,7.8,2.2,11.2,5.6l0.1-0.1l36,35.4c7.4,7.4,8.7,14.6,8.5,19.4c-0.5,10-7.5,16.8-9.3,18.3l-17.5,17.2l-0.4,0.3
	c-1.1,0.8-1.7,1.4-2,1.8l0.3,0.7c8.3,16.9,27.4,37.2,28.7,38.7c28.1,27.6,39.3,32.8,40.7,33.4l1.4,0.3l0.7,0.7
	c0.9,0.6,1.5,0.9,1.9,1.1l0.3-0.3l20-19.7c6.9-6.9,15.9-9.1,25.3-6.2c6.4,2,10.9,5.8,11.4,6.2l0.3,0.3l34,32.7
	c6.2,6.1,9.3,12.7,9.3,19.8c0,9.9-6.2,16.7-7.4,18l-22.5,23.8C292.8,326.1,282.3,330,268.5,330z M90.6,113.8
	c-1.4,2.2-8.9,15-3.1,35.4c0.2,0.6,17.1,59.9,60.4,100.1l0.4,0.4c0.4,0.4,36.5,39.4,88.2,59.3c10.7,4,40.9,11.8,52-0.6l0.1-0.1
	l22.8-24.1c2.2-2.2,6.5-8.5-1.7-16.5l-33.8-32.5c-1.8-1.4-9.7-7.2-16.3-0.6l-19.5,19.2c-1.5,2-4.1,4.1-7.6,4.9
	c-4.3,1-8.8,0-13.5-3.1c-4.3-1.8-17.5-9-45.7-36.7l-0.2-0.2c-0.9-0.9-21.3-22.5-31.1-41.8c-1.5-2.1-2.8-5.3-2.4-9
	c0.4-4.6,3-8.8,7.8-12.4l17.5-17.1c1.1-0.9,4-4.2,4.2-7.8c0.1-2.5-1.3-5.2-4-8l-35.5-34.9c-1.5-0.9-8.3-5-12.7-0.6l0,0L90.6,113.8z
	 M228,245.2L228,245.2L228,245.2z M154.3,167.7L154.3,167.7C154.3,167.7,154.3,167.7,154.3,167.7z M129.3,87
	c0.1,0.1,0.2,0.2,0.4,0.3L129.3,87z"/>
<g class="st0">
	<path class="st1" d="M367.5,322.5h-335c-2.8,0-5-2.2-5-5v-235c0-2.8,2.2-5,5-5h335c2.8,0,5,2.2,5,5v235
		C372.5,320.3,370.3,322.5,367.5,322.5z"/>
	<path class="st1" d="M372.5,77.5L203.3,225.8c-1.9,1.7-4.7,1.7-6.6,0L27.5,77.5"/>
	<line class="st1" x1="161.6" y1="195" x2="27.5" y2="322.5"/>
	<line class="st1" x1="372.5" y1="322.5" x2="238" y2="195.4"/>
</g>
<g class="st0">
	<path class="st1" d="M128.2,219.8l236.5-35.5c2.4-0.4,4.3-2.5,4.3-5V68.5c0-2.8-2.2-5-5-5H79L128.2,219.8z"/>
	<path class="st2" d="M128.6,219.8L99.3,267c-0.4,0.7,0.1,1.5,0.8,1.5h240"/>
	<g class="st3">
		<line class="st4" x1="31" y1="27.5" x2="67.6" y2="27.5"/>
		<line class="st4" x1="67.6" y1="27.5" x2="79" y2="63.4"/>
	</g>
	<ellipse class="st1" cx="118.8" cy="333.7" rx="35" ry="35.1"/>
	<ellipse class="st1" cx="310.3" cy="337.4" rx="35" ry="35.1"/>
</g>
</svg>
