<?xml version="1.0" encoding="utf-8"?>
<!-- Generator: Adobe Illustrator 24.1.0, SVG Export Plug-In . SVG Version: 6.00 Build 0)  -->
<svg version="1.1" id="Laag_1" xmlns="http://www.w3.org/2000/svg" xmlns:xlink="http://www.w3.org/1999/xlink" x="0px" y="0px"
	 viewBox="0 0 400 400" style="enable-background:new 0 0 400 400;" xml:space="preserve">
<style type="text/css">
	.st0{fill:#FF00FF;}
</style>
<g id="Style_Selectie_1">
	<path class="st0" d="M181.6,181.6H63.1V63.1h118.5V181.6z M78.1,166.6h88.5V78.1H78.1V166.6z"/>
	<path class="st0" d="M336.9,181.6H218.4V63.1h118.5V181.6z M233.4,166.6h88.5V78.1h-88.5V166.6z"/>
	<path class="st0" d="M181.6,336.9H63.1V218.4h118.5V336.9z M78.1,321.9h88.5v-88.5H78.1V321.9z"/>
	<path class="st0" d="M336.9,336.9H218.4V218.4h118.5V336.9z M233.4,321.9h88.5v-88.5h-88.5V321.9z"/>
	<path class="st0" d="M380,380H20V20h360V380z M35,365h330V35H35V365z"/>
</g>
</svg>
