<?xml version="1.0" encoding="utf-8"?><!-- Generator: Adobe Illustrator 22.1.0, SVG Export Plug-In . SVG Version: 6.00 Build 0)  --><svg version="1.1" id="Laag_1" xmlns="http://www.w3.org/2000/svg" xmlns:xlink="http://www.w3.org/1999/xlink" x="0px" y="0px"	 viewBox="0 0 400 400" style="enable-background:new 0 0 400 400;" xml:space="preserve"><style type="text/css">	.st0{fill:#FFFFFF;}	.st1{fill:#AE1C28;}	.st2{fill:#21468B;}</style><rect x="46" y="223.5" class="st0" width="134.6" height="94.3"/><polygon class="st0" points="352.4,84.2 352.4,177.3 217.8,177.3 217.8,84.4 180.6,84.4 180.6,177.3 46,177.3 46,84.2 "/><rect x="217.8" y="223.5" class="st0" width="134.6" height="94.3"/><rect x="180.6" y="317.8" class="st1" width="37.2" height="0.2"/><polygon class="st1" points="352.4,177.3 352.4,223.5 217.8,223.5 217.8,317.8 180.6,317.8 180.6,223.5 46,223.5 46,177.3 	180.6,177.3 180.6,84.4 217.8,84.4 217.8,177.3 "/><polygon class="st2" points="46.2,161.2 46.2,111 110.9,160.9 "/><polygon class="st2" points="78.2,84.5 163.6,84.5 163.6,150.9 "/><polygon class="st2" points="352.4,160.2 352.4,110 287.7,159.9 "/><polygon class="st2" points="321.3,84 235.9,84 235.9,150.3 "/><polygon class="st2" points="352.4,240.3 352.4,290.5 287.8,240.6 "/><polygon class="st2" points="321.3,317.7 235.9,317.7 235.9,251.4 "/><polygon class="st2" points="46.4,240.7 46.4,291 111,241.1 "/><polygon class="st2" points="78.2,317.1 163.6,317.1 163.6,250.8 "/></svg>