<?xml version="1.0" encoding="utf-8"?>
<!-- Generator: Adobe Illustrator 24.1.0, SVG Export Plug-In . SVG Version: 6.00 Build 0)  -->
<svg version="1.1" id="Laag_1" xmlns="http://www.w3.org/2000/svg" xmlns:xlink="http://www.w3.org/1999/xlink" x="0px" y="0px"
	 viewBox="0 0 400 400" style="enable-background:new 0 0 400 400;" xml:space="preserve">
<g>
	<path d="M345,297.5H237.5c-4.1,0-7.5-3.4-7.5-7.5s3.4-7.5,7.5-7.5h105v-210h-285v210h105c4.1,0,7.5,3.4,7.5,7.5s-3.4,7.5-7.5,7.5
		H55c-6.9,0-12.5-5.6-12.5-12.5V70c0-6.9,5.6-12.5,12.5-12.5h290c6.9,0,12.5,5.6,12.5,12.5v215C357.5,291.9,351.9,297.5,345,297.5z"
		/>
	<path d="M300.4,258H99.6c-6.7,0-12.1-5.4-12.1-12.1V109c0-6.7,5.4-12.1,12.1-12.1h200.9c6.7,0,12.1,5.4,12.1,12.1v137
		C312.5,252.6,307.1,258,300.4,258z M102.5,243h195V112h-195V243z"/>
</g>
<g>
	<path d="M347.5,342.5h-295c-17.9,0-32.5-16-32.5-35.6v-11.2c0-7.4,5.5-13.1,12.5-13.1h130v15H35v9.4c0,11.4,7.9,20.6,17.5,20.6h295
		c9.6,0,17.5-9.3,17.5-20.6v-9.4H237.5v-15h130c7,0,12.5,5.8,12.5,13.1v11.2C380,326.5,365.4,342.5,347.5,342.5z"/>
	<path d="M232.5,314.3h-65c-7,0-12.5-5.8-12.5-13.1V290h15v9.3h60V290h15v11.1C245,308.5,239.5,314.3,232.5,314.3z"/>
</g>
</svg>
