<?xml version="1.0" encoding="utf-8"?>
<!-- Generator: Adobe Illustrator 24.1.0, SVG Export Plug-In . SVG Version: 6.00 Build 0)  -->
<svg version="1.1" id="Laag_1" xmlns="http://www.w3.org/2000/svg" xmlns:xlink="http://www.w3.org/1999/xlink" x="0px" y="0px"
	 viewBox="0 0 400 400" style="enable-background:new 0 0 400 400;" xml:space="preserve">
<g>
	<path d="M352.5,288.2H295v-15h57.5c6.9,0,12.5-5.6,12.5-12.5v-120c0-6.9-5.6-12.5-12.5-12.5h-305c-6.9,0-12.5,5.6-12.5,12.5v120
		c0,6.9,5.6,12.5,12.5,12.5H105v15H47.5c-15.2,0-27.5-12.3-27.5-27.5v-120c0-15.2,12.3-27.5,27.5-27.5h305
		c15.2,0,27.5,12.3,27.5,27.5v120C380,275.8,367.7,288.2,352.5,288.2z"/>
	<path d="M302.5,128.2h-205V50.7c0-15.2,12.3-27.5,27.5-27.5h150c15.2,0,27.5,12.3,27.5,27.5V128.2z M112.5,113.2h175V50.7
		c0-6.9-5.6-12.5-12.5-12.5H125c-6.9,0-12.5,5.6-12.5,12.5V113.2z"/>
</g>
<g>
	<path d="M275,376.8H125c-15.2,0-27.5-12.3-27.5-27.5v-110c0-15.2,12.3-27.5,27.5-27.5h150c15.2,0,27.5,12.3,27.5,27.5v110
		C302.5,364.5,290.2,376.8,275,376.8z M125,226.8c-6.9,0-12.5,5.6-12.5,12.5v110c0,6.9,5.6,12.5,12.5,12.5h150
		c6.9,0,12.5-5.6,12.5-12.5v-110c0-6.9-5.6-12.5-12.5-12.5H125z"/>
	<path d="M178.8,278.2h-30c-4.1,0-7.5-3.4-7.5-7.5s3.4-7.5,7.5-7.5h30c4.1,0,7.5,3.4,7.5,7.5S182.9,278.2,178.8,278.2z"/>
	<path d="M238.8,328.2h-90c-4.1,0-7.5-3.4-7.5-7.5s3.4-7.5,7.5-7.5h90c4.1,0,7.5,3.4,7.5,7.5S242.9,328.2,238.8,328.2z"/>
</g>
</svg>
