<svg xmlns="http://www.w3.org/2000/svg" viewBox="0 0 33.71 31.82"><defs><style>.cls-1{fill:#444;}</style></defs><title>identity_theft</title><g id="Layer_2" data-name="Layer 2"><g id="Layer_1-2" data-name="Layer 1"><path class="cls-1" d="M30.47,23.82H29.31a.7.7,0,0,1,0-1.4h1.16a1.84,1.84,0,0,0,1.84-1.84V3.24A1.84,1.84,0,0,0,30.47,1.4H3.24A1.84,1.84,0,0,0,1.4,3.24V20.58a1.84,1.84,0,0,0,1.84,1.84H17.51a.7.7,0,0,1,0,1.4H3.24A3.25,3.25,0,0,1,0,20.58V3.24A3.25,3.25,0,0,1,3.24,0H30.47a3.25,3.25,0,0,1,3.24,3.24V20.58A3.25,3.25,0,0,1,30.47,23.82Z"/><path class="cls-1" d="M7.17,19.92H4.29a.7.7,0,0,1,0-1.4H7.17a.7.7,0,0,1,0,1.4Z"/><path class="cls-1" d="M14.24,19.92H10.66a.7.7,0,0,1,0-1.4h3.58a.7.7,0,0,1,0,1.4Z"/><path class="cls-1" d="M33,10.88H.7a.7.7,0,0,1-.7-.7V6a.7.7,0,0,1,.7-.7H33a.7.7,0,0,1,.7.7v4.14A.7.7,0,0,1,33,10.88ZM1.4,9.47H32.31V6.74H1.4Z"/><path class="cls-1" d="M26.29,31.82H20.82a3.64,3.64,0,0,1-3.64-3.63V20.93a1.58,1.58,0,0,1,1.58-1.58h9.58a1.58,1.58,0,0,1,1.58,1.58v7.25A3.64,3.64,0,0,1,26.29,31.82ZM18.77,20.75a.18.18,0,0,0-.18.18v7.25a2.24,2.24,0,0,0,2.23,2.23h5.47a2.24,2.24,0,0,0,2.23-2.23V20.93a.18.18,0,0,0-.18-.18Z"/><path class="cls-1" d="M23.55,28.19a.7.7,0,0,1-.7-.7V25.73a1.5,1.5,0,1,1,1.4,0v1.76A.7.7,0,0,1,23.55,28.19Zm3.77-7.58a.7.7,0,0,1-.7-.7V17.21a2.47,2.47,0,0,0-2.47-2.47H23a2.47,2.47,0,0,0-2.47,2.47v2.69a.7.7,0,1,1-1.4,0V17.21A3.87,3.87,0,0,1,23,13.34h1.21A3.87,3.87,0,0,1,28,17.21v2.69A.7.7,0,0,1,27.33,20.61Z"/></g></g></svg>