<svg xmlns="http://www.w3.org/2000/svg" viewBox="0 0 34.24 25.47"><defs><style>.cls-1{fill:#444;}</style></defs><title>import_export_business</title><g id="Layer_2" data-name="Layer 2"><g id="Layer_1-2" data-name="Layer 1"><path class="cls-1" d="M25.76,24.82a.71.71,0,0,1-.32-.08.72.72,0,0,1-.32-1L32.33,9.54l-6.72.1-2.15,2.19A.72.72,0,0,1,23,12H1.44v12A.72.72,0,0,1,0,24.1V11.33a.72.72,0,0,1,.72-.72H22.65L24.8,8.42a.72.72,0,0,1,.5-.22l8.2-.12a.75.75,0,0,1,.62.34.72.72,0,0,1,0,.71L26.4,24.42A.72.72,0,0,1,25.76,24.82Z"/><path class="cls-1" d="M26.28,15.83a1.88,1.88,0,1,1,1.88-1.88A1.89,1.89,0,0,1,26.28,15.83Zm0-2.33a.44.44,0,1,0,.44.44A.44.44,0,0,0,26.28,13.5Z"/><path class="cls-1" d="M33.34,25.47a5.13,5.13,0,0,1-4.06-2,5,5,0,0,1-8.11,0,5,5,0,0,1-8.11,0,5,5,0,0,1-8.11,0,5.14,5.14,0,0,1-4.06,2A.72.72,0,1,1,.9,24,3.83,3.83,0,0,0,4.3,21.75a.75.75,0,0,1,1.3,0A3.83,3.83,0,0,0,9,24a3.83,3.83,0,0,0,3.41-2.28.75.75,0,0,1,1.3,0A3.83,3.83,0,0,0,17.12,24a3.83,3.83,0,0,0,3.41-2.28.75.75,0,0,1,1.3,0,3.69,3.69,0,0,0,6.81,0,.75.75,0,0,1,1.3,0A3.83,3.83,0,0,0,33.34,24a.72.72,0,1,1,0,1.44Z"/><path class="cls-1" d="M19.34,12a.72.72,0,0,1-.72-.72V6.74H1.44v4.59a.72.72,0,1,1-1.44,0V6A.72.72,0,0,1,.72,5.3H19.34a.72.72,0,0,1,.72.72v5.31A.72.72,0,0,1,19.34,12Z"/><path class="cls-1" d="M10.2,12a.72.72,0,0,1-.72-.72V6a.72.72,0,0,1,1.44,0v5.31A.72.72,0,0,1,10.2,12Z"/><path class="cls-1" d="M14.94,6.74A.72.72,0,0,1,14.22,6V1.44h-8V6A.72.72,0,0,1,4.74,6V.72A.72.72,0,0,1,5.46,0h9.48a.72.72,0,0,1,.72.72V6A.72.72,0,0,1,14.94,6.74Z"/></g></g></svg>