<svg xmlns="http://www.w3.org/2000/svg" viewBox="0 0 33.38 35.2"><defs><style>.cls-1{fill:#444;}</style></defs><title>insurance</title><g id="Layer_2" data-name="Layer 2"><g id="Layer_1-2" data-name="Layer 1"><path class="cls-1" d="M22.24,19.42a.7.7,0,0,1-.68-.55c-.43-1.89-2.61-3.36-5-3.36a4.68,4.68,0,0,0-4.69,3.36.7.7,0,0,1-.68.55h0a.7.7,0,0,1-.68-.55,4.67,4.67,0,0,0-4.69-3.36,4.82,4.82,0,0,0-4.49,2.75A.7.7,0,0,1,0,18v-.27C0,9.51,7.49,2.82,16.69,2.82S33.38,9.51,33.38,17.74c0,.26,0,.53,0,.79a.7.7,0,0,1-1.37.15,4.7,4.7,0,0,0-4.64-3.17,4.37,4.37,0,0,0-4.41,3.36A.7.7,0,0,1,22.24,19.42ZM5.84,14.11a6.35,6.35,0,0,1,5.37,2.82,6.35,6.35,0,0,1,5.37-2.82,6.82,6.82,0,0,1,5.62,2.81,5.84,5.84,0,0,1,5.13-2.81,6.52,6.52,0,0,1,4.49,1.74c-1-6.56-7.44-11.62-15.14-11.62s-14,5-15.11,11.43A6.58,6.58,0,0,1,5.84,14.11Z"/><path class="cls-1" d="M16.69,4.1a.7.7,0,0,1-.7-.7V.7a.7.7,0,0,1,1.4,0V3.4A.7.7,0,0,1,16.69,4.1Z"/><path class="cls-1" d="M13.23,35.2c-2.34,0-4.16-2.52-4.16-4.68V29.26a.7.7,0,1,1,1.4,0v1.26c0,1.48,1.27,3.28,2.76,3.28S16,32,16,30.52V14.91a.7.7,0,0,1,1.4,0V30.52C17.39,32.68,15.57,35.2,13.23,35.2Z"/><path class="cls-1" d="M22.18,19.19h0a.7.7,0,0,1-.68-.72c0-.24,0-.49,0-.73,0-8-2.54-13.52-4.83-13.52s-4.83,5.55-4.83,13.52V18a.7.7,0,0,1-.7.7h0a.7.7,0,0,1-.7-.7v-.25c0-8.5,2.68-14.92,6.23-14.92s6.23,6.41,6.23,14.92c0,.26,0,.51,0,.76A.7.7,0,0,1,22.18,19.19Z"/></g></g></svg>