<svg xmlns="http://www.w3.org/2000/svg" viewBox="0 0 28.77 38.41"><defs><style>.cls-1{fill:#444;}</style></defs><title>international_investing</title><g id="Layer_2" data-name="Layer 2"><g id="Layer_1-2" data-name="Layer 1"><path class="cls-1" d="M12.84,28.23a12.85,12.85,0,1,1,12.38-9.41A12.84,12.84,0,0,1,12.84,28.23Zm0-24.29a11.46,11.46,0,1,0,3.05.42h0A11.39,11.39,0,0,0,12.85,3.93Z"/><path class="cls-1" d="M8.84,30.54l-.19,0a.7.7,0,0,1-.49-.86l8-28.93a.7.7,0,1,1,1.35.37L9.51,30A.7.7,0,0,1,8.84,30.54Z"/><path class="cls-1" d="M24.55,19.32l-.19,0L1,12.81a.7.7,0,0,1,.37-1.35l23.4,6.49a.7.7,0,0,1-.19,1.38Z"/><path class="cls-1" d="M18.66,11.21a16.89,16.89,0,0,1-4.48-.63c-3.49-1-6.46-2.94-7.94-5.27a.7.7,0,1,1,1.18-.75c1.3,2,4,3.79,7.13,4.67a12.43,12.43,0,0,0,8.5-.33.7.7,0,0,1,.62,1.25A11.39,11.39,0,0,1,18.66,11.21Z"/><path class="cls-1" d="M18.86,26.51a.7.7,0,0,1-.59-.32,12.44,12.44,0,0,0-7.12-4.66c-3.17-.88-6.35-.75-8.52.33A.7.7,0,1,1,2,20.61c2.47-1.24,6-1.4,9.52-.43s6.45,2.93,7.93,5.25a.7.7,0,0,1-.59,1.08Z"/><path class="cls-1" d="M9.74,27.68a.7.7,0,0,1-.24-1.36,13.93,13.93,0,0,0,8.62-9.45,13.93,13.93,0,0,0-2.5-12.52.7.7,0,0,1,1.09-.88,15.33,15.33,0,0,1,2.77,13.78A15.33,15.33,0,0,1,10,27.64.71.71,0,0,1,9.74,27.68Z"/><path class="cls-1" d="M9.36,27.57a.7.7,0,0,1-.54-.26A15.33,15.33,0,0,1,6,13.51,15.33,15.33,0,0,1,15.5,3.13.7.7,0,0,1,16,4.44a13.93,13.93,0,0,0-8.59,9.44A13.93,13.93,0,0,0,9.9,26.43a.7.7,0,0,1-.54,1.14Z"/><path class="cls-1" d="M21.38,38.41H4.32a2.21,2.21,0,0,1,0-4.36h4.6c.85,0,1.48-1,2.15-2a10.39,10.39,0,0,1,1.28-1.72.7.7,0,0,1,1,0A10.39,10.39,0,0,1,14.62,32c.67,1,1.3,2,2.15,2h4.6a2.21,2.21,0,0,1,0,4.36Zm-17.06-3c-.18,0-.44.3-.44.78s.27.78.44.78H21.38c.18,0,.44-.31.44-.78s-.26-.78-.44-.78h-4.6c-1.62,0-2.53-1.41-3.33-2.65-.2-.32-.4-.62-.6-.9-.2.28-.4.58-.6.9-.8,1.24-1.71,2.65-3.33,2.65Z"/><path class="cls-1" d="M12.85,31.31a16,16,0,0,1-4.22-.57A.7.7,0,1,1,9,29.39a14.53,14.53,0,0,0,7.73-28A.7.7,0,0,1,17.1,0a15.93,15.93,0,0,1-4.25,31.28Z"/></g></g></svg>