<svg xmlns="http://www.w3.org/2000/svg" viewBox="0 0 35.42 31.92"><defs><style>.cls-1{fill:#444;}</style></defs><title>internships</title><g id="Layer_2" data-name="Layer 2"><g id="Layer_1-2" data-name="Layer 1"><path class="cls-1" d="M20.45,4.14a.7.7,0,0,1-.7-.7,2,2,0,1,0-4.08,0,.7.7,0,0,1-1.4,0,3.44,3.44,0,0,1,6.88,0A.7.7,0,0,1,20.45,4.14Z"/><path class="cls-1" d="M34.72,31.92H.7a.7.7,0,0,1-.7-.7V6.56a.7.7,0,0,1,.7-.7h9.35a.7.7,0,0,1,0,1.4H1.4V30.52H34V7.26H25.36a.7.7,0,0,1,0-1.4h9.36a.7.7,0,0,1,.7.7V31.22A.7.7,0,0,1,34.72,31.92Z"/><path class="cls-1" d="M15.41,26H5.75a.7.7,0,0,1-.7-.7V23.15A3.36,3.36,0,0,1,8.41,19.8h.31a4.1,4.1,0,0,1-1.2-3.15,3.07,3.07,0,1,1,6.12,0,4.13,4.13,0,0,1-1.16,3.15h.27a3.36,3.36,0,0,1,3.35,3.35v2.12A.7.7,0,0,1,15.41,26Zm-9-1.4h8.26V23.15a2,2,0,0,0-2-2H8.41a2,2,0,0,0-2,2Zm4.13-9.82a1.73,1.73,0,0,0-1.66,1.89,2.54,2.54,0,0,0,1.67,2.7,2.49,2.49,0,0,0,1.65-2.7A1.73,1.73,0,0,0,10.58,14.75ZM26.44,25.13h-5.5a.7.7,0,1,1,0-1.4h5.5a.7.7,0,0,1,0,1.4Zm3.23-3.53H20.94a.7.7,0,1,1,0-1.4h8.72a.7.7,0,0,1,0,1.4Zm0-3.53H20.94a.7.7,0,1,1,0-1.4h8.72a.7.7,0,0,1,0,1.4Zm-4.92-8.3H10.67a.7.7,0,0,1-.7-.7V4a.7.7,0,0,1,.7-.7H24.74a.7.7,0,0,1,.7.7v5A.7.7,0,0,1,24.74,9.77ZM11.37,8.37H24V4.72H11.37Z"/></g></g></svg>