<svg xmlns="http://www.w3.org/2000/svg" viewBox="0 0 35.18 35.22"><defs><style>.cls-1{fill:#444;}</style></defs><title>investing_for_beginners</title><g id="Layer_2" data-name="Layer 2"><g id="Layer_1-2" data-name="Layer 1"><path class="cls-1" d="M9.36,20.41A2.37,2.37,0,1,1,11.73,18,2.37,2.37,0,0,1,9.36,20.41Zm0-3.34a1,1,0,1,0,1,1A1,1,0,0,0,9.36,17.07Zm10.95,2.75a2.37,2.37,0,1,1,2.37-2.37A2.37,2.37,0,0,1,20.31,19.82Zm0-3.34a1,1,0,1,0,1,1A1,1,0,0,0,20.31,16.48Zm-5.47-1.63a2.37,2.37,0,1,1,2.37-2.37A2.37,2.37,0,0,1,14.83,14.85Zm0-3.34a1,1,0,1,0,1,1A1,1,0,0,0,14.83,11.51Z"/><path class="cls-1" d="M10.85,17.22a.7.7,0,0,1-.49-1.2l2.58-2.55a.7.7,0,0,1,1,1L11.35,17A.7.7,0,0,1,10.85,17.22Z"/><path class="cls-1" d="M18.95,16.93a.7.7,0,0,1-.47-.18l-2.61-2.39a.7.7,0,0,1,.95-1l2.61,2.39a.7.7,0,0,1-.47,1.22Z"/><path class="cls-1" d="M21.49,17a.7.7,0,0,1-.57-1.11l4.47-6.27L23.15,10a.7.7,0,1,1-.28-1.37l4-.81a.69.69,0,0,1,.73.3.7.7,0,0,1,0,.79l-5.51,7.72A.7.7,0,0,1,21.49,17Z"/><path class="cls-1" d="M27.49,13.13a.7.7,0,0,1-.69-.61l-.5-3.89a.7.7,0,0,1,1.39-.18l.5,3.89a.7.7,0,0,1-.61.78Z"/><path class="cls-1" d="M32.08,24.66h-29a.7.7,0,0,1-.7-.7V3.32a.7.7,0,0,1,.7-.7h29a.7.7,0,0,1,.7.7V24A.7.7,0,0,1,32.08,24.66ZM3.79,23.26H31.38V4H3.79Z"/><path class="cls-1" d="M34.48,3.92H.7a.7.7,0,0,1,0-1.4H34.48a.7.7,0,0,1,0,1.4Z"/><path class="cls-1" d="M17.59,33.65a.7.7,0,0,1-.7-.7V24a.7.7,0,1,1,1.4,0v9A.7.7,0,0,1,17.59,33.65Z"/><path class="cls-1" d="M17.59,3.92a.7.7,0,0,1-.7-.7V.7a.7.7,0,1,1,1.4,0V3.22A.7.7,0,0,1,17.59,3.92Z"/><path class="cls-1" d="M27,35.22a.7.7,0,0,1-.37-.11L17.28,29.2A.7.7,0,0,1,18,28l9.34,5.92A.7.7,0,0,1,27,35.22Z"/><path class="cls-1" d="M8.19,35.22a.7.7,0,0,1-.37-1.29L17.15,28a.7.7,0,0,1,.75,1.18L8.56,35.12A.7.7,0,0,1,8.19,35.22Z"/></g></g></svg>