<?xml version="1.0" encoding="utf-8"?>
<!-- Generator: Adobe Illustrator 24.1.0, SVG Export Plug-In . SVG Version: 6.00 Build 0)  -->
<svg version="1.1" id="Laag_1" xmlns="http://www.w3.org/2000/svg" xmlns:xlink="http://www.w3.org/1999/xlink" x="0px" y="0px"
	 viewBox="0 0 400 400" style="enable-background:new 0 0 400 400;" xml:space="preserve">
<g>
	<path d="M200,145c-34.5,0-62.5-28-62.5-62.5S165.5,20,200,20c34.5,0,62.5,28,62.5,62.5S234.5,145,200,145z M200,35
		c-26.2,0-47.5,21.3-47.5,47.5S173.8,130,200,130s47.5-21.3,47.5-47.5S226.2,35,200,35z"/>
	<path d="M200,380c-34.5,0-62.5-28-62.5-62.5s28-62.5,62.5-62.5c34.5,0,62.5,28,62.5,62.5S234.5,380,200,380z M200,270
		c-26.2,0-47.5,21.3-47.5,47.5S173.8,365,200,365s47.5-21.3,47.5-47.5S226.2,270,200,270z"/>
	<rect x="215" y="134.9" width="15" height="130.2"/>
	<rect x="170" y="134.9" width="15" height="130.2"/>
</g>
</svg>
