<svg xmlns="http://www.w3.org/2000/svg" viewBox="0 0 36.03 36.03"><defs><style>.cls-1{fill:#444;}</style></defs><title>landlords</title><g id="Layer_2" data-name="Layer 2"><g id="Layer_1-2" data-name="Layer 1"><path class="cls-1" d="M35.33,36H.7a.7.7,0,1,1,0-1.4H35.33a.7.7,0,0,1,0,1.4Z"/><path class="cls-1" d="M24.77,36a.7.7,0,0,1-.7-.7V1.4H4.35V35.33a.7.7,0,0,1-1.4,0V.7a.7.7,0,0,1,.7-.7H24.77a.7.7,0,0,1,.7.7V35.33A.7.7,0,0,1,24.77,36Z"/><path class="cls-1" d="M32.38,35a.7.7,0,0,1-.7-.7V7.18H25.24a.7.7,0,0,1,0-1.4h7.14a.7.7,0,0,1,.7.7V34.33A.7.7,0,0,1,32.38,35Z"/><path class="cls-1" d="M16.16,35.59a.7.7,0,0,1-.7-.7V32.45H13v2.45a.7.7,0,1,1-1.4,0V31.75a.7.7,0,0,1,.7-.7h3.89a.7.7,0,0,1,.7.7v3.15A.7.7,0,0,1,16.16,35.59Z"/><path class="cls-1" d="M21.61,5.11H6.81a.7.7,0,0,1,0-1.4h14.8a.7.7,0,0,1,0,1.4Z"/><path class="cls-1" d="M28.44,13.32a.7.7,0,0,1-.7-.7V10.82a.7.7,0,0,1,1.4,0v1.79A.7.7,0,0,1,28.44,13.32Z"/><path class="cls-1" d="M28.44,19.35a.7.7,0,0,1-.7-.7V16.86a.7.7,0,0,1,1.4,0v1.79A.7.7,0,0,1,28.44,19.35Z"/><path class="cls-1" d="M28.44,25.39a.7.7,0,0,1-.7-.7V22.9a.7.7,0,0,1,1.4,0v1.79A.7.7,0,0,1,28.44,25.39Z"/><path class="cls-1" d="M28.44,31.43a.7.7,0,0,1-.7-.7V28.94a.7.7,0,1,1,1.4,0v1.79A.7.7,0,0,1,28.44,31.43Z"/><path class="cls-1" d="M21.61,8.62H6.81a.7.7,0,0,1,0-1.4h14.8a.7.7,0,0,1,0,1.4Z"/><path class="cls-1" d="M21.61,12.12H6.81a.7.7,0,1,1,0-1.4h14.8a.7.7,0,1,1,0,1.4Z"/><path class="cls-1" d="M21.61,15.62H6.81a.7.7,0,1,1,0-1.4h14.8a.7.7,0,1,1,0,1.4Z"/><path class="cls-1" d="M21.61,19.13H6.81a.7.7,0,1,1,0-1.4h14.8a.7.7,0,0,1,0,1.4Z"/><path class="cls-1" d="M21.61,22.63H6.81a.7.7,0,0,1,0-1.4h14.8a.7.7,0,0,1,0,1.4Z"/><path class="cls-1" d="M21.61,26.13H6.81a.7.7,0,0,1,0-1.4h14.8a.7.7,0,0,1,0,1.4Z"/><path class="cls-1" d="M21.61,29.63H6.81a.7.7,0,1,1,0-1.4h14.8a.7.7,0,1,1,0,1.4Z"/><path class="cls-1" d="M9.45,33.19H6.72a.7.7,0,0,1,0-1.4H9.45a.7.7,0,0,1,0,1.4Z"/><path class="cls-1" d="M21.61,33.19H18.87a.7.7,0,1,1,0-1.4h2.73a.7.7,0,0,1,0,1.4Z"/></g></g></svg>