<?xml version="1.0" encoding="utf-8"?>
<!-- Generator: Adobe Illustrator 24.1.0, SVG Export Plug-In . SVG Version: 6.00 Build 0)  -->
<svg version="1.1" id="Laag_1" xmlns="http://www.w3.org/2000/svg" xmlns:xlink="http://www.w3.org/1999/xlink" x="0px" y="0px"
	 viewBox="0 0 400 400" style="enable-background:new 0 0 400 400;" xml:space="preserve">
<style type="text/css">
	.st0{fill:none;stroke:#000000;stroke-width:15;stroke-miterlimit:10;}
	.st1{stroke:#000000;stroke-miterlimit:10;}
</style>
<path class="st0" d="M367.5,372.5h-335c-2.8,0-5-2.2-5-5v-335c0-2.8,2.2-5,5-5h335c2.8,0,5,2.2,5,5v335
	C372.5,370.3,370.3,372.5,367.5,372.5z"/>
<path class="st0" d="M327.5,332.5h-255c-2.8,0-5-2.2-5-5v-255c0-2.8,2.2-5,5-5h255c2.8,0,5,2.2,5,5v255
	C332.5,330.3,330.3,332.5,327.5,332.5z"/>
<rect x="110" y="110" class="st1" width="30" height="30"/>
<rect x="110" y="185" width="30" height="30"/>
<rect x="110" y="260" width="30" height="30"/>
<rect x="185" y="110" width="30" height="30"/>
<rect x="185" y="185" width="30" height="30"/>
<rect x="185" y="260" width="30" height="30"/>
<rect x="260" y="110" width="30" height="30"/>
<rect x="260" y="185" width="30" height="30"/>
<rect x="260" y="260" width="30" height="30"/>
</svg>
