<?xml version="1.0" encoding="utf-8"?>
<!-- Generator: Adobe Illustrator 24.1.0, SVG Export Plug-In . SVG Version: 6.00 Build 0)  -->
<svg version="1.1" id="Laag_1" xmlns="http://www.w3.org/2000/svg" xmlns:xlink="http://www.w3.org/1999/xlink" x="0px" y="0px"
	 viewBox="0 0 400 400" style="enable-background:new 0 0 400 400;" xml:space="preserve">
<path d="M367.5,380h-335c-6.9,0-12.5-5.6-12.5-12.5v-335C20,25.6,25.6,20,32.5,20h335c6.9,0,12.5,5.6,12.5,12.5v335
	C380,374.4,374.4,380,367.5,380z M35,365h330V35H35V365z"/>
<path d="M327.5,340h-255c-6.9,0-12.5-5.6-12.5-12.5v-255C60,65.6,65.6,60,72.5,60h255c6.9,0,12.5,5.6,12.5,12.5v255
	C340,334.4,334.4,340,327.5,340z M75,325h250V75H75V325z"/>
<g>
	<rect x="110" y="110" width="30" height="30"/>
	<path d="M140.5,140.5h-31v-31h31V140.5z M110.5,139.5h29v-29h-29V139.5z"/>
</g>
<rect x="110" y="185" width="30" height="30"/>
<rect x="110" y="260" width="30" height="30"/>
<rect x="185" y="110" width="30" height="30"/>
<rect x="185" y="185" width="30" height="30"/>
<rect x="185" y="260" width="30" height="30"/>
<rect x="260" y="110" width="30" height="30"/>
<rect x="260" y="185" width="30" height="30"/>
<rect x="260" y="260" width="30" height="30"/>
</svg>
