<svg xmlns="http://www.w3.org/2000/svg" viewBox="0 0 35.13 33.23"><defs><style>.cls-1{fill:#444;}</style></defs><title>legal_careers</title><g id="Layer_2" data-name="Layer 2"><g id="Layer_1-2" data-name="Layer 1"><path class="cls-1" d="M9.54,12.89a.7.7,0,0,1-.11-1.39,7.63,7.63,0,0,0,6.29-6.29.7.7,0,0,1,1.38.23,9,9,0,0,1-7.44,7.44Z"/><path class="cls-1" d="M16.7,20.23h-.12a.7.7,0,0,1-.57-.81A9,9,0,0,1,23.39,12a.7.7,0,0,1,.24,1.38,7.63,7.63,0,0,0-6.24,6.24A.7.7,0,0,1,16.7,20.23Z"/><path class="cls-1" d="M13.42,24.78a2.43,2.43,0,0,1-1.73-.71L4.91,17.29a2.44,2.44,0,0,1,0-3.45l1.78-1.78a2.5,2.5,0,0,1,3.45,0l6.78,6.78a2.44,2.44,0,0,1,0,3.45l-1.78,1.78A2.44,2.44,0,0,1,13.42,24.78Zm-5-12a1,1,0,0,0-.74.3L5.9,14.83a1,1,0,0,0,0,1.47l6.78,6.78a1,1,0,0,0,1.47,0l1.78-1.78a1,1,0,0,0,0-1.47h0L9.15,13A1,1,0,0,0,8.41,12.74Z"/><path class="cls-1" d="M24.76,13.44h0A2.42,2.42,0,0,1,23,12.73L16.25,5.95a2.45,2.45,0,0,1,0-3.45L18,.71a2.45,2.45,0,0,1,3.45,0L28.26,7.5h0a2.45,2.45,0,0,1,0,3.45l-1.78,1.78A2.42,2.42,0,0,1,24.76,13.44Zm-5-12a1,1,0,0,0-.74.3L17.24,3.48a1,1,0,0,0,0,1.47L24,11.74a1,1,0,0,0,.74.3h0a1,1,0,0,0,.74-.3L27.27,10a1,1,0,0,0,0-1.47L20.49,1.7A1,1,0,0,0,19.76,1.4Z"/><path class="cls-1" d="M31.75,31a2.22,2.22,0,0,1-1.64-.72L17.82,17.41a.7.7,0,1,1,1-1l12.29,12.9a.89.89,0,0,0,.93.24,2.55,2.55,0,0,0,1.63-1.68,1,1,0,0,0-.25-1L20.61,14.66a.7.7,0,0,1,1-1L34.4,25.85A2.37,2.37,0,0,1,35,28.26a3.92,3.92,0,0,1-2.63,2.68A2.62,2.62,0,0,1,31.75,31Z"/><path class="cls-1" d="M19.53,29.75H2.64a.7.7,0,0,1,0-1.4H19.53a.7.7,0,0,1,0,1.4Z"/><path class="cls-1" d="M22,33.23H.7a.7.7,0,0,1,0-1.4H22a.7.7,0,0,1,0,1.4Z"/></g></g></svg>