<?xml version="1.0" encoding="utf-8"?>
<!-- Generator: Adobe Illustrator 24.1.0, SVG Export Plug-In . SVG Version: 6.00 Build 0)  -->
<svg version="1.1" id="Laag_1" xmlns="http://www.w3.org/2000/svg" xmlns:xlink="http://www.w3.org/1999/xlink" x="0px" y="0px"
	 viewBox="0 0 400 400" style="enable-background:new 0 0 400 400;" xml:space="preserve">
<style type="text/css">
	.st0{display:none;}
	.st1{display:inline;}
</style>
<g>
	<path d="M280.5,257.5h-161c-6.7,0-12-5.1-12-11.7v-91.7c0-6.5,5.4-11.7,12-11.7h161.1c6.7,0,12,5.1,12,11.7l0,92
		C292.3,252.5,287,257.5,280.5,257.5z M122.5,242.5h155.1v-85.1H122.5V242.5z"/>
	<g>
		<path d="M320,297.5H80c-6.9,0-12.5-5.6-12.5-12.5V115c0-6.9,5.6-12.5,12.5-12.5h240c6.9,0,12.5,5.6,12.5,12.5v170
			C332.5,291.9,326.9,297.5,320,297.5z M82.5,282.5h235v-165h-235V282.5z"/>
		<path d="M27,310.7c-1.5,0-3-0.4-4.4-1.1c-3.1-1.6-5.1-4.8-5.1-8.4V98.8c0-3.7,2-6.9,5.3-8.5c3.2-1.6,6.9-1.2,9.7,0.8l50,35v147.8
			l-50.1,35C30.8,310.1,28.9,310.7,27,310.7z M32.5,109.4v181.1l35-24.5V133.9L32.5,109.4z"/>
		<path d="M373,310.7c-1.9,0-3.8-0.6-5.4-1.7l-50.1-35.1V126.1l50-35c2.8-2.1,6.5-2.4,9.7-0.8c3.3,1.6,5.3,4.9,5.3,8.5v202.4
			c0,3.5-1.9,6.7-5.1,8.4C376,310.3,374.5,310.7,373,310.7z M332.5,266.1l35,24.5V109.4l-35,24.5V266.1z"/>
		<path d="M308.9,117.5H91.1l-35-50.1c-2-2.9-2.3-6.7-0.6-9.8c1.6-3.1,4.8-5.1,8.4-5.1h272.3c3.7,0,6.9,2,8.5,5.3
			c1.6,3.2,1.2,6.8-0.8,9.7L308.9,117.5z M98.9,102.5h202.2l24.4-35H74.4L98.9,102.5z"/>
		<path d="M336.1,347.5H63.8c-3.5,0-6.7-1.9-8.4-5.1c-1.6-3.1-1.4-6.9,0.6-9.8l35.1-50.1h217.8l34.9,50c2.1,2.8,2.4,6.5,0.8,9.7
			C343,345.5,339.8,347.5,336.1,347.5z M74.4,332.5h251.1l-24.4-35H98.9L74.4,332.5z"/>
	</g>
</g>
<g class="st0">
	<circle class="st1" cx="264" cy="170" r="8.5"/>
	<circle class="st1" cx="264" cy="200" r="8.5"/>
	<circle class="st1" cx="264" cy="230" r="8.5"/>
	<circle class="st1" cx="232" cy="170" r="8.5"/>
	<circle class="st1" cx="232" cy="200" r="8.5"/>
	<circle class="st1" cx="232" cy="230" r="8.5"/>
	<circle class="st1" cx="200" cy="170" r="8.5"/>
	<circle class="st1" cx="200" cy="200" r="8.5"/>
	<circle class="st1" cx="200" cy="230" r="8.5"/>
	<circle class="st1" cx="168" cy="170" r="8.5"/>
	<circle class="st1" cx="168" cy="200" r="8.5"/>
	<circle class="st1" cx="168" cy="230" r="8.5"/>
	<circle class="st1" cx="136" cy="170" r="8.5"/>
	<circle class="st1" cx="136" cy="200" r="8.5"/>
	<circle class="st1" cx="136" cy="230" r="8.5"/>
</g>
</svg>
