<?xml version="1.0" encoding="utf-8"?>
<!-- Generator: Adobe Illustrator 24.1.0, SVG Export Plug-In . SVG Version: 6.00 Build 0)  -->
<svg version="1.1" id="Laag_1" xmlns="http://www.w3.org/2000/svg" xmlns:xlink="http://www.w3.org/1999/xlink" x="0px" y="0px"
	 viewBox="0 0 400 400" style="enable-background:new 0 0 400 400;" xml:space="preserve">
<style type="text/css">
	.st0{fill:#FFFFFF;}
</style>
<g>
	<g>
		<path class="st0" d="M190.2,316.8c-2.7,15.4-38.6,29-85,28.9c-45,0-72.3-14.2-77.2-29.2c-5.4-16.1,30-37.5,85.1-37.5
			C168.2,279.2,193,301,190.2,316.8z"/>
		<path d="M105.7,353.2c-22.1,0-41.9-3.3-57-9.6c-14.7-6.1-24.6-14.9-27.8-24.8c-2-5.9-0.7-12.5,3.6-18.4
			c12.4-17.3,48.1-28.9,88.7-28.9c51.2,0.2,71.4,17.8,77.7,25.3c5.6,6.7,8,14.2,6.7,21.3c-1.9,10.5-12.6,19.5-31,26
			C150,350,128.4,353.2,105.7,353.2z M113.2,286.5c-44.2,0-69.9,13.6-76.5,22.7c-1.4,2-1.9,3.7-1.5,4.9c1.8,5.6,9.1,11.4,19.3,15.7
			c9.2,3.8,25.5,8.4,50.8,8.4c0.2,0,0.3,0,0.5,0c21,0,40.8-2.9,55.9-8.2c13.7-4.8,20.5-10.8,21.2-14.5l0,0c0.5-2.6-0.8-5.8-3.5-9
			C167.2,291.9,137.2,286.6,113.2,286.5z"/>
	</g>
	<path d="M190.2,324.3c-4.1,0-7.5-3.3-7.5-7.5l-1.1-238.9l-145.3,232c-2.2,3.5-6.8,4.6-10.3,2.4c-3.5-2.2-4.6-6.8-2.4-10.3
		L180.9,50.8c2-3.2,5.9-4.7,9.5-3.6c3.6,1,6.1,4.3,6.1,8.1l1.3,261.5C197.7,320.9,194.4,324.3,190.2,324.3
		C190.2,324.3,190.2,324.3,190.2,324.3z M193.6,58.7L193.6,58.7C193.6,58.7,193.6,58.7,193.6,58.7z M181.5,55.3
		C181.5,55.3,181.5,55.3,181.5,55.3L181.5,55.3z"/>
</g>
<g>
	<g>
		<path class="st0" d="M372.5,286.9c0,13.6-24.5,29.5-72.3,29.5c-38.9,0-64.9-16.1-64.9-30.9s26.7-30.9,69.3-30.9
			C346.7,254.4,372.5,270.5,372.5,286.9z"/>
		<path d="M300.2,323.9c-19.1,0-37.1-3.8-50.5-10.8c-14-7.2-22-17.3-22-27.7c0-10.5,8.3-20.6,22.9-27.7c14.3-7,32.9-10.7,53.9-10.7
			c0.1,0,0.3,0,0.4,0c29.1,0,53.1,7.3,66,20.2c5.9,5.9,9.1,12.7,9.1,19.7c0,10.2-8.2,19.9-22.5,26.6
			C343,320.3,323.2,323.9,300.2,323.9z M304.9,262c-0.1,0-0.2,0-0.3,0c-40.6,0-61.8,15.3-61.8,23.4s19.7,23.4,57.4,23.4
			c45.2,0,64.8-14.6,64.8-22c0-3.7-2.5-7-4.7-9.1C348.7,266.2,324.1,262,304.9,262z"/>
	</g>
	<path d="M227.7,285.4l-0.6-183.3c0-3.5,2.2-6.7,5.5-7.9c3.3-1.2,7.1-0.3,9.4,2.4l0.3,0.4l134.1,177.6l-12,9l-122.3-162l0.5,163.7
		L227.7,285.4z"/>
</g>
</svg>
