<?xml version="1.0" encoding="utf-8"?>
<!-- Generator: Adobe Illustrator 24.1.0, SVG Export Plug-In . SVG Version: 6.00 Build 0)  -->
<svg version="1.1" id="Laag_1" xmlns="http://www.w3.org/2000/svg" xmlns:xlink="http://www.w3.org/1999/xlink" x="0px" y="0px"
	 viewBox="0 0 400 400" style="enable-background:new 0 0 400 400;" xml:space="preserve">
<image style="display:none;overflow:visible;opacity:0.5;" width="251" height="247" xlink:href="../../../../../../Desktop/Screenshot 2021-02-22 at 10.06.57.png"  transform="matrix(1.3563 0 0 1.3563 29.2874 30)">
</image>
<path d="M371.1,207.5c-0.7,0-1.4-0.1-2-0.3c-52.2-14.6-87.5-33.1-114.4-60.1c-27-27-46.3-63-62.5-116.8c-1.2-4,1.1-8.1,5-9.3
	c4-1.2,8.1,1.1,9.3,5c15.5,51.3,33.6,85.4,58.7,110.5c25,25,58.3,42.3,107.9,56.2c4,1.1,6.3,5.3,5.2,9.2
	C377.4,205.3,374.3,207.5,371.1,207.5z"/>
<path d="M27.5,207.5c-3.2,0-6.2-2.1-7.2-5.3c-1.2-4,1.1-8.1,5-9.3c51.3-15.5,85.4-33.6,110.5-58.7c25-25,42.3-58.3,56.2-107.9
	c1.1-4,5.3-6.3,9.2-5.2c4,1.1,6.3,5.3,5.2,9.2c-14.6,52.2-33.1,87.5-60.1,114.4c-27,27-63,46.3-116.8,62.5
	C28.9,207.4,28.2,207.5,27.5,207.5z"/>
<path d="M199.3,379.3c-3.2,0-6.2-2.1-7.2-5.3c-15.5-51.3-33.6-85.4-58.7-110.5c-25-25-58.3-42.3-107.9-56.2c-4-1.1-6.3-5.3-5.2-9.2
	c1.1-4,5.3-6.3,9.2-5.2c52.2,14.6,87.5,33.1,114.4,60.1c27,27,46.3,63,62.5,116.8c1.2,4-1.1,8.1-5,9.3
	C200.7,379.2,200,379.3,199.3,379.3z"/>
<path d="M199.3,379.3c-0.7,0-1.4-0.1-2-0.3c-4-1.1-6.3-5.3-5.2-9.2c14.5-51.8,33.3-86.9,60.9-113.8c27-26.4,63.2-45.4,117.4-61.7
	c4-1.2,8.1,1.1,9.3,5c1.2,4-1.1,8.1-5,9.3c-51.8,15.6-86.1,33.5-111.3,58.1c-25.6,25-43.1,58-56.9,107.1
	C205.6,377.1,202.6,379.3,199.3,379.3z"/>
</svg>
