<?xml version="1.0" encoding="utf-8"?>
<!-- Generator: Adobe Illustrator 24.1.0, SVG Export Plug-In . SVG Version: 6.00 Build 0)  -->
<svg version="1.1" id="Laag_1" xmlns="http://www.w3.org/2000/svg" xmlns:xlink="http://www.w3.org/1999/xlink" x="0px" y="0px"
	 viewBox="0 0 400 400" style="enable-background:new 0 0 400 400;" xml:space="preserve">
<style type="text/css">
	.st0{fill:#1D1D1B;}
	.st1{fill:none;stroke:#1D1D1B;stroke-width:15;stroke-miterlimit:10;}
</style>
<g>
	<path class="st0" d="M290,380H109.4c-6.7,0-12.2-5.5-12.2-12.2v-23.9c0-6.7,5.5-12.2,12.2-12.2H290c6.7,0,12.2,5.5,12.2,12.2v23.9
		C302.2,374.5,296.8,380,290,380z M112.3,365h175v-18.2h-175V365z"/>
	<path class="st0" d="M211.6,346.8h-23.7c-6.8,0-12.2-5.5-12.2-12.2v-23.7c0-6.8,5.5-12.2,12.2-12.2h23.7c6.8,0,12.2,5.5,12.2,12.2
		v23.7C223.9,341.3,218.4,346.8,211.6,346.8z M190.6,331.8h18.2v-18.2h-18.2V331.8z"/>
	<path class="st1" d="M343.5,237.4"/>
	<path class="st0" d="M267.7,313.5h-138c-4.5,0-8.8-1.7-12-4.9L54,245.5c-3.2-3.2-5-7.6-5-12.1v-66.8c0-22.7,18.5-41.2,41.2-41.2
		h7.5v89.9c0,0.5,0.2,1.1,0.6,1.5l51,47.9c0.4,0.3,0.9,0.5,1.4,0.5h96.9c0.5,0,1-0.2,1.4-0.6l52.1-49.6c0.4-0.4,0.6-0.9,0.6-1.4
		v-88.2h7.5c22.7,0,41.2,18.5,41.2,41.2v66.7c0,4.6-1.9,9.1-5.2,12.3l-65.8,63.2C276.3,311.8,272.1,313.5,267.7,313.5z M82.7,141.5
		C71.9,144.7,64,154.8,64,166.7v66.8c0,0.5,0.2,1,0.6,1.4l63.7,63.1c0.4,0.4,0.9,0.6,1.4,0.6h138c0.5,0,1-0.2,1.4-0.6l65.8-63.2
		c0.4-0.4,0.6-0.9,0.6-1.4v-66.7c0-11.9-7.9-21.9-18.7-25.2v72.1c0,4.6-1.9,9.1-5.3,12.3l-52.1,49.6c-3.2,3-7.3,4.7-11.7,4.7h-96.9
		c-4.3,0-8.5-1.6-11.6-4.6l-51-47.9c-3.4-3.2-5.4-7.7-5.4-12.4V141.5z"/>
	<path class="st0" d="M199.7,253.5C135.4,253.5,83,201.1,83,136.7C83,72.4,135.4,20,199.7,20s116.7,52.4,116.7,116.7
		C316.5,201.1,264.1,253.5,199.7,253.5z M199.7,35C143.6,35,98,80.6,98,136.7s45.6,101.7,101.7,101.7c56.1,0,101.7-45.6,101.7-101.7
		S255.8,35,199.7,35z"/>
	<path class="st0" d="M199.7,160.9c-13.3,0-24.1-10.8-24.1-24.1s10.8-24.1,24.1-24.1s24.1,10.8,24.1,24.1S213,160.9,199.7,160.9z
		 M199.7,127.6c-5,0-9.1,4.1-9.1,9.1s4.1,9.1,9.1,9.1c5,0,9.1-4.1,9.1-9.1S204.8,127.6,199.7,127.6z"/>
	<path class="st0" d="M267,160.9c-13.3,0-24.1-10.8-24.1-24.1s10.8-24.1,24.1-24.1s24.1,10.8,24.1,24.1S280.3,160.9,267,160.9z
		 M267,127.6c-5,0-9.1,4.1-9.1,9.1s4.1,9.1,9.1,9.1c5,0,9.1-4.1,9.1-9.1S272,127.6,267,127.6z"/>
	<path class="st0" d="M133.6,160.9c-13.3,0-24.1-10.8-24.1-24.1s10.8-24.1,24.1-24.1s24.1,10.8,24.1,24.1S146.9,160.9,133.6,160.9z
		 M133.6,127.6c-5,0-9.1,4.1-9.1,9.1s4.1,9.1,9.1,9.1s9.1-4.1,9.1-9.1S138.6,127.6,133.6,127.6z"/>
	<path class="st0" d="M233.7,217.7c-13.3,0-24.1-10.8-24.1-24.1c0-13.3,10.8-24.1,24.1-24.1s24.1,10.8,24.1,24.1
		C257.9,206.9,247,217.7,233.7,217.7z M233.7,184.5c-5,0-9.1,4.1-9.1,9.1s4.1,9.1,9.1,9.1s9.1-4.1,9.1-9.1S238.8,184.5,233.7,184.5z
		"/>
	<path class="st0" d="M166.9,217.7c-13.3,0-24.1-10.8-24.1-24.1c0-13.3,10.8-24.1,24.1-24.1s24.1,10.8,24.1,24.1
		C191,206.9,180.2,217.7,166.9,217.7z M166.9,184.5c-5,0-9.1,4.1-9.1,9.1s4.1,9.1,9.1,9.1s9.1-4.1,9.1-9.1S171.9,184.5,166.9,184.5z
		"/>
	<path class="st0" d="M233.7,103c-13.3,0-24.1-10.8-24.1-24.1s10.8-24.1,24.1-24.1s24.1,10.8,24.1,24.1S247,103,233.7,103z
		 M233.7,69.7c-5,0-9.1,4.1-9.1,9.1s4.1,9.1,9.1,9.1s9.1-4.1,9.1-9.1S238.8,69.7,233.7,69.7z"/>
	<path class="st0" d="M166.9,104c-13.3,0-24.1-10.8-24.1-24.1s10.8-24.1,24.1-24.1S191,66.6,191,79.9S180.2,104,166.9,104z
		 M166.9,70.7c-5,0-9.1,4.1-9.1,9.1s4.1,9.1,9.1,9.1s9.1-4.1,9.1-9.1S171.9,70.7,166.9,70.7z"/>
</g>
</svg>
