<?xml version="1.0" encoding="utf-8"?>
<!-- Generator: Adobe Illustrator 24.1.0, SVG Export Plug-In . SVG Version: 6.00 Build 0)  -->
<svg version="1.1" id="Laag_1" xmlns="http://www.w3.org/2000/svg" xmlns:xlink="http://www.w3.org/1999/xlink" x="0px" y="0px"
	 viewBox="0 0 400 400" style="enable-background:new 0 0 400 400;" xml:space="preserve">
<style type="text/css">
	.st0{fill:none;stroke:#000000;stroke-width:15;stroke-miterlimit:10;}
	.st1{display:none;}
	.st2{display:inline;fill:none;stroke:#000000;stroke-width:15;stroke-miterlimit:10;}
</style>
<g>
	<g>
		<path d="M100,315.7c-24,0-43.5-19.5-43.5-43.5S76,228.6,100,228.6s43.5,19.5,43.5,43.5S124,315.7,100,315.7z M100,243.6
			c-15.7,0-28.5,12.8-28.5,28.5c0,15.7,12.8,28.5,28.5,28.5s28.5-12.8,28.5-28.5C128.5,256.4,115.7,243.6,100,243.6z"/>
		<g>
			<path d="M179.6,387.8h-15v-7.5c0-35.6-29-64.6-64.6-64.6s-64.6,29-64.6,64.6v7.5h-15v-7.5c0-43.9,35.7-79.6,79.6-79.6
				s79.6,35.7,79.6,79.6V387.8z"/>
			<rect x="20.4" y="372.8" width="159.2" height="15"/>
		</g>
	</g>
	<g>
		<path d="M300,315.7c-24,0-43.5-19.5-43.5-43.5s19.5-43.5,43.5-43.5s43.5,19.5,43.5,43.5S324,315.7,300,315.7z M300,243.6
			c-15.7,0-28.5,12.8-28.5,28.5c0,15.7,12.8,28.5,28.5,28.5s28.5-12.8,28.5-28.5C328.5,256.4,315.7,243.6,300,243.6z"/>
		<g>
			<path d="M379.6,387.8h-15v-7.5c0-35.6-29-64.6-64.6-64.6s-64.6,29-64.6,64.6v7.5h-15v-7.5c0-43.9,35.7-79.6,79.6-79.6
				s79.6,35.7,79.6,79.6V387.8z"/>
			<rect x="220.4" y="372.8" width="159.2" height="15"/>
		</g>
	</g>
</g>
<g>
	<path class="st0" d="M114.4,240.9"/>
	<path d="M200.1,284.4c-23,0-45.6-6.2-65.3-18c-2.3-1.4-4.7-2.9-6.9-4.4l8.5-12.4c2,1.4,4,2.7,6.1,3.9
		c17.4,10.4,37.3,15.9,57.6,15.9c19.7,0,39.1-5.2,56-14.9c2.5-1.4,5-3,7.4-4.7l8.5,12.4c-2.7,1.9-5.5,3.6-8.4,5.3
		C244.4,278.6,222.4,284.4,200.1,284.4z"/>
	<path d="M105.4,242.3c-4.3-4.8-8.3-9.9-11.8-15.2c-13.7-20.8-21-45.1-21-70.1c0-70.3,57.2-127.5,127.5-127.5
		c70.3,0,127.5,57.2,127.5,127.5c0,25.1-7.3,49.3-21,70.2c-3.2,4.9-6.8,9.6-10.7,14l-11.3-9.9c3.4-3.9,6.6-8.1,9.5-12.4
		c12.1-18.4,18.5-39.8,18.5-61.9c0-62-50.5-112.5-112.5-112.5S87.6,94.9,87.6,156.9c0,22.1,6.4,43.5,18.5,61.9
		c3.1,4.7,6.6,9.2,10.4,13.4L105.4,242.3z"/>
	<rect x="89.3" y="106.7" width="223" height="15"/>
	<rect x="89.3" y="189.5" width="223" height="15"/>
	<path d="M197.6,284c-0.7-0.2-17.4-6.3-33.9-25.2c-14.9-17.1-32.6-48.7-32.6-101.8c0-47.4,11-83.1,32.8-106.2
		c16.9-17.9,34.2-21.1,34.9-21.2l2.5,14.8l-1.3-7.4l1.3,7.4c-0.1,0-13.8,2.7-27.4,17.5c-18.3,20-27.9,52.9-27.9,95.1
		c0,38,9.8,69.6,28.3,91.3c13.9,16.3,28,21.6,28.2,21.6L197.6,284z"/>
	<path d="M203.3,284l-5-14.2c0.1,0,14.2-5.3,28.2-21.6c18.5-21.7,28.3-53.3,28.3-91.3c0-102-54.7-112.5-55.2-112.6l2.5-14.8
		c0.7,0.1,18,3.3,34.9,21.2c21.7,23.1,32.8,58.8,32.8,106.2c0,29.3-5.7,70.8-32.6,101.8C220.7,277.7,204,283.7,203.3,284z"/>
	<rect x="192.6" y="35.5" width="15" height="241.4"/>
</g>
<g class="st1">
	<circle class="st2" cx="200" cy="166" r="129.2"/>
</g>
</svg>
