<svg xmlns="http://www.w3.org/2000/svg" viewBox="0 0 33.97 33.51"><defs><style>.cls-1{fill:#444;}</style></defs><title>management_and_leadership</title><g id="Layer_2" data-name="Layer 2"><g id="Layer_1-2" data-name="Layer 1"><path class="cls-1" d="M.7,33.51a.71.71,0,0,1-.33-.08.7.7,0,0,1-.29-.95L12.78,8.84a.8.8,0,0,1,.62-.37.7.7,0,0,1,.62.38l9.42,18.51a.7.7,0,0,1-1.25.63L13.38,10.68,1.32,33.15A.7.7,0,0,1,.7,33.51Z"/><path class="cls-1" d="M33.27,31.23a.7.7,0,0,1-.61-.35l-3.8-6.59-1.2,1.24a.67.67,0,0,1-.57.21.7.7,0,0,1-.52-.31l-3.9-5.84-2.1,2.53a.7.7,0,1,1-1.08-.89L22.2,18a.71.71,0,0,1,.58-.25.7.7,0,0,1,.55.31l3.94,5.9,1.24-1.29a.68.68,0,0,1,.59-.21.7.7,0,0,1,.52.34l4.26,7.39a.7.7,0,0,1-.61,1Z"/><path class="cls-1" d="M13.18,9.87a.7.7,0,0,1-.7-.7V.7a.7.7,0,0,1,.7-.7H24.9a.7.7,0,0,1,.38,1.29l-3.15,2,3.15,2a.7.7,0,0,1-.38,1.29h-11V9.17A.7.7,0,0,1,13.18,9.87Zm.7-4.68h8.62l-2.05-1.3a.7.7,0,0,1,0-1.18l2.05-1.3H13.88Z"/></g></g></svg>