<svg xmlns="http://www.w3.org/2000/svg" viewBox="0 0 20.17 34.87"><defs><style>.cls-1{fill:#444;}</style></defs><title>media</title><g id="Layer_2" data-name="Layer 2"><g id="Layer_1-2" data-name="Layer 1"><path class="cls-1" d="M10.08,27.15A10.1,10.1,0,0,1,0,17.07V14.81a.7.7,0,1,1,1.4,0v2.25a8.68,8.68,0,1,0,17.37,0V14.81a.7.7,0,1,1,1.4,0v2.25A10.1,10.1,0,0,1,10.08,27.15Z"/><path class="cls-1" d="M10.08,33.85a.7.7,0,0,1-.7-.7v-6.7a.7.7,0,0,1,1.4,0v6.7A.7.7,0,0,1,10.08,33.85Z"/><path class="cls-1" d="M17.76,34.87H2.4a.7.7,0,0,1,0-1.4H17.76a.7.7,0,0,1,0,1.4Z"/><path class="cls-1" d="M10.08,23.23a6.71,6.71,0,0,1-6.7-6.7V6.7a6.7,6.7,0,0,1,13.4,0v9.84A6.71,6.71,0,0,1,10.08,23.23Zm0-21.83a5.3,5.3,0,0,0-5.3,5.3v9.84a5.3,5.3,0,0,0,10.59,0V6.7a5.3,5.3,0,0,0-5.3-5.3Z"/><path class="cls-1" d="M7.06,7.22H4.37a.7.7,0,1,1,0-1.4h2.7a.7.7,0,1,1,0,1.4Z"/><path class="cls-1" d="M7.06,10.62H4.37a.7.7,0,0,1,0-1.4h2.7a.7.7,0,0,1,0,1.4Z"/><path class="cls-1" d="M7.06,14H4.37a.7.7,0,1,1,0-1.4h2.7a.7.7,0,1,1,0,1.4Z"/><path class="cls-1" d="M7.06,17.42H4.37a.7.7,0,1,1,0-1.4h2.7a.7.7,0,1,1,0,1.4Z"/><path class="cls-1" d="M15.8,7.22H13.1a.7.7,0,0,1,0-1.4h2.7a.7.7,0,0,1,0,1.4Z"/><path class="cls-1" d="M15.8,10.62H13.1a.7.7,0,0,1,0-1.4h2.7a.7.7,0,0,1,0,1.4Z"/><path class="cls-1" d="M15.8,14H13.1a.7.7,0,0,1,0-1.4h2.7a.7.7,0,0,1,0,1.4Z"/><path class="cls-1" d="M15.8,17.42H13.1a.7.7,0,0,1,0-1.4h2.7a.7.7,0,1,1,0,1.4Z"/></g></g></svg>