<?xml version="1.0" encoding="utf-8"?>
<!-- Generator: Adobe Illustrator 24.1.0, SVG Export Plug-In . SVG Version: 6.00 Build 0)  -->
<svg version="1.1" id="Laag_1" xmlns="http://www.w3.org/2000/svg" xmlns:xlink="http://www.w3.org/1999/xlink" x="0px" y="0px"
	 viewBox="0 0 400 400" style="enable-background:new 0 0 400 400;" xml:space="preserve">
<style type="text/css">
	.st0{display:none;}
	.st1{display:inline;}
</style>
<g class="st0">
	<path class="st1" d="M200,450.8c-5.9,0-10.8-4.9-10.8-10.8v-50.5c0-5.9,4.9-10.8,10.8-10.8c5.9,0,10.8,4.9,10.8,10.8V440
		C210.9,446,206,450.8,200,450.8z"/>
	<path class="st1" d="M221.7,398.8h-43.3c-9.9,0-18-8.1-18-18v-31.3c0-9.9,8.1-18,18-18h43.3c9.9,0,18,8.1,18,18v31.3
		C239.7,390.7,231.6,398.8,221.7,398.8z M182,377.2h36.1v-24H182V377.2z"/>
	<path class="st1" d="M236.6,353.1h-73.1c-9.5,0-17.4-7.4-18-16.8l-14.1-225.1h137.2l-14,225.1C254,345.8,246.1,353.1,236.6,353.1z
		 M166.9,331.5h66.3l12.4-198.6h-91.1L166.9,331.5z"/>
	<path class="st1" d="M277.3,79.5H122.7c-5.9,0-10.8-4.9-10.8-10.8s4.9-10.8,10.8-10.8h154.6c5.9,0,10.8,4.9,10.8,10.8
		C288.1,74.7,283.2,79.5,277.3,79.5z"/>
	<path class="st1" d="M143.8,132.5c-2.4,0-4.9-0.8-6.9-2.5c-1-0.8-25-21.1-25-61.3c0-47.8,40.3-88.1,88.1-88.1s88.1,40.3,88.1,88.1
		c0,36.5-22.8,59.3-23.9,60.2c-4.3,4.2-11.2,4.1-15.3-0.2c-4.2-4.3-4.1-11,0.1-15.3c0.4-0.4,17.4-17.8,17.4-44.8
		c0-17-7.1-33.9-19.7-46.4C234,9.3,217.4,2.2,200,2.2c-35.4,0-66.4,31-66.4,66.4c0,29.6,16.5,44.1,17.1,44.7
		c4.7,3.8,5.2,10.6,1.4,15.3C150,131.2,146.9,132.5,143.8,132.5z"/>
</g>
<g>
	<path d="M113.5,352.7c-3.4,0-6.8-1.3-9.3-3.8l-52.6-52.7c-4.8-4.8-5.1-12.7-0.7-17.8l143.8-168.8c2.4-2.8,5.8-4.5,9.5-4.6
		c3.7-0.1,7.2,1.3,9.8,3.8l77.6,77.6c2.6,2.6,4,6.2,3.9,9.8c-0.1,3.7-1.8,7.1-4.6,9.5L122,349.5
		C119.5,351.6,116.5,352.7,113.5,352.7z M64.4,286.7l49.2,49.3l164.8-140.5l-73.6-73.5L64.4,286.7z"/>
	<path d="M76,374.9c-0.1,0-0.1,0-0.2,0c-3.5,0-6.8-1.4-9.2-3.9l-37.2-37.2c-2.5-2.5-3.9-5.8-3.9-9.3c0-3.5,1.4-6.8,3.9-9.3
		l22.3-22.3c2.5-2.5,5.8-3.9,9.3-3.9c3.5,0,6.8,1.4,9.3,3.9l37.3,37.3c5.2,5.2,5.2,13.4,0,18.6l-22.3,22.3
		C82.9,373.5,79.5,374.9,76,374.9z M42.5,324.5L76.1,358l18.6-18.6l-33.6-33.6L42.5,324.5z"/>
	<rect x="279.2" y="27.1" transform="matrix(0.7071 -0.7071 0.7071 0.7071 5.1489 235.7202)" width="15.8" height="169.2"/>
	<path d="M27.4,380.6c-2.1,0-4.1-0.8-5.7-2.4c-3-3.1-2.9-8.1,0.2-11.2l26.5-25.6c3.1-3,8.1-2.9,11.2,0.2c3,3.1,2.9,8.1-0.2,11.2
		l-26.5,25.6C31.3,379.8,29.4,380.6,27.4,380.6z"/>
	<path d="M297,205c-5,0-8.1-0.8-8.6-1l4.4-15.2l-0.1,0c0.8,0.2,20.9,4.9,48.7-22.9c14.6-14.6,22.9-33,23.3-51.7
		c0.5-19.9-7.8-38.9-23.8-54.9C325.2,43.5,305,35,284.2,35.2c-19.4,0.2-38.1,8.3-51.2,22C207.5,84,212.4,108,212.7,109l-15.4,3.6
		c-0.3-1.3-7.5-33,24.3-66.3c16-16.8,38.8-26.6,62.4-26.9c25.1-0.3,49.3,9.9,68.1,28.7c19.1,19.1,29,42.1,28.4,66.4
		c-0.5,22.8-10.5,45-28,62.5c-14.4,14.4-29.2,23.3-44,26.6C304,204.6,300.1,205,297,205z"/>
</g>
</svg>
