<?xml version="1.0" encoding="utf-8"?>
<!-- Generator: Adobe Illustrator 24.1.0, SVG Export Plug-In . SVG Version: 6.00 Build 0)  -->
<svg version="1.1" id="Laag_1" xmlns="http://www.w3.org/2000/svg" xmlns:xlink="http://www.w3.org/1999/xlink" x="0px" y="0px"
	 viewBox="0 0 400 400" style="enable-background:new 0 0 400 400;" xml:space="preserve">
<path d="M367.5,356.5h-335c-6.9,0-12.5-5.6-12.5-12.5V54c0-6.9,5.6-12.5,12.5-12.5h335c6.9,0,12.5,5.6,12.5,12.5v290
	C380,350.9,374.4,356.5,367.5,356.5z M35,341.5h330v-285H35V341.5z"/>
<path d="M160,202.5c-4.1,0-7.5-3.4-7.5-7.5V85c0-4.1,3.4-7.5,7.5-7.5s7.5,3.4,7.5,7.5v110C167.5,199.1,164.1,202.5,160,202.5z"/>
<path d="M160,322.5c-4.1,0-7.5-3.4-7.5-7.5v-70c0-4.1,3.4-7.5,7.5-7.5s7.5,3.4,7.5,7.5v70C167.5,319.1,164.1,322.5,160,322.5z"/>
<path d="M240,122.5c-4.1,0-7.5-3.4-7.5-7.5V85c0-4.1,3.4-7.5,7.5-7.5s7.5,3.4,7.5,7.5v30C247.5,119.1,244.1,122.5,240,122.5z"/>
<path d="M240,322.5c-4.1,0-7.5-3.4-7.5-7.5V165c0-4.1,3.4-7.5,7.5-7.5s7.5,3.4,7.5,7.5v150C247.5,319.1,244.1,322.5,240,322.5z"/>
<path d="M320,232.5c-4.1,0-7.5-3.4-7.5-7.5V85c0-4.1,3.4-7.5,7.5-7.5s7.5,3.4,7.5,7.5v140C327.5,229.1,324.1,232.5,320,232.5z"/>
<path d="M320,322.5c-4.1,0-7.5-3.4-7.5-7.5v-40c0-4.1,3.4-7.5,7.5-7.5s7.5,3.4,7.5,7.5v40C327.5,319.1,324.1,322.5,320,322.5z"/>
<path d="M80,242.5c-4.1,0-7.5-3.4-7.5-7.5V86.6c0-4.1,3.4-7.5,7.5-7.5s7.5,3.4,7.5,7.5V235C87.5,239.1,84.1,242.5,80,242.5z"/>
<path d="M80,324.1c-4.1,0-7.5-3.4-7.5-7.5V285c0-4.1,3.4-7.5,7.5-7.5s7.5,3.4,7.5,7.5v31.6C87.5,320.7,84.1,324.1,80,324.1z"/>
<path d="M320,282.5c-17.9,0-32.5-14.6-32.5-32.5s14.6-32.5,32.5-32.5s32.5,14.6,32.5,32.5S337.9,282.5,320,282.5z M320,232.5
	c-9.6,0-17.5,7.9-17.5,17.5s7.9,17.5,17.5,17.5s17.5-7.9,17.5-17.5S329.6,232.5,320,232.5z"/>
<path d="M240,172.5c-17.9,0-32.5-14.6-32.5-32.5s14.6-32.5,32.5-32.5s32.5,14.6,32.5,32.5S257.9,172.5,240,172.5z M240,122.5
	c-9.6,0-17.5,7.9-17.5,17.5s7.9,17.5,17.5,17.5s17.5-7.9,17.5-17.5S249.6,122.5,240,122.5z"/>
<path d="M80,292.5c-17.9,0-32.5-14.6-32.5-32.5s14.6-32.5,32.5-32.5s32.5,14.6,32.5,32.5S97.9,292.5,80,292.5z M80,242.5
	c-9.6,0-17.5,7.9-17.5,17.5s7.9,17.5,17.5,17.5s17.5-7.9,17.5-17.5S89.6,242.5,80,242.5z"/>
<path d="M160,252.5c-17.9,0-32.5-14.6-32.5-32.5s14.6-32.5,32.5-32.5s32.5,14.6,32.5,32.5S177.9,252.5,160,252.5z M160,202.5
	c-9.6,0-17.5,7.9-17.5,17.5s7.9,17.5,17.5,17.5s17.5-7.9,17.5-17.5S169.6,202.5,160,202.5z"/>
</svg>
