<?xml version="1.0" encoding="utf-8"?>
<!-- Generator: Adobe Illustrator 16.0.0, SVG Export Plug-In . SVG Version: 6.00 Build 0)  -->
<!DOCTYPE svg PUBLIC "-//W3C//DTD SVG 1.1//EN" "http://www.w3.org/Graphics/SVG/1.1/DTD/svg11.dtd">
<svg version="1.1" id="Laag_1" xmlns="http://www.w3.org/2000/svg" xmlns:xlink="http://www.w3.org/1999/xlink" x="0px" y="0px"
	 width="685px" height="1040px" viewBox="0 0 685 1040" enable-background="new 0 0 685 1040" xml:space="preserve">
<path fill="#4D4D4D" d="M653.661,411.085c-3.082-3.083-7.535-4.453-11.816-3.425l-151.728,33.223l-104.462-23.291
	c-6.851-1.541-13.7,2.74-15.413,9.761c-1.541,6.851,2.911,13.7,9.762,15.413l92.988,20.721l-55.998,245.744L70.041,630.113
	L126.04,384.37l87.68,20.55c6.85,1.712,13.871-2.569,15.412-9.59c1.713-6.85-2.568-13.871-9.59-15.413l-100.181-23.461
	c-3.254-0.685-6.85-0.171-9.761,1.542c-2.911,1.884-4.966,4.795-5.651,8.049l-9.076,39.216c-30.825,15.755-54.8,48.121-63.534,86.31
	c-8.734,38.188-1.028,77.576,19.865,105.319l-9.076,40.072c-1.541,6.85,2.74,13.871,9.59,15.412l371.956,84.769
	c0.171,0,0.171,0,0.342,0l120.731,94.53c2.227,1.713,5.138,2.74,7.878,2.74c1.37,0,2.911-0.171,4.281-0.685
	c4.109-1.542,7.192-4.967,8.22-9.248l91.619-401.238C657.942,418.62,656.744,414.167,653.661,411.085z M56.513,497.224
	c4.966-21.577,15.583-40.758,29.969-54.457L59.938,559.388C52.916,540.722,51.546,518.801,56.513,497.224z M544.746,798.795
	l-103.435-81.001l57.54-252.594l128.438-28.085L544.746,798.795z"/>
<path fill="#4D4D4D" d="M352.433,484.209c-0.171-0.172-0.343-0.343-0.514-0.514V260.556c0-29.284-23.804-53.087-53.088-53.087
	c-29.284,0-52.916,23.804-52.916,53.087v223.139c-0.171,0.171-0.171,0.171-0.343,0.342c-14.385,14.214-22.262,33.223-22.262,53.431
	c-0.171,41.613,33.736,75.692,75.35,75.692h0.171c20.722,0,39.73-8.392,53.431-22.092c13.699-13.699,22.262-32.537,22.262-53.259
	C374.353,517.603,366.646,498.594,352.433,484.209z M271.431,260.556c0-15.07,12.159-27.4,27.229-27.4s27.399,12.33,27.399,27.4
	v206.528c-8.562-3.254-17.639-4.967-27.057-4.967h-0.172c-9.418,0-18.666,1.713-27.229,4.967V260.556H271.431z M298.831,587.473
	L298.831,587.473c-27.571,0-50.005-22.434-49.833-50.005c0-13.357,5.309-25.859,14.728-35.277
	c9.418-9.419,21.92-14.557,35.278-14.557h0.171c13.357,0,25.858,5.309,35.277,14.728s14.557,22.091,14.557,35.277
	C348.665,565.21,326.231,587.473,298.831,587.473z"/>
</svg>
