<?xml version="1.0" encoding="utf-8"?>
<!-- Generator: Adobe Illustrator 16.0.0, SVG Export Plug-In . SVG Version: 6.00 Build 0)  -->
<!DOCTYPE svg PUBLIC "-//W3C//DTD SVG 1.1//EN" "http://www.w3.org/Graphics/SVG/1.1/DTD/svg11.dtd">
<svg version="1.1" id="Laag_1" xmlns="http://www.w3.org/2000/svg" xmlns:xlink="http://www.w3.org/1999/xlink" x="0px" y="0px"
	 width="685px" height="1040px" viewBox="0 0 685 1040" enable-background="new 0 0 685 1040" xml:space="preserve">
<path fill="#4D4D4D" d="M661.323,297.852h-105.05c-11.028,0-20.001,8.972-20.001,20v94.209c0,4.673,1.682,9.346,4.859,13.084
	l22.244,25.982c3.739,4.486,9.346,6.916,15.141,6.916h17.196V575.24v0.562c0,0.936,2.431,93.086-60.374,158.134
	c-20.748,21.497-46.17,37.571-76.264,48.413c46.73-37.197,76.824-94.582,76.824-158.695c0-111.777-91.03-202.809-202.808-202.809
	s-202.995,90.845-202.995,202.622c0,60.002,26.169,114.021,67.852,151.219c-17.757-8.973-33.458-20.562-47.104-34.58
	C87.665,675.057,89.722,576.55,89.722,575.615V458.043h17.01c5.794,0,11.402-2.43,15.14-6.916l22.243-25.982
	c3.178-3.552,4.86-8.225,4.86-13.084v-94.209c0-11.027-8.971-20-20-20h-10.281v-37.945c0-7.663-6.355-14.019-14.019-14.019
	c-7.664,0-14.019,6.355-14.019,14.019v37.945H60.749v-37.945c0-7.663-6.355-14.019-14.02-14.019
	c-7.663,0-14.019,6.355-14.019,14.019v37.945h-8.786c-11.028,0-20,8.972-20,20v94.209c0,4.859,1.682,9.346,4.859,13.084
	l22.244,25.795c3.739,4.486,9.346,6.916,15.141,6.916h15.515v117.013c-0.188,7.103-1.682,111.778,68.786,184.488
	c43.179,44.674,103.927,67.292,180.191,67.292h20.373c0.562,0,1.122,0,1.684,0c0.56,0,1.121,0,1.681,0h19.255
	c86.543,0,154.209-24.674,201.312-73.46c69.909-72.524,68.6-171.218,68.225-178.32V457.855h15.329c5.794,0,11.401-2.43,15.14-6.916
	l22.243-25.982c3.177-3.551,4.861-8.224,4.861-13.084v-94.208C681.322,306.824,672.351,297.852,661.323,297.852z M49.907,429.817
	L49.907,429.817l-17.944-20.562V325.89h88.787v83.179l-17.945,20.748H49.907z M333.464,798.423
	c-80,0-147.292-53.459-168.413-126.731c0,0,0,0,0,0.188c-4.487-15.328-6.916-31.59-6.916-48.413
	c0-25.607,5.607-50.095,15.514-71.964c27.477-60.936,88.6-103.18,159.815-103.18c96.64,0,175.145,78.32,175.145,175.144
	C508.608,720.104,430.104,798.423,333.464,798.423z M635.34,429.817h-11.588h-28.039h-13.458l-17.944-20.748V325.89h88.788v83.179
	h0.185L635.34,429.817z"/>
</svg>
