<?xml version="1.0" encoding="utf-8"?>
<!-- Generator: Adobe Illustrator 16.0.0, SVG Export Plug-In . SVG Version: 6.00 Build 0)  -->
<!DOCTYPE svg PUBLIC "-//W3C//DTD SVG 1.1//EN" "http://www.w3.org/Graphics/SVG/1.1/DTD/svg11.dtd">
<svg version="1.1" id="Laag_1" xmlns="http://www.w3.org/2000/svg" xmlns:xlink="http://www.w3.org/1999/xlink" x="0px" y="0px"
	 width="685px" height="1040px" viewBox="0 0 685 1040" enable-background="new 0 0 685 1040" xml:space="preserve">
<path fill="#4D4D4D" d="M174.333,651.006c-7.021,0-12.844-5.822-12.844-12.844V331.625c0-7.021,5.822-12.844,12.844-12.844
	c7.021,0,12.844,5.822,12.844,12.844v306.537C187.176,645.184,181.354,651.006,174.333,651.006z"/>
<path fill="#4D4D4D" d="M257.217,626.347c-7.021,0-12.844-5.823-12.844-12.844V331.625c0-7.021,5.823-12.844,12.844-12.844
	c7.021,0,12.844,5.822,12.844,12.844v281.878C270.061,620.523,264.239,626.347,257.217,626.347z"/>
<path fill="#4D4D4D" d="M341.301,651.006c-7.021,0-12.844-5.822-12.844-12.844V331.625c0-7.021,5.823-12.844,12.844-12.844
	c7.021,0,12.844,5.822,12.844,12.844v306.537C354.145,645.184,348.322,651.006,341.301,651.006z"/>
<path fill="#4D4D4D" d="M429.666,626.347c-7.021,0-12.844-5.823-12.844-12.844V331.625c0-7.021,5.822-12.844,12.844-12.844
	s12.844,5.822,12.844,12.844v281.878C442.51,620.523,436.688,626.347,429.666,626.347z"/>
<path fill="#4D4D4D" d="M513.75,651.006c-7.021,0-12.844-5.822-12.844-12.844V331.625c0-7.021,5.822-12.844,12.844-12.844
	s12.844,5.822,12.844,12.844v306.537C526.594,645.184,520.942,651.006,513.75,651.006z"/>
<path fill="#4D4D4D" d="M655.202,778.759h-43.497V269.975c0-7.021-5.822-12.844-12.844-12.844H89.735
	c-7.192,0-12.844,5.822-12.844,12.844v508.784H41.956c-7.021,0-12.844,5.822-12.844,12.844s5.823,12.844,12.844,12.844h108.059
	c7.021,0,12.844-5.822,12.844-12.844s-5.823-12.844-12.844-12.844h-47.437V746.05c8.392,5.138,18.153,8.22,28.599,8.22
	c16.954,0,32.195-7.706,42.127-19.864c10.104,12.158,25.173,19.864,42.127,19.864c16.954,0,32.195-7.706,42.127-19.864
	c10.104,12.158,25.174,19.864,42.127,19.864c16.954,0,32.195-7.706,42.128-19.864c10.104,12.158,25.173,19.864,42.127,19.864
	c18.152,0,34.25-8.904,44.183-22.604c9.933,13.7,26.03,22.604,44.183,22.604c16.954,0,32.195-7.706,42.128-19.864
	c10.104,12.158,25.173,19.864,42.127,19.864c10.617,0,20.55-3.082,29.112-8.391v32.88h-38.702c-7.021,0-12.844,5.822-12.844,12.844
	s5.822,12.844,12.844,12.844h108.059c7.021,0,12.844-5.822,12.844-12.844C668.046,784.41,662.395,778.759,655.202,778.759z
	 M586.018,699.47c0,15.927-13.015,28.941-28.941,28.941c-15.926,0-28.941-13.015-28.941-28.941c0-7.021-5.822-12.844-12.844-12.844
	c-0.171,0-0.171,0-0.342,0c-0.172,0-0.172,0-0.343,0c-7.021,0-12.844,5.823-12.844,12.844c0,15.927-13.016,28.941-28.941,28.941
	c-15.927,0-28.941-13.015-28.941-28.941c0-7.021-5.822-12.844-12.844-12.844c-0.856,0-1.541,0-2.397,0.172
	c-0.856-0.172-1.541-0.172-2.397-0.172c-7.021,0-12.844,5.823-12.844,12.844c0,15.927-13.015,28.941-28.941,28.941
	c-15.926,0-28.941-13.015-28.941-28.941c0-7.021-5.822-12.844-12.844-12.844c-0.171,0-0.171,0-0.342,0c-0.172,0-0.172,0-0.343,0
	c-7.021,0-12.844,5.823-12.844,12.844c0,15.927-13.015,28.941-28.941,28.941c-15.926,0-28.941-13.015-28.941-28.941
	c0-7.021-5.651-12.844-12.844-12.844c-0.171,0-0.171,0-0.343,0s-0.171,0-0.342,0c-7.021,0-12.844,5.823-12.844,12.844
	c0,15.927-13.015,28.941-28.941,28.941s-28.941-13.015-28.941-28.941c0-7.021-5.822-12.844-12.844-12.844c-0.171,0-0.171,0-0.342,0
	s-0.171,0-0.342,0c-7.021,0-12.844,5.823-12.844,12.844c0,15.927-13.015,28.941-28.941,28.941
	c-14.556,0-26.715-10.789-28.599-24.831V282.819H586.36v415.624C586.018,698.785,586.018,699.128,586.018,699.47z"/>
<path fill="#4D4D4D" d="M93.16,804.446c-1.028,0.343-2.227,0.514-3.254,0.514s-2.226-0.171-3.254-0.514H93.16z"/>
<path fill="#4D4D4D" d="M76.891,696.73v8.562c-0.171-1.884-0.342-3.768-0.342-5.823C76.72,698.442,76.72,697.586,76.891,696.73z"/>
</svg>
