<?xml version="1.0" encoding="utf-8"?>
<!-- Generator: Adobe Illustrator 16.0.0, SVG Export Plug-In . SVG Version: 6.00 Build 0)  -->
<!DOCTYPE svg PUBLIC "-//W3C//DTD SVG 1.1//EN" "http://www.w3.org/Graphics/SVG/1.1/DTD/svg11.dtd">
<svg version="1.1" id="Laag_1" xmlns="http://www.w3.org/2000/svg" xmlns:xlink="http://www.w3.org/1999/xlink" x="0px" y="0px"
	 width="685px" height="1040px" viewBox="0 0 685 1040" enable-background="new 0 0 685 1040" xml:space="preserve">
<path fill="#4D4D4D" d="M472.821,815.92H213.206c-7.021,0-12.844-5.822-12.844-12.844V583.191c0-7.021,5.823-12.844,12.844-12.844
	h259.615c7.021,0,12.844,5.822,12.844,12.844v219.885C485.665,810.269,480.014,815.92,472.821,815.92z M226.05,790.232h233.928
	V596.035H226.05V790.232z"/>
<path fill="#4D4D4D" d="M362.879,522.568c-1.37-100.523-39.045-200.533-108.059-274.342c-11.302-12.159-29.455,6.165-18.152,18.153
	c64.218,68.842,99.154,162.345,100.524,256.189C337.362,539.18,363.05,539.18,362.879,522.568L362.879,522.568z"/>
<path fill="#4D4D4D" d="M390.793,401.495c4.795-32.538,15.926-64.219,30.653-93.674c14.042-28.256,31.51-55.999,55.827-76.72
	c12.502-10.789-5.651-28.941-18.152-18.152c-25.688,22.091-44.867,51.889-59.767,82.029c-15.583,31.339-28.256,65.075-33.222,99.839
	c-1.028,6.85,1.712,13.7,8.904,15.755C381.031,412.284,389.765,408.345,390.793,401.495L390.793,401.495z"/>
<path fill="#4D4D4D" d="M401.238,527.363c17.125-58.225,54.287-110.456,106.518-142.308c14.043-8.562,1.199-30.825-13.015-22.263
	c-57.883,35.277-99.325,92.989-118.334,157.721C371.784,536.44,396.615,543.29,401.238,527.363L401.238,527.363z"/>
<path fill="#4D4D4D" d="M465.8,532.501c35.449-45.724,93.16-74.493,151.557-66.103c6.85,1.027,13.7-1.712,15.755-8.904
	c1.713-5.994-2.055-14.899-8.905-15.756c-67.301-9.59-134.944,19.009-176.559,72.781c-4.281,5.48-5.309,12.844,0,18.153
	C452.1,536.954,461.69,537.981,465.8,532.501L465.8,532.501z"/>
<path fill="#4D4D4D" d="M303.626,519.657c-2.226-68.157-32.88-136.144-87.166-178.442c-5.48-4.281-12.844-5.309-18.152,0
	c-4.453,4.453-5.48,13.872,0,18.153c49.148,38.188,77.576,98.468,79.631,160.29C278.624,536.098,304.312,536.269,303.626,519.657
	L303.626,519.657z"/>
<path fill="#4D4D4D" d="M235.469,516.746c-8.905-23.118-30.14-38.188-51.717-48.978c-23.119-11.645-48.122-17.981-73.98-18.837
	c-16.611-0.514-16.44,25.174,0,25.688c20.207,0.685,40.244,5.309,58.396,14.042c15.241,7.364,36.134,18.152,42.47,34.936
	c2.568,6.507,8.562,10.96,15.755,8.904C232.729,530.789,238.038,523.254,235.469,516.746L235.469,516.746z"/>
<g>
	<g>
		<path fill="#4D4D4D" d="M136.315,533.871c16.611,0,16.611-25.688,0-25.688S119.704,533.871,136.315,533.871L136.315,533.871z"/>
	</g>
</g>
<g>
	<g>
		<path fill="#4D4D4D" d="M328.8,306.965c16.611,0,16.611-25.688,0-25.688S312.188,306.965,328.8,306.965L328.8,306.965z"/>
	</g>
</g>
<path fill="#4D4D4D" d="M176.388,290.868c-0.514,0.514-0.856,1.027-1.37,1.541c-2.227,2.569-3.768,5.651-3.768,9.076
	c0,1.712,0.342,3.425,1.027,4.966c0.514,1.542,1.37,2.911,2.74,4.11c2.397,2.226,5.651,3.938,9.076,3.767
	c3.254-0.171,6.85-1.199,9.076-3.767c0.514-0.514,0.856-1.028,1.37-1.542c2.226-2.569,3.768-5.651,3.768-9.076
	c0-1.712-0.343-3.425-1.028-4.966c-0.514-1.542-1.37-2.911-2.74-4.11c-2.397-2.227-5.651-3.939-9.076-3.768
	C182.039,287.271,178.614,288.47,176.388,290.868L176.388,290.868z"/>
<g>
	<g>
		<path fill="#4D4D4D" d="M478.815,330.426c16.61,0,16.61-25.688,0-25.688C462.375,304.739,462.375,330.426,478.815,330.426
			L478.815,330.426z"/>
	</g>
</g>
<path fill="#4D4D4D" d="M559.474,413.482c17.811-14.898,39.217-23.975,62.164-27.4c6.85-1.027,10.617-9.761,8.905-15.755
	c-2.056-7.364-8.905-9.933-15.756-8.905c-27.399,4.11-52.23,16.44-73.466,34.079C528.648,405.947,546.801,424.1,559.474,413.482
	L559.474,413.482z"/>
<g>
	<g>
		<path fill="#4D4D4D" d="M543.89,532.673c16.611,0,16.611-25.688,0-25.688S527.278,532.673,543.89,532.673L543.89,532.673z"/>
	</g>
</g>
<g>
	<g>
		<path fill="#4D4D4D" d="M576.085,341.215c16.611,0,16.611-25.688,0-25.688S559.474,341.215,576.085,341.215L576.085,341.215z"/>
	</g>
</g>
<path fill="#4D4D4D" d="M201.561,416.736c-19.351-28.428-48.292-49.663-82.371-56.17c-16.098-3.083-23.119,21.577-6.85,24.831
	c27.571,5.309,51.204,21.235,66.959,44.354C188.717,443.28,210.98,430.437,201.561,416.736L201.561,416.736z"/>
<g>
	<g>
		<path fill="#4D4D4D" d="M62.164,420.846c16.611,0,16.611-25.688,0-25.688C45.724,395.159,45.724,420.846,62.164,420.846
			L62.164,420.846z"/>
	</g>
</g>
</svg>
