<?xml version="1.0" encoding="utf-8"?>
<!-- Generator: Adobe Illustrator 16.0.0, SVG Export Plug-In . SVG Version: 6.00 Build 0)  -->
<!DOCTYPE svg PUBLIC "-//W3C//DTD SVG 1.1//EN" "http://www.w3.org/Graphics/SVG/1.1/DTD/svg11.dtd">
<svg version="1.1" id="Laag_1" xmlns="http://www.w3.org/2000/svg" xmlns:xlink="http://www.w3.org/1999/xlink" x="0px" y="0px"
	 width="685px" height="1040px" viewBox="0 0 685 1040" enable-background="new 0 0 685 1040" xml:space="preserve">
<path fill="#4D4D4D" d="M640.475,744.338H47.95c-7.021,0-12.844-5.823-12.844-12.844V263.981c0-7.021,5.822-12.844,12.844-12.844
	h592.524c7.021,0,12.844,5.822,12.844,12.844v467.513C653.318,738.515,647.496,744.338,640.475,744.338z M60.794,718.65h566.837
	V276.825H60.794V718.65z"/>
<path fill="#4D4D4D" d="M345.754,675.152c-42.128,0-84.426-14.728-118.334-44.867c-73.466-65.246-80.145-178.101-14.898-251.738
	c65.246-73.466,178.1-80.145,251.737-14.898c73.466,65.246,80.145,178.1,14.898,251.738
	C444.051,654.945,395.074,675.152,345.754,675.152z M345.925,344.469c-42.127,0-84.083,17.296-114.224,51.204
	c-55.828,62.849-50.176,159.605,12.672,215.433c28.941,25.688,65.247,38.359,101.208,38.359c42.128,0,84.084-17.296,114.225-51.203
	c55.827-62.85,50.176-159.605-12.673-215.433C418.192,357.141,382.059,344.469,345.925,344.469z"/>
<path fill="#4D4D4D" d="M301.058,584.562c-2.227,0-4.453-0.514-6.508-1.713c-3.938-2.227-6.507-6.508-6.507-11.131V428.381
	c0-4.623,2.397-8.905,6.507-11.131c4.11-2.226,8.905-2.226,12.844,0l124.156,71.582c3.938,2.227,6.508,6.508,6.508,11.132
	s-2.397,8.905-6.508,11.131l-124.156,71.583C305.51,583.876,303.284,584.562,301.058,584.562z M313.901,450.644v98.812
	l85.625-49.491L313.901,450.644z"/>
<path fill="#4D4D4D" d="M504.331,795.713H190.944c-7.021,0-12.844-5.823-12.844-12.844c0-7.021,5.822-12.844,12.844-12.844h313.387
	c7.021,0,12.844,5.822,12.844,12.844C517.175,789.89,511.353,795.713,504.331,795.713z"/>
</svg>
