<?xml version="1.0" encoding="utf-8"?>
<!-- Generator: Adobe Illustrator 16.0.0, SVG Export Plug-In . SVG Version: 6.00 Build 0)  -->
<!DOCTYPE svg PUBLIC "-//W3C//DTD SVG 1.1//EN" "http://www.w3.org/Graphics/SVG/1.1/DTD/svg11.dtd">
<svg version="1.1" id="Laag_1" xmlns="http://www.w3.org/2000/svg" xmlns:xlink="http://www.w3.org/1999/xlink" x="0px" y="0px"
	 width="685px" height="1040px" viewBox="0 0 685 1040" enable-background="new 0 0 685 1040" xml:space="preserve">
<path fill="#4D4D4D" d="M666.848,378.376c-4.967-5.137-13.016-5.309-18.152-0.342l-9.59,9.419L501.763,242.404l8.391-8.049
	c5.138-4.966,5.31-13.015,0.343-18.152c-4.966-5.138-13.015-5.309-18.152-0.343L41.442,650.321
	c-5.137,4.966-5.309,13.015-0.342,18.152c2.569,2.569,5.822,3.938,9.248,3.938c3.253,0,6.336-1.198,8.905-3.596l6.507-6.337
	L204.473,806.33l-6.508,6.336c-5.137,4.967-5.309,13.016-0.342,18.152c2.569,2.569,5.822,3.939,9.248,3.939
	c3.253,0,6.507-1.199,8.905-3.597l450.73-434.632C671.643,391.734,671.813,383.514,666.848,378.376z M212.521,777.731
	l-118.848-123.3l141.281-16.783L212.521,777.731z M101.894,627.716l158.92-153.269l-21.749,136.829L101.894,627.716z
	 M239.236,772.937l22.091-138.37l138.542-16.44L239.236,772.937z M417.336,590.041l-151.727,18.152l24.317-152.412l151.385-17.468
	L417.336,590.041z M309.449,427.525l157.207-151.557L445.25,411.77L309.449,427.525z M445.935,573.602l21.749-138.542
	l138.713-16.097L445.935,573.602z M471.794,408.688l21.577-137.685l115.252,121.759L471.794,408.688z"/>
</svg>
