<?xml version="1.0" encoding="utf-8"?>
<!-- Generator: Adobe Illustrator 16.0.0, SVG Export Plug-In . SVG Version: 6.00 Build 0)  -->
<!DOCTYPE svg PUBLIC "-//W3C//DTD SVG 1.1//EN" "http://www.w3.org/Graphics/SVG/1.1/DTD/svg11.dtd">
<svg version="1.1" id="Laag_1" xmlns="http://www.w3.org/2000/svg" xmlns:xlink="http://www.w3.org/1999/xlink" x="0px" y="0px"
	 width="685px" height="1040px" viewBox="0 0 685 1040" enable-background="new 0 0 685 1040" xml:space="preserve">
<path fill="#4D4D4D" d="M669.633,265.167H15.08c-6.675,0-12.211,5.536-12.211,12.211v431.483c0,6.676,5.536,12.211,12.211,12.211
	h45.591c2.443,0,4.559-0.65,6.513-1.954v76.04c0,6.674,5.536,12.212,12.212,12.212H362.71c6.677,0,12.212-5.538,12.212-12.212
	v-74.086h294.711c6.676,0,12.211-5.535,12.211-12.211V277.379C681.844,270.703,676.309,265.167,669.633,265.167z M350.498,782.948
	H91.608V605.469h258.89V782.948z M221.053,526.5c30.611,0,57.314,21.818,72.294,54.545H148.759
	C163.739,548.318,190.442,526.5,221.053,526.5z M182.79,451.601c0-21.167,17.096-38.264,38.263-38.264
	c21.167,0,38.263,17.097,38.263,38.264s-17.096,38.264-38.263,38.264C199.886,489.865,182.79,472.768,182.79,451.601z
	 M657.42,696.65H374.922V593.258c0-6.678-5.535-12.213-12.212-12.213h-43.149c-13.514-35.82-38.752-63.175-69.363-73.921
	c19.865-10.42,33.541-31.425,33.541-55.523c0-34.519-28.167-62.687-62.687-62.687c-34.519,0-62.688,28.168-62.688,62.687
	c0,24.098,13.677,44.939,33.542,55.523c-30.611,10.747-55.849,38.101-69.363,73.921H79.396c-6.676,0-12.212,5.535-12.212,12.213
	v105.346c-1.954-1.139-4.07-1.953-6.513-1.953H27.292v-407.06H657.42V696.65z"/>
<path fill="#4D4D4D" d="M565.426,484.98H430.281c-6.676,0-12.211-5.536-12.211-12.212c0-6.676,5.535-12.211,12.211-12.211h135.145
	c6.676,0,12.211,5.536,12.211,12.211C577.637,479.444,572.102,484.98,565.426,484.98z M568.682,419.85H357.01
	c-6.676,0-12.212-5.537-12.212-12.212c0-6.676,5.536-12.211,12.212-12.211h211.672c6.676,0,12.213,5.536,12.213,12.211
	C580.895,414.313,575.357,419.85,568.682,419.85z"/>
<path fill="#4D4D4D" d="M580.895,407.638c0,6.675-5.537,12.212-12.213,12.212H357.01c-6.676,0-12.212-5.537-12.212-12.212
	c0-6.676,5.536-12.211,12.212-12.211h211.672C575.357,395.427,580.895,400.962,580.895,407.638z"/>
<path fill="#4D4D4D" d="M577.637,472.768c0,6.676-5.535,12.212-12.211,12.212H430.281c-6.676,0-12.211-5.536-12.211-12.212
	c0-6.676,5.535-12.211,12.211-12.211h135.145C572.102,460.556,577.637,466.092,577.637,472.768z"/>
</svg>
