<?xml version="1.0" encoding="utf-8"?>
<!-- Generator: Adobe Illustrator 16.0.0, SVG Export Plug-In . SVG Version: 6.00 Build 0)  -->
<!DOCTYPE svg PUBLIC "-//W3C//DTD SVG 1.1//EN" "http://www.w3.org/Graphics/SVG/1.1/DTD/svg11.dtd">
<svg version="1.1" id="Laag_1" xmlns="http://www.w3.org/2000/svg" xmlns:xlink="http://www.w3.org/1999/xlink" x="0px" y="0px"
	 width="685px" height="1040px" viewBox="0 0 685 1040" enable-background="new 0 0 685 1040" xml:space="preserve">
<path fill="#4D4D4D" d="M598.519,831.675H95.044c-7.021,0-12.844-5.822-12.844-12.844V226.306c0-7.021,5.822-12.844,12.844-12.844
	h503.475c7.021,0,12.844,5.823,12.844,12.844v592.525C611.362,825.853,605.54,831.675,598.519,831.675z M107.888,805.987h477.787
	V239.15H107.888V805.987z"/>
<path fill="#4D4D4D" d="M346.61,758.551c-38.874,0-75.864-14.042-105.148-40.072c-31.681-28.085-50.519-66.959-53.087-109.257
	c-2.569-42.299,11.645-83.057,39.73-114.738c28.085-31.681,66.958-50.519,109.257-53.087c42.299-2.569,83.057,11.645,114.737,39.729
	c31.682,28.085,50.52,66.959,53.088,109.258s-11.645,83.056-39.73,114.737c-28.085,31.682-66.958,50.519-109.257,53.088
	C352.946,758.38,349.692,758.551,346.61,758.551z M346.952,466.741c-2.739,0-5.309,0-8.049,0.171
	c-35.448,2.056-67.986,17.811-91.618,44.525c-23.633,26.544-35.449,60.794-33.394,96.242c2.055,35.449,17.81,67.986,44.525,91.619
	c26.544,23.633,60.794,35.449,96.243,33.394c35.448-2.055,67.985-17.81,91.618-44.524c23.633-26.544,35.449-60.794,33.394-96.243
	l0,0c-2.055-35.448-17.81-67.986-44.524-91.618C410.657,478.558,379.49,466.741,346.952,466.741z"/>
<path fill="#4D4D4D" d="M346.781,405.263c-34.935,0-63.362-28.428-63.362-63.363s28.428-63.362,63.362-63.362
	s63.362,28.427,63.362,63.362S381.716,405.263,346.781,405.263z M346.781,304.225c-20.722,0-37.675,16.954-37.675,37.675
	s16.953,37.675,37.675,37.675s37.675-16.954,37.675-37.675S367.503,304.225,346.781,304.225z"/>
<path fill="#4D4D4D" d="M348.494,660.425c-34.936,0-63.363-28.428-63.363-63.362s28.427-63.362,63.363-63.362
	c34.935,0,63.362,28.428,63.362,63.362S383.429,660.425,348.494,660.425z M348.494,559.388c-20.722,0-37.676,16.953-37.676,37.675
	s16.954,37.675,37.676,37.675c20.721,0,37.675-16.953,37.675-37.675S369.215,559.388,348.494,559.388z"/>
</svg>
