<?xml version="1.0" encoding="utf-8"?>
<!-- Generator: Adobe Illustrator 16.0.0, SVG Export Plug-In . SVG Version: 6.00 Build 0)  -->
<!DOCTYPE svg PUBLIC "-//W3C//DTD SVG 1.1//EN" "http://www.w3.org/Graphics/SVG/1.1/DTD/svg11.dtd">
<svg version="1.1" id="Laag_1" xmlns="http://www.w3.org/2000/svg" xmlns:xlink="http://www.w3.org/1999/xlink" x="0px" y="0px"
	 width="685px" height="1040px" viewBox="0 0 685 1040" enable-background="new 0 0 685 1040" xml:space="preserve">
<path fill="#4D4D4D" d="M323.32,730.295c-49.32,0-96.414-17.81-133.575-50.861c-40.244-35.791-64.219-85.111-67.301-138.884
	c-3.254-53.772,14.728-105.49,50.519-145.905c35.792-40.244,85.111-64.219,138.884-67.301
	c53.772-3.254,105.489,14.728,145.904,50.519c40.415,35.792,64.219,85.111,67.302,138.884c1.198,18.838-0.343,37.675-4.453,55.999
	c-1.541,6.85-3.425,13.871-5.822,20.55c-2.227,6.679-9.59,10.275-16.269,8.049s-10.275-9.59-8.049-16.269
	c2.055-5.823,3.597-11.816,4.966-17.981c3.597-15.927,4.795-32.366,3.939-48.807c-2.74-46.922-23.633-89.906-58.739-121.245
	c-35.106-31.167-80.316-46.922-127.238-44.183c-46.923,2.74-89.907,23.632-121.245,58.739
	c-31.339,35.106-46.923,80.316-44.183,127.239c2.74,46.922,23.632,89.906,58.739,121.244
	c35.106,31.168,80.316,46.923,127.239,44.183c40.415-2.397,77.747-17.981,107.716-45.21c5.31-4.795,13.357-4.281,18.153,0.856
	c4.795,5.138,4.281,13.357-0.856,18.152c-33.908,30.654-77.748,49.149-123.472,51.889C331.54,730.124,327.43,730.295,323.32,730.295
	z"/>
<path fill="#4D4D4D" d="M327.088,591.925c-34.936,0-63.363-28.428-63.363-63.362s28.427-63.362,63.363-63.362
	c34.935,0,63.362,28.428,63.362,63.362S362.022,591.925,327.088,591.925z M327.088,490.888c-20.722,0-37.675,16.953-37.675,37.675
	s16.954,37.675,37.675,37.675c20.721,0,37.675-16.953,37.675-37.675S347.809,490.888,327.088,490.888z"/>
<path fill="#4D4D4D" d="M635.338,829.106h-575.4c-7.021,0-12.844-5.822-12.844-12.844v-575.4c0-7.021,5.822-12.844,12.844-12.844
	h575.4c7.021,0,12.844,5.823,12.844,12.844v575.4C648.182,823.284,642.358,829.106,635.338,829.106z M72.781,803.419h549.713
	V253.706H72.781V803.419z"/>
<path fill="#4D4D4D" d="M571.119,641.588H415.281c-7.021,0-12.844-5.823-12.844-12.844c0-7.021,5.822-12.844,12.844-12.844h142.994
	V329.056c0-7.021,5.822-12.844,12.844-12.844c7.021,0,12.844,5.823,12.844,12.844v299.688
	C583.963,635.765,578.14,641.588,571.119,641.588z"/>
<path fill="#4D4D4D" d="M571.119,766.6h-41.101c-7.021,0-12.844-5.822-12.844-12.844c0-7.021,5.822-12.844,12.844-12.844h41.101
	c7.021,0,12.844,5.823,12.844,12.844C583.963,760.777,578.14,766.6,571.119,766.6z"/>
<path fill="#4D4D4D" d="M571.119,768.312h-41.101c-7.021,0-12.844-5.822-12.844-12.844s5.822-12.844,12.844-12.844h41.101
	c7.021,0,12.844,5.822,12.844,12.844S578.14,768.312,571.119,768.312z"/>
</svg>
