<?xml version="1.0" encoding="utf-8"?>
<!-- Generator: Adobe Illustrator 16.0.0, SVG Export Plug-In . SVG Version: 6.00 Build 0)  -->
<!DOCTYPE svg PUBLIC "-//W3C//DTD SVG 1.1//EN" "http://www.w3.org/Graphics/SVG/1.1/DTD/svg11.dtd">
<svg version="1.1" id="Laag_1" xmlns="http://www.w3.org/2000/svg" xmlns:xlink="http://www.w3.org/1999/xlink" x="0px" y="0px"
	 width="685px" height="1040px" viewBox="0 0 685 1040" enable-background="new 0 0 685 1040" xml:space="preserve">
<path fill="#4D4D4D" d="M603.656,703.237H479.671c0.172-1.198,0.343-2.397,0.343-3.768v-26.886
	c0-15.241-12.501-27.743-27.742-27.743h-7.192l14.042-123.984h21.578c5.65,0,10.617-3.597,12.33-9.076l32.88-106.347
	c5.822-17.639,2.911-36.305-7.878-51.375c-10.789-15.07-27.742-23.632-46.408-23.632h-18.667
	c-5.651-13.7-14.385-24.146-23.632-35.106c-2.056-2.569-4.281-5.137-6.508-7.877c-4.453-5.48-12.501-6.336-18.152-1.884
	c-5.651,4.453-6.337,12.501-1.884,17.981c2.397,2.911,4.623,5.48,6.85,8.049c5.48,6.679,10.446,12.33,14.385,18.495H216.631
	c-19.18,0-36.99,9.59-47.607,25.516c-10.618,15.926-12.501,36.134-4.966,53.601l41.271,100.182
	c2.055,4.795,6.679,7.877,11.816,7.877h18.152l14.385,126.896h-7.192c-15.242,0-27.743,12.501-27.743,27.742v26.887
	c0,1.198,0.171,2.568,0.342,3.768H98.469c-7.021,0-12.844,5.822-12.844,12.844v95.899c0,7.021,5.822,12.844,12.844,12.844h505.188
	c7.021,0,12.844-5.822,12.844-12.844v-95.899C616.5,709.06,610.678,703.237,603.656,703.237z M223.824,416.565l8.562,75.521h-6.679
	l-38.018-92.303c-4.11-9.933-3.254-20.721,2.74-29.626c5.994-8.905,15.412-14.042,26.201-14.042h254.991
	c10.275,0,19.522,4.795,25.517,13.015c5.994,8.22,7.535,18.666,4.281,28.256c0,0,0,0.171-0.171,0.171l-30.141,97.441h-9.076
	l8.905-78.604c0-0.514,0.171-1.027,0.171-1.37c0-15.413-12.501-27.743-27.742-27.743h-191.8c-15.413,0-27.743,12.501-27.743,27.743
	C223.824,415.538,223.824,416.051,223.824,416.565z M249.511,414.681c0.171-1.027,1.027-1.712,2.055-1.712h191.629
	c1.027,0,1.884,0.856,2.055,1.712L419.22,644.67H275.712L249.511,414.681z M240.435,672.584c0-1.199,1.027-2.056,2.055-2.056H452.1
	c1.199,0,2.056,1.028,2.056,2.056v26.886c0,1.199-1.027,2.056-2.056,2.056H242.49c-1.199,0-2.055-1.027-2.055-2.056V672.584z
	 M590.812,799.138h-479.5v-70.213h479.5V799.138z"/>
<path fill="#4D4D4D" d="M386.34,288.641c-5.822,0-11.816-2.397-15.926-7.192c-12.673-14.214-25.517-26.715-25.688-26.715
	c-8.562-8.22-8.905-21.749-0.686-30.312c8.221-8.562,21.749-8.905,30.312-0.685c0.514,0.514,14.385,13.7,28.085,29.284
	c7.878,8.905,7.021,22.434-1.713,30.14C396.443,286.757,391.478,288.641,386.34,288.641z"/>
</svg>
