<svg xmlns="http://www.w3.org/2000/svg" viewBox="0 0 31.67 33.46"><defs><style>.cls-1{fill:#444;}</style></defs><title>music_careers</title><g id="Layer_2" data-name="Layer 2"><g id="Layer_1-2" data-name="Layer 1"><path class="cls-1" d="M5.41,26.83a6.06,6.06,0,0,1-4-1.31A4,4,0,0,1,0,22.42c0-2.91,2.89-5.67,6.57-6.28h0a6.58,6.58,0,0,1,5.34,1.19,4,4,0,0,1,1.46,3.11c0,2.91-2.89,5.67-6.57,6.28A8.54,8.54,0,0,1,5.41,26.83ZM6.8,17.52c-3,.49-5.4,2.69-5.4,4.9a2.61,2.61,0,0,0,1,2,5.25,5.25,0,0,0,4.21.88c2.93-.49,5.4-2.73,5.4-4.9a2.61,2.61,0,0,0-1-2,5.24,5.24,0,0,0-4.21-.88Zm-.11-.69h0Z"/><path class="cls-1" d="M12.65,21.7a.7.7,0,0,1-.7-.7V.7a.7.7,0,1,1,1.4,0V21A.7.7,0,0,1,12.65,21.7Z"/><path class="cls-1" d="M23.65,33.46a6.06,6.06,0,0,1-4-1.31A4,4,0,0,1,18.24,29c0-2.91,2.89-5.67,6.57-6.28A6.57,6.57,0,0,1,30.15,24a4,4,0,0,1,1.46,3.11c0,2.91-2.89,5.67-6.57,6.28A8.52,8.52,0,0,1,23.65,33.46Zm2.53-9.41a7,7,0,0,0-1.14.1c-3,.49-5.4,2.69-5.4,4.9a2.61,2.61,0,0,0,1,2,5.27,5.27,0,0,0,4.21.88c3-.49,5.4-2.69,5.4-4.9a2.61,2.61,0,0,0-1-2A4.74,4.74,0,0,0,26.18,24.05Z"/><path class="cls-1" d="M31,28.08a.7.7,0,0,1-.7-.7V7.08a.7.7,0,0,1,1.4,0v20.3A.7.7,0,0,1,31,28.08Z"/><path class="cls-1" d="M30.91,7.78a.71.71,0,0,1-.23,0L12.41,1.36A.7.7,0,0,1,12.88,0L31.15,6.42a.7.7,0,0,1-.23,1.36Z"/><path class="cls-1" d="M30.92,14a.71.71,0,0,1-.23,0L12.41,7.61a.7.7,0,0,1,.46-1.32l18.27,6.38A.7.7,0,0,1,30.92,14Z"/></g></g></svg>