<svg xmlns="http://www.w3.org/2000/svg" viewBox="0 0 34.1 31.47"><defs><style>.cls-1{fill:#444;}</style></defs><title>nonprofit_organizations</title><g id="Layer_2" data-name="Layer 2"><g id="Layer_1-2" data-name="Layer 1"><path class="cls-1" d="M17.28,31.47a.7.7,0,0,1-.49-.2L4.11,19.06a11.75,11.75,0,0,1-3.37-13A9,9,0,0,1,9.13,0c3,0,6.15,2.34,7.89,4.88C18.71,2.37,21.86,0,24.83,0a8.89,8.89,0,0,1,7.8,4.63,11.53,11.53,0,0,1-.13,11.46.7.7,0,1,1-1.22-.69,10.12,10.12,0,0,0,.14-10.06A7.52,7.52,0,0,0,24.83,1.4c-2.76,0-5.94,2.67-7.18,5.17a.7.7,0,0,1-1.25,0C15.12,4.08,11.89,1.4,9.13,1.4A7.63,7.63,0,0,0,2,6.61,10.37,10.37,0,0,0,5.07,18L17.27,29.79l2.67-2.63a.7.7,0,0,1,1,1l-3.16,3.1A.7.7,0,0,1,17.28,31.47Z"/><path class="cls-1" d="M25.44,30.14a8.65,8.65,0,1,1,8.66-8.65A8.66,8.66,0,0,1,25.44,30.14Zm0-15.91a7.25,7.25,0,1,0,7.25,7.25A7.26,7.26,0,0,0,25.44,14.23Z"/><path class="cls-1" d="M25.84,25.62a8.62,8.62,0,0,1-3.3-.79.7.7,0,1,1,.55-1.29c1.7.73,3.14.88,3.87.41a.82.82,0,0,0,.4-.69c0-.66-.17-.78-1.67-1.15l-.41-.1c-1.67-.42-2.87-.72-2.86-2.37a2.08,2.08,0,0,1,.95-1.81c1.25-.81,3.45-.47,5,.18a.7.7,0,0,1-.55,1.29c-1.36-.59-3-.72-3.65-.3a.69.69,0,0,0-.31.65c0,.46,0,.55,1.79,1l.41.1c1.3.32,2.77.67,2.74,2.54a2.22,2.22,0,0,1-1,1.84A3.42,3.42,0,0,1,25.84,25.62Z"/><path class="cls-1" d="M25.44,18.59a.7.7,0,0,1-.7-.7v-1.5a.7.7,0,0,1,1.4,0v1.5A.7.7,0,0,1,25.44,18.59Z"/><path class="cls-1" d="M25.44,27.29a.7.7,0,0,1-.7-.7v-1.5a.7.7,0,1,1,1.4,0v1.5A.7.7,0,0,1,25.44,27.29Z"/></g></g></svg>