<svg xmlns="http://www.w3.org/2000/svg" viewBox="0 0 34.23 31.86"><defs><style>.cls-1{fill:#444;}</style></defs><title>online_business</title><g id="Layer_2" data-name="Layer 2"><g id="Layer_1-2" data-name="Layer 1"><path class="cls-1" d="M22.25,20.46a.72.72,0,0,1-.51-.21l-2-2a.72.72,0,0,1,1-1l2,2a.72.72,0,0,1-.51,1.23Z"/><path class="cls-1" d="M20.72,23.74h-.06l-2.82-.25A.72.72,0,0,1,18,22.06l2.82.25a.72.72,0,0,1-.06,1.44Z"/><path class="cls-1" d="M19.34,28.87a.72.72,0,0,1-.41-1.31l2.32-1.62a.72.72,0,1,1,.83,1.18l-2.32,1.63A.72.72,0,0,1,19.34,28.87Z"/><path class="cls-1" d="M25.54,18.92a.72.72,0,0,1-.72-.66l-.25-2.82A.72.72,0,1,1,26,15.32l.25,2.82a.72.72,0,0,1-.65.78Z"/><path class="cls-1" d="M29,19.86a.72.72,0,0,1-.59-1.13l1.63-2.32a.72.72,0,0,1,1.18.83l-1.62,2.32A.72.72,0,0,1,29,19.86Z"/><path class="cls-1" d="M16.41,27.75H.7a.7.7,0,0,1-.7-.7V.7A.7.7,0,0,1,.7,0H30.19a.7.7,0,0,1,.7.7V13.88a.7.7,0,1,1-1.4,0V1.4H1.4v25h15a.7.7,0,0,1,0,1.4Z"/><path class="cls-1" d="M29.68,7.38H.7A.7.7,0,1,1,.7,6h29a.7.7,0,0,1,0,1.4Z"/><path class="cls-1" d="M26.81,5.11a1.43,1.43,0,1,1,1.43-1.43A1.44,1.44,0,0,1,26.81,5.11Zm0-1.47a0,0,0,0,0,0,0Z"/><path class="cls-1" d="M22.11,5.11a1.43,1.43,0,1,1,1.43-1.43A1.44,1.44,0,0,1,22.11,5.11Zm0-1.47a0,0,0,0,0,0,0Z"/><path class="cls-1" d="M14.89,23.43h-10a.7.7,0,0,1-.7-.7V11.17a.7.7,0,0,1,.7-.7h20a.7.7,0,1,1,0,1.4H5.58V22h9.3a.7.7,0,1,1,0,1.4Z"/><path class="cls-1" d="M27.21,31.86h0a.7.7,0,0,1-.65-.5l-2.8-9.67a.7.7,0,0,1,.93-.84l9.12,3.65a.7.7,0,0,1,0,1.31l-4.43,1.56-1.47,4A.7.7,0,0,1,27.21,31.86Zm-1.73-9.19,1.8,6.23.85-2.33a.7.7,0,0,1,.42-.42l3-1.05Z"/><path class="cls-1" d="M32.26,30.93a.7.7,0,0,1-.52-.23L28.6,27.28a.7.7,0,1,1,1-.95l3.15,3.42a.7.7,0,0,1-.52,1.17Z"/></g></g></svg>