<svg xmlns="http://www.w3.org/2000/svg" viewBox="0 0 35.99 37.38"><defs><style>.cls-1{fill:#444;}</style></defs><title>operation_and_success</title><g id="Layer_2" data-name="Layer 2"><g id="Layer_1-2" data-name="Layer 1"><path class="cls-1" d="M29.05,31.51a1.41,1.41,0,0,1-1-.43,8.5,8.5,0,0,1-.87-1.17,5.35,5.35,0,0,0-1.29-1.53l-.09-.07a12.76,12.76,0,0,1-4.08,2.07.7.7,0,0,1-.4-1.34,11.53,11.53,0,1,0-6.58,0,.7.7,0,0,1-.4,1.34,12.77,12.77,0,0,1-4.08-2.07l-.09.07a5.34,5.34,0,0,0-1.29,1.53A8.57,8.57,0,0,1,8,31.08a1.47,1.47,0,0,1-1.48.38,3,3,0,0,1-2-2A1.47,1.47,0,0,1,4.91,28a8.49,8.49,0,0,1,1.17-.87A5.34,5.34,0,0,0,7.6,25.85l.08-.1a13,13,0,0,1-2.48-6l-.11,0a5.31,5.31,0,0,0-2,.17,8.57,8.57,0,0,1-1.44.21,1.45,1.45,0,0,1-1.31-.78,3,3,0,0,1,0-2.78,1.53,1.53,0,0,1,1.31-.78A8.57,8.57,0,0,1,3.09,16a5.31,5.31,0,0,0,2,.17l.11,0a12.86,12.86,0,0,1,2.48-6l-.07-.09A5.34,5.34,0,0,0,6.07,8.84,8.49,8.49,0,0,1,4.91,8a1.47,1.47,0,0,1-.37-1.48,3,3,0,0,1,2-2A1.47,1.47,0,0,1,8,4.91a8.49,8.49,0,0,1,.87,1.17A5.34,5.34,0,0,0,10.13,7.6l.09.07a12.86,12.86,0,0,1,6-2.48.8.8,0,0,1,0-.11,5.35,5.35,0,0,0-.17-2,8.57,8.57,0,0,1-.21-1.44A1.47,1.47,0,0,1,16.6.34a3,3,0,0,1,2.78,0,1.47,1.47,0,0,1,.78,1.31A8.58,8.58,0,0,1,20,3.09a5.37,5.37,0,0,0-.17,2,.84.84,0,0,1,0,.11,12.86,12.86,0,0,1,6,2.48l.09-.07a5.34,5.34,0,0,0,1.29-1.53A8.49,8.49,0,0,1,28,4.91a1.47,1.47,0,0,1,1.48-.38,3,3,0,0,1,2,2A1.47,1.47,0,0,1,31.08,8a8.44,8.44,0,0,1-1.17.87,5.35,5.35,0,0,0-1.52,1.29l-.07.09a12.86,12.86,0,0,1,2.47,6l.11,0a5.33,5.33,0,0,0,2-.17,8.57,8.57,0,0,1,1.44-.21,1.47,1.47,0,0,1,1.31.78,3,3,0,0,1,0,2.78,1.47,1.47,0,0,1-1.31.78A8.51,8.51,0,0,1,32.89,20a5.34,5.34,0,0,0-2-.17l-.11,0a13,13,0,0,1-2.48,6l.08.1a5.32,5.32,0,0,0,1.53,1.29,8.47,8.47,0,0,1,1.17.87,1.47,1.47,0,0,1,.38,1.48,3,3,0,0,1-2,2A1.74,1.74,0,0,1,29.05,31.51ZM8.6,26.85a7.29,7.29,0,0,1-1.75,1.46,7.55,7.55,0,0,0-1,.72,1.05,1.05,0,0,0,.39.7,1.07,1.07,0,0,0,.7.39,7.83,7.83,0,0,0,.72-1,7.31,7.31,0,0,1,1.46-1.75Q8.86,27.13,8.6,26.85Zm18.25.53a7.3,7.3,0,0,1,1.45,1.75,7.67,7.67,0,0,0,.72,1c.08,0,.37-.06.7-.39a1.06,1.06,0,0,0,.39-.7,7.85,7.85,0,0,0-1-.72,7.3,7.3,0,0,1-1.75-1.46ZM1.62,17.23A1.05,1.05,0,0,0,1.4,18a1.06,1.06,0,0,0,.22.77,7.71,7.71,0,0,0,1.19-.18,7.38,7.38,0,0,1,2.26-.21c0-.12,0-.25,0-.37s0-.25,0-.37a7.43,7.43,0,0,1-2.26-.21A7.45,7.45,0,0,0,1.62,17.23Zm29.75,1.11a9.21,9.21,0,0,1,1.8.24,7.56,7.56,0,0,0,1.2.18,1,1,0,0,0,.22-.77,1.06,1.06,0,0,0-.22-.77,7.71,7.71,0,0,0-1.19.18,7.46,7.46,0,0,1-2.26.21c0,.12,0,.25,0,.37s0,.25,0,.37ZM26.86,8.6c.18.17.36.35.53.53a7.31,7.31,0,0,1,1.75-1.45,7.6,7.6,0,0,0,1-.72,1.05,1.05,0,0,0-.39-.7c-.33-.33-.63-.41-.7-.39a7.83,7.83,0,0,0-.72,1A7.35,7.35,0,0,1,26.86,8.6ZM6.93,5.87a1.19,1.19,0,0,0-.67.39,1.06,1.06,0,0,0-.39.7,7.83,7.83,0,0,0,1,.72A7.35,7.35,0,0,1,8.6,9.13q.26-.27.53-.53A7.35,7.35,0,0,1,7.68,6.85a7.55,7.55,0,0,0-.72-1ZM18,5.07h.37a7.36,7.36,0,0,1,.21-2.26,7.45,7.45,0,0,0,.18-1.2A1.06,1.06,0,0,0,18,1.4a1.06,1.06,0,0,0-.77.22,7.71,7.71,0,0,0,.18,1.19,7.39,7.39,0,0,1,.21,2.26Zm3.49,21.75a.7.7,0,0,1-.28-1.34,8.15,8.15,0,0,0,2-1.25L21,22a.7.7,0,1,1,1-1l2.24,2.25a8.13,8.13,0,0,0,1.88-4.54H21.48a.7.7,0,0,1,0-1.4H26.1a8.11,8.11,0,0,0-1.88-4.53l-3.13,3.14a.7.7,0,0,1-1-1l3.13-3.14a8.1,8.1,0,0,0-4.53-1.88v4.35a.7.7,0,1,1-1.4,0V9.89a8.11,8.11,0,0,0-4.53,1.88l3.14,3.13a.7.7,0,0,1-1,1l-3.13-3.13a8.11,8.11,0,0,0-1.88,4.53H14.5a.7.7,0,0,1,0,1.4H9.89a8.13,8.13,0,0,0,1.88,4.54L14,21a.7.7,0,0,1,1,1l-2.24,2.24a8.17,8.17,0,0,0,2,1.25.7.7,0,0,1-.55,1.29,9.54,9.54,0,1,1,7.53,0A.69.69,0,0,1,21.48,26.81Z"/><path class="cls-1" d="M25.1,37.38H10.88a.7.7,0,1,1,0-1.4H13.8V17.84a4.19,4.19,0,0,1,8.38,0V36H25.1a.7.7,0,1,1,0,1.4ZM15.2,36h5.58V17.84a2.79,2.79,0,0,0-5.58,0Z"/><path class="cls-1" d="M18,19.95a2,2,0,1,1,2-2A2,2,0,0,1,18,19.95Zm0-2.51a.56.56,0,1,0,.56.56A.56.56,0,0,0,18,17.44Z"/></g></g></svg>