<svg xmlns="http://www.w3.org/2000/svg" viewBox="0 0 32.86 28.36"><defs><style>.cls-1{fill:#444;}</style></defs><title>options_investing</title><g id="Layer_2" data-name="Layer 2"><g id="Layer_1-2" data-name="Layer 1"><path class="cls-1" d="M32.16,28.36H.7A.7.7,0,0,1,.7,27H32.16a.7.7,0,0,1,0,1.4Z"/><path class="cls-1" d="M6.61,28.3H2.41a.7.7,0,0,1-.7-.7V18.71a.7.7,0,0,1,.7-.7H6.61a.7.7,0,0,1,.7.7V27.6A.7.7,0,0,1,6.61,28.3ZM3.11,26.9H5.91V19.41H3.11Z"/><path class="cls-1" d="M14.56,28.3H10.36a.7.7,0,0,1-.7-.7V10.77a.7.7,0,0,1,.7-.7h4.21a.7.7,0,0,1,.7.7V27.6A.7.7,0,0,1,14.56,28.3Zm-3.51-1.4h2.81V11.47H11.06Z"/><path class="cls-1" d="M22.51,28.3H18.3a.7.7,0,0,1-.7-.7V17.86a.7.7,0,0,1,.7-.7h4.21a.7.7,0,0,1,.7.7V27.6A.7.7,0,0,1,22.51,28.3ZM19,26.9h2.81V18.56H19Z"/><path class="cls-1" d="M30.46,28.3H26.25a.7.7,0,0,1-.7-.7V14.17a.7.7,0,0,1,.7-.7h4.21a.7.7,0,0,1,.7.7V27.6A.7.7,0,0,1,30.46,28.3ZM27,26.9h2.81v-12H27Z"/><path class="cls-1" d="M4.51,14.32A3.13,3.13,0,1,1,7.64,11.2,3.13,3.13,0,0,1,4.51,14.32Zm0-4.85A1.73,1.73,0,1,0,6.24,11.2,1.73,1.73,0,0,0,4.51,9.47Zm15.89,4a3.13,3.13,0,1,1,3.13-3.13A3.13,3.13,0,0,1,20.41,13.47Zm0-4.85a1.73,1.73,0,1,0,1.73,1.73A1.73,1.73,0,0,0,20.41,8.62ZM28.35,9.8a3.13,3.13,0,1,1,3.13-3.13A3.13,3.13,0,0,1,28.35,9.8Zm0-4.85a1.73,1.73,0,1,0,1.73,1.73A1.73,1.73,0,0,0,28.35,4.95ZM12.46,6.25a3.13,3.13,0,1,1,3.13-3.13A3.13,3.13,0,0,1,12.46,6.25Zm0-4.85a1.73,1.73,0,1,0,1.73,1.73A1.73,1.73,0,0,0,12.46,1.4Z"/><path class="cls-1" d="M6.68,9.69a.7.7,0,0,1-.49-1.2l3.75-3.7a.7.7,0,0,1,1,1L7.17,9.49A.7.7,0,0,1,6.68,9.69Z"/><path class="cls-1" d="M18.43,9.27A.7.7,0,0,1,18,9.09L14.18,5.63a.7.7,0,0,1,.95-1l3.79,3.46a.7.7,0,0,1-.47,1.22Z"/><path class="cls-1" d="M22.8,10a.7.7,0,0,1-.31-1.33l2.85-1.39A.7.7,0,0,1,26,8.55L23.1,9.94A.7.7,0,0,1,22.8,10Z"/></g></g></svg>