<?xml version="1.0" encoding="utf-8"?>
<!-- Generator: Adobe Illustrator 24.1.0, SVG Export Plug-In . SVG Version: 6.00 Build 0)  -->
<svg version="1.1" id="Laag_1" xmlns="http://www.w3.org/2000/svg" xmlns:xlink="http://www.w3.org/1999/xlink" x="0px" y="0px"
	 viewBox="0 0 400 400" style="enable-background:new 0 0 400 400;" xml:space="preserve">
<g>
	<g>
		<path d="M275,137.5c-21.4,0-38.8-17.4-38.8-38.8s17.4-38.8,38.8-38.8s38.8,17.4,38.8,38.8S296.4,137.5,275,137.5z M275,74.9
			c-13.1,0-23.8,10.7-23.8,23.8s10.7,23.8,23.8,23.8s23.8-10.7,23.8-23.8S288.1,74.9,275,74.9z"/>
		<g>
			<path d="M345.1,200.1h-15v-7.5c0-30.4-24.7-55.1-55.1-55.1s-55.1,24.7-55.1,55.1v7.5h-15v-7.5c0-38.7,31.4-70.1,70.1-70.1
				s70.1,31.4,70.1,70.1V200.1z"/>
			<rect x="204.9" y="185.1" width="140.2" height="15"/>
		</g>
	</g>
	<g>
		<path d="M125,137.5c-21.4,0-38.8-17.4-38.8-38.8s17.4-38.8,38.8-38.8s38.8,17.4,38.8,38.8S146.4,137.5,125,137.5z M125,74.9
			c-13.1,0-23.8,10.7-23.8,23.8s10.7,23.8,23.8,23.8s23.8-10.7,23.8-23.8S138.1,74.9,125,74.9z"/>
		<g>
			<path d="M195.1,200.1h-15v-7.5c0-30.4-24.7-55.1-55.1-55.1s-55.1,24.7-55.1,55.1v7.5h-15v-7.5c0-38.7,31.4-70.1,70.1-70.1
				s70.1,31.4,70.1,70.1V200.1z"/>
			<rect x="54.9" y="185.1" width="140.2" height="15"/>
		</g>
	</g>
</g>
<g>
	<path d="M351.8,340.1h-23.5c-4.1,0-7.5-3.4-7.5-7.5s3.4-7.5,7.5-7.5h23.2c4.4-0.2,10-1.2,12.2-4.7c2.6-3.9,0.9-10.7,0.1-12.7
		c-1.5-3.8,0.4-8.2,4.2-9.7c3.8-1.5,8.2,0.3,9.7,4.2c0.6,1.5,5.8,15.2-1.4,26.3c-4.6,7.2-12.8,11.1-24.3,11.7L351.8,340.1z"/>
	<g>
		<path d="M70.4,340.1H42.3l-1-0.3c-0.7-0.2-6.5-1.9-11.9-6.5c-7.7-6.6-10.8-15.8-8.7-26.2l0-0.1l22.9-101.2c0.3-1.4,1.4-6,5.4-10.6
			c3.9-4.5,11.3-9.9,24.7-10.2l0.2,0h257.3l0.6,0.1c0.9,0.2,20.9,3.9,26,21.6l0.1,0.5l1.9,9.1c0.9,4.1-1.7,8-5.8,8.9
			c-4.1,0.9-8-1.7-8.9-5.8l-1.8-8.8c-2.3-7.4-11.3-10-13.6-10.6H74c-14.1,0.4-15.6,8.5-15.6,8.5l-0.1,0.4L35.3,310.3
			c-2,9.8,6,13.7,9.1,14.8h25.9c4.1,0,7.5,3.4,7.5,7.5S74.5,340.1,70.4,340.1z"/>
		<path d="M342.5,340.1H62.4c-4.1,0-7.5-3.4-7.5-7.5s3.4-7.5,7.5-7.5h280.1c4.1,0,7.5,3.4,7.5,7.5S346.7,340.1,342.5,340.1z"/>
		<path d="M370.7,312.4c-3.5,0-6.6-2.4-7.3-6l-18.2-87c-0.8-4.1,1.8-8,5.8-8.9c4.1-0.8,8,1.8,8.9,5.8l18.2,87c0.8,4.1-1.8,8-5.8,8.9
			C371.7,312.3,371.2,312.4,370.7,312.4z"/>
	</g>
</g>
</svg>
