<svg xmlns="http://www.w3.org/2000/svg" viewBox="0 0 38.25 35.2"><defs><style>.cls-1{fill:#444;}</style></defs><title>paying_for_college</title><g id="Layer_2" data-name="Layer 2"><g id="Layer_1-2" data-name="Layer 1"><path class="cls-1" d="M19.7,27.1c-6.79,0-12.1-2.76-12.1-6.29V14A.7.7,0,1,1,9,14v6.82c0,2.65,4.9,4.89,10.7,4.89s10.7-2.24,10.7-4.89V13.67a.7.7,0,0,1,1.4,0v7.14C31.8,24.33,26.49,27.1,19.7,27.1Z"/><path class="cls-1" d="M3.78,35.2a.7.7,0,0,1-.42-.14L.28,32.78a.7.7,0,0,1,.07-1.17c2.16-1.24,3.54-4.2,3.59-7.71a.7.7,0,0,1,.7-.69h0a.7.7,0,0,1,.69.71,19,19,0,0,0,.5,4.16c.5,2.48.93,4.61-1.58,6.93A.7.7,0,0,1,3.78,35.2Zm-1.88-3,1.81,1.34c1.44-1.56,1.21-2.94.79-5A8.66,8.66,0,0,1,1.9,32.24Z"/><path class="cls-1" d="M5,19.82H5a.7.7,0,0,1-.69-.71c0-.77,0-1.54,0-2.29a15.75,15.75,0,0,1,.26-4.55L1.74,11a1.69,1.69,0,0,1-1-1.54A1.46,1.46,0,0,1,1.58,8.1L18.25.23a3.27,3.27,0,0,1,2.68.12L37.3,8a1.7,1.7,0,0,1,.94,1.55,1.46,1.46,0,0,1-.79,1.36L20.78,18.75a3.31,3.31,0,0,1-2.68-.12L5.8,12.85a16.58,16.58,0,0,0-.15,3.91c0,.78,0,1.57,0,2.36A.7.7,0,0,1,5,19.82Zm2.61-7.67,11.1,5.22a2,2,0,0,0,1.49.12L36.86,9.62s0-.1,0-.21a.27.27,0,0,0-.12-.17L20.34,1.62a1.93,1.93,0,0,0-1.49-.12L2.18,9.36s0,.1,0,.21a.26.26,0,0,0,.11.16l3.16,1.42L19.18,8.33a.7.7,0,0,1,.28,1.37Z"/><path class="cls-1" d="M4.86,23.85a2.42,2.42,0,1,1,2.42-2.42A2.42,2.42,0,0,1,4.86,23.85Zm0-3.44a1,1,0,1,0,1,1A1,1,0,0,0,4.86,20.41Z"/></g></g></svg>