<?xml version="1.0" encoding="utf-8"?>
<!-- Generator: Adobe Illustrator 24.1.0, SVG Export Plug-In . SVG Version: 6.00 Build 0)  -->
<svg version="1.1" id="Laag_1" xmlns="http://www.w3.org/2000/svg" xmlns:xlink="http://www.w3.org/1999/xlink" x="0px" y="0px"
	 viewBox="0 0 400 400" style="enable-background:new 0 0 400 400;" xml:space="preserve">
<style type="text/css">
	.st0{fill:none;stroke:#000000;stroke-width:15;stroke-miterlimit:10;}
</style>
<g>
	<path d="M213.7,378.7h-27.5c-6.9,0-12.5-5.6-12.5-12.5V145.7c0-6.9,5.6-12.5,12.5-12.5h27.5c6.9,0,12.5,5.6,12.5,12.5v220.5
		C226.2,373.1,220.5,378.7,213.7,378.7z M188.6,363.7h22.5V148.2h-22.5V363.7z"/>
	<path d="M218.2,148.8h-37.6c-6.9,0-12.5-5.6-12.5-12.5V73.6c0-6.9,5.6-12.5,12.5-12.5h37.6c6.9,0,12.5,5.6,12.5,12.5v62.7
		C230.7,143.2,225.1,148.8,218.2,148.8z M183.1,133.8h32.6V76.1h-32.6V133.8z"/>
	<path d="M359.7,73.4H39.2c-6.9,0-12.5-5.6-12.5-12.5V31.2c0-6.9,5.6-12.5,12.5-12.5h320.5c6.9,0,12.5,5.6,12.5,12.5v29.7
		C372.2,67.8,366.6,73.4,359.7,73.4z M41.7,58.4h315.5V33.7H41.7V58.4z"/>
</g>
<g>
	<path class="st0" d="M124.1,103.8"/>
	<path d="M87,188.8c-28.9,0-52.5-23.4-52.5-52.2c0-28.8,23.6-52.2,52.5-52.2s52.5,23.4,52.5,52.2C139.5,165.4,115.9,188.8,87,188.8z
		 M87,99.5c-20.7,0-37.5,16.7-37.5,37.2c0,20.5,16.8,37.2,37.5,37.2s37.5-16.7,37.5-37.2C124.5,116.1,107.7,99.5,87,99.5z"/>
	<rect x="132.1" y="61.8" width="15" height="75"/>
	<rect x="27.1" y="58.5" width="15" height="75"/>
</g>
<g>
	<path d="M313,192.9c-28.9,0-52.5-23.4-52.5-52.2c0-28.8,23.6-52.2,52.5-52.2s52.5,23.4,52.5,52.2
		C365.5,169.5,341.9,192.9,313,192.9z M313,103.6c-20.7,0-37.5,16.7-37.5,37.2c0,20.5,16.8,37.2,37.5,37.2s37.5-16.7,37.5-37.2
		C350.5,120.2,333.7,103.6,313,103.6z"/>
	<rect x="253.2" y="65.9" width="15" height="75"/>
	<rect x="357.6" y="59.9" width="15" height="75"/>
</g>
</svg>
