<?xml version="1.0" encoding="utf-8"?>
<!-- Generator: Adobe Illustrator 24.1.0, SVG Export Plug-In . SVG Version: 6.00 Build 0)  -->
<svg version="1.1" id="Laag_1" xmlns="http://www.w3.org/2000/svg" xmlns:xlink="http://www.w3.org/1999/xlink" x="0px" y="0px"
	 viewBox="0 0 400 400" style="enable-background:new 0 0 400 400;" xml:space="preserve">
<style type="text/css">
	.st0{display:none;}
	.st1{display:inline;}
</style>
<g class="st0">
	<g class="st1">
		<path d="M357.6,44.8v316.3H41.3V44.8H357.6 M362.4,30.4H36.5c-5.3,0-9.6,4.3-9.6,9.6v325.9c0,5.3,4.3,9.6,9.6,9.6h325.9
			c5.3,0,9.6-4.3,9.6-9.6V40C371.9,34.7,367.6,30.4,362.4,30.4L362.4,30.4z"/>
	</g>
	<g class="st1">
		<path d="M199.4,188.4c8,0,14.6,6.5,14.6,14.6s-6.5,14.6-14.6,14.6s-14.6-6.5-14.6-14.6S191.4,188.4,199.4,188.4 M199.4,174
			c-16,0-28.9,12.9-28.9,28.9s12.9,28.9,28.9,28.9s28.9-12.9,28.9-28.9S215.4,174,199.4,174L199.4,174z"/>
	</g>
	<g class="st1">
		<path d="M239.3,72v10.5h-79.8V72H239.3 M239.3,57.7h-79.8c-7.9,0-14.3,6.4-14.3,14.3v10.5c0,7.9,6.4,14.3,14.3,14.3h79.8
			c7.9,0,14.3-6.4,14.3-14.3V72C253.6,64.1,247.2,57.7,239.3,57.7L239.3,57.7z"/>
	</g>
</g>
<path d="M367.5,380h-335c-6.9,0-12.5-5.6-12.5-12.5v-335C20,25.6,25.6,20,32.5,20h335c6.9,0,12.5,5.6,12.5,12.5v335
	C380,374.4,374.4,380,367.5,380z M35,365h330V35H35V365z"/>
<path d="M200,232.5c-17.9,0-32.5-14.6-32.5-32.5c0-17.9,14.6-32.5,32.5-32.5c17.9,0,32.5,14.6,32.5,32.5
	C232.5,217.9,217.9,232.5,200,232.5z M200,182.5c-9.6,0-17.5,7.9-17.5,17.5s7.9,17.5,17.5,17.5s17.5-7.9,17.5-17.5
	S209.6,182.5,200,182.5z"/>
<path d="M240,114.4h-80c-9.6,0-17.5-7.9-17.5-17.5v-20c0-9.6,7.9-17.5,17.5-17.5h80c9.6,0,17.5,7.9,17.5,17.5v20
	C257.5,106.6,249.6,114.4,240,114.4z M160,74.4c-1.4,0-2.5,1.1-2.5,2.5v20c0,1.4,1.1,2.5,2.5,2.5h80c1.4,0,2.5-1.1,2.5-2.5v-20
	c0-1.4-1.1-2.5-2.5-2.5H160z"/>
</svg>
