<?xml version="1.0" encoding="utf-8"?>
<!-- Generator: Adobe Illustrator 24.1.0, SVG Export Plug-In . SVG Version: 6.00 Build 0)  -->
<svg version="1.1" id="Laag_1" xmlns="http://www.w3.org/2000/svg" xmlns:xlink="http://www.w3.org/1999/xlink" x="0px" y="0px"
	 viewBox="0 0 400 400" style="enable-background:new 0 0 400 400;" xml:space="preserve">
<g>
	<path d="M63.1,343.3c-7,0-14.1-2.7-19.4-8l-15.9-15.9c-10.7-10.7-10.7-28.2,0-38.9L279.4,28.8c10.7-10.7,28.2-10.7,38.9,0
		l15.9,15.9c10.7,10.7,10.7,28.2,0,38.9l-5.3-5.3l5.3,5.3L82.5,335.3C77.2,340.6,70.1,343.3,63.1,343.3z M298.8,35.7
		c-3.2,0-6.4,1.2-8.8,3.7L38.3,291.1c-4.9,4.9-4.9,12.8,0,17.7l15.9,15.9c4.9,4.9,12.8,4.9,17.7,0L323.6,73c4.9-4.9,4.9-12.8,0-17.7
		l-15.9-15.9C305.2,37,302,35.7,298.8,35.7z"/>
	<path d="M90.4,378.9c-1.9,0-3.8-0.7-5.3-2.2l-51.6-51.6c-2.9-2.9-2.9-7.7,0-10.6c2.9-2.9,7.7-2.9,10.6,0l51.6,51.6
		c2.9,2.9,2.9,7.7,0,10.6C94.2,378.2,92.3,378.9,90.4,378.9z"/>
	<path d="M372.5,101.1c-1.9,0-3.8-0.7-5.3-2.2l-51.6-51.6c-2.9-2.9-2.9-7.7,0-10.6c2.9-2.9,7.7-2.9,10.6,0l51.6,51.6
		c2.9,2.9,2.9,7.7,0,10.6C376.3,100.4,374.4,101.1,372.5,101.1z"/>
	<path d="M142.2,272.4c-1.9,0-3.8-0.7-5.3-2.2L92.7,226c-2.9-2.9-2.9-7.7,0-10.6c2.9-2.9,7.7-2.9,10.6,0l44.2,44.2
		c2.9,2.9,2.9,7.7,0,10.6C146.1,271.7,144.2,272.4,142.2,272.4z"/>
	<path d="M149.6,321.9c-3.2,0-6.4-1.2-8.8-3.7l-22.4-22.4c-4.9-4.9-4.9-12.8,0-17.7l37.1-37.1c4.9-4.9,12.8-4.9,17.7,0l22.4,22.4
		c2.4,2.4,3.7,5.5,3.7,8.8s-1.3,6.5-3.7,8.8l0,0l-37.1,37.1C156,320.7,152.8,321.9,149.6,321.9z M130.8,287l18.9,18.9l33.6-33.6
		l-18.9-18.9L130.8,287z M190.3,275.8L190.3,275.8L190.3,275.8z"/>
</g>
</svg>
