<svg id="Laag_1" data-name="Laag 1" xmlns="http://www.w3.org/2000/svg" viewBox="0 0 400 400"><polygon points="347.63 301.55 332.63 301.55 332.63 62.35 61.47 62.35 61.47 301.55 46.47 301.55 46.47 47.35 347.63 47.35 347.63 301.55"/><rect x="332.63" y="301.55" width="15" height="43.23"/><rect x="46.47" y="301.55" width="15" height="43.23"/><path d="M369.74,352.27H310.53a7.5,7.5,0,0,1,0-15h59.21a7.5,7.5,0,0,1,0,15Z"/><path d="M84,352.27H24.74a7.5,7.5,0,0,1,0-15H84a7.5,7.5,0,0,1,0,15Z"/><path d="M78.73,323.93c-14.64,0-27.54-9.9-32-24.91a7.5,7.5,0,0,1,14.39-4.23c3.12,10.6,11.84,14.71,19.11,14.07,3.18-.27,13.66-2.36,15.38-17.56A7.5,7.5,0,0,1,110.56,293c-2,17.37-13.34,29.47-29,30.83C80.62,323.89,79.67,323.93,78.73,323.93Z"/><path d="M125.91,323.79l-1,0c-14.55-.48-29.29-11.5-29.29-31.63a7.5,7.5,0,0,1,15,0c0,11.15,7.43,16.4,14.79,16.64,7,.23,15.46-4.11,16.33-17.14a7.5,7.5,0,0,1,15,1C155.25,314.19,139.92,323.79,125.91,323.79Z"/><path d="M172.75,323.87h-.63c-15.11-.3-30.42-11.3-30.42-31.73a7.5,7.5,0,0,1,15,0c0,11.34,7.9,16.57,15.72,16.73,7.07.12,15.54-4.24,16.05-17a7.5,7.5,0,0,1,15,.6C202.59,314.12,187.06,323.87,172.75,323.87Z"/><path d="M219.25,323.71c-.62,0-1.25,0-1.87-.06-14.8-.84-29.49-12-28.91-31.73a7.5,7.5,0,1,1,15,.44c-.33,11.4,7.75,15.92,14.77,16.32,8.47.49,17.46-4.64,18.53-17.17a7.5,7.5,0,0,1,15,1.27C250,313.37,234.37,323.71,219.25,323.71Z"/><path d="M268.42,323.62a30.87,30.87,0,0,1-20.55-7.7c-6.26-5.55-10.1-13.5-11.1-23a7.5,7.5,0,1,1,14.92-1.57c.84,8,5.72,17.26,16.7,17.26h.21c7.7-.08,15.92-5.4,16.9-17.1a7.5,7.5,0,1,1,14.94,1.25c-1.75,21-17.65,30.7-31.68,30.85Z"/><path d="M316.12,323.9a30.73,30.73,0,0,1-21.05-8c-4.38-4.06-9.6-11.48-9.6-23.76h15c0,5.51,1.62,9.81,4.81,12.77a15.8,15.8,0,0,0,10.84,4c11.34,0,16.51-8.69,16.51-16.76h15c0,9.45-3.55,17.87-10,23.69A32,32,0,0,1,316.12,323.9Z"/><path d="M149.2,249.47a7.5,7.5,0,0,1-7.5-7.5V89a7.5,7.5,0,1,1,15,0V242A7.5,7.5,0,0,1,149.2,249.47Z"/><path d="M245.11,249.47a7.5,7.5,0,0,1-7.5-7.5V89a7.5,7.5,0,1,1,15,0V242A7.5,7.5,0,0,1,245.11,249.47Z"/><path d="M196,264.27a7.5,7.5,0,0,1-7.5-7.5V89a7.5,7.5,0,0,1,15,0V256.77A7.5,7.5,0,0,1,196,264.27Z"/><path d="M291.87,264.27a7.5,7.5,0,0,1-7.5-7.5V89a7.5,7.5,0,1,1,15,0V256.77A7.5,7.5,0,0,1,291.87,264.27Z"/><path d="M103.1,264.27a7.5,7.5,0,0,1-7.5-7.5V89a7.5,7.5,0,0,1,15,0V256.77A7.5,7.5,0,0,1,103.1,264.27Z"/></svg>