<?xml version="1.0" encoding="utf-8"?>
<!-- Generator: Adobe Illustrator 24.1.0, SVG Export Plug-In . SVG Version: 6.00 Build 0)  -->
<svg version="1.1" id="Laag_1" xmlns="http://www.w3.org/2000/svg" xmlns:xlink="http://www.w3.org/1999/xlink" x="0px" y="0px"
	 viewBox="0 0 400 400" style="enable-background:new 0 0 400 400;" xml:space="preserve">
<style type="text/css">
	.st0{fill:none;stroke:#000000;stroke-width:15;stroke-miterlimit:10;}
</style>
<g>
	<path class="st0" d="M78.6,217.6"/>
	<path d="M116.6,379.8c-3,0-5.9-1.1-8.1-3.3l-85.2-85.2c-2.7-2.7-3.8-6.6-3-10.6c0.6-3.1,2.2-6.1,4.6-8.5L228.8,68.3
		c5.8-5.8,14.2-6.5,19.1-1.6l85.2,85.2c4.9,4.9,4.2,13.3-1.6,19.1L127.6,375C124.4,378.2,120.4,379.8,116.6,379.8z M35.7,282.6
		l81.5,81.5l203.5-203.5l-81.5-81.5L35.7,282.6z"/>
	<path class="st0" d="M286.6,114"/>
	<path d="M298.2,134.6c-1.9,0-3.8-0.7-5.3-2.2l-25.7-25.7c-2.9-2.9-2.9-7.6-0.1-10.5l13.1-13.5L293.8,30c1.2-4.5,4.7-8.1,9.2-9.3
		s9.3,0.1,12.6,3.3l60.6,60.6c3.3,3.3,4.6,8.2,3.3,12.7s-4.9,8-9.5,9.1l-53.2,12.9l-13.3,13.1C302,133.9,300.1,134.6,298.2,134.6z
		 M283,101.3l15.2,15.2l8.4-8.3c0,0,0,0,0,0c1.7-1.7,3.8-2.8,6.1-3.4l50.3-12.2l-55.7-55.7L294.6,87c-0.6,2.2-1.7,4.2-3.3,5.8
		L283,101.3z"/>
	<path class="st0" d="M282.1,143.5"/>
</g>
</svg>
