<?xml version="1.0" encoding="utf-8"?>
<!-- Generator: Adobe Illustrator 24.1.0, SVG Export Plug-In . SVG Version: 6.00 Build 0)  -->
<svg version="1.1" id="Laag_1" xmlns="http://www.w3.org/2000/svg" xmlns:xlink="http://www.w3.org/1999/xlink" x="0px" y="0px"
	 viewBox="0 0 400 400" style="enable-background:new 0 0 400 400;" xml:space="preserve">
<style type="text/css">
	.st0{fill:#FFFFFF;}
</style>
<g>
	<path d="M68.8,380c-3.2,0-6.4-1.2-8.8-3.7h0L23.6,340c-4.9-4.9-4.9-12.8,0-17.7l221.8-221.8c4.9-4.9,12.8-4.9,17.7,0l36.3,36.3
		c4.9,4.9,4.9,12.8,0,17.7L77.6,376.4C75.2,378.8,72,380,68.8,380z M36,331.2L68.8,364L287,145.8L254.2,113L36,331.2z"/>
	<path d="M302.3,157.4c-3.3,0-6.5-1.3-8.8-3.7l-47.2-47.2c-4.9-4.9-4.9-12.8,0-17.7l65.3-65.3c2.4-2.4,5.5-3.7,8.8-3.7
		s6.5,1.3,8.8,3.7l47.2,47.2c4.9,4.9,4.9,12.8,0,17.7l-65.3,65.3C308.7,156.1,305.6,157.4,302.3,157.4z M258.6,97.7l43.7,43.7
		L364,79.6L320.4,36L258.6,97.7z"/>
</g>
<g>
	<g>
		<path class="st0" d="M257.6,229.9l-61.7-61.7c-2-2-2-5.1,0-7.1l15.6-15.6c2-2,5.1-2,7.1,0l61.7,61.7c2,2,2,5.1,0,7.1l-15.6,15.6
			C262.7,231.8,259.5,231.8,257.6,229.9z"/>
		<path d="M261.1,238.8c-3.2,0-6.4-1.2-8.8-3.7l-61.7-61.7c-2.4-2.4-3.7-5.5-3.7-8.8c0-3.3,1.3-6.5,3.7-8.8l15.6-15.6
			c2.4-2.4,5.5-3.7,8.8-3.7s6.5,1.3,8.8,3.7l61.7,61.7c4.9,4.9,4.9,12.8,0,17.7l-15.6,15.6C267.5,237.6,264.3,238.8,261.1,238.8z
			 M203,164.7l58.1,58.1l12.1-12.1L215,152.6L203,164.7z"/>
	</g>
	<path d="M291.6,301.7c-3.4,0-6.9-1.4-9.6-4l-38.4-38.4c-2.4-2.4-3.8-5.5-4-8.8c-0.2-3.6,1.1-7.1,3.5-9.6l16.3-16.3l10.6,10.6
		l-14.6,14.6l36,36l43.6-43.6l-36-36l-13.6,13.6l-10.6-10.6l15.3-15.3c4.9-4.9,13.1-4.7,18.3,0.5l38.4,38.4
		c5.2,5.2,5.4,13.4,0.5,18.3l-47,47C298,300.5,294.8,301.7,291.6,301.7z"/>
</g>
</svg>
