<svg xmlns="http://www.w3.org/2000/svg" viewBox="0 0 33.84 34.63"><defs><style>.cls-1{fill:#444;}</style></defs><title>penny_stocks</title><g id="Layer_2" data-name="Layer 2"><g id="Layer_1-2" data-name="Layer 1"><path class="cls-1" d="M23.5,20.44a.7.7,0,0,1-.7-.7V17.65a.7.7,0,0,1,1.4,0v2.09A.7.7,0,0,1,23.5,20.44Z"/><path class="cls-1" d="M23.5,31.65a.7.7,0,0,1-.7-.7V28.86a.7.7,0,0,1,1.4,0V31A.7.7,0,0,1,23.5,31.65Z"/><path class="cls-1" d="M23.51,34.63A10.33,10.33,0,1,1,33.84,24.3,10.34,10.34,0,0,1,23.51,34.63Zm0-19.26a8.93,8.93,0,1,0,8.93,8.93A8.94,8.94,0,0,0,23.51,15.37Z"/><path class="cls-1" d="M23.92,29.23a6.84,6.84,0,0,1-.78,0,13.23,13.23,0,0,1-2.67-.7l-.17-.05a.7.7,0,0,1,.44-1.33l.17.06a12.16,12.16,0,0,0,2.39.63c1.54.18,2.45-.29,2.79-.79a.91.91,0,0,0,.06-1c-.34-.64-1.31-1-2.61-1h0c-1.88,0-3.31-.64-3.9-1.76a2.3,2.3,0,0,1,.15-2.4,4.28,4.28,0,0,1,4.15-1.42,13.36,13.36,0,0,1,2.69.7l.16.05a.7.7,0,0,1-.44,1.33l-.16-.05a12.2,12.2,0,0,0-2.4-.63c-1.56-.17-2.49.31-2.84.82a.89.89,0,0,0-.07,1c.34.64,1.33,1,2.66,1h0c1.85,0,3.25.64,3.84,1.76a2.31,2.31,0,0,1-.14,2.42A3.89,3.89,0,0,1,23.92,29.23Z"/><path class="cls-1" d="M22.28,5.19a.7.7,0,0,1-.7-.7V1.4H3.38V3.79H6.45a.7.7,0,1,1,0,1.4H2.68a.7.7,0,0,1-.7-.7V.7a.7.7,0,0,1,.7-.7h19.6a.7.7,0,0,1,.7.7V4.49A.7.7,0,0,1,22.28,5.19Z"/><path class="cls-1" d="M26,9H20.38a.7.7,0,1,1,0-1.4h4.88V5.19H7.07V8.27a.7.7,0,1,1-1.4,0V4.49a.7.7,0,0,1,.7-.7H26a.7.7,0,0,1,.7.7V8.27A.7.7,0,0,1,26,9Z"/><path class="cls-1" d="M20.3,12.76a.7.7,0,0,1-.7-.7V9H1.4v3.09a.7.7,0,1,1-1.4,0V8.27a.7.7,0,0,1,.7-.7H20.3a.7.7,0,0,1,.7.7v3.79A.7.7,0,0,1,20.3,12.76Z"/><path class="cls-1" d="M.7,16.54a.7.7,0,0,1-.7-.7V12.06a.7.7,0,0,1,.7-.7H20.3a.7.7,0,0,1,.7.7v2.76a.7.7,0,0,1-1.4,0V12.76H1.4v3.08A.7.7,0,0,1,.7,16.54Z"/><path class="cls-1" d="M.7,20.33a.7.7,0,0,1-.7-.7V15.84a.7.7,0,0,1,.7-.7h18a.7.7,0,0,1,0,1.4H1.4v3.09A.7.7,0,0,1,.7,20.33Z"/><path class="cls-1" d="M.7,24.11a.7.7,0,0,1-.7-.7V19.63a.7.7,0,0,1,.7-.7H15a.7.7,0,0,1,0,1.4H1.4v3.08A.7.7,0,0,1,.7,24.11Z"/><path class="cls-1" d="M.7,27.9a.7.7,0,0,1-.7-.7V23.41a.7.7,0,0,1,.7-.7h13a.7.7,0,0,1,0,1.4H1.4V27.2A.7.7,0,0,1,.7,27.9Z"/><path class="cls-1" d="M16.36,31.68H.7A.7.7,0,0,1,0,31V27.2a.7.7,0,0,1,.7-.7H14.21a.7.7,0,1,1,0,1.4H1.4v2.39h15a.7.7,0,0,1,0,1.4Z"/></g></g></svg>