<svg xmlns="http://www.w3.org/2000/svg" viewBox="0 0 34.28 33.53"><defs><style>.cls-1{fill:#444;}</style></defs><title>personal_finance</title><g id="Layer_2" data-name="Layer 2"><g id="Layer_1-2" data-name="Layer 1"><path class="cls-1" d="M16,18V3.66a.7.7,0,0,0-.7-.7h0A15.29,15.29,0,1,0,26.06,29.09a.7.7,0,0,0,0-1Zm-.69,14.18a13.89,13.89,0,0,1-.71-27.75V18.1a.74.74,0,0,0,0,.08v.06a.7.7,0,0,0,.2.49l9.77,9.84A13.79,13.79,0,0,1,15.29,32.13Z"/><path class="cls-1" d="M34.28,17.82a.7.7,0,0,0-.7-.69H19a.7.7,0,0,0-.7.7V18a.7.7,0,0,0,.2.49L28.78,28.81a.7.7,0,0,0,1,0A15.18,15.18,0,0,0,34.28,18Zm-5,9.5-8.73-8.79H32.87A13.77,13.77,0,0,1,29.27,27.31Z"/><path class="cls-1" d="M17.89,15.84H32.47a.7.7,0,0,0,.7-.71A15.33,15.33,0,0,0,17.89,0h0a.7.7,0,0,0-.7.7V15.14A.7.7,0,0,0,17.89,15.84Zm.7-14.42a13.94,13.94,0,0,1,13.16,13H18.59Z"/></g></g></svg>