<svg xmlns="http://www.w3.org/2000/svg" viewBox="0 0 31.03 34.27"><defs><style>.cls-1{fill:#444;}</style></defs><title>policies</title><g id="Layer_2" data-name="Layer 2"><g id="Layer_1-2" data-name="Layer 1"><path class="cls-1" d="M30.33,30.72H4.53a.7.7,0,0,1-.7-.7V.7a.7.7,0,0,1,.7-.7H22.66a.7.7,0,0,1,0,1.4H5.23V29.32h24.4v-21a.7.7,0,1,1,1.4,0V30A.7.7,0,0,1,30.33,30.72Z"/><path class="cls-1" d="M30.33,9.07H22.66a.7.7,0,0,1-.7-.7V.7a.7.7,0,0,1,1.2-.5l7.67,7.67a.7.7,0,0,1-.5,1.2Zm-7-1.4h5.27L23.36,2.39Z"/><path class="cls-1" d="M26.5,34.27H.7a.7.7,0,0,1-.7-.7V4.24a.7.7,0,0,1,.7-.7H4.53a.7.7,0,1,1,0,1.4H1.4V32.87H25.79V30a.7.7,0,1,1,1.4,0v3.54A.7.7,0,0,1,26.5,34.27Z"/><path class="cls-1" d="M16.42,10.35H11.17a.7.7,0,0,1,0-1.4h5.25a.7.7,0,1,1,0,1.4Z"/><path class="cls-1" d="M23.67,14.77H11.17a.7.7,0,0,1,0-1.4h12.5a.7.7,0,1,1,0,1.4Z"/><path class="cls-1" d="M23.67,19.19H11.17a.7.7,0,0,1,0-1.4h12.5a.7.7,0,1,1,0,1.4Z"/><path class="cls-1" d="M23.67,23.6H11.17a.7.7,0,1,1,0-1.4h12.5a.7.7,0,1,1,0,1.4Z"/></g></g></svg>