<?xml version="1.0" encoding="utf-8"?>
<!-- Generator: Adobe Illustrator 24.1.0, SVG Export Plug-In . SVG Version: 6.00 Build 0)  -->
<svg version="1.1" id="Laag_1" xmlns="http://www.w3.org/2000/svg" xmlns:xlink="http://www.w3.org/1999/xlink" x="0px" y="0px"
	 viewBox="0 0 400 400" style="enable-background:new 0 0 400 400;" xml:space="preserve">
<style type="text/css">
	.st0{fill:none;}
	.st1{stroke:#000000;stroke-miterlimit:10;}
	.st2{font-family:'HelveticaNeue';}
	.st3{font-size:150px;}
</style>
<path d="M367.5,380h-335c-6.9,0-12.5-5.6-12.5-12.5v-335C20,25.6,25.6,20,32.5,20h335c6.9,0,12.5,5.6,12.5,12.5v335
	C380,374.4,374.4,380,367.5,380z M35,365h330V35H35V365z"/>
<path d="M200,332.5c-73.1,0-132.5-59.4-132.5-132.5S126.9,67.5,200,67.5S332.5,126.9,332.5,200S273.1,332.5,200,332.5z M200,82.5
	c-64.8,0-117.5,52.7-117.5,117.5c0,64.8,52.7,117.5,117.5,117.5c64.8,0,117.5-52.7,117.5-117.5C317.5,135.2,264.8,82.5,200,82.5z"/>
<path d="M107.5,207.5h-80c-4.1,0-7.5-3.4-7.5-7.5c0-4.1,3.4-7.5,7.5-7.5h80c4.1,0,7.5,3.4,7.5,7.5
	C115,204.1,111.6,207.5,107.5,207.5z"/>
<path d="M372.5,207.5h-80c-4.1,0-7.5-3.4-7.5-7.5c0-4.1,3.4-7.5,7.5-7.5h80c4.1,0,7.5,3.4,7.5,7.5
	C380,204.1,376.6,207.5,372.5,207.5z"/>
<path d="M200,115c-4.1,0-7.5-3.4-7.5-7.5v-80c0-4.1,3.4-7.5,7.5-7.5c4.1,0,7.5,3.4,7.5,7.5v80C207.5,111.6,204.1,115,200,115z"/>
<path d="M200,380c-4.1,0-7.5-3.4-7.5-7.5v-80c0-4.1,3.4-7.5,7.5-7.5c4.1,0,7.5,3.4,7.5,7.5v80C207.5,376.6,204.1,380,200,380z"/>
<path d="M262.8,144.7c-1.9,0-3.8-0.7-5.3-2.2c-2.9-2.9-2.9-7.7,0-10.6L367.1,22.3c2.9-2.9,7.7-2.9,10.6,0c2.9,2.9,2.9,7.7,0,10.6
	L268.1,142.5C266.7,143.9,264.8,144.7,262.8,144.7z"/>
<rect x="157.5" y="144" class="st0" width="85" height="112"/>
<text transform="matrix(1 0 0 1 157.5 251.0986)" class="st1 st2 st3">3</text>
</svg>
