<?xml version="1.0" encoding="utf-8"?>
<!-- Generator: Adobe Illustrator 24.1.0, SVG Export Plug-In . SVG Version: 6.00 Build 0)  -->
<svg version="1.1" id="Laag_1" xmlns="http://www.w3.org/2000/svg" xmlns:xlink="http://www.w3.org/1999/xlink" x="0px" y="0px"
	 viewBox="0 0 400 400" style="enable-background:new 0 0 400 400;" xml:space="preserve">
<image style="display:none;overflow:visible;enable-background:new    ;" width="512" height="512" xlink:href="../../../../../../Downloads/spotlight (2).png"  transform="matrix(0.75 0 0 0.75 8 16)">
</image>
<g>
	<g>
		<path d="M200.1,248.9c-2.7,0-5.5-0.2-8.3-0.7c-13.4-2.2-25.2-9.5-33.2-20.5c-8-11.1-11.1-24.5-9-38l0,0
			c2.2-13.4,9.5-25.2,20.5-33.2c11.1-8,24.5-11.2,38-9c13.4,2.2,25.2,9.5,33.2,20.5c8,11.1,11.2,24.5,9,38
			c-2.2,13.4-9.5,25.2-20.5,33.2C221,245.5,210.7,248.9,200.1,248.9z M199.9,161.8c-7.5,0-14.8,2.3-21,6.8
			c-7.8,5.6-12.9,13.9-14.5,23.4l0,0c-1.5,9.5,0.7,19,6.3,26.8c5.6,7.8,13.9,12.9,23.4,14.5c9.5,1.5,19-0.7,26.8-6.3
			c7.8-5.6,12.9-13.9,14.5-23.4s-0.7-19-6.3-26.8c-5.6-7.8-13.9-12.9-23.4-14.5C203.8,162,201.8,161.8,199.9,161.8z"/>
		<g>
			<path d="M294.4,335.7h-15v-7.5c0-43.8-35.6-79.4-79.4-79.4s-79.4,35.6-79.4,79.4v7.5h-15v-7.5c0-52.1,42.3-94.4,94.4-94.4
				c52.1,0,94.4,42.3,94.4,94.4V335.7z"/>
			<rect x="105.6" y="320.7" width="188.8" height="15"/>
		</g>
	</g>
</g>
<g>
	<path d="M200.1,380c-62.6,0-121.7-14.2-142.3-34.5c-5.3-5.2-8-10.7-8-16.4c0-25.1,43.8-39.2,69.9-45.4l3.5,14.6
		c-40.1,9.5-58.3,22.6-58.3,30.8c0,1.4,1.3,3.5,3.5,5.7c8,7.9,26,15.6,49.3,21.2c18.6,4.4,49.1,9.6,89.2,8.9
		c32.8-0.6,66.4-5.6,92.1-13.7c28.8-9.1,36.3-18.4,36.3-22.1c0-9.2-18.1-22.4-58.5-31.4l3.2-14.6c26.2,5.8,70.3,19.5,70.3,46
		c0,17.8-25.5,29.6-46.8,36.4c-27,8.6-62.1,13.8-96.4,14.4C204.7,379.9,202.4,380,200.1,380z"/>
	<path d="M335.6,329.7L235.9,35h-72.4l-99,294.7l-14.2-4.8l99.6-296.4c1.8-5.1,6.5-8.5,11.8-8.5h76.1c5.3,0,10,3.4,11.8,8.4
		l100.3,296.5L335.6,329.7z"/>
</g>
</svg>
