<?xml version="1.0" encoding="utf-8"?>
<!-- Generator: Adobe Illustrator 24.1.0, SVG Export Plug-In . SVG Version: 6.00 Build 0)  -->
<svg version="1.1" id="Laag_1" xmlns="http://www.w3.org/2000/svg" xmlns:xlink="http://www.w3.org/1999/xlink" x="0px" y="0px"
	 viewBox="0 0 400 400" style="enable-background:new 0 0 400 400;" xml:space="preserve">
<g>
	<path d="M131.2,92.6c-20,0-36.3-16.3-36.3-36.3c0-20,16.3-36.3,36.3-36.3c20,0,36.3,16.3,36.3,36.3
		C167.5,76.4,151.2,92.6,131.2,92.6z M131.2,35c-11.7,0-21.3,9.6-21.3,21.3c0,11.8,9.6,21.3,21.3,21.3c11.7,0,21.3-9.6,21.3-21.3
		C152.5,44.6,143,35,131.2,35z"/>
	<g>
		<path d="M196.2,150.1h-15v-7.5c0-27.6-22.4-50-50-50s-50,22.5-50,50v7.5h-15v-7.5c0-35.9,29.2-65,65-65s65,29.2,65,65V150.1z"/>
		<rect x="66.2" y="135.1" width="130" height="15"/>
	</g>
</g>
<g>
	<path d="M183.8,322.5c-20,0-36.3-16.3-36.3-36.3s16.3-36.3,36.3-36.3c20,0,36.3,16.3,36.3,36.3S203.8,322.5,183.8,322.5z
		 M183.8,264.9c-11.7,0-21.3,9.6-21.3,21.3s9.6,21.3,21.3,21.3c11.7,0,21.3-9.6,21.3-21.3S195.5,264.9,183.8,264.9z"/>
	<g>
		<path d="M248.8,380h-15v-7.5c0-27.6-22.4-50-50-50c-27.6,0-50,22.5-50,50v7.5h-15v-7.5c0-35.9,29.2-65,65-65s65,29.2,65,65V380z"
			/>
		<rect x="118.8" y="365" width="130" height="15"/>
	</g>
	<path d="M298.8,322.5c-20,0-36.3-16.3-36.3-36.3s16.3-36.3,36.3-36.3c20,0,36.3,16.3,36.3,36.3S318.8,322.5,298.8,322.5z
		 M298.8,264.9c-11.7,0-21.3,9.6-21.3,21.3s9.6,21.3,21.3,21.3s21.3-9.6,21.3-21.3S310.5,264.9,298.8,264.9z"/>
	<g>
		<path d="M363.8,380h-15v-7.5c0-27.6-22.4-50-50-50s-50,22.5-50,50v7.5h-15v-7.5c0-35.9,29.2-65,65-65s65,29.2,65,65V380z"/>
		<rect x="233.8" y="365" width="130" height="15"/>
	</g>
</g>
<g>
	<path d="M205.4,195.1H57.1c-6,0-11.1-4-12.4-9.7l-8.1-35c-0.9-3.7,0-7.5,2.4-10.5c2.4-3.1,6.1-4.8,10-4.8h164.6
		c3.9,0,7.6,1.8,10,4.8c2.4,3,3.2,6.8,2.4,10.5l-8.1,35C216.5,191.1,211.4,195.1,205.4,195.1z M58.8,180.1h144.8l7-30H51.9
		L58.8,180.1z"/>
	<path d="M157.7,306H85.8c-6.5,0-11.9-4.9-12.4-11.4L63,180.9h136.4l-7,77.2l-14.9-1.4l5.5-60.8H79.4l8.6,95.1h69.6V306z"/>
</g>
</svg>
