<?xml version="1.0" encoding="utf-8"?>
<!-- Generator: Adobe Illustrator 24.1.0, SVG Export Plug-In . SVG Version: 6.00 Build 0)  -->
<svg version="1.1" id="Laag_1" xmlns="http://www.w3.org/2000/svg" xmlns:xlink="http://www.w3.org/1999/xlink" x="0px" y="0px"
	 viewBox="0 0 400 400" style="enable-background:new 0 0 400 400;" xml:space="preserve">
<path d="M347.5,90.5h-295C34.6,90.5,20,75.9,20,58s14.6-32.5,32.5-32.5h295c17.9,0,32.5,14.6,32.5,32.5S365.4,90.5,347.5,90.5z
	 M52.5,40.5C42.9,40.5,35,48.4,35,58s7.9,17.5,17.5,17.5h295c9.6,0,17.5-7.9,17.5-17.5s-7.9-17.5-17.5-17.5H52.5z"/>
<path d="M325,280.5H75c-12.4,0-22.5-10.1-22.5-22.5V75.5h295V258C347.5,270.4,337.4,280.5,325,280.5z M67.5,90.5V258
	c0,4.1,3.4,7.5,7.5,7.5h250c4.1,0,7.5-3.4,7.5-7.5V90.5H67.5z"/>
<path d="M200,385.5c-4.1,0-7.5-3.4-7.5-7.5V273c0-4.1,3.4-7.5,7.5-7.5c4.1,0,7.5,3.4,7.5,7.5v105C207.5,382.1,204.1,385.5,200,385.5
	z"/>
<path d="M282.5,385.5c-1.5,0-2.9-0.4-4.2-1.3l-82.5-56.4c-3.4-2.3-4.3-7-2-10.4c2.3-3.4,7-4.3,10.4-2l82.5,56.4
	c3.4,2.3,4.3,7,2,10.4C287.3,384.4,284.9,385.5,282.5,385.5z"/>
<path d="M116.3,239.9c-1.9,0-3.8-0.7-5.3-2.2c-2.9-2.9-3-7.7-0.1-10.6l58.5-59.1c4.3-4.3,11-4.9,16-1.5l35.9,24.7l55.3-68.9
	c2.6-3.2,7.3-3.7,10.5-1.2c3.2,2.6,3.7,7.3,1.2,10.5l-56.8,70.7c-4.1,5.1-11.5,6.2-16.8,2.5l-36.1-24.8l-57,57.6
	C120.2,239.2,118.2,239.9,116.3,239.9z"/>
<path d="M117.5,385.5c-2.4,0-4.7-1.1-6.2-3.3c-2.3-3.4-1.5-8.1,2-10.4l82.5-56.4c3.4-2.3,8.1-1.5,10.4,2c2.3,3.4,1.5,8.1-2,10.4
	l-82.5,56.4C120.4,385.1,118.9,385.5,117.5,385.5z"/>
</svg>
