<svg xmlns="http://www.w3.org/2000/svg" viewBox="0 0 33.41 28.95"><defs><style>.cls-1{fill:#444;}</style></defs><title>project_management</title><g id="Layer_2" data-name="Layer 2"><g id="Layer_1-2" data-name="Layer 1"><path class="cls-1" d="M32.71,29H.7a.7.7,0,0,1-.7-.7V.7A.7.7,0,0,1,.7,0h32a.7.7,0,0,1,.7.7V28.25A.7.7,0,0,1,32.71,29ZM1.4,27.55H32V1.4H1.4Z"/><path class="cls-1" d="M18.15,11.4H3.87a.7.7,0,0,1-.7-.7V4.92a.7.7,0,0,1,.7-.7H18.15a.7.7,0,0,1,.7.7V10.7A.7.7,0,0,1,18.15,11.4ZM4.57,10H17.45V5.62H4.57Z"/><path class="cls-1" d="M29.12,26H20.43a.7.7,0,0,1-.7-.7V18.88a.7.7,0,0,1,.7-.7h8.69a.7.7,0,0,1,.7.7v6.42A.7.7,0,0,1,29.12,26Zm-8-1.4h7.29v-5H21.13Z"/><path class="cls-1" d="M24.77,15.18a.7.7,0,0,1-.7-.7V7.62H18.15a.7.7,0,0,1,0-1.4h6.62a.7.7,0,0,1,.7.7v7.56A.7.7,0,0,1,24.77,15.18Z"/><path class="cls-1" d="M24.95,16a.7.7,0,0,1-.5-.21l-3.31-3.31a.7.7,0,0,1,1-1l2.79,2.79,2.47-2.76a.7.7,0,1,1,1,.93l-3,3.31A.7.7,0,0,1,25,16Z"/></g></g></svg>