<svg xmlns="http://www.w3.org/2000/svg" viewBox="0 0 25.09 35.45"><defs><style>.cls-1{fill:#444;}</style></defs><title>real_estate</title><g id="Layer_2" data-name="Layer 2"><g id="Layer_1-2" data-name="Layer 1"><path class="cls-1" d="M17.77,24.75H7.46a.7.7,0,0,1-.7-.7V9.7a.7.7,0,0,1,1.4,0V23.34h8.91V17.7a.7.7,0,0,1,1.4,0V24A.7.7,0,0,1,17.77,24.75Z"/><path class="cls-1" d="M14.52,21.32H10.71a.7.7,0,0,1-.7-.7V16.81a.7.7,0,0,1,.7-.7h3.81a.7.7,0,0,1,.7.7v3.81A.7.7,0,0,1,14.52,21.32Zm-3.11-1.4h2.41V17.51H11.41Z"/><path class="cls-1" d="M20.29,17.24a.63.63,0,0,1-.42-.16.87.87,0,0,1-.23-.35l-7.09-6.34-7.05,6.3a.7.7,0,0,1-.21.32.72.72,0,0,1-1.21-.41.69.69,0,0,1,0-.23.7.7,0,0,1,.23-.49L12,9a.7.7,0,0,1,.66-.15.63.63,0,0,1,.41.15l7.72,6.9a.7.7,0,0,1,.16.83.64.64,0,0,1-.14.26A.72.72,0,0,1,20.29,17.24Z"/><path class="cls-1" d="M21.1,35.45H3.72A3.72,3.72,0,0,1,0,31.73v-28A3.72,3.72,0,0,1,3.72,0H21.1a4.28,4.28,0,0,1,3.11,1.1,3.4,3.4,0,0,1,.88,2.58L25,5.27l-.21,26.46A3.74,3.74,0,0,1,21.1,35.45ZM3.72,1.4A2.32,2.32,0,0,0,1.4,3.72v28A2.32,2.32,0,0,0,3.72,34H21.1a2.34,2.34,0,0,0,2.32-2.33l.21-26.47v0l.05-1.59a2,2,0,0,0-.48-1.56,3,3,0,0,0-2.1-.68Z"/><path class="cls-1" d="M14.31,32.61h-3.8a.7.7,0,0,1,0-1.4h3.8a.7.7,0,1,1,0,1.4Z"/><path class="cls-1" d="M23.45,29.85H1.2a.7.7,0,0,1,0-1.4H23.45a.7.7,0,0,1,0,1.4Z"/><path class="cls-1" d="M23.67,4.7H1.42a.7.7,0,0,1,0-1.4H23.67a.7.7,0,1,1,0,1.4Z"/></g></g></svg>