<svg xmlns="http://www.w3.org/2000/svg" viewBox="0 0 31.7 35.77"><defs><style>.cls-1{fill:#444;}</style></defs><title>restauranting</title><g id="Layer_2" data-name="Layer 2"><g id="Layer_1-2" data-name="Layer 1"><path class="cls-1" d="M11.29,16.55a.7.7,0,0,1-.7-.7V8.64a.7.7,0,1,1,1.4,0v7.21A.7.7,0,0,1,11.29,16.55Z"/><path class="cls-1" d="M20.32,35.77A2.35,2.35,0,0,1,18,33.25l.71-9.92-1.49-1.49a.7.7,0,0,1-.21-.5v-6C17,7.86,21.66,7,21.86,6.92a.7.7,0,0,1,.82.69V33.42A2.36,2.36,0,0,1,20.32,35.77ZM18.39,21.05l1.51,1.51a.7.7,0,0,1,.2.54l-.73,10.24a1,1,0,0,0,1,1,1,1,0,0,0,1-1V8.63c-1.09.61-2.89,2.28-2.89,6.71Z"/><path class="cls-1" d="M22.35,30.23a.7.7,0,0,1-.3-1.33A14.45,14.45,0,1,0,1.4,15.85a14.38,14.38,0,0,0,8,12.94A.7.7,0,1,1,8.79,30,15.85,15.85,0,1,1,31.7,15.85a15.93,15.93,0,0,1-9,14.31A.69.69,0,0,1,22.35,30.23Z"/><path class="cls-1" d="M16.2,31.7a16,16,0,0,1-3-.28A.7.7,0,1,1,13.49,30a14.64,14.64,0,0,0,4.74.11.7.7,0,1,1,.2,1.39A16,16,0,0,1,16.2,31.7Z"/><path class="cls-1" d="M11.29,35.77A2.3,2.3,0,0,1,9,33.47V18.71a3.18,3.18,0,0,1-1.6-2.86V8.64a.7.7,0,0,1,1.4,0v7.21a1.73,1.73,0,0,0,1.12,1.74.7.7,0,0,1,.48.66V33.47a.9.9,0,0,0,1.8,0V18.25a.7.7,0,0,1,.48-.66,1.73,1.73,0,0,0,1.12-1.74V8.64a.7.7,0,0,1,1.4,0v7.21a3.18,3.18,0,0,1-1.6,2.86V33.47A2.3,2.3,0,0,1,11.29,35.77Z"/></g></g></svg>