<svg xmlns="http://www.w3.org/2000/svg" viewBox="0 0 35.41 36.52"><defs><style>.cls-1{fill:#444;}</style></defs><title>retail_small_business</title><g id="Layer_2" data-name="Layer 2"><g id="Layer_1-2" data-name="Layer 1"><path class="cls-1" d="M22.41,9.52l-.19,0L17.43,8.14l-4.25,1.2A.69.69,0,1,1,12.8,8l4-1.12a2.77,2.77,0,0,1,1.37-2.36l.49-.4A1.45,1.45,0,0,0,19.07,3a1.64,1.64,0,0,0-1.63-1.63h0A1.64,1.64,0,0,0,15.8,3a.69.69,0,1,1-1.38,0,3,3,0,0,1,3-3h0a3,3,0,0,1,3,3,2.8,2.8,0,0,1-.93,2.17L19,5.61c-.62.49-.78.62-.84,1.29l4.44,1.25a.69.69,0,0,1-.19,1.36Z"/><path class="cls-1" d="M26.59,36.52H8.82a.7.7,0,0,1-.7-.7V25.07l-1.9,8.31a.7.7,0,0,1-.91.51L.48,32.25a.7.7,0,0,1-.46-.8L3.87,11.73a.68.68,0,0,1,.1-.25C5.77,8.71,9.66,7.6,12.43,7a.69.69,0,0,1,.79.41l.2.47c1,2.27,1.89,4.42,4.33,4.44,2.6.06,3.18-1.53,4-3.69.14-.36.27-.73.42-1.1h0l0-.1A.69.69,0,0,1,23,7c2.41.51,6.44,1.37,8.46,4.47a.68.68,0,0,1,.1.25L35.4,31.45a.7.7,0,0,1-.46.8L30.1,33.89a.7.7,0,0,1-.91-.51l-1.9-8.31V35.82A.7.7,0,0,1,26.59,36.52ZM9.52,35.12H25.89V18.88a.7.7,0,0,1,1.38-.16l3.11,13.58,3.52-1.19-3.71-19C28.72,10,26,9.12,23.27,8.51L23,9.13c-.8,2.16-1.71,4.6-5.24,4.6h-.07c-3.32,0-4.58-2.89-5.58-5.23-2.42.55-5.5,1.53-6.94,3.63l-3.71,19L5,32.31,8.14,18.73a.7.7,0,0,1,1.38.16Z"/></g></g></svg>