<svg xmlns="http://www.w3.org/2000/svg" viewBox="0 0 30.25 34.17"><defs><style>.cls-1{fill:#444;}</style></defs><g><g><path class="cls-1" d="M14.73,0A12.07,12.07,0,0,0,6.27,4,22.42,22.42,0,0,0,0,19.07a14.8,14.8,0,0,0,15.12,15.1h0a15.22,15.22,0,0,0,10.68-4.24A15.09,15.09,0,0,0,30.25,19C30.23,9.86,24.29,0,14.73,0ZM24.86,28.93a13.79,13.79,0,0,1-9.7,3.84h0A13.43,13.43,0,0,1,1.4,19.06,21,21,0,0,1,7.26,5,10.72,10.72,0,0,1,14.73,1.4c8.7,0,14.1,9.14,14.12,17.6A13.67,13.67,0,0,1,24.86,28.93Z"/><path class="cls-1" d="M13.29,13.64c1-.68,3.36-.34,5,.37a.71.71,0,0,0,.93-.37.7.7,0,0,0-.37-.92,10.8,10.8,0,0,0-3-.79V10.38a.7.7,0,1,0-1.4,0V11.9a4.12,4.12,0,0,0-1.9.57,2.49,2.49,0,0,0-1.14,2.19c0,2,1.41,2.35,3.59,2.9l.54.14c1.93.47,2.38.68,2.36,1.72a1.27,1.27,0,0,1-.63,1.09c-.48.32-2,.89-5.29-.53a.7.7,0,1,0-.55,1.29,12.89,12.89,0,0,0,3,.91v1.61a.7.7,0,0,0,1.4,0V22.28A4.2,4.2,0,0,0,18,21.69a2.71,2.71,0,0,0,1.27-2.24c.05-2.27-1.64-2.68-3.43-3.12l-.55-.13c-2.28-.58-2.52-.72-2.51-1.53A1.1,1.1,0,0,1,13.29,13.64Z"/></g></g></svg>