<svg xmlns="http://www.w3.org/2000/svg" viewBox="0 0 34.28 34.28"><defs><style>.cls-1{fill:#444;}</style></defs><g><g><path class="cls-1" d="M31.11,8.07h-.46v-2a2.48,2.48,0,0,0-2.48-2.48H6.11A2.48,2.48,0,0,0,3.63,6.11V28.17a2.48,2.48,0,0,0,2.48,2.48H28.17a2.48,2.48,0,0,0,2.48-2.48v-2h.46a1,1,0,0,0,.9-1V21a1,1,0,0,0-.9-1h-.46V14.28h.46a1,1,0,0,0,.9-1V9.11A1,1,0,0,0,31.11,8.07Zm-.5,4.81H29.17V9.47h1.44Zm0,8.53v3.4H29.17v-3.4ZM29.25,20h-.58a1,1,0,0,0-.9,1v4.13a1,1,0,0,0,.9,1h.58v2a1.08,1.08,0,0,1-1.08,1.08H6.11A1.08,1.08,0,0,1,5,28.17V6.11A1.09,1.09,0,0,1,6.11,5H28.17a1.08,1.08,0,0,1,1.08,1.08v2h-.58a1,1,0,0,0-.9,1v4.13a1,1,0,0,0,.9,1h.58Z"/><path class="cls-1" d="M22.84,11.48s0,0,0,0h0a8,8,0,0,0-11.34,0h0a0,0,0,0,1,0,0,8,8,0,0,0,0,11.33s0,0,0,0,0,0,0,0a8,8,0,0,0,11.34,0s0,0,0,0v0a8,8,0,0,0,0-11.33Zm-.12,6.36h1a6.5,6.5,0,0,1-1.44,3.47l-.72-.72a.7.7,0,0,0-1,1l.72.72a6.59,6.59,0,0,1-3.47,1.45v-1a.7.7,0,0,0-1.4,0v1A6.59,6.59,0,0,1,13,22.3l.72-.72a.7.7,0,0,0-1-1l-.72.72a6.5,6.5,0,0,1-1.44-3.47h1a.7.7,0,0,0,0-1.4h-1A6.5,6.5,0,0,1,12,13l.72.72a.7.7,0,0,0,.49.2.74.74,0,0,0,.5-.2.71.71,0,0,0,0-1L13,12a6.5,6.5,0,0,1,3.47-1.44v1a.7.7,0,0,0,1.4,0v-1A6.5,6.5,0,0,1,21.31,12l-.72.72a.71.71,0,0,0,0,1,.74.74,0,0,0,.5.2.7.7,0,0,0,.49-.2L22.3,13a6.5,6.5,0,0,1,1.44,3.47h-1a.7.7,0,0,0,0,1.4Z"/><path class="cls-1" d="M17.14,12.55a4.59,4.59,0,1,0,4.59,4.59A4.6,4.6,0,0,0,17.14,12.55Zm0,7.78a3.19,3.19,0,1,1,3.19-3.19A3.19,3.19,0,0,1,17.14,20.33Z"/><path class="cls-1" d="M29.34,0H4.94A5,5,0,0,0,0,4.94v24.4a5,5,0,0,0,4.94,4.94h24.4a5,5,0,0,0,4.94-4.94V4.94A5,5,0,0,0,29.34,0Zm3.54,29.34a3.55,3.55,0,0,1-3.54,3.54H4.94A3.55,3.55,0,0,1,1.4,29.34V4.94A3.55,3.55,0,0,1,4.94,1.4h24.4a3.55,3.55,0,0,1,3.54,3.54Z"/></g></g></svg>