<?xml version="1.0" encoding="utf-8"?>
<!-- Generator: Adobe Illustrator 24.1.0, SVG Export Plug-In . SVG Version: 6.00 Build 0)  -->
<svg version="1.1" id="Laag_1" xmlns="http://www.w3.org/2000/svg" xmlns:xlink="http://www.w3.org/1999/xlink" x="0px" y="0px"
	 viewBox="0 0 400 400" style="enable-background:new 0 0 400 400;" xml:space="preserve">
<style type="text/css">
	.st0{fill:none;stroke:#000000;stroke-width:15;stroke-linecap:round;stroke-miterlimit:10;}
	.st1{display:none;}
	.st2{display:inline;}
</style>
<g>
	<path d="M56.8,352.4c-3.9,0-7.2-3-7.5-6.9c-0.6-7.2-0.8-14.5-0.8-21.7c0-74.2,28.9-143.9,81.3-196.4C182.3,75,252,46.1,326.2,46.1
		c7.3,0,11.5,0,19.2,0.7c4.1,0.3,7.2,4,6.9,8.1c-0.3,4.1-3.9,7.2-8.1,6.9c-7.1-0.6-10.9-0.6-18-0.6c-70.2,0-136.2,27.3-185.8,77
		s-77,115.6-77,185.8c0,6.8,0.3,13.7,0.8,20.5c0.3,4.1-2.8,7.7-6.9,8.1C57.2,352.4,57,352.4,56.8,352.4z"/>
	<path d="M147.3,352.4c-3.7,0-7-2.8-7.4-6.6c-0.9-7.4-1.3-13.5-1.3-22c0-103.5,84.2-187.7,187.7-187.7c6,0,12.1,0.3,18,0.9
		c4.1,0.4,7.1,4.1,6.8,8.2c-0.4,4.1-4.1,7.1-8.2,6.8c-5.5-0.5-11.1-0.8-16.6-0.8c-95.2,0-172.7,77.5-172.7,172.7
		c0,7.8,0.3,13.5,1.2,20.2c0.5,4.1-2.4,7.9-6.5,8.4C147.9,352.4,147.6,352.4,147.3,352.4z"/>
	<path d="M326.2,151.2c-4.1,0-7.5-3.4-7.5-7.5V53.6c0-4.1,3.4-7.5,7.5-7.5s7.5,3.4,7.5,7.5v90.1
		C333.7,147.8,330.4,151.2,326.2,151.2z"/>
	<path d="M146.1,334H56c-4.1,0-7.5-3.4-7.5-7.5s3.4-7.5,7.5-7.5h90.1c4.1,0,7.5,3.4,7.5,7.5S150.2,334,146.1,334z"/>
	<path d="M56.4,315.3c-3.2,0-6.2-2.1-7.2-5.4c-1.2-4,1.1-8.1,5.1-9.3l83.5-24.3l-50.8-59.1c-3.4-3.9-4-9.4-1.6-14s7.3-7.2,12.4-6.6
		l74.9,8l-27.1-70.7c-1.8-4.7-0.5-9.8,3.3-13.1c3.8-3.3,9.1-3.8,13.4-1.3l64.8,36.7L229,79c0.1-4.8,3.1-9,7.6-10.7
		c4.5-1.7,9.5-0.6,12.8,3l62.2,66.6c2.8,3,2.7,7.8-0.4,10.6c-3,2.8-7.8,2.7-10.6-0.4l-56.8-60.7l-1.7,74.7c-0.1,4.1-2.3,7.8-5.9,9.9
		c-3.6,2.1-7.9,2.1-11.5,0.2l-0.1-0.1L163,137l25.7,67.3c1.4,3.8,0.8,8-1.6,11.2c-2.4,3.2-6.3,4.9-10.3,4.6l-0.2,0l-74-7.9
		l49.8,57.9c2.7,3,3.6,7.1,2.5,11c-1.1,3.9-4.1,7-8,8.1L58.5,315C57.8,315.2,57.1,315.3,56.4,315.3z M142.7,274.8
		C142.7,274.8,142.7,274.8,142.7,274.8L142.7,274.8z"/>
	<path class="st0" d="M99,96.4"/>
	<path class="st0" d="M326.2,326.5"/>
	<path class="st0" d="M326.2,89.9"/>
	<path class="st0" d="M326.2,346.4"/>
	<path class="st0" d="M372.5,326.5"/>
	<path class="st0" d="M101,326.5"/>
	<path class="st0" d="M58.5,145.1"/>
	<path class="st0" d="M326.2,326.5"/>
	<path class="st0" d="M27.5,202.7"/>
	<path class="st0" d="M326.2,326.5"/>
</g>
<g class="st1">
	<path class="st2" d="M89.4,257c-2,0-4-0.5-5.8-1.4l-0.1-0.1l-47.8-26.3V93.9c0-2.8,1.4-5.4,3.7-7c2.3-1.6,5.3-1.9,7.9-0.8
		l43.8,17.6L175.4,84c3.7-0.9,7.5,0,10.5,2.4c3,2.4,4.7,5.9,4.7,9.7v36.1c0,5.7-3.8,10.6-9.3,12L135,155.7l2,76.5
		c0.1,5.4-3.2,10.2-8.3,12l-35.3,12.2C92.1,256.8,90.7,257,89.4,257z M50.7,220.4l38.9,21.4l32.3-11.1l-2-76.7
		c-0.1-5.8,3.7-10.9,9.3-12.3l46.2-11.6V99.4l-81.3,18.9c-1.3,0.7-2.8,1-4.4,0.9c-1.5-0.1-2.9-0.7-4.1-1.5l-35.1-14.1V220.4z"/>
	<rect x="81.5" y="111.8" class="st2" width="15" height="138.1"/>
	<path class="st2" d="M320,267c-2.5,0-4.9-0.7-7-2.2c-3.4-2.3-5.4-6.2-5.4-10.3l1-121L178.4,98.5c-4-1.1-6.4-5.2-5.3-9.2
		c1.1-4,5.2-6.4,9.2-5.3l132.5,35.6c5.2,1.5,8.9,6.3,9,11.8v0.1l-1,119.2l29.4-11.6l0.8-126l-170-44L44.8,99.8c-4,0.9-8-1.7-8.9-5.7
		c-0.9-4,1.7-8,5.7-8.9l138.8-30.8c1.9-0.4,3.9-0.4,5.8,0.1l174.8,45.3c4.2,1.1,7.1,4.9,7.1,9.2l-0.9,132.1c0,5.1-3.1,9.5-7.8,11.4
		l-34.8,13.7C323.1,266.7,321.5,267,320,267z"/>
	<path class="st2" d="M318.3,267c-0.9,0-1.9-0.2-2.8-0.5l-154.1-61.8c-4.6-1.9-7.6-6.4-7.6-11.4v-52.1c0-4.1,3.4-7.5,7.5-7.5
		s7.5,3.4,7.5,7.5v50.3l152.3,61c3.8,1.5,5.7,5.9,4.2,9.8C324.1,265.2,321.3,267,318.3,267z"/>
	<path class="st2" d="M205.6,345.9c-13.6,0-21.9-4.6-23.9-5.9L31.9,258l-0.3-0.2c-8.5-6-12.4-12.7-11.5-19.9
		c1.6-12.5,17.3-18.9,20.5-20l5.2,14.1l-2.6-7l2.6,7c-5.2,1.9-10.5,5.8-10.8,7.9c-0.1,0.5,0.7,2.5,4.9,5.5l149.7,81.9l0.2,0.2
		c1.1,0.7,13.8,8.2,36.8-0.8L352,270.8c5.3-2.4,12.8-7.8,13-11.3c0.1-1.6-2.3-4.9-9.1-8.7l7.3-13.1c11.5,6.4,17.2,14,16.8,22.5
		c-0.3,6.7-4.3,12.9-11.9,18.4c-4.8,3.5-9.4,5.6-9.9,5.8l-125.9,56C221.9,344.5,213,345.9,205.6,345.9z"/>
	<path class="st2" d="M128.8,213.8c-3.3,0-6.4-2.3-7.3-5.6c-1-4,1.4-8.1,5.4-9.1l31.1-8c4-1,8.1,1.4,9.1,5.4c1,4-1.4,8.1-5.4,9.1
		l-31.1,8C130,213.8,129.4,213.8,128.8,213.8z"/>
	<path class="st2" d="M279.5,216.6c-1.4,0-2.8-0.2-4.2-0.7l-59.4-21.4c-4.8-1.7-8.1-6.3-8.2-11.4L207,141c-0.1-3.9,1.7-7.7,4.9-10.1
		c3.1-2.4,7.2-3.1,11-2l60.3,17.8c5.2,1.5,8.9,6.4,8.8,11.9l-0.1,45.6c0,4-2,7.8-5.3,10.1C284.5,215.9,282,216.6,279.5,216.6z
		 M222.8,181l54.1,19.5l0.1-39.9l-54.9-16.3L222.8,181z"/>
	
		<rect x="314.3" y="111" transform="matrix(0.9211 -0.3893 0.3893 0.9211 -19.4237 141.0675)" class="st2" width="48.1" height="15"/>
</g>
</svg>
