<?xml version="1.0" encoding="utf-8"?>
<!-- Generator: Adobe Illustrator 24.1.0, SVG Export Plug-In . SVG Version: 6.00 Build 0)  -->
<svg version="1.1" id="Laag_1" xmlns="http://www.w3.org/2000/svg" xmlns:xlink="http://www.w3.org/1999/xlink" x="0px" y="0px"
	 viewBox="0 0 400 400" style="enable-background:new 0 0 400 400;" xml:space="preserve">
<g>
	<path d="M118.4,172.1H116c-13.8,0-25-11.2-25-25v-72c0-13.8,11.2-25,25-25h2.4c13.8,0,25,11.2,25,25v72
		C143.4,160.9,132.2,172.1,118.4,172.1z M116,65.1c-5.5,0-10,4.5-10,10v72c0,5.5,4.5,10,10,10h2.4c5.5,0,10-4.5,10-10v-72
		c0-5.5-4.5-10-10-10H116z"/>
	<path d="M118.4,349.5H116c-13.8,0-25-11.2-25-25v-72c0-13.8,11.2-25,25-25h2.4c13.8,0,25,11.2,25,25v72
		C143.4,338.3,132.2,349.5,118.4,349.5z M116,242.5c-5.5,0-10,4.5-10,10v72c0,5.5,4.5,10,10,10h2.4c5.5,0,10-4.5,10-10v-72
		c0-5.5-4.5-10-10-10H116z"/>
	<path d="M95.8,279.2c-23.5-9-39.2-31.9-39.2-57v-48.1c0-25.1,15.8-48,39.2-57l5.4,14c-17.7,6.8-29.6,24-29.6,43v48.1
		c0,18.9,11.9,36.2,29.6,43L95.8,279.2z"/>
	<path d="M138.5,279.5l-5.1-14.1c18.1-6.6,30.2-24,30.2-43.2v-48.1c0-19.2-12.1-36.6-30.2-43.2l5.1-14.1c24,8.8,40.1,31.8,40.1,57.3
		v48.1C178.6,247.8,162.5,270.8,138.5,279.5z"/>
	<path d="M96.9,249.8c-8.7-6.4-13.9-16.7-13.9-27.6v-48.1c0-10.2,4.5-19.8,12.4-26.3l9.6,11.5c-4.4,3.7-7,9.1-7,14.8v48.1
		c0,6.2,2.9,11.8,7.8,15.5L96.9,249.8z"/>
	<path d="M137.5,249.8l-8.9-12.1c5-3.7,7.8-9.3,7.8-15.5v-48.1c0-5.7-2.5-11.1-7-14.8l9.6-11.5c7.9,6.5,12.4,16.1,12.4,26.3v48.1
		C151.5,233.1,146.3,243.4,137.5,249.8z"/>
	<path d="M71.3,379.9h-15v-24.5c0-25.1,15.8-48,39.2-57l5.4,14c-17.7,6.8-29.6,24-29.6,43V379.9z"/>
	<path d="M178.2,379.9h-15v-24.5c0-19.2-12.1-36.6-30.2-43.2l5.1-14.1c24,8.8,40.1,31.8,40.1,57.3V379.9z"/>
	<path d="M97.6,379.9h-15v-24.5c0-10.2,4.5-19.8,12.4-26.3l9.6,11.5c-4.4,3.7-7,9.1-7,14.8V379.9z"/>
	<path d="M151.1,379.9h-15v-24.5c0-5.7-2.5-11.1-7-14.8l9.6-11.5c7.9,6.5,12.4,16.1,12.4,26.3V379.9z"/>
	<path d="M138.9,101.4l-5.4-14c17.7-6.8,29.6-24,29.6-43V19.9h15v24.5C178.1,69.5,162.4,92.4,138.9,101.4z"/>
	<path d="M96.2,101.7c-24-8.8-40.1-31.8-40.1-57.3V19.9h15v24.5c0,19.2,12.1,36.6,30.2,43.2L96.2,101.7z"/>
	<path d="M139.4,70.8l-9.6-11.5c4.4-3.7,7-9.1,7-14.8V19.9h15v24.5C151.8,54.6,147.3,64.2,139.4,70.8z"/>
	<path d="M95.7,70.8c-7.9-6.5-12.4-16.1-12.4-26.3V19.9h15v24.5c0,5.7,2.5,11.1,7,14.8L95.7,70.8z"/>
</g>
<g>
	<path d="M283.5,262.1h-2.4c-13.8,0-25-11.2-25-25v-72c0-13.8,11.2-25,25-25h2.4c13.8,0,25,11.2,25,25v72
		C308.5,250.9,297.3,262.1,283.5,262.1z M281.1,155.2c-5.5,0-10,4.5-10,10v72c0,5.5,4.5,10,10,10h2.4c5.5,0,10-4.5,10-10v-72
		c0-5.5-4.5-10-10-10H281.1z"/>
	<path d="M282.3,80.9c-14.7,0-26.2-9.2-26.2-20.9V19.9h15V60c0,2.3,4.5,5.9,11.2,5.9s11.2-3.5,11.2-5.9V19.9h15V60
		C308.5,71.7,297,80.9,282.3,80.9z"/>
	<path d="M270.7,380l-15-0.2l0.4-35.9c0-11.6,11.5-20.8,26.2-20.8s26.2,9.2,26.2,20.9v35.9h-15V344c0-2.3-4.5-5.9-11.2-5.9
		s-11.2,3.5-11.2,5.9L270.7,380z"/>
	<path d="M260.5,370c-23.5-9-39.2-31.9-39.2-57v-48.1c0-25.1,15.8-48,39.2-57l5.4,14c-17.7,6.8-29.6,24-29.6,43V313
		c0,18.9,11.9,36.2,29.6,43L260.5,370z"/>
	<path d="M303.2,370.3l-5.1-14.1c18.1-6.6,30.2-24,30.2-43.2v-48.1c0-19.2-12.1-36.6-30.2-43.2l5.1-14.1c24,8.8,40.1,31.8,40.1,57.3
		V313C343.3,338.6,327.2,361.6,303.2,370.3z"/>
	<path d="M261.6,340.6c-8.7-6.4-13.9-16.7-13.9-27.6v-48.1c0-10.2,4.5-19.8,12.4-26.3l9.6,11.5c-4.4,3.7-7,9.1-7,14.8V313
		c0,6.2,2.9,11.8,7.8,15.5L261.6,340.6z"/>
	<path d="M302.2,340.6l-8.9-12.1c5-3.7,7.8-9.3,7.8-15.5v-48.1c0-5.7-2.5-11.1-7-14.8l9.6-11.5c7.9,6.5,12.4,16.1,12.4,26.3V313
		C316.2,323.9,311,334.2,302.2,340.6z"/>
	<path d="M260.5,192.2c-23.5-9-39.2-31.9-39.2-57V87.1c0-25.1,15.8-48,39.2-57l5.4,14c-17.7,6.8-29.6,24-29.6,43v48.1
		c0,18.9,11.9,36.2,29.6,43L260.5,192.2z"/>
	<path d="M303.2,192.5l-5.1-14.1c18.1-6.6,30.2-24,30.2-43.2V87.1c0-19.2-12.1-36.6-30.2-43.2l5.1-14.1c24,8.8,40.1,31.8,40.1,57.3
		v48.1C343.3,160.7,327.2,183.7,303.2,192.5z"/>
	<path d="M261.6,162.8c-8.7-6.4-13.9-16.7-13.9-27.6V87.1c0-10.2,4.5-19.8,12.4-26.3l9.6,11.5c-4.4,3.7-7,9.1-7,14.8v48.1
		c0,6.2,2.9,11.8,7.8,15.5L261.6,162.8z"/>
	<path d="M302.2,162.8l-8.9-12.1c5-3.7,7.8-9.3,7.8-15.5V87.1c0-5.7-2.5-11.1-7-14.8l9.6-11.5c7.9,6.5,12.4,16.1,12.4,26.3v48.1
		C316.2,146,311,156.3,302.2,162.8z"/>
</g>
</svg>
