<?xml version="1.0" encoding="utf-8"?>
<!-- Generator: Adobe Illustrator 24.1.0, SVG Export Plug-In . SVG Version: 6.00 Build 0)  -->
<svg version="1.1" id="Laag_1" xmlns="http://www.w3.org/2000/svg" xmlns:xlink="http://www.w3.org/1999/xlink" x="0px" y="0px"
	 viewBox="0 0 400 400" style="enable-background:new 0 0 400 400;" xml:space="preserve">
<style type="text/css">
	.st0{display:none;}
	.st1{display:inline;fill:none;stroke:#000000;stroke-width:15;stroke-linecap:round;stroke-miterlimit:10;}
</style>
<g class="st0">
	<path class="st1" d="M56.8,344.9c-0.5-7-0.8-14-0.8-21.1C56,174.6,177,53.6,326.2,53.6c7.5,0,11.3,0,18.6,0.6"/>
	<path class="st1" d="M147.3,344.9c-0.9-7.4-1.2-13.4-1.2-21.1c0-99.5,80.7-180.2,180.2-180.2c5.8,0,11.6,0.3,17.3,0.8"/>
	<line class="st1" x1="326.2" y1="143.7" x2="326.2" y2="53.6"/>
	<line class="st1" x1="56" y1="326.5" x2="146.1" y2="326.5"/>
	<path class="st1" d="M306.1,142.9l-62.2-66.6c-2.6-2.8-7.3-1-7.3,2.8l-1.9,82.6c-0.1,3.2-3.5,5.1-6.3,3.6L158.8,126
		c-3.5-2-7.5,1.5-6.1,5.2l29,75.7c1.1,2.9-1.2,5.9-4.3,5.7l-92.9-10l62.2,72.4c2.1,2.3,1.1,6.1-2,6.9l-88.4,25.8"/>
	<path class="st1" d="M99,96.4"/>
	<path class="st1" d="M326.2,326.5"/>
	<path class="st1" d="M326.2,89.9"/>
	<path class="st1" d="M326.2,346.4"/>
	<path class="st1" d="M372.5,326.5"/>
	<path class="st1" d="M101,326.5"/>
	<path class="st1" d="M58.5,145.1"/>
	<path class="st1" d="M326.2,326.5"/>
	<path class="st1" d="M27.5,202.7"/>
	<path class="st1" d="M326.2,326.5"/>
</g>
<path d="M89.4,257c-2,0-4-0.5-5.8-1.4l-0.1-0.1l-47.8-26.3V93.9c0-2.8,1.4-5.4,3.7-7c2.3-1.6,5.3-1.9,7.9-0.8l43.8,17.6L175.4,84
	c3.7-0.9,7.5,0,10.5,2.4c3,2.4,4.7,5.9,4.7,9.7v36.1c0,5.7-3.8,10.6-9.3,12L135,155.7l2,76.5c0.1,5.4-3.2,10.2-8.3,12l-35.3,12.2
	C92.1,256.8,90.7,257,89.4,257z M50.7,220.4l38.9,21.4l32.3-11.1l-2-76.7c-0.1-5.8,3.7-10.9,9.3-12.3l46.2-11.6V99.4l-81.3,18.9
	c-1.3,0.7-2.8,1-4.4,0.9c-1.5-0.1-2.9-0.7-4.1-1.5l-35.1-14.1V220.4z"/>
<rect x="81.5" y="111.8" width="15" height="138.1"/>
<path d="M320,267c-2.5,0-4.9-0.7-7-2.2c-3.4-2.3-5.4-6.2-5.4-10.3l1-121L178.4,98.5c-4-1.1-6.4-5.2-5.3-9.2c1.1-4,5.2-6.4,9.2-5.3
	l132.5,35.6c5.2,1.5,8.9,6.3,9,11.8v0.1l-1,119.2l29.4-11.6l0.8-126l-170-44L44.8,99.8c-4,0.9-8-1.7-8.9-5.7c-0.9-4,1.7-8,5.7-8.9
	l138.8-30.8c1.9-0.4,3.9-0.4,5.8,0.1l174.8,45.3c4.2,1.1,7.1,4.9,7.1,9.2l-0.9,132.1c0,5.1-3.1,9.5-7.8,11.4l-34.8,13.7
	C323.1,266.7,321.5,267,320,267z"/>
<path d="M318.3,267c-0.9,0-1.9-0.2-2.8-0.5l-154.1-61.8c-4.6-1.9-7.6-6.4-7.6-11.4v-52.1c0-4.1,3.4-7.5,7.5-7.5s7.5,3.4,7.5,7.5
	v50.3l152.3,61c3.8,1.5,5.7,5.9,4.2,9.8C324.1,265.2,321.3,267,318.3,267z"/>
<path d="M205.6,345.9c-13.6,0-21.9-4.6-23.9-5.9L31.9,258l-0.3-0.2c-8.5-6-12.4-12.7-11.5-19.9c1.6-12.5,17.3-18.9,20.5-20l5.2,14.1
	l-2.6-7l2.6,7c-5.2,1.9-10.5,5.8-10.8,7.9c-0.1,0.5,0.7,2.5,4.9,5.5l149.7,81.9l0.2,0.2c1.1,0.7,13.8,8.2,36.8-0.8L352,270.8
	c5.3-2.4,12.8-7.8,13-11.3c0.1-1.6-2.3-4.9-9.1-8.7l7.3-13.1c11.5,6.4,17.2,14,16.8,22.5c-0.3,6.7-4.3,12.9-11.9,18.4
	c-4.8,3.5-9.4,5.6-9.9,5.8l-125.9,56C221.9,344.5,213,345.9,205.6,345.9z"/>
<path d="M128.8,213.8c-3.3,0-6.4-2.3-7.3-5.6c-1-4,1.4-8.1,5.4-9.1l31.1-8c4-1,8.1,1.4,9.1,5.4c1,4-1.4,8.1-5.4,9.1l-31.1,8
	C130,213.8,129.4,213.8,128.8,213.8z"/>
<path d="M279.5,216.6c-1.4,0-2.8-0.2-4.2-0.7l-59.4-21.4c-4.8-1.7-8.1-6.3-8.2-11.4L207,141c-0.1-3.9,1.7-7.7,4.9-10.1
	c3.1-2.4,7.2-3.1,11-2l60.3,17.8c5.2,1.5,8.9,6.4,8.8,11.9l-0.1,45.6c0,4-2,7.8-5.3,10.1C284.5,215.9,282,216.6,279.5,216.6z
	 M222.8,181l54.1,19.5l0.1-39.9l-54.9-16.3L222.8,181z"/>
<rect x="314.3" y="111" transform="matrix(0.9211 -0.3893 0.3893 0.9211 -19.4237 141.0675)" width="48.1" height="15"/>
</svg>
