<?xml version="1.0" encoding="utf-8"?>
<!-- Generator: Adobe Illustrator 24.1.0, SVG Export Plug-In . SVG Version: 6.00 Build 0)  -->
<svg version="1.1" id="Laag_1" xmlns="http://www.w3.org/2000/svg" xmlns:xlink="http://www.w3.org/1999/xlink" x="0px" y="0px"
	 viewBox="0 0 400 400" style="enable-background:new 0 0 400 400;" xml:space="preserve">
<path d="M108.6,379.8c-2.6,0-5.2-0.8-7.4-2.5L31.5,326l-0.8-1.5c-0.7-1.4-1.6-3.2-2.3-4.6l-0.9-1.7L27.1,64.3
	c0-6.6,4.9-12.2,11.5-13l260.6-31.2c3.4-0.4,6.8,0.5,9.5,2.6l58.7,45.1c3.2,2.5,5.1,6.3,5.1,10.3v250.8c0,6.5-4.7,12-10.9,12.9
	l-251.1,37.7C109.8,379.7,109.2,379.8,108.6,379.8z M110.1,365.2L110.1,365.2C110.1,365.2,110.1,365.2,110.1,365.2z M108.2,364.8
	C108.2,364.8,108.2,364.8,108.2,364.8L108.2,364.8z M43.2,316l66,48.6l248.1-37.3V79.1l-57.3-44.1L42.1,66l0.4,248.6
	C42.7,315.1,43,315.5,43.2,316z M300.9,35L300.9,35C300.9,35,300.9,35,300.9,35z M299.5,34.6C299.5,34.6,299.5,34.6,299.5,34.6
	L299.5,34.6z"/>
<polygon points="114.8,372.5 99.8,372.5 99.8,115.9 30.7,67.5 39.3,55.2 114.8,108.1 "/>
<rect x="106.2" y="87.8" transform="matrix(0.9917 -0.1284 0.1284 0.9917 -10.2801 31.1335)" width="260.3" height="15"/>
<polygon points="105.4,165.2 30.7,113.4 39.3,101 109.2,149.6 363.9,116.5 365.9,131.4 "/>
<path d="M359.3,338.6c-22.8-14.5-45.6-28.9-68.5-43.4l-3.5-2.2V133h15v151.8c21.7,13.7,43.3,27.5,65,41.2L359.3,338.6z"/>
<rect x="35.1" y="303.8" transform="matrix(0.993 -0.1185 0.1185 0.993 -36.1908 13.8155)" width="126" height="15"/>
<g>
	<path d="M191.9,366c-2.6,0-5.1-0.8-7.2-2.2l-0.4-0.3l-25.1-22.1c-2.6-2.3-4.2-5.6-4.2-9.2l-1.8-95.3c-0.1-6.3,4.5-11.8,10.8-12.6
		l85.5-11.8c3-0.4,6.1,0.3,8.7,2l44.1,29.5v95.5c0,6.3-4.7,11.7-11,12.6l-97.7,13.7C193.1,366,192.5,366,191.9,366z M170,330.9
		l22.7,20l94.7-13.3v-85.5l-36.7-24.5l-82.4,11.3L170,330.9z M289.3,337.3C289.3,337.3,289.3,337.3,289.3,337.3L289.3,337.3z"/>
	<path d="M185.1,358.6c0-0.9-1.9-90.2-2-95.4c0,0,0-0.1,0-0.1c0,0,0,0,0,0.1c0,0,0,0,0-0.1c0,0,0,0,0,0.1c0.1,0.4,0.7,1.3,2,2
		l6.7-13.4c4.5,2.2,6.2,7.2,6.3,10.9c0.1,2.1,1.9,91.9,2,95.7L185.1,358.6z M183.1,263C183.1,263,183.1,263,183.1,263
		C183.1,263,183.1,263,183.1,263z"/>
	<path d="M191.8,267.3c-2.4,0-4.9-0.7-7-2.1l-0.6-0.4l-0.5-0.5c-5.9-5.8-23.7-23.6-24.8-24.6l5.2-5.4l-0.1-0.1l0-7.5
		c3.1,0,4.6,1.5,6.9,3.7c1,1,2.6,2.6,4.7,4.7c3.9,3.9,9.7,9.6,17.2,17.1l100.7-13.3l2,14.9l-101.9,13.5
		C193,267.3,192.4,267.3,191.8,267.3z M191.6,252.3C191.5,252.3,191.5,252.3,191.6,252.3L191.6,252.3z"/>
</g>
</svg>
