<?xml version="1.0" encoding="utf-8"?>
<!-- Generator: Adobe Illustrator 24.0.1, SVG Export Plug-In . SVG Version: 6.00 Build 0)  -->
<svg version="1.1" id="Layer_1" xmlns="http://www.w3.org/2000/svg" xmlns:xlink="http://www.w3.org/1999/xlink" x="0px" y="0px"
	 viewBox="0 0 1032 1032" style="enable-background:new 0 0 1032 1032;" xml:space="preserve">
<style type="text/css">
	.st0{fill:none;}
</style>
<g>
	<path class="st0" d="M522.7,986.8L509,971.4v12.8C513.5,985.2,518.1,986.1,522.7,986.8z"/>
	<path class="st0" d="M467.9,972v-47L276.5,709.3C282.3,829.7,360.2,931.4,467.9,972z"/>
	<path class="st0" d="M467.9,418c-98.6,37.2-172.3,125.6-188.4,232.7l188.4,212.4V418z"/>
	<path class="st0" d="M410.9,991C306.2,933.7,235,822.5,235,695c0-10.4,0.5-20.7,1.4-30.8L174,593.7V991H410.9z"/>
	<path class="st0" d="M581.2,990.8c159-4.8,286.9-135.6,286.9-295.8c0-163.2-132.8-296-296-296c-21.7,0-42.8,2.4-63.1,6.8v503.6
		L581.2,990.8z"/>
	<path class="st0" d="M174,41.1v490.7l71.4,80.4C273.8,500,358.7,410,467.9,374.4V41.1H174z"/>
	<path d="M509,984.2v-12.8L467.9,925v47C481.1,977,494.9,981.1,509,984.2z"/>
	<path d="M509,909.4V405.8c-14.1,3.1-27.8,7.2-41.1,12.2v445L509,909.4z"/>
	<path d="M174,991V593.7L143,558.9c-7.5-8.5-6.8-21.5,1.7-29c8.5-7.5,21.5-6.7,29,1.7l0.2,0.2V41.1h293.9v333.3
		c13.4-4.4,27.1-7.9,41.1-10.6V20.6C509,9.2,499.8,0,488.4,0h-335c-11.4,0-20.6,9.2-20.6,20.6v991c0,11.4,9.2,20.6,20.6,20.6h418.7
		c-58.4,0-113.3-14.9-161.2-41.1H174z"/>
	<path d="M572.1,357.9c-21.6,0-42.7,2.1-63.1,6c-14,2.7-27.8,6.2-41.1,10.6C358.7,410,273.8,500,245.3,612.2l34.1,38.5
		c16.1-107,89.8-195.5,188.4-232.7c13.3-5,27-9.1,41.1-12.2c20.3-4.4,41.5-6.8,63.1-6.8c163.2,0,296,132.8,296,296
		c0,160.2-127.8,291-286.9,295.8l6.3,7.1c7.5,8.5,6.8,21.5-1.7,29c-3.9,3.5-8.8,5.2-13.7,5.2c185.9,0,337.1-151.2,337.1-337.1
		S758,357.9,572.1,357.9z"/>
	<path d="M556.7,1025.2l-34-38.4c-4.6-0.8-9.2-1.7-13.7-2.7c-14.1-3.1-27.8-7.2-41.1-12.2c-107.7-40.7-185.6-142.4-191.4-262.7
		l-40.1-45.1c-0.9,10.2-1.4,20.4-1.4,30.8c0,127.5,71.2,238.7,175.9,296c47.9,26.2,102.9,41.1,161.2,41.1
		C566.4,1032.1,560.8,1029.7,556.7,1025.2z"/>
	<path d="M585.8,1026.9c8.5-7.5,9.3-20.5,1.7-29l-6.3-7.1L509,909.4l-41.1-46.4L279.5,650.7l-34.1-38.5L174,531.8l-0.2-0.2
		c-7.5-8.4-20.5-9.3-29-1.7c-8.5,7.5-9.3,20.5-1.7,29l30.9,34.8l62.5,70.4l40.1,45.1L467.9,925l41.1,46.4l13.7,15.5l34,38.4
		c4,4.6,9.7,6.9,15.4,6.9C577,1032.1,581.8,1030.4,585.8,1026.9z"/>
</g>
</svg>
