<svg xmlns="http://www.w3.org/2000/svg" viewBox="0 0 36.08 32.81"><defs><style>.cls-1{fill:#444;}</style></defs><title>sales</title><g id="Layer_2" data-name="Layer 2"><g id="Layer_1-2" data-name="Layer 1"><path class="cls-1" d="M31,19.64a.7.7,0,0,1-.49-1.2l2.22-2.21c3.58-3.57,1.61-8.32-1.16-11.31a13.51,13.51,0,0,0-3.2-2.58c-1-.56-5.73-2.18-8.84.85L12.9,9.81c-.32.32-.2.44-.07.56a3.34,3.34,0,0,0,4.12-.3l1.68-1.65c1.45-1.31,3.07-.82,4.5-.39,1.65.5,3.2,1,5-.47A.7.7,0,0,1,29,8.66c-2.39,1.89-4.56,1.23-6.3.71-1.46-.44-2.33-.66-3.13.07l-1.65,1.63a4.69,4.69,0,0,1-6.1.29,1.69,1.69,0,0,1,.08-2.54L18.57,2.2C22-1.14,27.13,0,29.07,1.13A14.89,14.89,0,0,1,32.62,4c3.45,3.71,5.14,9.25,1.13,13.25l-2.22,2.21A.7.7,0,0,1,31,19.64Z"/><path class="cls-1" d="M5.14,18.59a.7.7,0,0,1-.49-.21L2.43,16.17C-1.65,12.1,0,6.71,3.19,3.44c3.44-3.49,9-4.94,13.11-1l1.5,1.49a.7.7,0,1,1-1,1L15.32,3.45C11.75,0,7,1.52,4.19,4.42S0,11.78,3.42,15.18l2.21,2.21a.7.7,0,0,1-.49,1.2Z"/><path class="cls-1" d="M29.7,24a2.88,2.88,0,0,1-2.07-1l-4-4.14a.7.7,0,1,1,1-1l4,4.14c.88.91,1.58.5,1.91.18A1.59,1.59,0,0,0,30.71,20l-8.57-9a.7.7,0,1,1,1-1l8.57,9a3,3,0,0,1-.21,4.2A2.64,2.64,0,0,1,29.7,24Z"/><path class="cls-1" d="M26.44,27a2.62,2.62,0,0,1-1.91-.81l-4.41-4.53a.7.7,0,1,1,1-1l4.41,4.53a1.54,1.54,0,0,0,2.16-.14A1.33,1.33,0,0,0,27.63,23l-4.31-4.45a.7.7,0,1,1,1-1L28.63,22a2.71,2.71,0,0,1,0,4A3.26,3.26,0,0,1,26.44,27Z"/><path class="cls-1" d="M22.91,29.7A2.67,2.67,0,0,1,21,28.89l-2.2-2.22a.7.7,0,1,1,1-1L22,27.9a1.51,1.51,0,0,0,2.12-.1,1.31,1.31,0,0,0-.1-2,.7.7,0,1,1,1-1,2.7,2.7,0,0,1,.07,4A3.16,3.16,0,0,1,22.91,29.7Z"/><path class="cls-1" d="M16.4,32.81a2.74,2.74,0,0,1-1.94-.8l-.24-.24a2.73,2.73,0,0,1-.8-1.94s0-.07,0-.1A2.77,2.77,0,0,1,11,29l-.24-.24a2.74,2.74,0,0,1-.8-2A2.75,2.75,0,0,1,7.51,26l-.24-.24a2.73,2.73,0,0,1-.8-1.94c0-.08,0-.17,0-.25l-.35,0h0a2.73,2.73,0,0,1-1.94-.8L4,22.51a2.76,2.76,0,0,1,0-3.89L7,15.57a2.73,2.73,0,0,1,1.94-.8h0a2.73,2.73,0,0,1,1.94.8l.24.24a2.72,2.72,0,0,1,.75,1.42l.26-.26a2.74,2.74,0,0,1,1.94-.8h0A2.73,2.73,0,0,1,16,17h0l.24.24a2.75,2.75,0,0,1,.29,3.54,2.72,2.72,0,0,1,1.46.76l.24.24a2.76,2.76,0,0,1,.43,3.33,2.73,2.73,0,0,1,1.48.76h0l.24.24a2.76,2.76,0,0,1,0,3.89l-2,2A2.74,2.74,0,0,1,16.4,32.81Zm1.81-6.38a1.35,1.35,0,0,0-1,.39l-2,2a1.36,1.36,0,0,0,0,1.91l.24.24a1.37,1.37,0,0,0,1.91,0l2-2a1.36,1.36,0,0,0,0-1.91l-.24-.24A1.35,1.35,0,0,0,18.21,26.44Zm-2.14-4.33a1.34,1.34,0,0,0-1,.39l-3.33,3.33a1.35,1.35,0,0,0,0,1.91L12,28a1.39,1.39,0,0,0,1.91,0l3.33-3.33a1.35,1.35,0,0,0,0-1.91L17,22.5A1.34,1.34,0,0,0,16.06,22.11Zm-2-4.54h0a1.34,1.34,0,0,0-1,.39L8.26,22.82a1.36,1.36,0,0,0,0,1.91L8.5,25a1.37,1.37,0,0,0,1.91,0l4.86-4.86a1.35,1.35,0,0,0,0-1.91L15,18A1.34,1.34,0,0,0,14.08,17.57Zm-5.13-1.4h0a1.34,1.34,0,0,0-1,.39L4.94,19.61a1.36,1.36,0,0,0,0,1.91l.24.24a1.39,1.39,0,0,0,1.91,0l3.05-3.05a1.36,1.36,0,0,0,0-1.91l-.24-.24A1.34,1.34,0,0,0,8.95,16.17Z"/></g></g></svg>