<?xml version="1.0" encoding="utf-8"?>
<!-- Generator: Adobe Illustrator 24.1.0, SVG Export Plug-In . SVG Version: 6.00 Build 0)  -->
<svg version="1.1" id="Laag_1" xmlns="http://www.w3.org/2000/svg" xmlns:xlink="http://www.w3.org/1999/xlink" x="0px" y="0px"
	 viewBox="0 0 400 400" style="enable-background:new 0 0 400 400;" xml:space="preserve">
<g>
	<path d="M319,375.3h-24.6c-6.9,0-12.6-6.2-12.6-13.8v-35.1h15v33.9h19.8l0-35h15v36.2C331.6,369.1,325.9,375.3,319,375.3z"/>
	<path d="M329.8,332.7H182.9c-6.3,0-11.5-5.2-11.5-11.5v-144h15v140.5h139.8l0-210.8h15l0,214.2c0.1,3-1.1,5.9-3.2,8.1
		C335.9,331.4,332.9,332.7,329.8,332.7z"/>
	<path d="M218.4,375.3h-24.6c-6.9,0-12.6-6.2-12.6-13.8v-35.1h15v33.9H216l0-35h15v36.2C231,369.1,225.3,375.3,218.4,375.3z"/>
</g>
<g>
	<path d="M55,240.4c-3.7,0-6.3-0.8-7.2-1.2c-3.9-1.3-6.7-4-8.3-7.6c-3.3-7.8,0.8-17.4,1.6-19.2l0.2-0.4l0.3-0.4
		c3.1-5,2.1-7.8,1.8-8.5l-1.1-1.1l0-1.1l-2.5-7.8c-6.5-14.9-3.2-37-2.6-40.6l1.2-12c-1.2-7.9-11.9-11.8-12.1-11.8l-3.3-1.1l-1.3-3.2
		c-3-7.7-1.3-13.4,0.7-16.8c4.7-8.3,15-10.7,17.6-11.2l45.5-12.6l56.3-14.1c0,0,0,0,0,0l212.4-53.1c4-1,8.1,1.4,9.1,5.5
		s-1.4,8.1-5.5,9.1L153.2,82.1l7.6,23.2c2.9,11.6-0.3,22.4-1,24.8l-19,78.1C133.4,236.8,93,235,91.3,235l-0.4,0
		c-7.4-0.8-19.6,1.7-24.6,2.9C62.1,239.8,58.2,240.4,55,240.4z M53.2,225.3c0.9,0.2,3.6,0.6,7-1.2l0.8-0.4l0.8-0.2
		c1.9-0.5,18.6-4.6,30.4-3.5c1.1,0,8.8,0.2,16.7-1.8c9.9-2.5,15.7-7.1,17.5-13.7l19.1-78.6l0.1-0.4c0,0,2.8-8.1,0.8-16.2l-7.7-23.4
		L89.2,98.1l-46,12.8l-0.4,0.1c-2.4,0.4-6.4,2-7.5,3.9c-0.1,0.2-0.3,0.5-0.3,1.2c6.1,3,17.1,10.3,18.2,23.6l0.1,0.7l-1.4,14.3
		c-1,5.8-2.6,23.1,1.7,32.6l0.3,0.8l2.3,7.2c2.7,4.5,4.7,13.4-1.6,23.8C53.7,221.1,53.1,223.9,53.2,225.3z"/>
	<path d="M160.8,222.5l-29.5-9.1c-4-1.2-6.2-5.4-4.9-9.4c1.2-4,5.4-6.2,9.4-4.9l16.6,5.1l16.6-38.5l36.5,13l6.9-38.8l41.4,7.9
		l4-39.2l37.6,12l5.7-36l32,13.6l11.4-32.9l17.1,5.4l-12.7-45.1c-1.1-4,1.2-8.1,5.2-9.3c4-1.1,8.1,1.2,9.3,5.2l20.2,71.8l-29.7-9.3
		l-11.9,34.4l-29-12.4l-5.4,34.2l-36.6-11.7l-3.8,37.1l-42.5-8.1l-7.3,41.3l-39.9-14.2L160.8,222.5z"/>
	<path d="M94.1,199.9c-5.5,0-10.3-2.2-12.1-3.2c-12.5-4.9-13.6-17.6-12.3-23.8l0-0.2c3.5-15.1,0.2-32.4,0.2-32.6l-0.1-0.6
		c-1.6-15.2,7.7-22.2,14.7-23.5c10.2-2.7,18.6,2.3,21.1,4c15.7,8.6,12.3,34.9,11.6,39.4c-1.4,19.3-6,28.4-7.4,30.7
		c-2.3,4.6-5.9,7.7-10.5,9C97.6,199.7,95.8,199.9,94.1,199.9z M84.4,175.9c-0.3,1.6-0.5,5.6,3.3,6.9l0.7,0.2l0.6,0.4
		c1.5,0.9,4.5,1.8,6,1.4c0.2-0.1,0.8-0.2,1.4-1.6l0.3-0.6l0.2-0.2c0.4-0.8,4.2-7.9,5.3-24.3l0.1-0.7c1.4-8.6,0.8-21.8-4.1-24.2
		l-0.7-0.4l-0.5-0.4c0,0,0,0,0,0c0,0-4.3-3.1-8.8-1.8l-0.9,0.3l-0.2,0c-1.9,0.6-2.8,3-2.4,6.8C85.3,140.6,88.3,158.9,84.4,175.9z"/>
</g>
</svg>
