<?xml version="1.0" encoding="utf-8"?>
<!-- Generator: Adobe Illustrator 24.1.0, SVG Export Plug-In . SVG Version: 6.00 Build 0)  -->
<svg version="1.1" id="Laag_1" xmlns="http://www.w3.org/2000/svg" xmlns:xlink="http://www.w3.org/1999/xlink" x="0px" y="0px"
	 viewBox="0 0 400 400" style="enable-background:new 0 0 400 400;" xml:space="preserve">
<g>
	<path d="M350.2,180.2c-3.3,0-6.5-1.3-8.8-3.7l-118-118c-4.9-4.9-4.9-12.8,0-17.7l17.2-17.2c2.4-2.4,5.5-3.7,8.8-3.7
		s6.5,1.3,8.8,3.7l118,118c2.4,2.4,3.7,5.5,3.7,8.8c0,3.3-1.3,6.5-3.7,8.8l-17.2,17.2C356.7,178.9,353.6,180.2,350.2,180.2z
		 M352,166L352,166L352,166z M235.8,49.8l114.4,114.4l13.7-13.7L249.5,36.1L235.8,49.8z"/>
	<path d="M270.3,239.3c-3.3,0-6.5-1.3-8.8-3.7l-97.1-97.1c-4.9-4.9-4.9-12.8,0-17.7l62.4-62.4c2.4-2.4,5.5-3.7,8.8-3.7
		s6.5,1.3,8.8,3.7l97.1,97.1c2.4,2.4,3.7,5.5,3.7,8.8s-1.3,6.5-3.7,8.8l-62.4,62.4C276.8,238,273.7,239.3,270.3,239.3z M176.7,129.7
		l93.6,93.6l58.9-58.9l-93.6-93.6L176.7,129.7z"/>
	<path d="M207.8,336.5c-3.2,0-6.4-1.2-8.8-3.7L67.1,201c-4.9-4.9-4.9-12.8,0-17.7l72.8-72.8c4.9-4.9,12.8-4.9,17.7,0l131.9,131.9
		c4.9,4.9,4.9,12.8,0,17.7l-72.8,72.8C214.2,335.3,211,336.5,207.8,336.5z M79.5,192.2l128.3,128.3l69.3-69.3L148.8,122.9
		L79.5,192.2z"/>
	<path d="M173.1,350.4c-3.3,0-6.5-1.3-8.8-3.7l-111-111c-2.4-2.4-3.7-5.5-3.7-8.8s1.3-6.5,3.7-8.8l17.2-17.2
		c2.4-2.4,5.5-3.7,8.8-3.7c3.3,0,6.5,1.3,8.8,3.7l111,111c2.4,2.4,3.7,5.5,3.7,8.8s-1.3,6.5-3.7,8.8l-17.2,17.2
		C179.6,349.1,176.4,350.4,173.1,350.4z M65.6,226.9l107.5,107.5l13.7-13.7L79.3,213.2L65.6,226.9z"/>
	<path d="M119.2,380c-3.3,0-6.5-1.3-8.8-3.7l-86.7-86.7c-2.4-2.4-3.7-5.5-3.7-8.8s1.3-6.5,3.7-8.8l34.6-34.6
		c4.9-4.9,12.8-4.9,17.7,0l86.7,86.7c2.4,2.4,3.7,5.5,3.7,8.8s-1.3,6.5-3.7,8.8l-34.6,34.6C125.7,378.7,122.6,380,119.2,380z
		 M36.1,280.8l83.2,83.2l31.1-31.1l-83.2-83.2L36.1,280.8z"/>
	<path d="M44.6,362.9c-1.9,0-3.8-0.7-5.3-2.2c-2.9-2.9-2.9-7.7,0-10.6l27.8-27.8c2.9-2.9,7.7-2.9,10.6,0c2.9,2.9,2.9,7.7,0,10.6
		l-27.8,27.8C48.4,362.2,46.5,362.9,44.6,362.9z"/>
	<path d="M162.7,244.8c-1.9,0-3.8-0.7-5.3-2.2c-2.9-2.9-2.9-7.7,0-10.6l55.6-55.6c2.9-2.9,7.7-2.9,10.6,0c2.9,2.9,2.9,7.7,0,10.6
		L168,242.6C166.5,244.1,164.6,244.8,162.7,244.8z"/>
	<path d="M127.9,210.1c-1.9,0-3.8-0.7-5.3-2.2c-2.9-2.9-2.9-7.7,0-10.6l55.6-55.6c2.9-2.9,7.7-2.9,10.6,0c2.9,2.9,2.9,7.7,0,10.6
		l-55.6,55.6C131.8,209.4,129.8,210.1,127.9,210.1z"/>
	<path d="M197.4,279.6c-1.9,0-3.8-0.7-5.3-2.2c-2.9-2.9-2.9-7.7,0-10.6l55.6-55.6c2.9-2.9,7.7-2.9,10.6,0c2.9,2.9,2.9,7.7,0,10.6
		l-55.6,55.6C201.2,278.8,199.3,279.6,197.4,279.6z"/>
	<path d="M295.6,215.7c-1.7,0-3.4-0.6-4.8-1.7l-67.2-55.5c-4.6-3.8-7.5-9.2-8-15.2s1.3-11.8,5.3-16.4l1.9-2.2
		c7.7-9,21.2-10.4,30.6-3.1l72.5,56.2c3.3,2.5,3.9,7.2,1.3,10.5c-2.5,3.3-7.3,3.9-10.5,1.3l-72.5-56.2c-3.1-2.4-7.4-1.9-10,1
		l-1.9,2.2c-1.3,1.5-1.9,3.4-1.7,5.3s1.1,3.7,2.6,5l67.2,55.5c3.2,2.6,3.6,7.4,1,10.6C299.9,214.8,297.8,215.7,295.6,215.7z"/>
</g>
</svg>
