<?xml version="1.0" encoding="utf-8"?>
<!-- Generator: Adobe Illustrator 24.1.0, SVG Export Plug-In . SVG Version: 6.00 Build 0)  -->
<svg version="1.1" id="Laag_1" xmlns="http://www.w3.org/2000/svg" xmlns:xlink="http://www.w3.org/1999/xlink" x="0px" y="0px"
	 viewBox="0 0 400 400" style="enable-background:new 0 0 400 400;" xml:space="preserve">
<image style="display:none;overflow:visible;" width="512" height="512" xlink:href="../../../../../../Downloads/fabric.png"  transform="matrix(0.6738 0 0 0.6738 27.5 27.5)">
</image>
<path d="M296.8,379.7c-39.8,0-72.3-32.4-72.3-72.3s32.4-72.3,72.3-72.3s72.3,32.4,72.3,72.3S336.7,379.7,296.8,379.7z M296.8,250.2
	c-31.6,0-57.3,25.7-57.3,57.3c0,31.6,25.7,57.3,57.3,57.3c31.6,0,57.3-25.7,57.3-57.3C354.1,275.9,328.4,250.2,296.8,250.2z"/>
<path d="M296.8,340.9c-18.4,0-33.4-15-33.4-33.4s15-33.4,33.4-33.4s33.4,15,33.4,33.4S315.3,340.9,296.8,340.9z M296.8,289.1
	c-10.1,0-18.4,8.3-18.4,18.4c0,10.1,8.3,18.4,18.4,18.4c10.1,0,18.4-8.3,18.4-18.4C315.2,297.3,307,289.1,296.8,289.1z"/>
<path d="M369.1,307.5h-15V92.3c0-31.6-25.7-57.3-57.3-57.3c-31.6,0-57.3,25.7-57.3,57.3v215.2h-15V92.3c0-39.8,32.4-72.3,72.3-72.3
	s72.3,32.4,72.3,72.3V307.5z"/>
<path d="M297.4,380H43.6c-7,0-12.7-5.7-12.7-12.7V97.9c0-7,5.7-12.7,12.7-12.7h188.5v15H45.9V365h251.5V380z"/>
</svg>
