<?xml version="1.0" encoding="utf-8"?>
<!-- Generator: Adobe Illustrator 24.1.0, SVG Export Plug-In . SVG Version: 6.00 Build 0)  -->
<svg version="1.1" id="Laag_1" xmlns="http://www.w3.org/2000/svg" xmlns:xlink="http://www.w3.org/1999/xlink" x="0px" y="0px"
	 viewBox="0 0 400 400" style="enable-background:new 0 0 400 400;" xml:space="preserve">
<g>
	<path d="M115.3,380.2c-3.2,0-6.4-1.2-8.8-3.7h0l-82.2-82.2c-2.4-2.4-3.7-5.5-3.7-8.8s1.3-6.5,3.7-8.8L207.9,93
		c4.9-4.9,12.8-4.9,17.7,0l82.2,82.2c4.9,4.9,4.9,12.8,0,17.7L124.1,376.6C121.7,379,118.5,380.2,115.3,380.2z M36.6,285.5
		l78.7,78.7l180.1-180.1l-78.7-78.7L36.6,285.5z"/>
	<path d="M305.7,191.2c-2,0-3.9-0.8-5.3-2.2l-88.7-88.6c-1.9-1.9-2.6-4.7-1.9-7.3c0.7-2.6,2.8-4.6,5.4-5.3L257,77.3l65.9-55.5
		c3-2.5,7.4-2.3,10.1,0.4l44,44c2.7,2.7,2.9,7,0.6,10l-53.9,67.5L313,185.6c-0.7,2.6-2.7,4.7-5.3,5.4
		C307,191.1,306.4,191.2,305.7,191.2z M231.7,99.2l70,69.9l7.8-30.7c0.3-1,0.7-2,1.4-2.8L361.6,72l-34.4-34.4l-62,52.2
		c-0.9,0.7-1.9,1.3-3,1.5L231.7,99.2z"/>
	<circle cx="302.1" cy="98.7" r="16.8"/>
</g>
</svg>
