<svg xmlns="http://www.w3.org/2000/svg" viewBox="0 0 35.41 31.61"><defs><style>.cls-1{fill:#444;}</style></defs><title>small_business_industries</title><g id="Layer_2" data-name="Layer 2"><g id="Layer_1-2" data-name="Layer 1"><path class="cls-1" d="M5.71,31.61A2.5,2.5,0,0,1,3.19,29.9L.07,18.25a2.26,2.26,0,0,1,.41-1.93A3.15,3.15,0,0,1,2.2,15.18L28.84,8a3.14,3.14,0,0,1,2.06.13,2.26,2.26,0,0,1,1.32,1.46l3.12,11.65a2.26,2.26,0,0,1-.41,1.93,3.15,3.15,0,0,1-1.72,1.14L6.57,31.49A3.31,3.31,0,0,1,5.71,31.61ZM2.56,16.53a1.77,1.77,0,0,0-1,.62.89.89,0,0,0-.18.73L4.54,29.54c.14.52.92.8,1.67.6L32.85,23a1.76,1.76,0,0,0,1-.62.89.89,0,0,0,.19-.73L30.87,10a.89.89,0,0,0-.53-.54,1.78,1.78,0,0,0-1.14-.06L2.56,16.53Zm-.18-.68h0Z"/><path class="cls-1" d="M13.13,4.86a2.43,2.43,0,1,1,2.43-2.43A2.44,2.44,0,0,1,13.13,4.86Zm0-3.46a1,1,0,1,0,1,1A1,1,0,0,0,13.13,1.4Z"/><path class="cls-1" d="M25.25,10.09A.7.7,0,0,1,24.9,10L14.34,3.9A.7.7,0,1,1,15,2.69L25.6,8.79a.7.7,0,0,1-.35,1.31Z"/><path class="cls-1" d="M5.55,15.37a.7.7,0,0,1-.61-1L11,3.76a.7.7,0,0,1,1.21.7L6.16,15A.7.7,0,0,1,5.55,15.37Z"/><path class="cls-1" d="M20.39,22.86a.7.7,0,0,1-.68-.52l-1.58-5.92a.7.7,0,0,1,1.35-.36L21.07,22a.7.7,0,0,1-.49.86Z"/><path class="cls-1" d="M18.81,16.94a.7.7,0,0,1-.18-1.38l3.24-.87a.7.7,0,1,1,.36,1.35L19,16.92Z"/><path class="cls-1" d="M19.6,19.9a.7.7,0,0,1-.18-1.38L22,17.84a.69.69,0,0,1,.86.49.7.7,0,0,1-.49.86l-2.55.68Z"/><path class="cls-1" d="M20.39,22.86a.7.7,0,0,1-.18-1.38l3.24-.87A.7.7,0,0,1,23.81,22l-3.24.87Z"/><path class="cls-1" d="M26.59,21.18a.7.7,0,0,1-.68-.52l-1.58-5.92a.7.7,0,0,1,1.17-.68l3.33,3.3-.95-3.89a.7.7,0,0,1,1.36-.33l1.54,6.29a.7.7,0,0,1-1.17.66l-3.26-3.22.92,3.42a.7.7,0,0,1-.5.86Z"/><path class="cls-1" d="M8.19,26.32a3,3,0,0,1-1.87-.71A4.9,4.9,0,0,1,4.9,20.29a2.87,2.87,0,0,1,1.88-1.8c1.67-.45,3.49.93,4.06,3.06h0c.57,2.14-.32,4.24-2,4.68A2.55,2.55,0,0,1,8.19,26.32ZM7.43,19.8a1.13,1.13,0,0,0-.29,0,1.47,1.47,0,0,0-.94,1,3.51,3.51,0,0,0,1,3.72,1.47,1.47,0,0,0,1.29.36c.91-.24,1.36-1.6,1-3h0C9.16,20.69,8.26,19.8,7.43,19.8Z"/><path class="cls-1" d="M13.42,24.64a.7.7,0,0,1-.68-.52L11.16,18.2a.7.7,0,0,1,.41-.83c.31-.13,3.09-1.21,4.66-.51a1.81,1.81,0,0,1,1,1.05,2.26,2.26,0,0,1-.07,2c-.54.94-1.77,1.34-3.58,1.69h-.07l.59,2.19a.7.7,0,0,1-.5.86Zm-.74-6.18.48,1.78.16-.05c1.07-.21,2.34-.5,2.63-1,0-.07.15-.26,0-.79a.41.41,0,0,0-.25-.25A5.34,5.34,0,0,0,12.68,18.46Z"/></g></g></svg>