<?xml version="1.0" encoding="utf-8"?>
<!-- Generator: Adobe Illustrator 24.1.0, SVG Export Plug-In . SVG Version: 6.00 Build 0)  -->
<svg version="1.1" id="Laag_1" xmlns="http://www.w3.org/2000/svg" xmlns:xlink="http://www.w3.org/1999/xlink" x="0px" y="0px"
	 viewBox="0 0 400 400" style="enable-background:new 0 0 400 400;" xml:space="preserve">
<g>
	<path d="M367.5,351.6H168c-5.6,0-10.6-3.8-12-9.2l-34.7-128.9c-1-3.8-0.2-7.7,2.1-10.8c2.4-3.1,6-4.9,9.9-4.9h133.8
		c4.1,0,7.5,3.4,7.5,7.5s-3.4,7.5-7.5,7.5H136.6L170,336.6h195V212.7l-13.8-0.4c-4.1-0.1-7.4-3.6-7.3-7.7c0.1-4.1,3.6-7.4,7.7-7.3
		l16.1,0.4c6.8,0.1,12.3,5.6,12.3,12.5v128.9C380,346,374.4,351.6,367.5,351.6z M367.5,212.8L367.5,212.8L367.5,212.8z"/>
	<path d="M151.5,304.5h-33.3c-6.9,0-12.5-5.6-12.5-12.5v-34.7c0-6.9,5.6-12.5,12.5-12.5h21.3v15h-18.7v29.6h30.7V304.5z"/>
	<path d="M309.5,293.5c-18,0-32.7-14.7-32.7-32.7s14.7-32.7,32.7-32.7s32.7,14.7,32.7,32.7S327.5,293.5,309.5,293.5z M309.5,243.2
		c-9.7,0-17.7,7.9-17.7,17.7s7.9,17.7,17.7,17.7s17.7-7.9,17.7-17.7S319.2,243.2,309.5,243.2z"/>
	<path d="M332.9,241.6h-15V125c0-4.1-3.3-7.4-7.4-7.4h-2.5c-4.1,0-7.4,3.3-7.4,7.4v116.6h-15V125c0-12.3,10-22.4,22.4-22.4h2.5
		c12.3,0,22.4,10,22.4,22.4V241.6z"/>
	<path d="M246.4,245.2c-4.1,0-7.5-3.4-7.5-7.5v-32.1c0-4.1,3.4-7.5,7.5-7.5s7.5,3.4,7.5,7.5v32.1
		C253.9,241.9,250.6,245.2,246.4,245.2z"/>
	<path d="M213.4,245.2c-4.1,0-7.5-3.4-7.5-7.5v-32.1c0-4.1,3.4-7.5,7.5-7.5s7.5,3.4,7.5,7.5v32.1
		C220.9,241.9,217.5,245.2,213.4,245.2z"/>
	<path d="M182.2,245.2c-4.1,0-7.5-3.4-7.5-7.5v-32.1c0-4.1,3.4-7.5,7.5-7.5s7.5,3.4,7.5,7.5v32.1
		C189.7,241.9,186.3,245.2,182.2,245.2z"/>
</g>
<g>
	<path d="M98.8,293.5c-27.8,0-51.7-15.2-54.8-17.2c-0.2-0.2-0.6-0.4-1.1-0.8c-17.1-14.7-24.7-30.6-22.6-47.4
		c2.8-22.2,22.2-37.3,24.7-38.6c11.5-5.7,14.2-10.6,14.8-11.9l-0.1-1.2l0.5-0.2c4.7-14.7,3.6-24.2,3.5-25.2
		c-0.1-0.6-0.1-1.2-0.1-1.9l0.2-10c0-13.6,7.6-23.2,20.2-25.9c3.1-12.9,14.3-18.5,21.4-20.7c4-23.2,25.5-32.4,37.2-33.9
		c6.5-0.8,12.7,0.1,16.9,1c10.8-10.8,26.8-11.2,27.6-11.2l0.1,0l0.1,0c31.9,0.3,42.7,25.5,44,38.9c3,25.2-18.3,39.1-26.8,43.6
		c-1.2,14.3-10.3,23.5-24.5,25c-3.2,17.9-19.4,22.1-27.8,21.8c-11.6-0.3-19.2-7.7-22.5-11.9h-6.9c-7.3,1.1-12.6,4-15.9,8.5
		c-5.8,7.9-4.1,18.8-4,19.3c0,0.3,0.1,0.5,0.1,0.7c1.2,10.9-1.1,19.6-6.8,26c-7.6,8.5-18.4,9.4-21.9,9.4c-2,0.4-3.7,1.2-4,1.7
		c0,0,0,0,0,0c0,0-0.4,4.2,11.3,15.1c0.3,0.3,0.7,0.6,1.1,1.1c0.6,0.5,7,5.1,31.2,6.5c4.1,0.2,7.3,3.8,7.1,7.9
		c-0.2,4.1-3.8,7.3-7.9,7.1c-27.6-1.6-37.9-7.2-41.7-11.6c-8.3-7.7-18.8-19.1-15.4-30.4c2.8-9.3,13.1-11.7,16.2-12.2
		c0.6-0.1,1.2-0.2,1.9-0.2c0.3,0,7.2-0.1,11.1-4.4c2.7-3,3.7-7.9,3-14.4c-0.5-2.8-2.4-18,6.7-30.4c5.8-7.9,14.5-12.8,25.9-14.5
		c0.6-0.1,1.3-0.1,1.9-0.1h8.3c3.9,0,7.7,1.9,10,5c1.9,2.5,5.8,6.7,11.7,6.9l0.1,0c2.6,0.1,11.5-0.5,12.7-10.7
		c0.7-6.1,5.6-10.7,11.7-11c10.8-0.6,12.3-7.4,12.5-12.4c0.2-4.5,2.9-8.5,6.9-10.5c6.6-3.3,21.8-12.7,19.9-29.2l0-0.2
		c-0.3-2.5-3.3-25.1-29-25.4c-0.9,0-13.2,0.8-19,9l-3.2,4.6l-5.4-1.9c-0.1,0-7.7-2.6-15-1.7c-1.4,0.2-23.9,3.9-24.8,25.4l-0.3,6.3
		l-6.2,0.8c-0.1,0-13.2,2-14.8,11.6c-0.9,5.3-5.1,9.3-10.3,10.1c-8.3,1.3-9.4,6.8-9.4,11.5l0,0.1l-0.2,9.9c0.4,3.4,1.2,14.7-3.9,31
		c-0.7,3.7-4.4,13.4-22.4,22.4c-2,1.5-16.4,13.5-17.2,29.4c-0.5,10.7,5.3,21.4,17.4,31.8c2.9,1.9,31.4,19.8,59.1,13.2
		c4-1,8.1,1.5,9,5.6c1,4-1.5,8.1-5.6,9C109.5,293,104.1,293.5,98.8,293.5z M82.6,247.7c0,0,0.1,0.1,0.1,0.1
		C82.6,247.8,82.6,247.8,82.6,247.7z M78.5,149C78.5,149,78.5,149,78.5,149C78.5,149,78.5,149,78.5,149z"/>
	<path d="M131.4,127c-0.1,0-0.2,0-0.3,0c-4.1-0.1-7.4-3.6-7.2-7.7c0.4-10.8-10.5-12.9-12.7-13.2c-4.1-0.5-7-4.3-6.4-8.4
		c0.5-4.1,4.3-7,8.4-6.4c0.7,0.1,6.7,1,12.7,4.6c8.7,5.3,13.3,13.8,12.9,24C138.7,123.8,135.4,127,131.4,127z"/>
	<path d="M181.6,107.8c-0.1,0-0.2,0-0.3,0c-4.1-0.2-7.4-3.7-7.2-7.8c0.7-16.1-15-25-15.7-25.3c-3.6-2-4.9-6.5-3-10.2
		c2-3.6,6.5-5,10.1-3c1,0.5,24.5,13.6,23.5,39.1C188.9,104.6,185.6,107.8,181.6,107.8z"/>
	<path d="M172.9,156c-0.5,0-0.9,0-1.4-0.1c-8-1.5-23.2-9.4-23.5-28.7c-0.1-4.1,3.2-7.6,7.4-7.6c4.1-0.1,7.6,3.2,7.6,7.4
		c0.2,11.3,9.5,13.9,11.4,14.2c4.1,0.8,6.7,4.7,6,8.7C179.6,153.5,176.4,156,172.9,156z"/>
	<path d="M126.3,160.9c-0.4-1-2.1-6.5-0.3-14.9c0.9-4,4.9-6.6,8.9-5.7c4,0.9,6.6,4.9,5.7,8.9c-0.9,4.2-0.2,6.7-0.2,6.8
		c0-0.1-0.1-0.2-0.1-0.2L126.3,160.9z"/>
</g>
</svg>
