<?xml version="1.0" encoding="utf-8"?>
<!-- Generator: Adobe Illustrator 24.1.0, SVG Export Plug-In . SVG Version: 6.00 Build 0)  -->
<svg version="1.1" id="Laag_1" xmlns="http://www.w3.org/2000/svg" xmlns:xlink="http://www.w3.org/1999/xlink" x="0px" y="0px"
	 viewBox="0 0 400 400" style="enable-background:new 0 0 400 400;" xml:space="preserve">
<g>
	<path d="M69.5,301.9c-2.3,0-4.6-0.6-6.5-1.8l-15.4-9.5c-5.9-3.6-9.4-9.9-10-17.6c-0.3-4.9,0.6-9,0.8-9.8l6.5-26.2
		c3.5-12.8,14.5-16.5,19.9-16.7l0.2,0h29.4l-22.8-14.2c-13.1-7.9-12.4-15.6-11.4-18.8l7.6-29.3c3.8-12.2,13.7-15.5,18.9-15.5h24.9
		l-19.3-13.1c-10.5-6.3-11.8-15.3-10.9-19.7l1.6-8.8c0.7-4,4.3-7,8.4-7h68.2c7.4,0,9.2-2.9,9.5-3.5l6.2-24.1l0.2-0.4
		c4-10.5,3.3-14.9,2.9-16L162,37l-8.7,38.8c-0.9,4-4.9,6.6-9,5.7c-4-0.9-6.6-4.9-5.7-9l9.6-42.7c1-4.2,4-7.6,8.1-9.1
		c4.1-1.4,8.6-0.7,11.9,2l20,16c1.3,1,4,3.7,4.9,9.3c1,6-0.2,13.7-3.7,22.9l-6.1,23.6c-1.4,5.4-8.1,14.4-23.9,14.4H96.7l-0.6,3.2
		c0,0.4,0.4,2.3,4,4.5l0.4,0.2l59.9,40.6H86.8c-0.8,0.1-3.3,0.7-4.7,4.8L74.9,190c0.6,0.7,1.8,1.9,4.4,3.4l43.7,27.2
		c3,1.9,4.4,5.6,3.5,9c-1,3.4-4.1,5.8-7.7,5.8H65.2c-1.2,0.1-4.6,0.9-5.9,5.5L52.9,267c0,0-1.9,8.2,2.4,10.8l12.5,7.7l9.7-38.5
		l40.4,0c1.3,0,8.2-0.3,10.3-7.8l6.2-26.1c-0.7-0.7-2.1-1.8-4.7-3.3l-8.1-4.6c-3.6-2-4.9-6.6-2.8-10.2c2-3.6,6.6-4.9,10.2-2.8
		l8.1,4.6c4.6,2.6,14.7,9.5,12.3,17.8l-6.7,28.4c-4.2,15.6-18.2,19.2-25.2,19H89.2l-7.7,30.5c-1,3.8-3.7,7-7.4,8.5
		C72.6,301.6,71,301.9,69.5,301.9z M86.6,157.5c0,0,0.1,0,0.2,0H86.6z M169,90.5c0,0.1-0.1,0.2-0.1,0.2L169,90.5z"/>
	<path d="M83.4,262c-0.1,0-0.2,0-0.3,0l-34.9-1.2c-4.1-0.1-7.4-3.6-7.2-7.8s3.6-7.4,7.8-7.2l34.9,1.2c4.1,0.1,7.4,3.6,7.2,7.8
		C90.7,258.8,87.4,262,83.4,262z"/>
	<path d="M138.6,235.4h-18c-4.1,0-7.5-3.4-7.5-7.5s3.4-7.5,7.5-7.5h18c4.1,0,7.5,3.4,7.5,7.5S142.7,235.4,138.6,235.4z"/>
	<path d="M141.8,185.6c-0.4,0-0.7,0-1,0H70.3c-4.1,0-7.5-3.4-7.5-7.5s3.4-7.5,7.5-7.5h71.2l0.1,0c2.3,0.1,6.1-0.6,7-5.8
		c1.8-10.1,4.4-23.1,5.5-28.2c-0.5-0.7-1.5-1.9-3.5-3.3l-6.6-4.7c-3.4-2.4-4.2-7.1-1.8-10.5c2.4-3.4,7.1-4.2,10.5-1.8l6.6,4.6
		c8.9,6.2,10,12.6,10.2,14.4l0.1,1l-0.2,1c0,0.2-3.5,17.3-5.8,30C160.7,181.9,148.8,185.6,141.8,185.6z M154.5,137.4L154.5,137.4
		L154.5,137.4z"/>
	<path d="M159,157.5H136c-4.1,0-7.5-3.4-7.5-7.5s3.4-7.5,7.5-7.5H159c4.1,0,7.5,3.4,7.5,7.5S163.2,157.5,159,157.5z"/>
	<path d="M90.4,109c-0.7,0-1.5-0.1-2.2-0.3c-4-1.2-6.2-5.4-5-9.4L88.2,83c3.7-13.4,15.9-16.9,21.9-16.9l70.9,0.5
		c4.1,0,7.5,3.4,7.4,7.6c0,4.1-3.4,7.4-7.5,7.4c0,0,0,0-0.1,0l-70.7-0.5c-1.5,0.1-6.1,0.7-7.5,5.9l-0.1,0.2l-5,16.4
		C96.6,106.9,93.6,109,90.4,109z"/>
</g>
<g>
	<path d="M303.9,380c-0.9,0-1.7-0.1-2.6-0.3l-25.1-5.2c-1.7-0.3-5.2-1.5-8.6-6.1c-3.6-4.9-6-12.3-7.1-22.1l-5.3-23.8
		c-1.2-5.5,0.7-16.5,14.8-23.7l56-28.5l-0.9-3.2c-0.2-0.4-1.4-1.9-5.6-2.2l-0.4,0l-71.8-9.1l65.6-33.4c0.7-0.5,2.7-2.1,2-6.4
		l-6.1-27.8c-0.8-0.3-2.5-0.8-5.5-1l-51.3-4.5c-3.5-0.3-6.5-3-7.2-6.5c-0.7-3.5,1.1-7,4.2-8.7l47.8-24.3c1-0.7,3.7-2.9,2.8-7.6
		l-6.1-26.2c0,0-2-8.2-7.1-8.6l-14.7-1.2l8.8,38.7l-36,18.3c-1.1,0.6-7.2,3.9-5.6,11.6l6.3,26.1c1,0.3,2.7,0.7,5.7,0.8l9.3,0.4
		c4.1,0.2,7.3,3.7,7.1,7.8c-0.2,4.1-3.7,7.3-7.8,7.1l-9.3-0.4c-5.2-0.2-17.4-1.8-19.1-10.3l-6.9-28.4c-3.3-15.8,7.5-25.4,13.9-28.4
		l25.2-12.8l-7-30.6c-0.9-3.9,0.1-8,2.7-11c2.6-3,6.5-4.6,10.5-4.3l18,1.4c6.9,0.5,12.9,4.5,16.9,11.2c2.5,4.2,3.5,8.3,3.7,9.1
		l6.1,26.3c2.7,13-5.5,21.3-10.2,23.9l-0.2,0.1l-26.2,13.3l26.8,2.3c15.3,1.1,18.2,8.3,18.7,11.6l6.5,29.6c2.1,12.6-5.2,20-9.8,22.4
		l-22.2,11.3l23.2,2.9c12.2,0.9,17.5,8.3,18.7,12.6l2.6,8.5c1.2,3.9-0.6,8.2-4.3,10l-60.8,30.9c-6.6,3.3-6.9,6.8-6.9,7.4l5.4,24.2
		l0,0.4c1.2,11.2,3.9,14.8,4.7,15.6l20.4,4.2l-9.8-38.5c-1-4,1.4-8.1,5.4-9.1c4-1,8.1,1.4,9.1,5.4l10.8,42.4
		c1.1,4.2-0.1,8.6-3.1,11.7C310.5,378.6,307.2,380,303.9,380z M301.4,368.1L301.4,368.1L301.4,368.1z M269.9,319.4l0,0.2
		C269.9,319.5,269.9,319.4,269.9,319.4z M325.1,267.4L325.1,267.4L325.1,267.4z M312.9,222.6c0,0,0,0-0.1,0.1L312.9,222.6
		L312.9,222.6L312.9,222.6z"/>
	<path d="M271.9,142.2c-2.8,0-5.5-1.6-6.8-4.3c-1.7-3.8-0.1-8.2,3.6-10l31.6-14.7c3.8-1.7,8.2-0.1,10,3.6s0.1,8.2-3.6,10L275,141.5
		C274,142,272.9,142.2,271.9,142.2z"/>
	<path d="M234.7,190.9c-2.7,0-5.4-1.5-6.7-4.1c-1.9-3.7-0.4-8.2,3.3-10.1l16.1-8.2c3.7-1.9,8.2-0.4,10.1,3.3
		c1.9,3.7,0.4,8.2-3.3,10.1l-16.1,8.2C237,190.7,235.9,190.9,234.7,190.9z"/>
	<path d="M273.9,289.2c-0.4,0-0.7,0-1.1-0.1l-8-1.2c-10.8-1.5-14.7-6.7-15.6-8.2l-0.5-0.9l-0.3-1c0-0.2-4.7-17.1-8.4-29.4
		c-4.4-14.8,5.7-23.6,11.9-26.3l62.9-32c3.7-1.9,8.2-0.4,10.1,3.3c1.9,3.7,0.4,8.2-3.3,10.1l-63.4,32.3l-0.1,0c-2,1-5.1,3.3-3.6,8.3
		c3,9.9,6.5,22.6,7.9,27.6c0.8,0.4,2.2,1,4.6,1.3l8,1.2c4.1,0.6,6.9,4.4,6.3,8.5C280.7,286.5,277.5,289.2,273.9,289.2z"/>
	<path d="M251.8,269.6c-2.7,0-5.4-1.5-6.7-4.1c-1.9-3.7-0.4-8.2,3.3-10.1l20.5-10.4c3.7-1.9,8.2-0.4,10.1,3.3
		c1.9,3.7,0.4,8.2-3.3,10.1l-20.5,10.4C254.1,269.3,252.9,269.6,251.8,269.6z"/>
	<path d="M266.7,347.2c-2.8,0-5.4-1.5-6.7-4.2c-1.8-3.7-0.3-8.2,3.4-10.1l63.3-31.6c1.3-0.7,5.1-3.4,4-8.7l0-0.2l-3-16.9
		c-0.7-4.1,2-8,6.1-8.7c4.1-0.7,8,2,8.7,6.1l3,16.8c2.8,13.6-6.5,22.3-11.9,25L270,346.4C269,347,267.8,347.2,266.7,347.2z"/>
</g>
<g>
	<path d="M120,366c-4.1,0-7.5-3.4-7.5-7.5v-30c0-4.1,3.4-7.5,7.5-7.5s7.5,3.4,7.5,7.5v30C127.5,362.6,124.1,366,120,366z"/>
	<path d="M134.6,351h-30c-4.1,0-7.5-3.4-7.5-7.5s3.4-7.5,7.5-7.5h30c4.1,0,7.5,3.4,7.5,7.5S138.7,351,134.6,351z"/>
</g>
<g>
	<path d="M340.5,85.1c-4.1,0-7.5-3.4-7.5-7.5v-30c0-4.1,3.4-7.5,7.5-7.5s7.5,3.4,7.5,7.5v30C348,81.7,344.6,85.1,340.5,85.1z"/>
	<path d="M355,70.1h-30c-4.1,0-7.5-3.4-7.5-7.5s3.4-7.5,7.5-7.5h30c4.1,0,7.5,3.4,7.5,7.5S359.2,70.1,355,70.1z"/>
</g>
<g>
	<path d="M184.4,323c-3.7,0-6.9-2.7-7.4-6.4c-0.1-0.5-0.3-2.3-0.3-4.8c-0.6-6.1-2.5-10.5-5.7-13.1c-3.3-2.8-7.7-3.3-10.4-3.4
		c-1.2,0.1-2.4,0.2-3.6,0.2c-3.9,0.2-7.3-2.8-7.7-6.7c-0.4-3.9,2.3-7.5,6.2-8.2c0.5-0.1,2.1-0.3,4.5-0.4c6.1-0.7,10.6-2.8,13.3-6
		c2.7-3.2,3.4-7.3,3.5-9.9c-0.1-1.2-0.1-2.4-0.1-3.7c0-3.9,3-7.2,6.9-7.5c3.9-0.3,7.4,2.4,8,6.3c0.1,0.5,0.3,2.1,0.3,4.5
		c0.5,5.4,2.3,9.5,5.3,12.2c4,3.6,9.5,4.3,12.2,4.4c0.8,0,1.5,0,2.3,0c4,0,7.3,3.1,7.5,7.1c0.2,4-2.8,7.4-6.8,7.8
		c-0.4,0-1.5,0.1-3.1,0.1c-6.3,0.3-11,2.2-13.8,5.4c-2.9,3.3-3.6,7.7-3.7,10.5c0.1,1.3,0.1,2.6,0.2,3.9c0,3.9-3,7.2-6.9,7.5
		C184.8,323,184.6,323,184.4,323z M181.2,287.5c1.2,1,2.3,2.1,3.2,3.3c1-1.1,2.1-2.1,3.2-3.1c-0.2-0.1-0.3-0.3-0.4-0.4
		c-1-0.9-2-1.9-2.8-2.9C183.4,285.6,182.3,286.6,181.2,287.5z"/>
</g>
</svg>
