<?xml version="1.0" encoding="utf-8"?>
<!-- Generator: Adobe Illustrator 24.1.0, SVG Export Plug-In . SVG Version: 6.00 Build 0)  -->
<svg version="1.1" id="Laag_1" xmlns="http://www.w3.org/2000/svg" xmlns:xlink="http://www.w3.org/1999/xlink" x="0px" y="0px"
	 viewBox="0 0 400 400" style="enable-background:new 0 0 400 400;" xml:space="preserve">
<g>
	<g>
		<path d="M277.1,380H131.8c-6.9,0-12.5-5.6-12.5-12.5V247.3c0-6.9,5.6-12.5,12.5-12.5h145.2c6.9,0,12.5,5.6,12.5,12.5v120.2
			C289.6,374.4,284,380,277.1,380z M134.3,365h140.3V249.8H134.3V365z"/>
		<path d="M208.7,213.9c-4.1,0-7.5-3.4-7.5-7.5c0-36.1-10.4-68.5-19.1-89.3c-10.9-26-25.5-49.1-40-63.2c-3-2.9-3-7.6-0.2-10.6
			c2.9-3,7.6-3,10.6-0.2c30.9,30,63.7,97.4,63.7,163.2C216.2,210.5,212.8,213.9,208.7,213.9z"/>
		<path d="M173.6,212.4c-3.9,0-7.2-3-7.5-6.9c-3.4-43.3-15.4-67.9-47.6-97.3c-3.1-2.8-3.3-7.5-0.5-10.6c2.8-3.1,7.5-3.3,10.6-0.5
			c35,32,48.7,60.1,52.4,107.2c0.3,4.1-2.8,7.7-6.9,8.1C174,212.4,173.8,212.4,173.6,212.4z"/>
		<path d="M114,154.1c-2.3,0-4.6-1-6-3c-13.6-18.4-27.3-23.5-40-26.4c-4-0.9-6.6-4.9-5.7-9s4.9-6.6,9-5.7
			c14.8,3.3,32.1,9.7,48.8,32.1c2.5,3.3,1.8,8-1.6,10.5C117.1,153.7,115.6,154.1,114,154.1z"/>
		<path d="M133.6,212.6c-2.9,0-5.6-1.6-6.8-4.4c-7.3-16.3-34.6-30-62.1-31.2c-4.1-0.2-7.3-3.7-7.2-7.8c0.2-4.1,3.7-7.3,7.8-7.2
			c33.8,1.5,65.4,18.3,75.1,40c1.7,3.8,0,8.2-3.8,9.9C135.7,212.4,134.6,212.6,133.6,212.6z"/>
		<path d="M225.1,140.3c-0.5,0-1-0.1-1.5-0.2c-4.1-0.8-6.7-4.8-5.8-8.9c10.2-48.8,27-81.4,56.1-109.2c3-2.9,7.7-2.7,10.6,0.3
			c2.9,3,2.7,7.7-0.3,10.6c-26.8,25.5-42.2,55.8-51.8,101.4C231.7,137.9,228.5,140.3,225.1,140.3z"/>
		<path d="M231.3,213.9c-0.8,0-1.6-0.1-2.5-0.4c-3.9-1.4-6-5.6-4.6-9.5c16.5-47.6,37.1-69.4,69.5-93c3.3-2.4,8-1.7,10.5,1.6
			c2.4,3.3,1.7,8-1.6,10.5c-30.6,22.3-48.9,41.7-64.2,85.8C237.3,211.9,234.4,213.9,231.3,213.9z"/>
		<path d="M271.9,213.9c-1.7,0-3.4-0.6-4.8-1.7c-3.2-2.7-3.6-7.4-1-10.6c14.5-17.5,31.5-30,50.3-37.3c16.9-6.5,35.4-8.8,55.1-6.9
			c4.1,0.4,7.1,4.1,6.7,8.2c-0.4,4.1-4.1,7.1-8.2,6.7c-36.8-3.6-67.9,9.4-92.4,38.8C276.2,212.9,274.1,213.9,271.9,213.9z"/>
		<path d="M328.2,143c-2.2,0-4.4-1-5.9-2.9c-2.6-3.3-2-8,1.3-10.5c14.6-11.5,24.2-15.8,42.9-19.6c4.1-0.8,8,1.8,8.8,5.9
			c0.8,4.1-1.8,8-5.9,8.8c-16.4,3.3-23.9,6.7-36.6,16.7C331.5,142.5,329.8,143,328.2,143z"/>
	</g>
	<g>
		<circle cx="110.3" cy="74.1" r="8.3"/>
		<circle cx="196.6" cy="70" r="8.3"/>
		<circle cx="285.3" cy="84.1" r="8.3"/>
		<circle cx="343.1" cy="90.5" r="8.3"/>
		<circle cx="37.4" cy="137.9" r="8.3"/>
		<circle cx="81.5" cy="205.1" r="8.3"/>
		<circle cx="323.9" cy="204.4" r="8.3"/>
	</g>
</g>
</svg>
