<?xml version="1.0" encoding="utf-8"?>
<!-- Generator: Adobe Illustrator 24.1.0, SVG Export Plug-In . SVG Version: 6.00 Build 0)  -->
<svg version="1.1" id="Laag_1" xmlns="http://www.w3.org/2000/svg" xmlns:xlink="http://www.w3.org/1999/xlink" x="0px" y="0px"
	 viewBox="0 0 400 400" style="enable-background:new 0 0 400 400;" xml:space="preserve">
<g>
	<path d="M367.5,379.2H166.7c-6.9,0-12.5-5.6-12.5-12.5V32.9c0-6.9,5.6-12.5,12.5-12.5h200.8c6.9,0,12.5,5.6,12.5,12.5v333.8
		C380,373.6,374.4,379.2,367.5,379.2z M169.2,364.2H365V35.4H169.2V364.2z"/>
	<path d="M234.6,181.7c-18.1,0-32.9-14.7-32.9-32.9c0-18.1,14.7-32.9,32.9-32.9s32.9,14.7,32.9,32.9
		C267.4,166.9,252.7,181.7,234.6,181.7z M234.6,130.9c-9.8,0-17.9,8-17.9,17.9c0,9.8,8,17.9,17.9,17.9c9.8,0,17.9-8,17.9-17.9
		C252.4,139,244.4,130.9,234.6,130.9z"/>
	<path d="M302.4,284.8c-18.1,0-32.9-14.7-32.9-32.9s14.7-32.9,32.9-32.9s32.9,14.7,32.9,32.9S320.6,284.8,302.4,284.8z M302.4,234.1
		c-9.8,0-17.9,8-17.9,17.9s8,17.9,17.9,17.9c9.8,0,17.9-8,17.9-17.9S312.3,234.1,302.4,234.1z"/>
	<path d="M234.6,130.9c-4.1,0-7.5-3.4-7.5-7.5V77.9c0-4.1,3.4-7.5,7.5-7.5s7.5,3.4,7.5,7.5v45.6
		C242.1,127.6,238.7,130.9,234.6,130.9z"/>
	<path d="M234.6,329.3c-4.1,0-7.5-3.4-7.5-7.5V174.2c0-4.1,3.4-7.5,7.5-7.5s7.5,3.4,7.5,7.5v147.6
		C242.1,325.9,238.7,329.3,234.6,329.3z"/>
	<path d="M302.4,234.1c-4.1,0-7.5-3.4-7.5-7.5V78.2c0-4.1,3.4-7.5,7.5-7.5s7.5,3.4,7.5,7.5v148.4
		C309.9,230.7,306.6,234.1,302.4,234.1z"/>
	<path d="M302.4,329.6c-4.1,0-7.5-3.4-7.5-7.5v-44.8c0-4.1,3.4-7.5,7.5-7.5s7.5,3.4,7.5,7.5v44.8
		C309.9,326.2,306.6,329.6,302.4,329.6z"/>
</g>
<g>
	<path d="M139.1,306c-25.1,0-45.5-20.4-45.5-45.5s20.4-45.5,45.5-45.5c9.8,0,19.2,3.1,27.1,8.9c3.3,2.5,4,7.2,1.6,10.5
		c-2.5,3.3-7.2,4-10.5,1.6c-5.3-3.9-11.6-6-18.2-6c-16.8,0-30.5,13.7-30.5,30.5s13.7,30.5,30.5,30.5c6.6,0,12.9-2.1,18.2-6
		c3.3-2.5,8-1.8,10.5,1.6c2.5,3.3,1.8,8-1.6,10.5C158.3,302.9,148.9,306,139.1,306z"/>
	<path d="M115.1,159l-3.3-14.6c16.5-3.8,34-3.9,50.6-0.6l-3,14.7C144.8,155.6,129.5,155.7,115.1,159z"/>
	<path d="M50.7,204.2l-12.6-8.1c9.5-14.8,22.5-27.5,37.5-36.8l7.9,12.7C70.4,180.1,59.1,191.2,50.7,204.2z"/>
	<path d="M22.4,287.9c-2-8.5-2.4-17.2-2.4-27.7c0-8.6,1-17.3,3.2-26.5l14.6,3.4c-1.9,8.1-2.8,15.7-2.8,23.2c0,9.5,0.3,17.2,2,24.3
		L22.4,287.9z"/>
	<path d="M75.6,361.7c-15-9.3-27.9-22-37.5-36.8l12.6-8.1c8.3,13,19.7,24.1,32.8,32.2L75.6,361.7z"/>
	<path d="M138.3,379.6c-9,0-17.9-1-26.6-3l3.3-14.6c14.7,3.3,30.4,3.4,45.1,0.3l3.1,14.7C155.2,378.7,146.7,379.6,138.3,379.6z"/>
	<path d="M96.1,191.9c-2.6,0-5.2-1.4-6.5-3.8c-2-3.6-0.8-8.2,2.8-10.2c6.9-3.9,12.2-5.7,19-7.6c4-1.1,8.1,1.2,9.2,5.2
		c1.1,4-1.2,8.1-5.2,9.2c-6,1.7-10.1,3.1-15.7,6.3C98.6,191.5,97.3,191.9,96.1,191.9z"/>
	<path d="M54.1,242.8c-0.7,0-1.5-0.1-2.2-0.3c-4-1.2-6.2-5.4-5-9.4c1.9-6.1,4.3-12,7.4-17.6c2-3.6,6.5-5,10.2-3c3.6,2,5,6.5,3,10.2
		c-2.6,4.7-4.7,9.7-6.2,14.8C60.3,240.8,57.3,242.8,54.1,242.8z"/>
	<path d="M61.6,310.6c-2.2,0-4.4-1-5.9-2.9c-4.5-5.7-8.1-12.5-10.2-19.3c-1.2-4,1-8.2,4.9-9.4c4-1.2,8.2,1,9.4,4.9
		c1.6,5,4.3,10.1,7.7,14.5c2.6,3.3,2,8-1.3,10.5C64.8,310,63.2,310.6,61.6,310.6z"/>
	<path d="M113.4,351.1c-0.7,0-1.3-0.1-2-0.3c-6.9-1.9-12.2-3.8-19-7.6c-3.6-2-4.9-6.6-2.8-10.2c2-3.6,6.6-4.9,10.2-2.8
		c5.6,3.2,9.7,4.6,15.7,6.3c4,1.1,6.3,5.2,5.2,9.2C119.7,348.9,116.7,351.1,113.4,351.1z"/>
	<path d="M113.4,184.9c-4.1,0-7.5-3.4-7.5-7.5v-25.7c0-4.1,3.4-7.5,7.5-7.5s7.5,3.4,7.5,7.5v25.7
		C120.9,181.6,117.6,184.9,113.4,184.9z"/>
	<path d="M96.1,191.9c-2.1,0-4.1-0.9-5.6-2.5l-16.5-18.8c-2.7-3.1-2.4-7.8,0.7-10.6c3.1-2.7,7.8-2.4,10.6,0.7l16.5,18.8
		c2.7,3.1,2.4,7.8-0.7,10.6C99.6,191.2,97.8,191.9,96.1,191.9z"/>
	<path d="M60.9,226.7c-2.1,0-4.2-0.9-5.7-2.6l-16.5-19c-2.7-3.1-2.4-7.9,0.8-10.6c3.1-2.7,7.9-2.4,10.6,0.8l16.5,19
		c2.7,3.1,2.4,7.9-0.8,10.6C64.4,226.1,62.6,226.7,60.9,226.7z"/>
	<path d="M54.1,242.8H30.5c-4.1,0-7.5-3.4-7.5-7.5s3.4-7.5,7.5-7.5h23.6c4.1,0,7.5,3.4,7.5,7.5S58.2,242.8,54.1,242.8z"/>
	<path d="M52.7,293.7h-23c-4.1,0-7.5-3.4-7.5-7.5s3.4-7.5,7.5-7.5h23c4.1,0,7.5,3.4,7.5,7.5S56.8,293.7,52.7,293.7z"/>
	<path d="M44.4,328.3c-1.9,0-3.8-0.7-5.2-2.1c-3-2.9-3.1-7.6-0.2-10.6l17.2-17.8c2.9-3,7.6-3.1,10.6-0.2c3,2.9,3.1,7.6,0.2,10.6
		L49.8,326C48.4,327.6,46.4,328.3,44.4,328.3z"/>
	<path d="M79.6,362.9c-1.8,0-3.5-0.6-5-1.9c-3.1-2.7-3.4-7.5-0.7-10.6l16.5-18.7c2.7-3.1,7.5-3.4,10.6-0.7c3.1,2.7,3.4,7.5,0.7,10.6
		l-16.5,18.7C83.7,362,81.6,362.9,79.6,362.9z"/>
	<path d="M113.4,376.8c-4.1,0-7.5-3.4-7.5-7.5v-25.7c0-4.1,3.4-7.5,7.5-7.5s7.5,3.4,7.5,7.5v25.7
		C120.9,373.4,117.6,376.8,113.4,376.8z"/>
</g>
</svg>
