<svg xmlns="http://www.w3.org/2000/svg" viewBox="0 0 34.28 34.28"><defs><style>.cls-1{fill:#444;}</style></defs><title>sports_careers</title><g id="Layer_2" data-name="Layer 2"><g id="Layer_1-2" data-name="Layer 1"><path class="cls-1" d="M17.14,34.28A17.14,17.14,0,1,1,34.28,17.14,17.16,17.16,0,0,1,17.14,34.28Zm0-32.88A15.74,15.74,0,1,0,32.88,17.14,15.76,15.76,0,0,0,17.14,1.4Z"/><path class="cls-1" d="M6.05,29.88a.7.7,0,0,1-.7-.66q0-.71,0-1.43A27.2,27.2,0,0,1,24.62,1.88.7.7,0,1,1,25,3.22,25.79,25.79,0,0,0,6.72,27.79q0,.68,0,1.35a.7.7,0,0,1-.66.74Z"/><path class="cls-1" d="M30.44,27.59a.7.7,0,0,1-.64-.42,37.28,37.28,0,0,0-23.67-21,.7.7,0,1,1,.4-1.34A38.67,38.67,0,0,1,31.08,26.62a.7.7,0,0,1-.64,1Z"/><path class="cls-1" d="M33.48,19.65a.7.7,0,0,1-.7-.68c-.17-5.1-1.82-7.88-5.33-9a15.57,15.57,0,0,0-3.74-.67,11.89,11.89,0,0,1-6.93-2.57C15,5.45,12.7,3.85,13.19.83a.7.7,0,1,1,1.38.23c-.33,2,1,3.09,3,4.52a10.48,10.48,0,0,0,6.25,2.32,17,17,0,0,1,4,.74C32,9.95,34,13.21,34.18,18.92a.7.7,0,0,1-.68.72Z"/><path class="cls-1" d="M19.89,34.05a.7.7,0,0,1-.55-.27,19.49,19.49,0,0,1-4.48-11c-.41-3.2-.73-5.72-4.83-9.08A5,5,0,0,0,6.2,12.27c-1.6.21-3.24,1.44-4.85,3.66a.7.7,0,1,1-1.13-.82C2.07,12.56,4,11.14,6,10.89a6.31,6.31,0,0,1,4.9,1.7c4.53,3.72,4.92,6.76,5.33,10a18.07,18.07,0,0,0,4.19,10.35.7.7,0,0,1-.55,1.13Z"/></g></g></svg>