<?xml version="1.0" encoding="utf-8"?>
<!-- Generator: Adobe Illustrator 24.1.0, SVG Export Plug-In . SVG Version: 6.00 Build 0)  -->
<svg version="1.1" id="Laag_1" xmlns="http://www.w3.org/2000/svg" xmlns:xlink="http://www.w3.org/1999/xlink" x="0px" y="0px"
	 viewBox="0 0 400 400" style="enable-background:new 0 0 400 400;" xml:space="preserve">
<g>
	<path d="M254.9,327.2L27.8,274.8l39.1-169.1l64.3,14.8c4,0.9,6.6,5,5.6,9c-0.9,4-5,6.6-9,5.6l-49.7-11.4L45.8,263.6l197.9,45.6
		L276,169.3l-52.8-12.2c-4-0.9-6.5-5-5.6-9c0.9-4,5-6.5,9-5.6l67.4,15.6L254.9,327.2z"/>
	<path d="M176.2,253.4c-23.3,0-42.2-18.9-42.2-42.2c0-23.3,18.9-42.2,42.2-42.2s42.2,18.9,42.2,42.2
		C218.4,234.5,199.5,253.4,176.2,253.4z M176.2,184c-15,0-27.2,12.2-27.2,27.2s12.2,27.2,27.2,27.2s27.2-12.2,27.2-27.2
		S191.2,184,176.2,184z"/>
	<path d="M318.3,377.4c-2.7,0-5.4-0.9-7.7-2.7L245,322.8l9.3-11.8l62.5,49.4l47.4-206.2L286.6,171l-3.2-14.7l81.5-17.7
		c4.1-0.9,8.4,0.3,11.5,3.3c3,3,4.3,7.4,3.4,11.6l-49.2,214.1c-0.9,4.1-3.9,7.5-7.9,8.9C321.2,377.1,319.8,377.4,318.3,377.4z
		 M315.9,364.3C315.9,364.4,315.9,364.4,315.9,364.3L315.9,364.3z M368.1,153.3L368.1,153.3C368.1,153.3,368.1,153.3,368.1,153.3z"
		/>
	<path d="M206.9,184.5h-15V52.1c0-7.9-6.4-14.3-14.3-14.3h-2c-7.9,0-14.3,6.4-14.3,14.3v132.4h-15V52.1c0-16.2,13.1-29.3,29.3-29.3
		h2c16.2,0,29.3,13.1,29.3,29.3V184.5z"/>
	<path d="M36.6,247c-14.8-22-19.8-43.3-14.7-63.4c8.1-32,38.9-48.4,40.2-49.1l6.9,13.3c-0.3,0.1-26.3,14.1-32.7,39.6
		c-3.9,15.7,0.3,32.9,12.6,51.2L36.6,247z"/>
</g>
</svg>
