<?xml version="1.0" encoding="utf-8"?>
<!-- Generator: Adobe Illustrator 24.1.0, SVG Export Plug-In . SVG Version: 6.00 Build 0)  -->
<svg version="1.1" id="Laag_1" xmlns="http://www.w3.org/2000/svg" xmlns:xlink="http://www.w3.org/1999/xlink" x="0px" y="0px"
	 viewBox="0 0 400 400" style="enable-background:new 0 0 400 400;" xml:space="preserve">
<style type="text/css">
	.st0{fill:none;stroke:#000000;stroke-width:15;stroke-miterlimit:10;}
</style>
<g>
	<path class="st0" d="M307.7,262.3"/>
	<path d="M317.5,145C283,145,255,117,255,82.5S283,20,317.5,20S380,48,380,82.5S352,145,317.5,145z M317.5,35
		C291.3,35,270,56.3,270,82.5s21.3,47.5,47.5,47.5S365,108.7,365,82.5S343.7,35,317.5,35z"/>
	<path class="st0" d="M181.1,174.3"/>
	<path d="M82.5,145C48,145,20,117,20,82.5S48,20,82.5,20S145,48,145,82.5S117,145,82.5,145z M82.5,35C56.3,35,35,56.3,35,82.5
		S56.3,130,82.5,130S130,108.7,130,82.5S108.7,35,82.5,35z"/>
	<path d="M317.5,380c-34.5,0-62.5-28-62.5-62.5s28-62.5,62.5-62.5s62.5,28,62.5,62.5S352,380,317.5,380z M317.5,270
		c-26.2,0-47.5,21.3-47.5,47.5s21.3,47.5,47.5,47.5s47.5-21.3,47.5-47.5S343.7,270,317.5,270z"/>
	<path d="M82.5,380C48,380,20,352,20,317.5S48,255,82.5,255s62.5,28,62.5,62.5S117,380,82.5,380z M82.5,270
		C56.3,270,35,291.3,35,317.5S56.3,365,82.5,365s47.5-21.3,47.5-47.5S108.7,270,82.5,270z"/>
	<rect x="288.1" y="134.9" width="15" height="130.2"/>
	<rect x="333.1" y="134.9" width="15" height="130.2"/>
	<rect x="97.5" y="134.9" width="15" height="130.2"/>
	<rect x="52.5" y="134.9" width="15" height="130.2"/>
	<rect x="134.9" y="97.5" width="130.2" height="15"/>
	<rect x="134.9" y="52.5" width="130.2" height="15"/>
	<rect x="134.9" y="287.5" width="130.2" height="15"/>
	<rect x="134.9" y="332.5" width="130.2" height="15"/>
	<rect x="105.3" y="208.9" transform="matrix(0.7071 -0.7071 0.7071 0.7071 -89.6414 216.4187)" width="222.4" height="15"/>
	<rect x="73.4" y="177.1" transform="matrix(0.7071 -0.7071 0.7071 0.7071 -76.4613 184.6012)" width="222.4" height="15"/>
</g>
</svg>
