<?xml version="1.0" encoding="utf-8"?>
<!-- Generator: Adobe Illustrator 24.1.0, SVG Export Plug-In . SVG Version: 6.00 Build 0)  -->
<svg version="1.1" id="Laag_1" xmlns="http://www.w3.org/2000/svg" xmlns:xlink="http://www.w3.org/1999/xlink" x="0px" y="0px"
	 viewBox="0 0 400 400" style="enable-background:new 0 0 400 400;" xml:space="preserve">
<path d="M349.4,379.8H31.3c-4.1,0-7.6-2.9-8.4-7c-0.7-4,1.5-8,5.3-9.5l336.8-129c3.9-1.5,8.2-1,11.6,1.4c3.4,2.3,5.4,6.2,5.4,10.3
	v101.2C382,365.1,367.4,379.8,349.4,379.8z M66.4,364.8h283c9.7,0,17.6-7.9,17.6-17.6v-97.6L66.4,364.8z"/>
<path d="M162.2,321c-59.5,0-107.9-48.4-107.9-107.9c0-25.9,9.3-50.9,26.2-70.4c16.7-19.4,39.7-32.2,64.8-36.1l2.3,14.8
	c-21.6,3.4-41.4,14.5-55.8,31.1c-14.5,16.8-22.5,38.4-22.5,60.6c0,51.2,41.7,92.9,92.9,92.9c35.9,0,68.9-21,84.2-53.5l13.6,6.4
	C242.2,296.6,203.8,321,162.2,321z"/>
<path d="M161.8,283c-38.7,0-70.3-31.5-70.3-70.3c0-16,5.5-31.7,15.6-44.1c9.9-12.3,23.8-20.9,39.1-24.4l3.3,14.6
	c-25.3,5.7-43,27.9-43,53.9c0,30.5,24.8,55.3,55.3,55.3c26.9,0,49.8-19.2,54.4-45.7l14.8,2.6C225.2,258.6,196,283,161.8,283z"/>
<path d="M273.6,281c-6.7,0-13.3-3.1-17.5-8.8l-36.6-49.1h-63c-9.7,0-17.5-7.9-17.5-17.5v-98.1c0-12.3,10-22.3,22.3-22.3
	c12.3,0,22.3,10,22.3,22.3v9.1h24.7c12.4,0,22.5,10.1,22.5,22.5c0,12.4-10.1,22.5-22.5,22.5h-24.7v14.8h49c3.9,0,7.6,1.8,9.9,4.9
	l49.1,64.2c3.7,4.8,5.2,10.9,4.2,16.9c-1,5.9-4.4,11.3-9.4,14.6l-0.6,0.4C282,279.8,277.8,281,273.6,281z M161.2,100.1
	c-4,0-7.3,3.3-7.3,7.3v98.1c0,1.4,1.1,2.5,2.5,2.5h64.2c3.9,0,7.7,1.9,10,5l37.3,50.1c2.2,2.9,6.3,3.6,9.3,1.6l0.6-0.4
	c1.6-1.1,2.6-2.7,3-4.6s-0.2-3.8-1.3-5.3l-48.3-63.2h-50.2c-6.9,0-12.5-5.6-12.5-12.5v-19.7c0-6.9,5.6-12.5,12.5-12.5h27.1
	c4.2,0,7.5-3.4,7.5-7.5c0-4.2-3.4-7.5-7.5-7.5h-27.1c-6.9,0-12.5-5.6-12.5-12.5v-11.6C168.5,103.4,165.3,100.1,161.2,100.1z"/>
<path d="M160.8,79.9c-16.6,0-30.1-13.5-30.1-30.1s13.5-30.1,30.1-30.1s30.1,13.5,30.1,30.1S177.4,79.9,160.8,79.9z M160.8,34.8
	c-8.3,0-15.1,6.8-15.1,15.1s6.8,15.1,15.1,15.1s15.1-6.8,15.1-15.1S169.2,34.8,160.8,34.8z"/>
</svg>
