<?xml version="1.0" encoding="utf-8"?>
<!-- Generator: Adobe Illustrator 24.1.0, SVG Export Plug-In . SVG Version: 6.00 Build 0)  -->
<svg version="1.1" id="Laag_1" xmlns="http://www.w3.org/2000/svg" xmlns:xlink="http://www.w3.org/1999/xlink" x="0px" y="0px"
	 viewBox="0 0 400 400" style="enable-background:new 0 0 400 400;" xml:space="preserve">
<style type="text/css">
	.st0{fill:none;stroke:#000000;stroke-width:15;stroke-linejoin:round;stroke-miterlimit:10;}
	.st1{fill:none;stroke:#000000;stroke-width:15;stroke-miterlimit:10;}
</style>
<path class="st0" d="M366.9,359.6H33.1c-3.1,0-5.6-2.5-5.6-5.5v-93.9c0-3.1,2.5-5.5,5.6-5.5h333.7c3.1,0,5.6,2.5,5.6,5.5v93.9
	C372.5,357.1,370,359.6,366.9,359.6z"/>
<rect x="267.7" y="220.8" class="st0" width="84.6" height="33.8"/>
<path class="st1" d="M228.8,235c0,0-3.4-65.4-2.3-82.3c0,0,32.9-37.4,45.7-90.5c0,0,1.6-10.3-9.7-16.2c0,0-14-7-19.9,7
	c-6,14-8,33.9-26.7,61.2l-2.9,3.8c0,0-27-17.1-44,14.5l-2.8,2.9c0,0,0.5-11.4-13-14.5c0,0-12.2-3.7-17.4,9c0,0-5.1,24.3-6.8,43.9
	c0,0-1.5,14.8,11.4,18.3c0,0,8.9,3.8,19.9-8.2l6.2-5.3l0.2-0.1l0.7,23.1l1.8,32.9l0,0.2L228.8,235z"/>
<circle class="st1" cx="182" cy="65.8" r="26.5"/>
<rect x="47.5" y="220.2" class="st0" width="85" height="35"/>
</svg>
