<?xml version="1.0" encoding="utf-8"?>
<!-- Generator: Adobe Illustrator 24.1.0, SVG Export Plug-In . SVG Version: 6.00 Build 0)  -->
<svg version="1.1" id="Laag_1" xmlns="http://www.w3.org/2000/svg" xmlns:xlink="http://www.w3.org/1999/xlink" x="0px" y="0px"
	 viewBox="0 0 400 400" style="enable-background:new 0 0 400 400;" xml:space="preserve">
<style type="text/css">
	.st0{fill:none;stroke:#000000;stroke-width:15;stroke-miterlimit:10;}
</style>
<path class="st0" d="M32.7,219.4"/>
<path d="M78.1,379.7c-3,0-5-1.4-6.1-2.5L22.8,328c-1.5-1.4-4.4-5.6-0.6-12.4c1.3-2.3,3.2-4.8,5.6-7.2L308.8,27.3
	c11.1-11.1,17.4-7.2,19.6-5l49.3,49.3c1.5,1.5,4.4,5.6,0.6,12.4c-1.3,2.3-3.2,4.8-5.6,7.2L91.6,372.3
	C85.8,378,81.4,379.7,78.1,379.7z M36.7,320.8l42.5,42.5c0.5-0.4,1.1-1,1.8-1.6L362.1,80.6c0.6-0.6,1.2-1.2,1.6-1.8l-42.5-42.5
	c-0.5,0.4-1.1,1-1.8,1.6L38.3,319C37.7,319.6,37.2,320.2,36.7,320.8z"/>
<path class="st0" d="M156.5,157.7"/>
<path class="st0" d="M153.9,175.3"/>
<path d="M78.5,380.2c-3.3,0-6.5-1.3-8.8-3.7l-46.2-46.2c-4.9-4.9-4.9-12.8,0-17.7l30.1-30.1c4.9-4.9,12.8-4.9,17.7,0l46.2,46.2
	c2.4,2.4,3.7,5.5,3.7,8.8s-1.3,6.5-3.7,8.8l-30.1,30.1C85,378.9,81.9,380.2,78.5,380.2z M80.3,365.9L80.3,365.9
	C80.3,365.9,80.3,365.9,80.3,365.9z M35.9,321.5l42.7,42.7l26.5-26.5l-42.7-42.7L35.9,321.5z"/>
</svg>
