<?xml version="1.0" encoding="utf-8"?>
<!-- Generator: Adobe Illustrator 24.1.0, SVG Export Plug-In . SVG Version: 6.00 Build 0)  -->
<svg version="1.1" id="Laag_1" xmlns="http://www.w3.org/2000/svg" xmlns:xlink="http://www.w3.org/1999/xlink" x="0px" y="0px"
	 viewBox="0 0 400 400" style="enable-background:new 0 0 400 400;" xml:space="preserve">
<path d="M258.2,200.8H141.9c-6.9,0-12.5-5.6-12.5-12.5v-26.1c0-6.9,5.6-12.5,12.5-12.5h116.3c6.9,0,12.5,5.6,12.5,12.5v26.1
	C270.7,195.2,265.1,200.8,258.2,200.8z M144.4,185.8h111.3v-21.1H144.4V185.8z"/>
<path d="M153.8,250.3c-4.1,0-7.5-3.4-7.5-7.5v-49.5c0-4.1,3.4-7.5,7.5-7.5s7.5,3.4,7.5,7.5v49.5C161.3,247,158,250.3,153.8,250.3z"
	/>
<path d="M148.8,286.4H32.5c-6.9,0-12.5-5.6-12.5-12.5v-26.1c0-6.9,5.6-12.5,12.5-12.5h116.3c6.9,0,12.5,5.6,12.5,12.5v26.1
	C161.3,280.8,155.7,286.4,148.8,286.4z M35,271.4h111.3v-21.1H35V271.4z"/>
<path d="M44.5,336c-4.1,0-7.5-3.4-7.5-7.5v-49.5c0-4.1,3.4-7.5,7.5-7.5s7.5,3.4,7.5,7.5v49.5C52,332.6,48.6,336,44.5,336z"/>
<path d="M263.2,164.7c-4.1,0-7.5-3.4-7.5-7.5v-49.5c0-4.1,3.4-7.5,7.5-7.5s7.5,3.4,7.5,7.5v49.5
	C270.7,161.3,267.4,164.7,263.2,164.7z"/>
<path d="M367.5,115.1H251.2c-6.9,0-12.5-5.6-12.5-12.5V76.5c0-6.9,5.6-12.5,12.5-12.5h116.3c6.9,0,12.5,5.6,12.5,12.5v26.1
	C380,109.5,374.4,115.1,367.5,115.1z M253.7,100.1H365V79H253.7V100.1z"/>
<path d="M159.7,336H44.5c-4.1,0-7.5-3.4-7.5-7.5s3.4-7.5,7.5-7.5h114.5l189-101.4V107.6c0-4.1,3.4-7.5,7.5-7.5s7.5,3.4,7.5,7.5
	v113.7c0,4.4-2.4,8.5-6.3,10.6L165.4,334.5C163.6,335.5,161.7,336,159.7,336z"/>
</svg>
