<?xml version="1.0" encoding="utf-8"?>
<!-- Generator: Adobe Illustrator 24.1.0, SVG Export Plug-In . SVG Version: 6.00 Build 0)  -->
<svg version="1.1" id="Laag_1" xmlns="http://www.w3.org/2000/svg" xmlns:xlink="http://www.w3.org/1999/xlink" x="0px" y="0px"
	 viewBox="0 0 400 400" style="enable-background:new 0 0 400 400;" xml:space="preserve">
<style type="text/css">
	.st0{fill:none;stroke:#000000;stroke-width:15;stroke-linecap:round;stroke-miterlimit:10;}
</style>
<g>
	<path d="M354.4,220.9H47.8c-4.2,0-8.1-2.1-10.4-5.6s-2.7-8-1-11.8L82.9,95.9c2-4.6,6.5-7.5,11.5-7.5h211.6c4.9,0,9.4,2.9,11.4,7.4
		l48.5,107.5c1.8,3.9,1.4,8.3-0.9,11.9C362.6,218.7,358.7,220.9,354.4,220.9z M51.6,205.9h299l-46.2-102.5H96L51.6,205.9z
		 M305.9,103.3L305.9,103.3L305.9,103.3z"/>
	<path class="st0" d="M362.1,238.4"/>
	<path d="M32.3,309.5c-2.6,0-4.9-0.8-7-2.3c-7.1-5.4-5.1-16.7-3.7-21.6l14.2-80.4c0.7-4.1,4.6-6.8,8.7-6.1c4.1,0.7,6.8,4.6,6.1,8.7
		l-14.3,81.1l-0.1,0.4c-0.3,1.2-0.6,2.7-0.7,3.9c0.3-0.2,0.6-0.3,0.9-0.5l0.4-0.2l14.5-6.5l0.4-0.1c0.1,0,10.6-3.5,11.1-11.6
		l0.1-0.7l2.5-15.5c0.7-4.1,4.5-6.9,8.6-6.2c4.1,0.7,6.9,4.5,6.2,8.6l-2.4,15.2c-1.1,14.1-13.6,21.9-21.1,24.4l-12.8,5.8
		C39.4,308.2,35.6,309.5,32.3,309.5z M35.4,296.4L35.4,296.4L35.4,296.4z"/>
	<path d="M92.3,311c-12.5,0-20.7-6.4-21.2-6.9l-13-10.4c-3.2-2.6-3.8-7.3-1.2-10.5c2.6-3.2,7.3-3.8,10.5-1.2l13.1,10.4
		c1.2,0.9,12,8.6,27.8-2l8.8-6.3l0,0c0.1-0.1,4.3-3.2,4.8-8.5V264c0-4.1,3.4-7.5,7.5-7.5s7.5,3.4,7.5,7.5l0,12.4
		c-0.9,12.3-9.8,18.9-11.3,20l-8.9,6.3C107.7,308.9,99.3,311,92.3,311z"/>
	<path d="M163.1,311.4c-4.6,0-8.7-0.9-12.2-2.1c-9.1-3.1-15-8.9-16.6-10.6l-11.6-10.1c-3.1-2.7-3.4-7.5-0.7-10.6
		c2.7-3.1,7.5-3.4,10.6-0.7l12.3,10.7l0.3,0.4c0,0,4.4,4.8,11.1,6.9c8.5,2.7,17.3,0.2,26.1-7.6l0.4-0.3c0.1-0.1,8.1-6.4,10.8-14.5
		v-14.5c0-4.1,3.4-7.5,7.5-7.5c4.1,0,7.5,3.4,7.5,7.5v16.7l-0.3,1c-3.5,12.5-14.2,21.4-16.2,23C181.5,308.4,171.5,311.4,163.1,311.4
		z"/>
	<path d="M233.6,311.7c-3.7,0-6.9-0.5-9.7-1.2c-8.5-2.1-13.8-6.4-14.4-6.8l-17.7-14.3c-3.2-2.6-3.7-7.3-1.1-10.5
		c2.6-3.2,7.3-3.7,10.5-1.1L219,292c0,0,3.6,2.8,9.1,4c7.2,1.6,14.4,0.1,21.6-4.6l0.3-0.2c3.2-1.9,11.6-8.4,13.9-16.3V264
		c0-4.1,3.4-7.5,7.5-7.5s7.5,3.4,7.5,7.5v12.8l-0.2,0.9c-3.7,15.5-19,25.2-21,26.4C248.9,309.9,240.6,311.7,233.6,311.7z"/>
	<path d="M301.1,310.2c-10.8,0-19.6-4.9-24.4-9.3l-13.8-8.9c-3.5-2.2-4.5-6.9-2.2-10.4c2.2-3.5,6.9-4.5,10.4-2.2l15.1,9.7l0.5,0.5
		c1.4,1.3,14.2,12.6,31.2-1.1c0.7-0.7,4.8-5.1,4.9-12.7l-1.4-17.4c-0.3-4.1,2.7-7.8,6.9-8.1c4.1-0.4,7.8,2.7,8.1,6.9l1.5,18.3
		c0,15.1-9,23.4-10,24.3l-0.2,0.2C318.2,307.5,309.1,310.2,301.1,310.2z"/>
	<path d="M366.7,306.7c-3.6,0-8.3-1-14.3-4.1l-0.1-0.1l-26.7-14.8c-3.6-2-4.9-6.6-2.9-10.2c2-3.6,6.6-4.9,10.2-2.9l26.7,14.7
		c1.5,0.8,3.3,1.5,4.8,1.9l-12.7-83.8c-0.6-4.1,2.2-7.9,6.3-8.5c4.1-0.6,7.9,2.2,8.5,6.3l12.6,83c2.3,8.8-0.7,13.5-3.6,15.8
		C374,305.1,371.2,306.7,366.7,306.7z"/>
</g>
<g>
	<path d="M201.1,220.9C201.1,220.9,201.1,220.9,201.1,220.9c-4.1,0-7.5-3.4-7.5-7.5l0.1-117.5c0-4.1,3.4-7.5,7.5-7.5c0,0,0,0,0,0
		c4.1,0,7.5,3.4,7.5,7.5l-0.1,117.5C208.6,217.5,205.2,220.9,201.1,220.9z"/>
	<path d="M332.9,156.1H68.2c-4.1,0-7.5-3.4-7.5-7.5s3.4-7.5,7.5-7.5h264.7c4.1,0,7.5,3.4,7.5,7.5S337.1,156.1,332.9,156.1z"/>
</g>
</svg>
