<?xml version="1.0" encoding="utf-8"?>
<!-- Generator: Adobe Illustrator 24.1.0, SVG Export Plug-In . SVG Version: 6.00 Build 0)  -->
<svg version="1.1" id="Laag_1" xmlns="http://www.w3.org/2000/svg" xmlns:xlink="http://www.w3.org/1999/xlink" x="0px" y="0px"
	 viewBox="0 0 400 400" style="enable-background:new 0 0 400 400;" xml:space="preserve">
<path d="M206.6,235.4c-0.5,0-1,0-1.5,0c-56.1-0.2-99.7-6.9-129.7-20.2c-22.1-9.8-48.4-28.6-48.4-63c0-23.1,18.8-44,53-58.8
	c31.5-13.6,73.3-21.2,117.6-21.2c45.7,0,88.1,7,119.5,19.6c36.2,14.5,55.3,35.4,55.3,60.4c0,16.7-6.3,31.4-18.8,43.9
	C327.7,221.8,276.9,235.4,206.6,235.4z M197.5,87.2c-42.3,0-82,7.1-111.6,19.9c-28.3,12.3-44,28.3-44,45c0,58.9,102.3,68,163.2,68.2
	c0.5,0,1,0,1.4,0c65.3,0,113.7-12.4,136.3-35c9.5-9.5,14.4-20.7,14.4-33.2c0-12.8-8-31.2-45.9-46.4
	C281.7,93.8,241.3,87.2,197.5,87.2z"/>
<g>
	<path d="M48.3,273.9c-6.5,0-12.3-2.5-16.7-7.2c-16-17-11-59.9-10.4-65.1l5.8-50.3c0.5-4.1,4.2-7.1,8.3-6.6c4.1,0.5,7.1,4.2,6.6,8.3
		l-5.8,50.5c-2,15.7-2,44,6.4,52.9c1.8,1.9,3.8,2.7,6.6,2.5l0.3,0l0.3,0c1.1,0,10.8-0.3,12-8v-15.1c0-4.1,3.4-7.5,7.5-7.5
		s7.5,3.4,7.5,7.5v16l-0.1,0.4c-2,17.2-18.3,21.7-26.8,21.7C49.3,273.9,48.8,273.9,48.3,273.9z"/>
	<path d="M94.6,307.9c-1.9,0-3.2-0.1-3.5-0.2l-0.5-0.1l-0.5-0.1c-9.5-2.3-17-8.8-21.7-18.9c-3.3-6.9-4.1-13.2-4.2-13.9l0-0.2
		l-2.4-25.3c-0.4-4.1,2.6-7.8,6.7-8.2c4.1-0.4,7.8,2.6,8.2,6.7l2.4,25.2c0.1,0.9,2.5,16.5,14,19.7c1.5,0.1,6.4,0.2,11.3-1.5
		c6.7-2.3,10.2-6.7,11.1-13.9v-21.9c0-4.1,3.4-7.5,7.5-7.5s7.5,3.4,7.5,7.5v22.7l0,0.4c-1.5,13.3-9.2,22.9-21.8,27
		C103.2,307.6,97.9,307.9,94.6,307.9z"/>
	<path d="M161.3,324c-2,0-4-0.2-6-0.6c-15.9-3-24.5-17-24.9-17.6l-0.1-0.1l-13.8-24c-2.1-3.6-0.8-8.2,2.7-10.2
		c3.6-2.1,8.2-0.8,10.2,2.8l13.8,23.9c0.3,0.5,5.8,9,14.8,10.6c6.3,1.1,13.3-1.3,20.8-7.1c0.1-0.1,9.3-7.3,12.3-16.6v-19.8
		c0-4.1,3.4-7.5,7.5-7.5s7.5,3.4,7.5,7.5v21.9l-0.3,1c-4.1,14.5-17.3,24.9-17.8,25.3C179.1,320.4,170.1,324,161.3,324z"/>
	<path d="M243.5,327.8c-0.8,0-1.6,0-2.5-0.1c-18.5-1.4-33.3-18.5-34-19.2l-0.2-0.2l-14-17.6c-2.6-3.2-2-8,1.2-10.5
		c3.2-2.6,8-2,10.5,1.2l13.9,17.5c1.5,1.7,20.6,22.8,36.1,9.4l0.2-0.2c0.1-0.1,11.3-9.2,14.4-20.7v-29.3c0-4.1,3.4-7.5,7.5-7.5
		s7.5,3.4,7.5,7.5v31l-0.2,0.8c-3.8,16.4-18,28.4-19.7,29.8C258.1,325.1,251.1,327.8,243.5,327.8z"/>
	<path d="M308.8,306.1c-5.6,0-10.9-1.6-14.8-3.8l-0.5-0.3l-21.2-16.2c-3.3-2.5-3.9-7.2-1.4-10.5c2.5-3.3,7.2-3.9,10.5-1.4l20.2,15.4
		c1,0.4,3.7,1.6,6.8,1.8c4.2,0.2,7.1-1.5,9.5-5.6l0.2-0.4l0.3-0.4c0.1-0.1,7.9-11,6.5-26l0-0.6l-0.1-24c0-4.1,3.3-7.5,7.5-7.5
		c0,0,0,0,0,0c4.1,0,7.5,3.3,7.5,7.5l0.1,23.7c1.6,18.9-7.3,32.9-9.1,35.5C325.1,302.8,316.7,306.1,308.8,306.1z"/>
	<path d="M360.3,263.1c-5.2,0-9.6-2.4-11.2-3.4l-18.4-8.9c-3.7-1.8-5.3-6.3-3.5-10c1.8-3.7,6.3-5.3,10-3.5l19.5,9.4l0.4,0.3
		c1,0.7,3.1,1.4,3.9,0.9c1.8-1,4.8-7.6,3.8-25.3l-7.5-69.7c-0.4-4.1,2.5-7.8,6.7-8.3c4.1-0.5,7.8,2.5,8.3,6.7l7.6,70.2
		c1.2,21.5-2.6,34.5-11.5,39.5C365.6,262.6,362.8,263.1,360.3,263.1z"/>
</g>
<g>
	<rect x="192.5" y="79.7" width="15" height="148.2"/>
	<rect x="34.4" y="146.3" width="330.5" height="15"/>
</g>
</svg>
