<?xml version="1.0" encoding="utf-8"?>
<!-- Generator: Adobe Illustrator 24.1.0, SVG Export Plug-In . SVG Version: 6.00 Build 0)  -->
<svg version="1.1" id="Laag_1" xmlns="http://www.w3.org/2000/svg" xmlns:xlink="http://www.w3.org/1999/xlink" x="0px" y="0px"
	 viewBox="0 0 400 400" style="enable-background:new 0 0 400 400;" xml:space="preserve">
<g>
	<path d="M32.1,374.2c-2.6,0-5-0.8-7-2.3c-7.1-5.4-5.1-16.7-3.8-21.7L35.5,267c0.7-4.1,4.6-6.8,8.7-6.1c4.1,0.7,6.8,4.6,6.1,8.7
		l-14.3,84l-0.1,0.4c-0.3,1.3-0.6,2.7-0.7,4c0.3-0.2,0.6-0.3,0.9-0.6l0.4-0.2l14.5-6.6l0.5-0.1c0.1,0,10.6-3.5,11.2-11.7l0.1-0.7
		l2.5-15.5c0.7-4.1,4.5-6.9,8.6-6.2c4.1,0.7,6.9,4.5,6.2,8.6l-2.5,15.2c-1.2,14.2-13.6,21.9-21.2,24.5l-12.8,5.9
		C39.2,372.9,35.4,374.2,32.1,374.2z M35.1,361.1L35.1,361.1L35.1,361.1z"/>
	<path d="M92.1,375.6c-12.5,0-20.6-6.4-21.2-6.8l-13.1-10.4c-3.2-2.6-3.8-7.3-1.2-10.5c2.6-3.2,7.3-3.8,10.5-1.2l13.1,10.4
		c1.2,0.9,12,8.6,27.9-2.1l8.9-6.4c0.5-0.4,4.3-3.4,4.8-8.5v-11.5c0-4.1,3.4-7.5,7.5-7.5s7.5,3.4,7.5,7.5l0,12.4
		c-0.9,12.3-9.8,19-11.3,20l-8.9,6.4C107.6,373.6,99.2,375.6,92.1,375.6z"/>
	<path d="M163,376c-0.8,0-1.5,0-2.3-0.1c-14.6-0.9-24.5-10.4-26.6-12.6l-11.6-10.2c-3.1-2.7-3.4-7.5-0.7-10.6
		c2.7-3.1,7.5-3.4,10.6-0.7l12.3,10.7l0.3,0.4c0,0,4.4,4.8,11.2,7c8.6,2.8,17.4,0.2,26.2-7.6l0.4-0.3c0.1-0.1,8.1-6.4,10.8-14.5V323
		c0-4.1,3.4-7.5,7.5-7.5c4.1,0,7.5,3.4,7.5,7.5v16.7l-0.3,1c-3.5,12.6-14.1,21.5-16.1,23.1C182.9,371.9,173.1,376,163,376z"/>
	<path d="M233.7,376.4c-3.7,0-7-0.5-9.7-1.2c-8.5-2.1-13.8-6.4-14.4-6.8l-17.7-14.4c-3.2-2.6-3.7-7.3-1.1-10.6
		c2.6-3.2,7.3-3.7,10.6-1.1l17.7,14.4c0.5,0.4,13.7,10.5,30.7-0.6l0.3-0.2c3.2-1.9,11.7-8.4,13.9-16.3v-11.1c0-4.1,3.4-7.5,7.5-7.5
		s7.5,3.4,7.5,7.5v12.9l-0.2,0.8c-3.6,15.6-19,25.3-21,26.5C249,374.6,240.7,376.4,233.7,376.4z"/>
	<path d="M301.3,374.8c-10.8,0-19.6-4.9-24.5-9.4l-13.8-8.9c-3.5-2.2-4.5-6.9-2.2-10.4c2.2-3.5,6.9-4.5,10.4-2.2l15.1,9.7l0.5,0.5
		c1.4,1.3,14.2,12.6,31.3-1.1c0.7-0.6,4.8-5,4.9-12.8l-1.5-17.4c-0.3-4.1,2.7-7.8,6.8-8.1c4.1-0.3,7.8,2.7,8.1,6.8L338,340
		c0,15.2-9.1,23.5-10.1,24.4l-0.2,0.1C318.4,372.1,309.3,374.8,301.3,374.8z"/>
	<path d="M366.9,371.3c-3.6,0-8.3-1-14.3-4.2l-0.2-0.1l-26.7-14.8c-3.6-2-4.9-6.6-2.9-10.2c2-3.6,6.6-4.9,10.2-2.9l26.7,14.8
		c1.5,0.8,3.3,1.5,4.8,1.9l-14.8-86.3c-0.7-4.1,2-8,6.1-8.7c4.1-0.7,8,2,8.7,6.1l14.7,85.8c2.3,8.9-0.7,13.6-3.6,15.9
		C374.2,369.7,371.4,371.3,366.9,371.3z"/>
	<path d="M352.6,282.8H47.4c-4.3,0-8.2-2.1-10.5-5.7c-2.3-3.6-2.7-8-0.9-11.9l95.7-213.5c2-4.5,6.5-7.4,11.4-7.4l12-0.1
		c4.2-0.1,7.5,3.3,7.6,7.4c0,4.1-3.3,7.5-7.4,7.6l-10.6,0.1L51.3,267.8h297.4L255.3,59.2h-10.9c-4.1,0-7.5-3.4-7.5-7.5
		s3.4-7.5,7.5-7.5h12.5c0,0,0,0,0,0c4.9,0,9.4,2.9,11.4,7.4L364,265.2c1.7,3.9,1.4,8.3-0.9,11.9S356.8,282.8,352.6,282.8z
		 M143.3,59.3L143.3,59.3C143.2,59.3,143.3,59.3,143.3,59.3z M256.9,59.2C256.9,59.2,256.9,59.2,256.9,59.2L256.9,59.2z"/>
</g>
<g>
	<path d="M200,127.3c-30.5,0-55.4-24.8-55.4-55.4s24.8-55.4,55.4-55.4s55.4,24.8,55.4,55.4S230.5,127.3,200,127.3z M200,31.6
		c-22.3,0-40.4,18.1-40.4,40.4s18.1,40.4,40.4,40.4c22.3,0,40.4-18.1,40.4-40.4S222.3,31.6,200,31.6z"/>
	<g>
		<path d="M302.9,222.4h-15v-7.5c0-48.5-39.4-87.9-87.9-87.9s-87.9,39.4-87.9,87.9v7.5h-15v-7.5C97.1,158.2,143.3,112,200,112
			c56.7,0,102.9,46.2,102.9,102.9V222.4z"/>
		<rect x="97.1" y="207.4" width="205.8" height="15"/>
	</g>
</g>
</svg>
