<?xml version="1.0" encoding="utf-8"?>
<!-- Generator: Adobe Illustrator 24.1.0, SVG Export Plug-In . SVG Version: 6.00 Build 0)  -->
<svg version="1.1" id="Laag_1" xmlns="http://www.w3.org/2000/svg" xmlns:xlink="http://www.w3.org/1999/xlink" x="0px" y="0px"
	 viewBox="0 0 400 400" style="enable-background:new 0 0 400 400;" xml:space="preserve">
<path d="M367.5,178h-335c-6.9,0-12.5-5.6-12.5-12.5v-50c0-6.9,5.6-12.5,12.5-12.5h335c6.9,0,12.5,5.6,12.5,12.5v50
	C380,172.4,374.4,178,367.5,178z M35,163h330v-45H35V163z"/>
<path d="M367.5,278h-335c-6.9,0-12.5-5.6-12.5-12.5v-90c0-6.9,5.6-12.5,12.5-12.5h335c6.9,0,12.5,5.6,12.5,12.5v90
	C380,272.4,374.4,278,367.5,278z M35,263h330v-85H35V263z"/>
<g>
	<path d="M271,245c-4.1,0-7.5-3.4-7.5-7.5v-35c0-4.1,3.4-7.5,7.5-7.5s7.5,3.4,7.5,7.5v35C278.5,241.6,275.1,245,271,245z"/>
	<path d="M223.7,245c-4.1,0-7.5-3.4-7.5-7.5v-35c0-4.1,3.4-7.5,7.5-7.5s7.5,3.4,7.5,7.5v35C231.2,241.6,227.8,245,223.7,245z"/>
	<path d="M176.3,245c-4.1,0-7.5-3.4-7.5-7.5v-35c0-4.1,3.4-7.5,7.5-7.5s7.5,3.4,7.5,7.5v35C183.8,241.6,180.4,245,176.3,245z"/>
	<path d="M129,245c-4.1,0-7.5-3.4-7.5-7.5v-35c0-4.1,3.4-7.5,7.5-7.5s7.5,3.4,7.5,7.5v35C136.5,241.6,133.1,245,129,245z"/>
	<path d="M81.7,245c-4.1,0-7.5-3.4-7.5-7.5v-35c0-4.1,3.4-7.5,7.5-7.5s7.5,3.4,7.5,7.5v35C89.2,241.6,85.8,245,81.7,245z"/>
	<path d="M318.3,245c-4.1,0-7.5-3.4-7.5-7.5v-35c0-4.1,3.4-7.5,7.5-7.5s7.5,3.4,7.5,7.5v35C325.8,241.6,322.4,245,318.3,245z"/>
</g>
</svg>
