<?xml version="1.0" encoding="utf-8"?>
<!-- Generator: Adobe Illustrator 24.1.0, SVG Export Plug-In . SVG Version: 6.00 Build 0)  -->
<svg version="1.1" id="Laag_1" xmlns="http://www.w3.org/2000/svg" xmlns:xlink="http://www.w3.org/1999/xlink" x="0px" y="0px"
	 viewBox="0 0 400 400" style="enable-background:new 0 0 400 400;" xml:space="preserve">
<g>
	<g>
		<path d="M367,218.2H33c-4.4,0-8.4-2.2-10.8-5.8c-2.4-3.6-2.8-8.2-1.1-12.3L71.8,82.8C74,78,78.6,75,83.7,75h230.5
			c5.1,0,9.8,3,11.9,7.7L379,200.1c1.7,4.1,1.2,8.7-1.2,12.4C375.4,216,371.4,218.2,367,218.2z M36.1,203.2h327.9L312.9,90H85.1
			L36.1,203.2z M314.2,90L314.2,90L314.2,90z M312.4,88.9C312.4,88.9,312.4,88.9,312.4,88.9L312.4,88.9z"/>
	</g>
	<path d="M100,325H61c-6.9,0-12.5-5.6-12.5-12.5V268c0-6.9,5.6-12.5,12.5-12.5h39c6.9,0,12.5,5.6,12.5,12.5v44.5
		C112.5,319.4,106.9,325,100,325z M63.5,310h34v-39.5h-34V310z"/>
	<path d="M339.7,325h-39c-6.9,0-12.5-5.6-12.5-12.5V268c0-6.9,5.6-12.5,12.5-12.5h39c6.9,0,12.5,5.6,12.5,12.5v44.5
		C352.2,319.4,346.6,325,339.7,325z M303.2,310h34v-39.5h-34V310z"/>
	<path d="M367.5,270.5h-335c-6.9,0-12.5-5.6-12.5-12.5v-54.8h360V258C380,264.9,374.4,270.5,367.5,270.5z M35,255.5h330v-37.3H35
		V255.5z"/>
</g>
</svg>
