<svg width="18" height="18" viewBox="0 0 18 18" fill="none" xmlns="http://www.w3.org/2000/svg">
<path fill-rule="evenodd" clip-rule="evenodd" d="M9 0C4.02944 0 0 4.02944 0 9C0 13.9706 4.02944 18 9 18C13.9706 18 18 13.9706 18 9C18 4.02944 13.9706 0 9 0ZM13.6402 5.23178C13.2159 4.87821 12.5853 4.93554 12.2318 5.35982L7.932 10.517L6.70711 9.29289L6.6129 9.2097C6.22061 8.90468 5.65338 8.93241 5.29289 9.29289C4.90237 9.68342 4.90237 10.3166 5.29289 10.7071L7.29289 12.7071L7.38588 12.7894C7.80471 13.1163 8.41866 13.0597 8.76822 12.6402L13.7682 6.64018L13.8425 6.53883C14.1108 6.12054 14.0318 5.55815 13.6402 5.23178Z" fill="#217A37"/>
</svg>
