<svg xmlns="http://www.w3.org/2000/svg" viewBox="0 0 35.37 36.55"><defs><style>.cls-1{fill:#444;}</style></defs><title>supply_chain_management</title><g id="Layer_2" data-name="Layer 2"><g id="Layer_1-2" data-name="Layer 1"><path class="cls-1" d="M8,18.44a.69.69,0,0,1-.2,0l-2.57-.78a.7.7,0,0,1-.48-.81l.45-2.2a6.47,6.47,0,0,1-.54-.44l-2.07.88a.7.7,0,0,1-.89-.31L.48,12.38a.7.7,0,0,1,.23-.91l1.88-1.24q-.05-.34-.07-.69L.44,8.7A.7.7,0,0,1,0,7.84L.81,5.27a.7.7,0,0,1,.81-.48l2.2.45a6.47,6.47,0,0,1,.44-.54L3.38,2.64a.7.7,0,0,1,.31-.89L6.06.48A.7.7,0,0,1,7,.71L8.21,2.59a6.8,6.8,0,0,1,.69-.07L9.75.44A.7.7,0,0,1,10.6,0l2.57.78a.7.7,0,0,1,.48.81l-.45,2.2a6.41,6.41,0,0,1,.54.44l2.07-.88a.7.7,0,0,1,.89.31L18,6.06a.7.7,0,0,1-.23.92L15.85,8.21a6.54,6.54,0,0,1,.07.69L18,9.75a.7.7,0,0,1,.41.85l-.78,2.57a.7.7,0,0,1-.81.48l-2.2-.45a6.41,6.41,0,0,1-.44.54l.88,2.07a.7.7,0,0,1-.31.89L12.38,18a.7.7,0,0,1-.92-.23l-1.24-1.88a6.58,6.58,0,0,1-.69.07L8.7,18A.7.7,0,0,1,8,18.44Zm-1.76-2,1.35.41L8.42,15a.71.71,0,0,1,.67-.44,5,5,0,0,0,1.32-.13.7.7,0,0,1,.74.3l1.14,1.73,1.24-.67-.81-1.91a.7.7,0,0,1,.16-.78,5.24,5.24,0,0,0,.84-1,.71.71,0,0,1,.73-.31l2,.42.41-1.35L15,10a.7.7,0,0,1-.44-.67A5.25,5.25,0,0,0,14.4,8a.7.7,0,0,1,.3-.74l1.73-1.14-.67-1.24-1.91.81a.7.7,0,0,1-.78-.16,5.24,5.24,0,0,0-1-.84A.7.7,0,0,1,11.73,4l.42-2L10.8,1.56,10,3.48a.66.66,0,0,1-.67.44A5,5,0,0,0,8,4a.7.7,0,0,1-.74-.3L6.16,2l-1.24.67.81,1.91a.7.7,0,0,1-.16.78,5.22,5.22,0,0,0-.84,1A.7.7,0,0,1,4,6.71L2,6.29,1.56,7.64l1.92.78a.7.7,0,0,1,.44.67A5.25,5.25,0,0,0,4,10.4a.7.7,0,0,1-.3.74L2,12.28l.66,1.24,1.91-.81a.71.71,0,0,1,.78.16,5.22,5.22,0,0,0,1,.84.7.7,0,0,1,.31.73Z"/><path class="cls-1" d="M9.37,12.28a3.53,3.53,0,0,1-1-.16,2.87,2.87,0,0,1-2-3.78A3,3,0,0,1,7.75,6.48a3,3,0,0,1,2.34-.16,2.87,2.87,0,0,1,2,3.78A2.84,2.84,0,0,1,9.37,12.28ZM9.08,7.56a1.39,1.39,0,0,0-.66.16,1.66,1.66,0,0,0-.76,1,1.49,1.49,0,0,0,1.09,2A1.66,1.66,0,0,0,10,10.73a1.66,1.66,0,0,0,.76-1,1.49,1.49,0,0,0-1.09-2A2.14,2.14,0,0,0,9.08,7.56Z"/><path class="cls-1" d="M22,36.55a.69.69,0,0,1-.2,0l-3.35-1A.7.7,0,0,1,18,34.7l.62-3a8.44,8.44,0,0,1-.89-.73l-2.82,1.2a.7.7,0,0,1-.89-.31l-1.65-3.09a.7.7,0,0,1,.23-.92l2.56-1.69A8.39,8.39,0,0,1,15,25l-2.84-1.15a.7.7,0,0,1-.41-.85l1-3.35a.7.7,0,0,1,.81-.48l3,.62a8.44,8.44,0,0,1,.73-.89l-1.2-2.82a.7.7,0,0,1,.31-.89l3.09-1.65a.7.7,0,0,1,.92.23l1.69,2.56a8.39,8.39,0,0,1,1.15-.11l1.15-2.84A.7.7,0,0,1,25.3,13l3.35,1a.7.7,0,0,1,.48.81l-.62,3a8.65,8.65,0,0,1,.89.73l2.82-1.2a.7.7,0,0,1,.89.31l1.65,3.09a.7.7,0,0,1-.23.92L32,23.32a8.52,8.52,0,0,1,.11,1.15l2.84,1.15a.7.7,0,0,1,.41.85l-1,3.35a.7.7,0,0,1-.81.48l-3-.62a8.66,8.66,0,0,1-.73.89L31,33.4a.7.7,0,0,1-.31.89l-3.09,1.65a.7.7,0,0,1-.92-.23L25,33.16a8.68,8.68,0,0,1-1.15.11l-1.15,2.84A.7.7,0,0,1,22,36.55Zm-2.54-2.2,2.13.64,1.09-2.69a.75.75,0,0,1,.67-.44,6.77,6.77,0,0,0,1.77-.18.7.7,0,0,1,.74.3l1.59,2.42,2-1-1.13-2.67a.7.7,0,0,1,.16-.78,7.11,7.11,0,0,0,1.13-1.38.71.71,0,0,1,.73-.31l2.84.58.64-2.13-2.69-1.09a.7.7,0,0,1-.44-.67,7,7,0,0,0-.18-1.77.7.7,0,0,1,.3-.74l2.42-1.59-1.05-2L29.52,20a.7.7,0,0,1-.78-.16,7.2,7.2,0,0,0-1.38-1.13A.7.7,0,0,1,27,18l.58-2.84-2.13-.64-1.09,2.69a.66.66,0,0,1-.67.44,7.22,7.22,0,0,0-1.77.18.7.7,0,0,1-.74-.3l-1.59-2.42-2,1.05,1.13,2.67a.7.7,0,0,1-.16.78,7.07,7.07,0,0,0-1.13,1.38.7.7,0,0,1-.73.31l-2.84-.58L13.3,22.8,16,23.88a.7.7,0,0,1,.44.67,7,7,0,0,0,.18,1.77.7.7,0,0,1-.3.74l-2.42,1.59,1.05,2,2.67-1.13a.7.7,0,0,1,.78.16,7.07,7.07,0,0,0,1.38,1.13.7.7,0,0,1,.31.73Z"/><path class="cls-1" d="M23.56,29.57A4.83,4.83,0,1,1,25,20.11h0a4.83,4.83,0,0,1-1.4,9.45Zm0-8.26a3.44,3.44,0,1,0,1,.15h0A3.43,3.43,0,0,0,23.56,21.31Z"/></g></g></svg>