<svg xmlns="http://www.w3.org/2000/svg" viewBox="0 0 32.22 33.74"><defs><style>.cls-1{fill:#444;}</style></defs><title>sustainable_investing</title><g id="Layer_2" data-name="Layer 2"><g id="Layer_1-2" data-name="Layer 1"><path class="cls-1" d="M9,31.35a6.13,6.13,0,0,1-4.51-2.11A20.82,20.82,0,0,1,0,20.41a.7.7,0,0,1,.61-.85c.34,0,8.46-.88,11.54,1.33,2.8,2,3.51,5.36,1.69,8a6.14,6.14,0,0,1-4.42,2.48ZM1.59,20.88a18.92,18.92,0,0,0,3.94,7.39,4.68,4.68,0,0,0,3.81,1.67,4.76,4.76,0,0,0,3.37-1.88c1.38-2,.82-4.44-1.37-6C9.38,20.62,4.22,20.69,1.59,20.88Z"/><path class="cls-1" d="M25,30.95h0A5.23,5.23,0,0,1,21,29.12c-1.7-2.09-1.31-5,.94-6.86,2.41-2,8.84-1.85,9.56-1.83a.7.7,0,0,1,.67.8A17.45,17.45,0,0,1,29,28.88,5.14,5.14,0,0,1,25,30.95Zm5.72-9.13c-2.22,0-6.31.27-7.79,1.51-1.66,1.39-2,3.41-.76,4.9a3.83,3.83,0,0,0,2.82,1.32h0a3.78,3.78,0,0,0,3-1.57A15.43,15.43,0,0,0,30.67,21.82Z"/><path class="cls-1" d="M17.06,20.75A10.38,10.38,0,1,1,27.44,10.38,10.39,10.39,0,0,1,17.06,20.75Zm0-19.35a9,9,0,1,0,9,9A9,9,0,0,0,17.06,1.4Z"/><path class="cls-1" d="M17.55,15.25a10.34,10.34,0,0,1-3.95-1A.7.7,0,1,1,14.15,13c3,1.3,4.4.78,4.85.49a1.14,1.14,0,0,0,.56-1c0-.93-.36-1.11-2.15-1.55l-.5-.12c-2-.52-3.37-.85-3.36-2.73a2.38,2.38,0,0,1,1.08-2.08c1.47-1,4.09-.55,5.9.24A.7.7,0,0,1,20,7.58c-1.51-.65-3.64-1-4.58-.35a1,1,0,0,0-.45.91c0,.68.14.82,2.28,1.36l.51.13c1.6.39,3.26.79,3.21,2.93a2.55,2.55,0,0,1-1.2,2.11A4,4,0,0,1,17.55,15.25Z"/><path class="cls-1" d="M17.06,6.7a.7.7,0,0,1-.7-.7V4.17a.7.7,0,0,1,1.4,0V6A.7.7,0,0,1,17.06,6.7Z"/><path class="cls-1" d="M17.06,17.28a.7.7,0,0,1-.7-.7V14.75a.7.7,0,0,1,1.4,0v1.83A.7.7,0,0,1,17.06,17.28Z"/><path class="cls-1" d="M17.06,33.74l-.18,0a.7.7,0,0,1-.52-.67v-13a.7.7,0,1,1,1.4,0V30.81a25.25,25.25,0,0,1,8.7-6.62A.7.7,0,0,1,27,25.47c-.06,0-6.32,2.79-9.35,7.93A.7.7,0,0,1,17.06,33.74Z"/><path class="cls-1" d="M17.06,33.74a.7.7,0,0,1-.58-.31A24.3,24.3,0,0,0,6.41,24.86a.7.7,0,0,1,.51-1.3,25.26,25.26,0,0,1,10.73,9.1.7.7,0,0,1-.58,1.09Z"/></g></g></svg>