<svg xmlns="http://www.w3.org/2000/svg" viewBox="0 0 35.42 35.19"><defs><style>.cls-1{fill:#444;}</style></defs><title>sustainable_business</title><g id="Layer_2" data-name="Layer 2"><g id="Layer_1-2" data-name="Layer 1"><path class="cls-1" d="M33.49,35.19a.7.7,0,0,1-.37-.11c-2.8-1.75-9-2.87-15.71-2.87C10.89,32.22,5,33.24,2,34.9a.7.7,0,1,1-.68-1.22c3.17-1.77,9.33-2.86,16.07-2.86,7.09,0,13.39,1.18,16.45,3.08a.7.7,0,0,1-.37,1.29Z"/><path class="cls-1" d="M24.28,32.07h0a.7.7,0,0,1-.7-.7V17.2c-1.14-2.76-.34-8.31,1.15-11A.7.7,0,1,1,26,6.84c-1.32,2.42-2.06,7.67-1,9.93a.7.7,0,0,1,.06.29V31.37A.7.7,0,0,1,24.28,32.07Z"/><path class="cls-1" d="M24.46,18.1a.7.7,0,0,1-.2-1.37c2.61-.79,4.51-1.5,5.21-3.51a.7.7,0,0,1,1.32.46c-.92,2.63-3.22,3.51-6.13,4.39A.7.7,0,0,1,24.46,18.1Z"/><path class="cls-1" d="M21.34,31.7h0a.7.7,0,0,1-.7-.7c0-.6,0-1.46,0-2.41a64.12,64.12,0,0,0-.05-7.06A7.74,7.74,0,0,0,19.55,21a5.28,5.28,0,0,1-3.27-3.1.7.7,0,1,1,1.25-.63,4,4,0,0,0,2.54,2.44,8.41,8.41,0,0,1,1.48.71c.58.36.7,1.16.54,8.17,0,.95,0,1.79,0,2.39A.7.7,0,0,1,21.34,31.7ZM20.8,21.63h0Zm-.2-.22Z"/><path class="cls-1" d="M19,26a6.49,6.49,0,0,1-6.27-4.4c-1.39-3.5-.64-8.52,2.91-10.86a8.8,8.8,0,0,1-.17-2.56c.34-4.53,4-8.22,8.09-8.22a7.12,7.12,0,0,1,6.92,6.67,6.94,6.94,0,0,1,4.88,7.49,8.32,8.32,0,0,1-5.11,7.14A.7.7,0,1,1,29.78,20,6.89,6.89,0,0,0,34,14c.23-3.06-1.6-5.69-4.25-6.11a.7.7,0,0,1-.59-.66C29,3.93,26.6,1.4,23.59,1.4c-3.4,0-6.4,3.11-6.69,6.93a7.28,7.28,0,0,0,.25,2.59.7.7,0,0,1-.33.81c-3.18,1.77-4,6.29-2.75,9.4.54,1.37,2.31,4.43,6.91,3.26a.7.7,0,0,1,.35,1.36A9.3,9.3,0,0,1,19,26Z"/><path class="cls-1" d="M10.41,27.76A19.27,19.27,0,0,1,.33,25.05a.7.7,0,0,1,.15-1.26,8.92,8.92,0,0,0,4.87-4,13.89,13.89,0,0,1-3.27-1.47.7.7,0,0,1,.11-1.24,9.22,9.22,0,0,0,4.62-4.26,16,16,0,0,1-3-1.36.7.7,0,0,1,.08-1.25c2.9-1.21,4.87-3.61,6-7.33a.7.7,0,0,1,1.33,0c.84,2.29,3.09,5.69,5.12,6.14a.7.7,0,0,1-.3,1.37c-2.23-.5-4.24-3.13-5.41-5.39a11.8,11.8,0,0,1-4.94,5.92,13,13,0,0,0,2.3.85.7.7,0,0,1,.44,1A12,12,0,0,1,4,17.8a13.5,13.5,0,0,0,2.66.93.7.7,0,0,1,.42,1.07c-1.36,2.06-2.55,3.67-4.74,4.75A19.65,19.65,0,0,0,17.78,25a.7.7,0,1,1,.5,1.31A22.07,22.07,0,0,1,10.41,27.76Z"/><path class="cls-1" d="M9.63,32.22a.7.7,0,0,1-.7-.7V27.08a.7.7,0,0,1,1.4,0v4.44A.7.7,0,0,1,9.63,32.22Z"/><path class="cls-1" d="M27.29,26.73a4.77,4.77,0,0,1-2.94-.95.7.7,0,1,1,.87-1.1,3.69,3.69,0,0,0,3.37.44,3.5,3.5,0,0,0,2.35-2.45,4.89,4.89,0,0,0-.08-2.48.7.7,0,1,1,1.36-.34A6.23,6.23,0,0,1,32.29,23,4.91,4.91,0,0,1,29,26.45,5.53,5.53,0,0,1,27.29,26.73Z"/><path class="cls-1" d="M12.47,31.8a.7.7,0,0,1-.7-.7v-4a.7.7,0,1,1,1.4,0v4A.7.7,0,0,1,12.47,31.8Z"/><path class="cls-1" d="M23.32,12.43a.69.69,0,0,1-.44-.16A5.13,5.13,0,0,1,20.7,8.67a.7.7,0,0,1,.61-.78.71.71,0,0,1,.78.61,3.76,3.76,0,0,0,1.68,2.7.7.7,0,0,1-.44,1.24Z"/></g></g></svg>