<?xml version="1.0" encoding="utf-8"?>
<!-- Generator: Adobe Illustrator 24.1.0, SVG Export Plug-In . SVG Version: 6.00 Build 0)  -->
<svg version="1.1" id="Laag_1" xmlns="http://www.w3.org/2000/svg" xmlns:xlink="http://www.w3.org/1999/xlink" x="0px" y="0px"
	 viewBox="0 0 400 400" style="enable-background:new 0 0 400 400;" xml:space="preserve">
<path d="M230.9,316c-0.8,0-1.6,0-2.4-0.1c-42.9-2-77.1-54.8-74.6-115.5c1.1-27.7,10.9-56.4,26.9-78.9c17.1-24,39.1-37.4,60.5-36.7
	c18.3,0.6,35.9,8.8,49.5,23.3c19.4,20.6,29.4,52.3,28.2,89.2c-1.2,37.2-17.9,76-42.6,98.8C262.2,309.2,246.6,316,230.9,316z
	 M239.7,99.8c-33.9,0-68.8,49.7-70.9,101.3c-1.1,26.3,5.2,51.5,17.8,70.9c11.5,17.7,27,28.3,42.5,29c15.7,0.7,28.7-8.2,37-15.9
	c21.8-20.2,36.7-54.8,37.8-88.2v0c1.1-32.9-7.5-60.8-24.1-78.5c-10.8-11.5-24.7-18.1-39-18.6C240.5,99.8,240.1,99.8,239.7,99.8z"/>
<path d="M227.9,363.3c-1.3,0-2.5,0-3.8-0.1c-34.2-2.8-65-20-86.7-48.6c-21.8-28.6-32.9-67.1-31.4-108.2
	c1.7-46.4,15.6-89.9,39.2-122.4c24.4-33.6,56.9-52.4,91.6-52.9c25.7-0.3,54.1,12.8,76,35.2c21.7,22.1,47.1,63.4,44.7,134.4
	c-2.3,69-38,110.7-59,129.5C275.6,350.6,248.4,363.3,227.9,363.3z M237.7,46c-0.2,0-0.5,0-0.7,0c-29.8,0.4-58.1,17-79.6,46.7
	c-21.8,30.1-34.8,70.7-36.4,114.1c-1.4,37.7,8.7,72.7,28.3,98.5c19.1,25.1,46.1,40.3,76,42.7c13.9,1.1,38.8-7.5,63.2-29.2
	c19.3-17.2,51.9-55.4,54-118.8l0,0c2.2-65.7-20.8-103.4-40.4-123.4C279.9,54.1,254.4,46,237.7,46z"/>
<path d="M185.2,281.7c-1.8,0-3.7-0.1-5.6-0.2l0.9-15c1.6,0.1,3.2,0.1,4.7,0.1c22.8,0,40.3-10,52.2-29.8
	c10.1-16.8,12.5-34.7,12.7-36.7c0.1-0.5,0.1-0.9,0.2-1.3c6-25.8,2-49.6-12.1-70.7c-10.6-16-23.4-24.5-23.5-24.6L223,91
	c0.6,0.4,15.1,9.9,27.4,28.3c11.5,17,23.3,45.2,14.6,82.9c-0.5,4.1-3.4,23.6-14.7,42.5C235.7,269,213.3,281.7,185.2,281.7z
	 M265,202.3C265,202.3,265,202.3,265,202.3C265,202.3,265,202.3,265,202.3z"/>
<path d="M172.2,344.9c-30.7-0.3-55.9-10.7-75.1-31c-18.4-19.6-30.8-47.6-36.6-83.3c-4.3-26.3-3.3-46.7-3.2-47.6
	c2-35,9.5-65.3,22.1-90c10.4-20.2,24.2-36.7,41.2-49.2c29.4-21.6,58.5-23.6,61.8-23.8c0.3,0,0.6,0,0.8,0
	c30.2,0.3,51.3,11.7,52.1,12.2l-7.2,13.1l3.6-6.6l-3.6,6.6c-0.2-0.1-18.9-10.1-45.1-10.4c-1.6,0.1-27.5,1.8-53.6,20.9
	C114.5,67,102.1,81.8,92.8,99.9c-11.7,22.8-18.6,51-20.5,83.9c0,0.7-3.5,78.2,35.8,119.8c16.2,17.2,37.8,26,64.2,26.3L172.2,344.9z"
	/>
<polygon points="121.2,380.3 21.9,339.6 132.1,322.7 134.4,337.5 77.7,346.2 122.9,364.7 220.6,348 223.1,362.8 "/>
</svg>
