<svg xmlns="http://www.w3.org/2000/svg" viewBox="0 0 31.03 34.27"><defs><style>.cls-1{fill:#444;}</style></defs><title>taxes</title><g id="Layer_2" data-name="Layer 2"><g id="Layer_1-2" data-name="Layer 1"><path class="cls-1" d="M21.6,24.57h-.73a2.17,2.17,0,0,1-2.23-2.11v-2a2.17,2.17,0,0,1,2.23-2.11h.73a2.17,2.17,0,0,1,2.23,2.11v2A2.17,2.17,0,0,1,21.6,24.57Zm-.73-4.84a.79.79,0,0,0-.83.71v2a.79.79,0,0,0,.83.71h.73a.79.79,0,0,0,.83-.71v-2a.79.79,0,0,0-.83-.71Zm-7.68-2.08h-.73a2.17,2.17,0,0,1-2.23-2.11v-2a2.17,2.17,0,0,1,2.23-2.11h.73a2.17,2.17,0,0,1,2.23,2.11v2A2.17,2.17,0,0,1,13.19,17.65Zm-.73-4.84a.78.78,0,0,0-.83.71v2a.78.78,0,0,0,.83.71h.73a.79.79,0,0,0,.83-.71v-2a.79.79,0,0,0-.83-.71Z"/><path class="cls-1" d="M13.54,25a.69.69,0,0,1-.34-.09.7.7,0,0,1-.27-1l7-12.54a.7.7,0,0,1,1.22.68l-7,12.54A.7.7,0,0,1,13.54,25Z"/><path class="cls-1" d="M30.33,30.72H4.53a.7.7,0,0,1-.7-.7V.7a.7.7,0,0,1,.7-.7H22.66a.7.7,0,0,1,0,1.4H5.23V29.32h24.4v-21a.7.7,0,1,1,1.4,0V30A.7.7,0,0,1,30.33,30.72Z"/><path class="cls-1" d="M30.33,9.06H22.66a.7.7,0,0,1-.7-.7V.7a.7.7,0,0,1,1.2-.5l7.67,7.66a.7.7,0,0,1-.5,1.2Zm-7-1.4h5.27L23.36,2.39Z"/><path class="cls-1" d="M26.5,34.27H.7a.7.7,0,0,1-.7-.7V4.24a.7.7,0,0,1,.7-.7H4.53a.7.7,0,1,1,0,1.4H1.4V32.87H25.8V30a.7.7,0,0,1,1.4,0v3.54A.7.7,0,0,1,26.5,34.27Z"/></g></g></svg>