<svg xmlns="http://www.w3.org/2000/svg" viewBox="0 0 34.78 35.13"><defs><style>.cls-1{fill:#444;}</style></defs><title>technology_careers</title><g id="Layer_2" data-name="Layer 2"><g id="Layer_1-2" data-name="Layer 1"><path class="cls-1" d="M20.21,25.15H3.35a.7.7,0,0,1-.7-.7V13.72a.7.7,0,0,1,.7-.7H20.21a.7.7,0,0,1,.7.7V24.45A.7.7,0,0,1,20.21,25.15ZM4.05,23.75H19.51V14.42H4.05Z"/><path class="cls-1" d="M33.87,17H20.79a.7.7,0,1,1,0-1.4H33.17V1.4H10.23V13.09a.7.7,0,1,1-1.4,0V.7a.7.7,0,0,1,.7-.7H33.87a.7.7,0,0,1,.7.7V16.26A.7.7,0,0,1,33.87,17Z"/><path class="cls-1" d="M27.71,21.25H20.65a.7.7,0,0,1,0-1.4h7.07a.7.7,0,0,1,0,1.4Z"/><path class="cls-1" d="M33.34,35.13H27.82a1.44,1.44,0,0,1-1.44-1.44V24.06a1.44,1.44,0,0,1,1.44-1.44h5.52a1.44,1.44,0,0,1,1.44,1.44v9.63A1.44,1.44,0,0,1,33.34,35.13ZM27.82,24a0,0,0,0,0,0,0v9.63l5.56,0,0-9.67Z"/><path class="cls-1" d="M23.3,20.68a.7.7,0,0,1-.7-.7V16.53a.7.7,0,0,1,1.4,0V20A.7.7,0,0,1,23.3,20.68Z"/><path class="cls-1" d="M22.87,28.52H.7a.7.7,0,0,1,0-1.4H22.87a.7.7,0,0,1,0,1.4Z"/></g></g></svg>