<svg xmlns="http://www.w3.org/2000/svg" viewBox="0 0 26.44 35.14"><defs><style>.cls-1{fill:#444;}</style></defs><title>b line icon</title><g id="Layer_2" data-name="Layer 2"><g id="Layer_1-2" data-name="Layer 1"><path class="cls-1" d="M15,35.14H.7a.7.7,0,0,1-.7-.7V.7A.7.7,0,0,1,.7,0H12.11a.7.7,0,0,1,.7.7v33H15a.7.7,0,0,1,0,1.4ZM1.4,33.74h10V1.4H1.4Z"/><path class="cls-1" d="M15,35.14A11.48,11.48,0,1,1,26.44,23.67,11.49,11.49,0,0,1,15,35.14Zm0-21.56A10.08,10.08,0,1,0,25,23.67,10.09,10.09,0,0,0,15,13.59Z"/><path class="cls-1" d="M15,35.14a.7.7,0,0,1-.52-.24L.35,19a.7.7,0,1,1,1-.93L15.48,34A.7.7,0,0,1,15,35.14Z"/></g></g></svg>