<svg width="24" height="24" viewBox="0 0 24 24" fill="none" xmlns="http://www.w3.org/2000/svg">
<path d="M11.9994 4.34338C11.6758 4.34338 11.4135 4.60573 11.4135 4.92932C11.4135 5.25291 11.6758 5.51526 11.9994 5.51526C13.9382 5.51526 15.5156 7.09237 15.5156 9.03088C15.5156 9.35448 15.7779 9.61682 16.1015 9.61682C16.4251 9.61682 16.6875 9.35448 16.6875 9.03088C16.6875 6.4462 14.5844 4.34338 11.9994 4.34338Z" fill="black"/>
<path d="M10.4896 2.15745C7.84238 2.71061 5.69589 4.83655 5.13108 7.50026C4.65417 9.74956 5.24187 12.0078 6.74347 13.6958C7.47749 14.521 7.89843 15.6101 7.89843 16.6871V17.859C7.89843 18.6387 8.40886 19.3011 9.113 19.5305C9.34456 20.8987 10.5321 21.9996 12 21.9996C13.4675 21.9996 14.6553 20.899 14.887 19.5305C15.5911 19.3011 16.1016 18.6387 16.1016 17.859V16.6871C16.1016 15.608 16.5239 14.5319 17.2907 13.6571C18.4131 12.3766 19.0312 10.7336 19.0312 9.03089C19.0312 4.59475 14.9707 1.22128 10.4896 2.15745ZM12 20.8278C11.2468 20.8278 10.5864 20.3095 10.3425 19.6129H13.6574C13.4136 20.3095 12.7532 20.8278 12 20.8278ZM14.9297 17.859C14.9297 18.1821 14.6668 18.4449 14.3437 18.4449H9.65624C9.33316 18.4449 9.07031 18.1821 9.07031 17.859V17.2731H14.9297V17.859ZM16.4094 12.8847C15.5923 13.817 15.0895 14.9412 14.9619 16.1012H9.0382C8.91077 14.9406 8.40929 13.8053 7.61913 12.917C6.36765 11.5101 5.87862 9.62436 6.27749 7.74335C6.74308 5.54749 8.53214 3.7637 10.7294 3.3046C14.4803 2.52073 17.8594 5.3376 17.8594 9.03089C17.8594 10.4493 17.3445 11.818 16.4094 12.8847Z" fill="black"/>
<path d="M3.75781 9.03088H2.58594C2.26234 9.03088 2 9.29323 2 9.61682C2 9.94042 2.26234 10.2028 2.58594 10.2028H3.75781C4.08141 10.2028 4.34375 9.94042 4.34375 9.61682C4.34375 9.29323 4.08141 9.03088 3.75781 9.03088Z" fill="#006EFA"/>
<path d="M4.00052 6.10121L3.17188 5.27257C2.9431 5.04375 2.57208 5.04375 2.34325 5.27257C2.11442 5.5014 2.11442 5.87238 2.34325 6.10121L3.17188 6.92984C3.40067 7.15867 3.77169 7.15871 4.00052 6.92984C4.22935 6.70101 4.22935 6.33003 4.00052 6.10121Z" fill="#006EFA"/>
<path d="M4.00052 12.3038C3.77169 12.0749 3.40067 12.0749 3.17188 12.3038L2.34325 13.1324C2.11442 13.3612 2.11442 13.7322 2.34325 13.961C2.57204 14.1899 2.94306 14.1899 3.17188 13.961L4.00052 13.1324C4.22935 12.9036 4.22935 12.5326 4.00052 12.3038Z" fill="#006EFA"/>
<path d="M21.4141 9.03088H20.2422C19.9186 9.03088 19.6562 9.29323 19.6562 9.61682C19.6562 9.94042 19.9186 10.2028 20.2422 10.2028H21.4141C21.7377 10.2028 22 9.94042 22 9.61682C22 9.29323 21.7377 9.03088 21.4141 9.03088Z" fill="#006EFA"/>
<path d="M21.6568 5.27257C21.428 5.04375 21.057 5.04375 20.8281 5.27257L19.9995 6.1012C19.7707 6.33003 19.7707 6.70101 19.9995 6.92984C20.2283 7.15862 20.5993 7.15866 20.8281 6.92984L21.6568 6.1012C21.8856 5.87238 21.8856 5.5014 21.6568 5.27257Z" fill="#006EFA"/>
<path d="M21.6568 13.1324L20.8281 12.3038C20.5994 12.0749 20.2283 12.0749 19.9995 12.3038C19.7707 12.5326 19.7707 12.9036 19.9995 13.1324L20.8281 13.961C21.0569 14.1898 21.4279 14.1899 21.6568 13.961C21.8856 13.7322 21.8856 13.3612 21.6568 13.1324Z" fill="#006EFA"/>
</svg>
