<?xml version="1.0" encoding="utf-8"?>
<!-- Generator: Adobe Illustrator 24.1.0, SVG Export Plug-In . SVG Version: 6.00 Build 0)  -->
<svg version="1.1" id="Laag_1" xmlns="http://www.w3.org/2000/svg" xmlns:xlink="http://www.w3.org/1999/xlink" x="0px" y="0px"
	 viewBox="0 0 400 400" style="enable-background:new 0 0 400 400;" xml:space="preserve">
<g>
	<path d="M367.5,278.8h-335c-6.9,0-12.5-5.6-12.5-12.5v-184c0-6.9,5.6-12.5,12.5-12.5h335c6.9,0,12.5,5.6,12.5,12.5v184
		C380,273.2,374.4,278.8,367.5,278.8z M35,263.8h330v-179H35V263.8z"/>
	<path d="M245,329.5h-90c-6.9,0-12.5-5.6-12.5-12.5v-40c0-6.9,5.6-12.5,12.5-12.5h90c6.9,0,12.5,5.6,12.5,12.5v40
		C257.5,323.9,251.9,329.5,245,329.5z M157.5,314.5h85v-35h-85V314.5z"/>
	<path d="M300,330.2H100c-4.1,0-7.5-3.4-7.5-7.5s3.4-7.5,7.5-7.5h200c4.1,0,7.5,3.4,7.5,7.5S304.1,330.2,300,330.2z"/>
	<g>
		<path d="M205.1,165.2c-2.4,0-4.7-1.1-6.1-3.2l-14.4-20.5l-0.2-0.4c-4.5-8.6-0.1-17.8,6-22.7l0.1-0.1c8.8-6.9,18.8-3.1,22.8-0.1
			l0.9,0.7l7,9.4c2.5,3.3,1.8,8-1.5,10.5s-8,1.8-10.5-1.5l-5.5-7.4c-1-0.5-2.5-0.8-3.9,0.2c-0.4,0.4-2.5,2.5-2.2,3.8l13.7,19.5
			c2.4,3.4,1.6,8.1-1.8,10.5C208.1,164.7,206.6,165.2,205.1,165.2z"/>
		<path d="M183.5,173.3c-2.4,0-4.7-1.1-6.1-3.2l-14.1-20c-2.7-3.8-3.8-8-3.1-12.3c1.3-7.7,7.7-12.5,8.9-13.4l0.3-0.2
			c10.3-6.5,21.6,0.2,27.6,9.2c2.3,3.4,1.4,8.1-2,10.4c-3.4,2.3-8.1,1.4-10.4-2c-1-1.4-5-6-7.1-5c-0.5,0.4-1.5,1.4-2.2,2.5
			c-0.6,1.1-0.5,1.4,0,2.1l0.1,0.1l14.1,20.1c2.4,3.4,1.6,8.1-1.8,10.4C186.5,172.9,185,173.3,183.5,173.3z"/>
		<path d="M223.1,251.2c-1.1,0-2.2-0.1-3.2-0.4c-5-1.2-7.2-4.7-7.7-5.7c-1.5-2.9-3.2-3.1-3.7-3.1c-1.1,0-2.2-0.2-3.3-0.5l-31.2-9.1
			c-24.1-7.3-36-15-37.7-16.2c-8.4-5.4-8.4-14.2-7.1-18.2c3.2-10.7,11.9-13.9,16.4-14.2h0.6l14.2,1.4l-39.9-55.6l-0.1-0.2
			c-5.8-9.3-1.3-18.3,2.1-22.1c4.5-5.7,9.5-7.1,13-7.3c8.5-0.3,14.8,6.3,15.5,7.1l0.5,0.6l22.3,31.2c2.4,3.4,1.6,8.1-1.7,10.5
			c-3.4,2.4-8.1,1.6-10.5-1.7l-22-30.8c-1-0.9-2.6-2-3.4-1.9c-0.3,0-1,0.5-1.9,1.6l-0.6,0.7c-0.8,1-1.5,2.4-0.6,4l43.2,60.1
			c2.8,3.9,3.1,9,0.7,13.2c-2.4,4.2-6.9,6.5-11.8,6l-18.7-1.9c-0.8,0.3-2,1-2.7,3.4c-0.1,0.5,0.1,0.9,0.8,1.3l0.3,0.2
			c0.1,0.1,10.7,7.3,33.6,14.2l30.8,9c2.8,0.1,10,1.2,15.1,8.9c0.8-0.3,2.1-0.9,4.1-2.3l39.2-27.8c-0.1-0.6-0.6-1.8-2.3-3.8
			c-0.9-1.1-1.6-2.3-2-3.5c-1-2.7-2.5-8.2-1.6-14.8c-0.2-2.3-1.8-14.5-16.8-35.8l-0.4-0.7c-7-12.6-16.1-22.8-19.8-24
			c-1,0.4-2.6,1.2-3,2.4c-0.2,0.6-1.3,6.1,11.7,19.8c2.9,3,2.7,7.7-0.3,10.6c-3,2.9-7.8,2.7-10.6-0.3
			c-13.2-13.9-18.1-25.2-15.1-34.7c3.2-10.1,13.8-12.5,15-12.7l0.5-0.1h0.5c7.5-0.5,15.2,4.8,24.2,16.6c5,6.6,8.9,13.2,9.8,14.8
			c17.2,24.6,19.2,39.7,19.3,43.7c0,0.7,0,1.4-0.1,2.2c-0.5,3.3,0.3,6.1,0.7,7.4c4.3,5.4,6.1,10.7,5.3,15.7
			c-0.7,4.4-3.4,7.6-5.7,9.2l-39.7,28.2C231.9,249.5,227.3,251.2,223.1,251.2z M208.6,227.1L208.6,227.1L208.6,227.1z M268.1,205.4
			L268.1,205.4L268.1,205.4z M268.3,205.2L268.3,205.2L268.3,205.2z M268.3,205.2L268.3,205.2L268.3,205.2z M143.5,202.4v0.1
			C143.5,202.6,143.5,202.6,143.5,202.4z"/>
	</g>
</g>
</svg>
