<?xml version="1.0" encoding="utf-8"?>
<!-- Generator: Adobe Illustrator 24.1.0, SVG Export Plug-In . SVG Version: 6.00 Build 0)  -->
<svg version="1.1" id="Laag_1" xmlns="http://www.w3.org/2000/svg" xmlns:xlink="http://www.w3.org/1999/xlink" x="0px" y="0px"
	 viewBox="0 0 400 400" style="enable-background:new 0 0 400 400;" xml:space="preserve">
<style type="text/css">
	.st0{font-family:'MyriadPro-Semibold';}
	.st1{font-size:180px;}
	.st2{fill:none;stroke:#000000;stroke-width:15;stroke-miterlimit:10;}
</style>
<text transform="matrix(1 0 0 1 214.1827 324.1826)" class="st0 st1">A</text>
<path d="M214.2,218.3h-170c-6.9,0-12.5-5.6-12.5-12.5v-170c0-6.9,5.6-12.5,12.5-12.5h170c6.9,0,12.5,5.6,12.5,12.5v170
	C226.7,212.7,221.1,218.3,214.2,218.3z M46.7,203.3h165v-165h-165V203.3z"/>
<path d="M355.8,360.4h-170c-6.9,0-12.5-5.6-12.5-12.5V210.8h15v134.6h165v-165H218.9v-15h136.9c6.9,0,12.5,5.6,12.5,12.5v170
	C368.3,354.8,362.7,360.4,355.8,360.4z"/>
<path class="st2" d="M148.8,265.9"/>
<path d="M143.3,300.9h-40.5c-6.6,0-12-5.4-12-12v-40.5c0-4.1,3.4-7.5,7.5-7.5s7.5,3.4,7.5,7.5v37.5h37.5c4.1,0,7.5,3.4,7.5,7.5
	S147.4,300.9,143.3,300.9z"/>
<path d="M301.8,142.3c-4.1,0-7.5-3.4-7.5-7.5V97.3h-37.5c-4.1,0-7.5-3.4-7.5-7.5s3.4-7.5,7.5-7.5h40.5c6.6,0,12,5.4,12,12v40.5
	C309.3,138.9,306,142.3,301.8,142.3z"/>
<rect x="68.7" y="82.3" width="121" height="15"/>
<path d="M178.3,179.4c-0.9-0.1-21.2-2.3-42.2-14.3c-19.8-11.2-43.8-33.3-45.9-75l15-0.8c1.4,27.8,14.2,48.8,37.9,62.5
	c18.3,10.5,36.7,12.6,36.8,12.6L178.3,179.4z"/>
<rect x="121.7" y="60.4" width="15" height="29.4"/>
<path d="M79.6,179.4L78,164.5l0.8,7.5l-0.8-7.5c0.2,0,18.5-2.1,36.8-12.6c23.8-13.6,36.5-34.7,37.9-62.5l15,0.8
	c-2.1,41.6-26.1,63.8-45.9,75C100.8,177.1,80.4,179.3,79.6,179.4z"/>
</svg>
