<?xml version="1.0" encoding="utf-8"?>
<!-- Generator: Adobe Illustrator 24.1.0, SVG Export Plug-In . SVG Version: 6.00 Build 0)  -->
<svg version="1.1" id="Laag_1" xmlns="http://www.w3.org/2000/svg" xmlns:xlink="http://www.w3.org/1999/xlink" x="0px" y="0px"
	 viewBox="0 0 400 400" style="enable-background:new 0 0 400 400;" xml:space="preserve">
<g>
	<path d="M53.3,344.8l-3.9-14.5l103.1-27.4l-84.5-41.2l6.6-13.5l100.3,48.9c3.2,1.5,5.1,4.9,4.7,8.4c-0.3,3.5-2.9,6.5-6.3,7.4
		L53.3,344.8z"/>
	<path d="M371.4,329.1L263,312.3c-3.6-0.6-6.5-3.4-7.1-7c-0.6-3.6,1.2-7.2,4.5-8.9l84.8-43.4l6.8,13.4l-66.8,34.2l88.5,13.6
		L371.4,329.1z M265.2,297.5L265.2,297.5C265.2,297.5,265.2,297.5,265.2,297.5z"/>
	<path d="M281.4,237.9c-14.9,0-27.1-12.1-27.1-27.1c0-14.9,12.1-27.1,27.1-27.1c14.9,0,27.1,12.1,27.1,27.1
		C308.4,225.7,296.3,237.9,281.4,237.9z M281.4,198.8c-6.6,0-12.1,5.4-12.1,12.1s5.4,12.1,12.1,12.1s12.1-5.4,12.1-12.1
		S288,198.8,281.4,198.8z"/>
	<path d="M295.9,231.6c-1.9,0-3.7-0.7-5.2-2.1c-3-2.9-3.1-7.6-0.2-10.6l36.9-38.3c2.9-3,7.6-3.1,10.6-0.2c3,2.9,3.1,7.6,0.2,10.6
		l-36.9,38.3C299.8,230.9,297.9,231.6,295.9,231.6z"/>
	<path d="M51.4,367.1c-4.1,0-7.5-3.4-7.5-7.5v-43.9c0-4.1,3.4-7.5,7.5-7.5s7.5,3.4,7.5,7.5v43.9C58.9,363.7,55.5,367.1,51.4,367.1z"
		/>
	<path d="M71.6,284.5c-4.1,0-7.5-3.4-7.5-7.5V233c0-4.1,3.4-7.5,7.5-7.5s7.5,3.4,7.5,7.5V277C79.1,281.1,75.8,284.5,71.6,284.5z"/>
	<path d="M372.5,351.1c-4.1,0-7.5-3.4-7.5-7.5v-43.9c0-4.1,3.4-7.5,7.5-7.5s7.5,3.4,7.5,7.5v43.9C380,347.8,376.6,351.1,372.5,351.1
		z"/>
	<path d="M348.2,289.2c-4.1,0-7.5-3.4-7.5-7.5v-43.9c0-4.1,3.4-7.5,7.5-7.5s7.5,3.4,7.5,7.5v43.9
		C355.7,285.8,352.4,289.2,348.2,289.2z"/>
	<path d="M212.9,331.1H179c-6.9,0-12.5-5.6-12.5-12.5V45.4c0-6.9,5.6-12.5,12.5-12.5h33.9c6.9,0,12.5,5.6,12.5,12.5v273.1
		C225.4,325.5,219.8,331.1,212.9,331.1z M181.5,316.1h28.9V47.9h-28.9V316.1z"/>
	<path d="M256.8,331.1h-33.9c-6.9,0-12.5-5.6-12.5-12.5V45.4c0-6.9,5.6-12.5,12.5-12.5h33.9c6.9,0,12.5,5.6,12.5,12.5v273.1
		C269.3,325.5,263.7,331.1,256.8,331.1z M225.4,316.1h28.9V47.9h-28.9V316.1z"/>
	<path d="M169,130.3H135c-6.9,0-12.5-5.6-12.5-12.5V69.2c0-6.9,5.6-12.5,12.5-12.5H169c6.9,0,12.5,5.6,12.5,12.5v48.6
		C181.5,124.6,175.8,130.3,169,130.3z M137.5,115.3h28.9V71.7h-28.9V115.3z"/>
	<path d="M135,130.3H27.5c-4.1,0-7.5-3.4-7.5-7.5s3.4-7.5,7.5-7.5H135c4.1,0,7.5,3.4,7.5,7.5S139.1,130.3,135,130.3z"/>
</g>
</svg>
