<?xml version="1.0" encoding="utf-8"?>
<!-- Generator: Adobe Illustrator 24.1.0, SVG Export Plug-In . SVG Version: 6.00 Build 0)  -->
<svg version="1.1" id="Laag_1" xmlns="http://www.w3.org/2000/svg" xmlns:xlink="http://www.w3.org/1999/xlink" x="0px" y="0px"
	 viewBox="0 0 400 400" style="enable-background:new 0 0 400 400;" xml:space="preserve">
<g>
	<path d="M367.5,278.8h-335c-6.9,0-12.5-5.6-12.5-12.5v-184c0-6.9,5.6-12.5,12.5-12.5h335c6.9,0,12.5,5.6,12.5,12.5v184
		C380,273.2,374.4,278.8,367.5,278.8z M35,263.8h330v-179H35V263.8z"/>
	<path d="M245,329.5h-90c-6.9,0-12.5-5.6-12.5-12.5v-40c0-6.9,5.6-12.5,12.5-12.5h90c6.9,0,12.5,5.6,12.5,12.5v40
		C257.5,323.9,251.9,329.5,245,329.5z M157.5,314.5h85v-35h-85V314.5z"/>
	<path d="M300,330.2H100c-4.1,0-7.5-3.4-7.5-7.5s3.4-7.5,7.5-7.5h200c4.1,0,7.5,3.4,7.5,7.5S304.1,330.2,300,330.2z"/>
	<path d="M168.5,233.8c-2.1,0-4.3-0.6-6.2-1.7c-3.9-2.3-6.3-6.3-6.3-10.8v-94c0-4.5,2.3-8.6,6.2-10.8c3.9-2.3,8.6-2.3,12.5,0
		l81.4,47c3.9,2.3,6.2,6.3,6.2,10.8c0,4.5-2.3,8.6-6.2,10.8l-81.4,47C172.8,233.3,170.7,233.8,168.5,233.8z M171,131.6V217
		l73.9-42.7L171,131.6z M248.7,176.5C248.7,176.5,248.7,176.5,248.7,176.5L248.7,176.5z"/>
</g>
</svg>
