<svg xmlns="http://www.w3.org/2000/svg" viewBox="0 0 34.05 24.19"><defs><style>.cls-1{fill:#444;}</style></defs><title>us_economy</title><g id="Layer_2" data-name="Layer 2"><g id="Layer_1-2" data-name="Layer 1"><path class="cls-1" d="M16.94,24.19a.7.7,0,0,1-.24,0l-1-.36a.7.7,0,0,1-.35-.28L14.1,21.59a6,6,0,0,1-1.31-.2A3.17,3.17,0,0,1,10.71,20a1.4,1.4,0,0,0-.45-.48,1.87,1.87,0,0,0-.89,0,3.65,3.65,0,0,1-2.5-.35,8.12,8.12,0,0,0-3-.8A.7.7,0,0,1,3.31,18a10.87,10.87,0,0,0-1.42-2c-.54-.32-.74-1.18-1.13-3.38C.63,11.93.5,11.19.37,10.72l-.06-.2A4.55,4.55,0,0,1,.55,6.68,11.85,11.85,0,0,0,1.3,3.06a.7.7,0,0,1,1.19-.48l.17.17a.71.71,0,0,1,.68-.43C4.9,2.39,18.62,3,20.16,3.49a1.58,1.58,0,0,1,1.08.82,1.56,1.56,0,0,1-.3,1.4,2.22,2.22,0,0,0-.23.44.24.24,0,0,0,.1.24c.11.08.32,0,.55-.17a2.46,2.46,0,0,1,2.27-.71A2,2,0,0,1,24.84,7l.26-.29a7.83,7.83,0,0,1,.82-.83,1,1,0,0,0,.34-.64A2.07,2.07,0,0,1,27.62,3.6h0a7.27,7.27,0,0,1,1.11-.39c.28-.08.29-.08.65-.47a6.24,6.24,0,0,0,.63-1C30.47,1,30.92.18,31.66,0a1.25,1.25,0,0,1,1,.24.7.7,0,0,1,.23.29L34,3.09A1.92,1.92,0,0,1,32.7,5.39c-.47.22-.14,1.12-.06,1.32a.87.87,0,0,1,.11.55c-.06.52-.53,1-1.57,1.53-.85.45-.57,2.37-.39,3.63,0,.29.08.57.1.8A3.44,3.44,0,0,1,29.65,16a10.09,10.09,0,0,0-1.07,1.36c-.55.87,0,1.67.8,2.61.17.21.33.39.43.55a2,2,0,0,1-.56,3,1,1,0,0,1-.76.17c-1-.18-2.57-2.26-3.44-3.54A2.47,2.47,0,0,0,23.59,20a.67.67,0,0,0-.47.17.62.62,0,0,0,0,.43.7.7,0,0,1-1.06.8,3.21,3.21,0,0,0-2.1-.53,1.52,1.52,0,0,0-1,.75c-.57.92-1.45,2.29-1.45,2.29A.7.7,0,0,1,16.94,24.19Zm-.54-1.64.25.09c.31-.48.78-1.22,1.14-1.8a2.88,2.88,0,0,1,1.88-1.39,3.83,3.83,0,0,1,2.13.22,1.67,1.67,0,0,1,.15-.3,1.9,1.9,0,0,1,1.51-.82,3.1,3.1,0,0,1,2.64.62l.07.09a14.65,14.65,0,0,0,2.45,2.94.6.6,0,0,0,0-.88c-.09-.13-.21-.27-.35-.44-.72-.86-2.05-2.45-.91-4.26a11.42,11.42,0,0,1,1.21-1.54c.66-.74.95-1.1.89-1.71,0-.22-.06-.48-.1-.75-.23-1.65-.59-4.16,1.12-5.07a4.6,4.6,0,0,0,.76-.48,3,3,0,0,1-.1-1.95,1.75,1.75,0,0,1,.94-1c.45-.21.57-.44.55-.58l-.85-2a8.13,8.13,0,0,0-.58.92,7,7,0,0,1-.8,1.21,2.27,2.27,0,0,1-1.31.88,5.91,5.91,0,0,0-.92.32c-.44.19-.47.31-.55.66a2.33,2.33,0,0,1-.81,1.4,6.69,6.69,0,0,0-.66.68c-.53.6-1,1.16-1.72,1s-.84-.88-.91-1.12c-.12-.47-.27-.63-.33-.65s-.25-.08-1,.48a1.82,1.82,0,0,1-2.19.23,1.64,1.64,0,0,1-.67-1.79A3.2,3.2,0,0,1,19.75,5l.08-.14-.06,0c-1-.29-9.88-.81-15.94-1.1l-.13.52a.7.7,0,0,1-1.16.34,11.4,11.4,0,0,1-.7,2.63,3.23,3.23,0,0,0-.19,2.91l.06.2c.15.54.28,1.28.42,2.07A15,15,0,0,0,2.7,14.9,9.38,9.38,0,0,1,4.33,17a9,9,0,0,1,3.26,1,2.37,2.37,0,0,0,1.61.16,2.78,2.78,0,0,1,1.73.16,2.66,2.66,0,0,1,.92.89,1.82,1.82,0,0,0,1.27.87,3.91,3.91,0,0,0,1,.16.7.7,0,0,1,.87.26ZM14,20.3l-.06.06ZM2.73,14.93ZM31.55,7.57h0Zm0,0h0Zm0,0h0Zm0,0Zm0,0Z"/><path class="cls-1" d="M14.38,18.43a.7.7,0,0,1-.51-.22L8.14,12.16,3,14.92a.7.7,0,1,1-.66-1.23l5.59-3a.7.7,0,0,1,.84.13l5.54,5.85,4.07-5.19-1.61.34a.7.7,0,0,1-.29-1.37L20,9.7a.7.7,0,0,1,.69,1.12l-5.75,7.34a.7.7,0,0,1-.52.27Z"/><path class="cls-1" d="M20.58,14.5a.7.7,0,0,1-.69-.61l-.46-3.41a.7.7,0,0,1,1.39-.19l.46,3.41a.7.7,0,0,1-.6.79Z"/></g></g></svg>