<svg xmlns="http://www.w3.org/2000/svg" viewBox="0 0 34.24 31.77"><defs><style>.cls-1{fill:#444;}</style></defs><title>us_military_careers</title><g id="Layer_2" data-name="Layer 2"><g id="Layer_1-2" data-name="Layer 1"><path class="cls-1" d="M8.17,15.78a.71.71,0,0,1-.33-.08L.72,11.88a.7.7,0,0,1-.37-.62V.7A.7.7,0,0,1,1,0H15.3a.7.7,0,0,1,.7.7V11.26a.7.7,0,0,1-.37.62L8.51,15.7A.71.71,0,0,1,8.17,15.78ZM1.75,10.85l6.43,3.44,6.43-3.44V1.4H1.75Z"/><path class="cls-1" d="M4.74,13.4a.7.7,0,0,1-.7-.7V1.11a.7.7,0,0,1,1.4,0V12.7A.7.7,0,0,1,4.74,13.4Z"/><path class="cls-1" d="M12,13.4a.7.7,0,0,1-.7-.7V1.11a.7.7,0,1,1,1.4,0V12.7A.7.7,0,0,1,12,13.4Z"/><path class="cls-1" d="M11.88,21.68H4.6a.7.7,0,1,1,0-1.4h7.28a.7.7,0,1,1,0,1.4Z"/><path class="cls-1" d="M11.88,24.23H4.6a.7.7,0,1,1,0-1.4h7.28a.7.7,0,1,1,0,1.4Z"/><path class="cls-1" d="M11.88,26.77H4.6a.7.7,0,0,1,0-1.4h7.28a.7.7,0,0,1,0,1.4Z"/><path class="cls-1" d="M28.79,28.35a.7.7,0,0,1-.36-.1l-2.49-1.5-2.36,1.49a.7.7,0,0,1-1.06-.75l.66-2.83L21,22.87a.7.7,0,0,1,.39-1.24l2.89-.25,1-2.6a.7.7,0,0,1,.64-.44.72.72,0,0,1,.65.43l1.13,2.68,2.79.18A.7.7,0,0,1,31,22.86l-2.2,1.9.69,2.71a.7.7,0,0,1-.68.87Zm-2.86-3.12a.71.71,0,0,1,.36.1l1.39.84-.37-1.47a.7.7,0,0,1,.22-.7l1.23-1.07-1.52-.1a.7.7,0,0,1-.6-.43L26,20.9l-.56,1.41a.7.7,0,0,1-.59.44l-1.62.14,1.17,1a.7.7,0,0,1,.23.7l-.37,1.59,1.28-.81A.7.7,0,0,1,25.93,25.22Zm-1.13-3.17h0Z"/><path class="cls-1" d="M26,31.77a8.24,8.24,0,1,1,8.24-8.24A8.25,8.25,0,0,1,26,31.77Zm0-15.08a6.84,6.84,0,1,0,6.84,6.84A6.85,6.85,0,0,0,26,16.68Z"/><path class="cls-1" d="M8.24,31.59a8.24,8.24,0,1,1,8.24-8.24A8.25,8.25,0,0,1,8.24,31.59Zm0-15.08a6.84,6.84,0,1,0,6.84,6.84A6.85,6.85,0,0,0,8.24,16.51Z"/><path class="cls-1" d="M26,15.78a.71.71,0,0,1-.33-.08l-7.13-3.82a.7.7,0,0,1-.37-.62V.7a.7.7,0,0,1,.7-.7H33.13a.7.7,0,0,1,.7.7V11.26a.7.7,0,0,1-.37.62L26.33,15.7A.71.71,0,0,1,26,15.78Zm-6.43-4.94L26,14.29l6.43-3.44V1.4H19.57Z"/><path class="cls-1" d="M22.56,13.4a.7.7,0,0,1-.7-.7V1.11a.7.7,0,0,1,1.4,0V12.7A.7.7,0,0,1,22.56,13.4Z"/><path class="cls-1" d="M29.84,13.4a.7.7,0,0,1-.7-.7V1.11a.7.7,0,0,1,1.4,0V12.7A.7.7,0,0,1,29.84,13.4Z"/></g></g></svg>