<?xml version="1.0" encoding="utf-8"?>
<!-- Generator: Adobe Illustrator 24.1.0, SVG Export Plug-In . SVG Version: 6.00 Build 0)  -->
<svg version="1.1" id="Laag_1" xmlns="http://www.w3.org/2000/svg" xmlns:xlink="http://www.w3.org/1999/xlink" x="0px" y="0px"
	 viewBox="0 0 400 400" style="enable-background:new 0 0 400 400;" xml:space="preserve">
<g>
	<rect x="131.2" y="246.7" width="137.6" height="15"/>
	<g>
		<path d="M343.8,261.7H331v-15h12.8c5.4,0,9.8-4.4,9.8-9.8v-190c0-2.2-1.8-4-4-4H50.2c-2.2,0-4,1.8-4,4v190c0,5.4,4.4,9.8,9.8,9.8
			h12.8v15H56c-13.7,0-24.8-11.1-24.8-24.8v-190c0-10.5,8.5-19,19-19h299.4c10.5,0,19,8.5,19,19v190
			C368.6,250.6,357.5,261.7,343.8,261.7z"/>
		<path d="M103.6,214.9c-1.9,0-3.8-0.7-5.3-2.2c-2.9-2.9-3-7.7-0.1-10.6l67.4-68.1c4.6-4.6,11.7-5.2,17-1.6l42.1,28.9l64.4-80.1
			c2.6-3.2,7.3-3.7,10.5-1.1c3.2,2.6,3.7,7.3,1.1,10.5l-65.3,81.2c-4.2,5.6-12,6.8-17.9,2.8l-42.4-29.1l-66.4,67.1
			C107.5,214.2,105.5,214.9,103.6,214.9z M174.2,144.8C174.2,144.8,174.2,144.8,174.2,144.8L174.2,144.8z"/>
	</g>
</g>
<g>
	<g>
		<path d="M100,315.7c-24,0-43.5-19.5-43.5-43.5S76,228.7,100,228.7s43.5,19.5,43.5,43.5S124,315.7,100,315.7z M100,243.7
			c-15.7,0-28.5,12.8-28.5,28.5s12.8,28.5,28.5,28.5s28.5-12.8,28.5-28.5S115.7,243.7,100,243.7z"/>
		<g>
			<path d="M179.6,387.8h-15v-7.5c0-35.6-29-64.6-64.6-64.6s-64.6,29-64.6,64.6v7.5h-15v-7.5c0-43.9,35.7-79.6,79.6-79.6
				s79.6,35.7,79.6,79.6V387.8z"/>
			<rect x="20.4" y="372.8" width="159.2" height="15"/>
		</g>
	</g>
	<g>
		<path d="M300,315.7c-24,0-43.5-19.5-43.5-43.5s19.5-43.5,43.5-43.5s43.5,19.5,43.5,43.5S324,315.7,300,315.7z M300,243.7
			c-15.7,0-28.5,12.8-28.5,28.5s12.8,28.5,28.5,28.5s28.5-12.8,28.5-28.5S315.7,243.7,300,243.7z"/>
		<g>
			<path d="M379.6,387.8h-15v-7.5c0-35.6-29-64.6-64.6-64.6s-64.6,29-64.6,64.6v7.5h-15v-7.5c0-43.9,35.7-79.6,79.6-79.6
				s79.6,35.7,79.6,79.6V387.8z"/>
			<rect x="220.4" y="372.8" width="159.2" height="15"/>
		</g>
	</g>
</g>
<rect x="38.7" y="139.8" width="322.4" height="10"/>
<rect x="195" y="36" width="10" height="218.2"/>
</svg>
