<svg xmlns="http://www.w3.org/2000/svg" viewBox="0 0 34.28 30.45"><defs><style>.cls-1{fill:#222;}</style></defs><title>video</title><g id="Layer_2" data-name="Layer 2"><g id="Layer_1-2" data-name="Layer 1"><path class="cls-1" d="M33.58,29.39H.7A.7.7,0,1,1,.7,28H33.58a.7.7,0,1,1,0,1.4Zm0-4.83H.7a.7.7,0,0,1-.7-.7V.7A.7.7,0,0,1,.7,0H33.58a.7.7,0,0,1,.7.7V23.86A.7.7,0,0,1,33.58,24.56ZM1.4,23.16H32.88V1.4H1.4ZM12.07,18.9a.7.7,0,0,1-.7-.7V6.36a.7.7,0,0,1,1.06-.6l10.14,6a.7.7,0,0,1,0,1.21L12.42,18.8A.7.7,0,0,1,12.07,18.9Zm.7-11.31V17l8-4.65Z"/><path class="cls-1" d="M7.68,30.45a1.88,1.88,0,1,1,1.88-1.87A1.88,1.88,0,0,1,7.68,30.45Zm0-2.35a.47.47,0,1,0,.47.47A.47.47,0,0,0,7.68,28.1Z"/></g></g></svg>