<svg xmlns="http://www.w3.org/2000/svg" viewBox="0 0 33.13 33.13"><defs><style>.cls-1{fill:#444;}</style></defs><g><g><path class="cls-1" d="M12.9,33.13h-.23a.58.58,0,0,1-.18,0c-1.6-.61-1.69-2.56-1.76-4.12,0-1-.1-2.14-.52-2.35s-1.1.51-1.72,1.13C7.56,28.68,6.29,30,4.91,29a.49.49,0,0,1-.13-.12c-1.11-1.37,0-3.12.93-4.54.52-.81,1.23-1.93,1-2.28s-1.48-.07-2.38.16c-1.5.37-3.35.84-4-.7a1.21,1.21,0,0,1-.05-.18C0,19.57,1.81,18.55,3.45,17.66c.87-.47,2.18-1.19,2.15-1.63s-1.37-.7-2.26-.89C1.78,14.8-.17,14.38,0,12.67a1.16,1.16,0,0,1,0-.18c.62-1.62,2.74-1.61,4.68-1.62,1,0,2.57,0,2.77-.4S6.58,9.19,5.93,8.65c-1.24-1-2.78-2.32-1.75-3.74l.13-.13c1.37-1.12,3.09,0,4.46,1,.74.5,1.86,1.27,2.2,1s.11-1.53-.09-2.46c-.33-1.51-.74-3.4.79-4.08l.17-.05C13.57,0,14.41,1.55,15,2.72c.4.77.81,1.51,1.24,1.53s.94-.9,1.34-1.73C18.16,1.33,18.85-.15,20.47,0a.48.48,0,0,1,.17,0c1.69.64,1.43,2.57,1.22,4.12-.11.84-.26,2,.09,2.17s1.45-.52,2.24-1.1c1.27-1,2.72-2,4-1.07a.53.53,0,0,1,.13.13c1.13,1.38-.1,3.09-1.09,4.46-.52.73-1.32,1.84-1.1,2.18s1.58.12,2.54-.08c1.55-.32,3.48-.73,4.15.8a.49.49,0,0,1,.06.17c.27,1.76-1.59,2.63-3.1,3.33-.8.38-2,.94-2,1.35s1.27.89,2.17,1.19c1.47.49,3.3,1.1,3.12,2.76a.58.58,0,0,1,0,.18c-.62,1.62-2.66,1.6-4.45,1.59-1,0-2.36,0-2.56.39s.72,1.23,1.38,1.85c1.12,1.05,2.51,2.35,1.5,3.74a.37.37,0,0,1-.12.13c-1.34,1.09-3.08.15-4.49-.6-.85-.46-1.93-1-2.31-.77s-.09,1.24.15,2.12c.35,1.29.84,3.06-.71,3.75a.64.64,0,0,1-.18.06c-1.74.27-2.62-1.47-3.32-2.86-.41-.82-.92-1.82-1.34-1.82h0c-.48,0-.86,1.07-1.19,2C15,31.52,14.37,33.13,12.9,33.13Zm-2.84-8a1.69,1.69,0,0,1,.76.18c1.18.57,1.24,2.08,1.31,3.54s.16,2.52.77,2.84c.47,0,.8-.86,1.2-2,.48-1.32,1-2.81,2.41-2.91s2.08,1.33,2.71,2.59,1.12,2.11,1.74,2.11h0c.3-.22.2-.84-.14-2.06s-.78-2.83.42-3.65,2.44,0,3.75.7c1.1.58,2.22,1.18,2.86.81.14-.38-.51-1-1.37-1.83-1.08-1-2.32-2.17-1.68-3.49s2.24-1.18,3.83-1.17c1.29,0,2.72,0,3.09-.6-.07-.5-1.19-.87-2.18-1.2-1.41-.47-3-1-3.12-2.42s1.37-2.05,2.79-2.71,2.3-1.13,2.31-1.75c-.31-.39-1.55-.13-2.55.08-1.49.31-3.18.66-4-.51S25.2,9.25,26.13,8c.71-1,1.51-2.1,1.19-2.68-.51-.23-1.45.48-2.29,1.1-1.16.86-2.46,1.83-3.69,1.23S20.29,5.4,20.48,4s.26-2.31-.25-2.6c-.52,0-.88.68-1.38,1.73s-1.16,2.42-2.5,2.52-2-1.17-2.58-2.28-1-1.76-1.6-1.77c-.39.3-.14,1.45.08,2.46.32,1.46.68,3.12-.49,3.92S9.28,7.82,8,6.93c-1-.67-2.1-1.44-2.7-1.12-.1.39.85,1.18,1.55,1.77,1.21,1,2.58,2.15,1.92,3.5-.58,1.19-2.28,1.2-4,1.19-1.28,0-2.93,0-3.32.63.1.41,1.27.66,2.23.87,1.52.32,3.25.69,3.35,2.16s-1.35,2.13-2.87,3c-1.18.64-2.5,1.37-2.52,2.08.27.34,1.2.14,2.37-.16,1.45-.37,3.08-.78,3.89.41s-.13,2.5-1,3.83c-.66,1-1.41,2.21-1.07,2.82.33.15.8-.22,1.68-1.11C8.21,26,9.08,25.17,10.06,25.17Z"/><path class="cls-1" d="M16.22,14.36a2.88,2.88,0,1,1,2.88-2.88A2.88,2.88,0,0,1,16.22,14.36Zm0-4.36a1.48,1.48,0,1,0,1.48,1.48A1.48,1.48,0,0,0,16.22,10Z"/><path class="cls-1" d="M20.08,24.44a2.67,2.67,0,1,1,2.67-2.67A2.66,2.66,0,0,1,20.08,24.44Zm0-3.94a1.27,1.27,0,1,0,1.27,1.27A1.27,1.27,0,0,0,20.08,20.5Z"/><path class="cls-1" d="M12.07,23.3a2.67,2.67,0,1,1,2.67-2.67A2.67,2.67,0,0,1,12.07,23.3Zm0-3.94a1.27,1.27,0,1,0,1.27,1.27A1.27,1.27,0,0,0,12.07,19.36Z"/><path class="cls-1" d="M11.61,16.62a.72.72,0,0,1-.32-.08A2.68,2.68,0,0,1,10.86,12a.71.71,0,1,1,.86,1.12,1.25,1.25,0,0,0-.5,1,1.27,1.27,0,0,0,.7,1.14.7.7,0,0,1-.31,1.33Z"/><path class="cls-1" d="M18.4,18.17h-.09a.7.7,0,0,1-.6-.78,3.37,3.37,0,0,1,2.34-3,3.27,3.27,0,0,1,3.07.75.7.7,0,0,1-.92,1.06,1.89,1.89,0,0,0-1.76-.46,2,2,0,0,0-1.34,1.77A.71.71,0,0,1,18.4,18.17Z"/></g></g></svg>