<?xml version="1.0" encoding="utf-8"?>
<!-- Generator: Adobe Illustrator 24.1.0, SVG Export Plug-In . SVG Version: 6.00 Build 0)  -->
<svg version="1.1" id="Laag_1" xmlns="http://www.w3.org/2000/svg" xmlns:xlink="http://www.w3.org/1999/xlink" x="0px" y="0px"
	 viewBox="0 0 400 400" style="enable-background:new 0 0 400 400;" xml:space="preserve">
<g>
	<path d="M148.3,331H47.4c-4.1,0-7.5-3.4-7.5-7.5s3.4-7.5,7.5-7.5h100.9c4.1,0,7.5,3.4,7.5,7.5S152.4,331,148.3,331z"/>
	<path d="M249.2,252.1H148.3c-4.1,0-7.5-3.4-7.5-7.5s3.4-7.5,7.5-7.5h100.9c4.1,0,7.5,3.4,7.5,7.5S253.3,252.1,249.2,252.1z"/>
	<path d="M352.6,293.4H251.7c-4.1,0-7.5-3.4-7.5-7.5s3.4-7.5,7.5-7.5h100.9c4.1,0,7.5,3.4,7.5,7.5S356.7,293.4,352.6,293.4z"/>
	<path d="M47.5,367.7c-4.1,0-7.5-3.4-7.5-7.5v-36.7c0-4.1,3.4-7.5,7.5-7.5s7.5,3.4,7.5,7.5v36.7C55,364.3,51.6,367.7,47.5,367.7z"/>
	<path d="M148.3,325.4c-4.1,0-7.5-3.4-7.5-7.5v-73.4c0-4.1,3.4-7.5,7.5-7.5s7.5,3.4,7.5,7.5v73.4
		C155.8,322.1,152.4,325.4,148.3,325.4z"/>
	<path d="M249.2,293.4c-4.1,0-7.5-3.4-7.5-7.5v-36.7c0-4.1,3.4-7.5,7.5-7.5s7.5,3.4,7.5,7.5v36.7
		C256.7,290.1,253.3,293.4,249.2,293.4z"/>
	<path d="M352.6,367.7c-4.1,0-7.5-3.4-7.5-7.5v-73.4c0-4.1,3.4-7.5,7.5-7.5s7.5,3.4,7.5,7.5v73.4
		C360.1,364.3,356.7,367.7,352.6,367.7z"/>
</g>
<g>
	<path d="M228,179.3h-54v-43.8c-37.8-36.2-36.6-90.2-36.3-97c-1-12.2,8-17.7,14.4-18.5l0.4-0.1h93.7c7.4,0,11.6,2.9,13.7,5.4
		c3.4,3.9,3.7,8.3,3.6,10.4c3.6,52.5-27.4,89.7-36.5,99.4L228,179.3z M189,164.3h23.7l-0.7-35.3l2.4-2.3c0.4-0.4,38-37.2,34.2-90.4
		l-0.1-1.1c-0.4-0.1-1.1-0.3-2.3-0.3h-92.6c-0.9,0.3-1.2,0.8-1,2.6l0.1,0.6l0,0.6c0,0.5-2.8,54.9,33.8,87.8l2.5,2.2V164.3z"/>
	<path d="M240.3,116.8c-1.1,0-2.2,0-3.3-0.1l0.8-15c16.1,0.8,29.8-6.2,40.8-20.8c8.7-11.6,12.4-23.8,12.4-23.9l0.4-1.3l0.8-1.1
		c0.3-0.4,0.5-0.7,0.6-0.9c-0.3-0.2-0.7-0.4-1.1-0.6h-35.1v-15H294l1,0.3c1.6,0.5,9.6,3.1,12.2,10.6c1,3,1.4,7.8-2.3,13.4
		c-1.3,3.8-5.6,15.5-14.1,27.1C277.5,107.4,260.1,116.8,240.3,116.8z"/>
	<path d="M155.5,114.9c-16.5,0-31.9-8.1-44.8-23.8C101.1,79.6,96,67.5,94.9,64.9c-4.1-7.7-3-13.5-1.2-16.9
		c4.1-8.1,14.2-9.6,15.4-9.8l0.5-0.1h35.6v15h-34.6c-1.5,0.3-3.2,1.1-3.5,1.6l0,0c0,0-0.1,1,1.2,3.3l0.3,0.5l0.2,0.5
		c0.2,0.4,17.9,45.1,51.8,40.6l2,14.9C160.1,114.8,157.8,114.9,155.5,114.9z"/>
	<path d="M242.9,224.2h-84.5c-6.9,0-12.5-5.6-12.5-12.5v-29.9c0-9.6,7.9-17.5,17.5-17.5h74.5c9.6,0,17.5,7.9,17.5,17.5v29.9
		C255.4,218.6,249.8,224.2,242.9,224.2z M160.9,209.2h79.5v-27.4c0-1.4-1.1-2.5-2.5-2.5h-74.5c-1.4,0-2.5,1.1-2.5,2.5V209.2z"/>
	<rect x="181.5" y="124.6" width="38.2" height="15"/>
</g>
<path d="M208.8,367.7c-4.1,0-7.5-3.4-7.5-7.5V308c-6.2,3.5-13,5.1-17.9,5.6c-4.1,0.4-7.8-2.7-8.1-6.8c-0.4-4.1,2.7-7.8,6.8-8.1l0,0
	c0.2,0,18.9-2,19.3-14.3l15,0.2v75.6C216.3,364.3,212.9,367.7,208.8,367.7z"/>
</svg>
