<?xml version="1.0" encoding="utf-8"?>
<!-- Generator: Adobe Illustrator 24.1.0, SVG Export Plug-In . SVG Version: 6.00 Build 0)  -->
<svg version="1.1" id="Laag_1" xmlns="http://www.w3.org/2000/svg" xmlns:xlink="http://www.w3.org/1999/xlink" x="0px" y="0px"
	 viewBox="0 0 400 400" style="enable-background:new 0 0 400 400;" xml:space="preserve">
<style type="text/css">
	.st0{display:none;}
	.st1{display:inline;}
</style>
<g class="st0">
	<path class="st1" d="M200,450.8c-5.9,0-10.8-4.9-10.8-10.8v-50.5c0-5.9,4.9-10.8,10.8-10.8c5.9,0,10.8,4.9,10.8,10.8V440
		C210.9,446,206,450.8,200,450.8z"/>
	<path class="st1" d="M221.7,398.8h-43.3c-9.9,0-18-8.1-18-18v-31.3c0-9.9,8.1-18,18-18h43.3c9.9,0,18,8.1,18,18v31.3
		C239.7,390.7,231.6,398.8,221.7,398.8z M182,377.2h36.1v-24H182V377.2z"/>
	<path class="st1" d="M236.6,353.1h-73.1c-9.5,0-17.4-7.4-18-16.8l-14.1-225.1h137.2l-14,225.1C254,345.8,246.1,353.1,236.6,353.1z
		 M166.9,331.5h66.3l12.4-198.6h-91.1L166.9,331.5z"/>
	<path class="st1" d="M277.3,79.5H122.7c-5.9,0-10.8-4.9-10.8-10.8s4.9-10.8,10.8-10.8h154.6c5.9,0,10.8,4.9,10.8,10.8
		C288.1,74.7,283.2,79.5,277.3,79.5z"/>
	<path class="st1" d="M143.8,132.5c-2.4,0-4.9-0.8-6.9-2.5c-1-0.8-25-21.1-25-61.3c0-47.8,40.3-88.1,88.1-88.1s88.1,40.3,88.1,88.1
		c0,36.5-22.8,59.3-23.9,60.2c-4.3,4.2-11.2,4.1-15.3-0.2c-4.2-4.3-4.1-11,0.1-15.3c0.4-0.4,17.4-17.8,17.4-44.8
		c0-17-7.1-33.9-19.7-46.4C234,9.3,217.4,2.2,200,2.2c-35.4,0-66.4,31-66.4,66.4c0,29.6,16.5,44.1,17.1,44.7
		c4.7,3.8,5.2,10.6,1.4,15.3C150,131.2,146.9,132.5,143.8,132.5z"/>
</g>
<path d="M261.1,293.3c-4.4,0-8.1-3.7-8.1-8.1c0-4.4,3.7-8.1,8.1-8.1c7.5,0,13.5-6.1,13.5-13.5c0-4.4,3.7-8.1,8.1-8.1
	s8.1,3.7,8.1,8.1C290.9,280,277.6,293.3,261.1,293.3z"/>
<path d="M261.1,336.6c-4.4,0-8.1-3.7-8.1-8.1c0-4.4,3.7-8.1,8.1-8.1c31.3,0,56.9-25.6,56.9-56.9c0-4.4,3.7-8.1,8.1-8.1
	c4.4,0,8.1,3.7,8.1,8.1C334.2,303.8,301.4,336.6,261.1,336.6z"/>
<path d="M261.1,380c-4.4,0-8.1-3.7-8.1-8.1c0-4.4,3.7-8.1,8.1-8.1c55.3,0,100.2-45,100.2-100.2c0-4.4,3.7-8.1,8.1-8.1
	c4.4,0,8.1,3.7,8.1,8.1C377.6,327.8,325.3,380,261.1,380z"/>
<g>
	<path d="M166.8,329.6c-0.3,0-0.5,0-0.7,0l-56.3,0c-8,0.3-14.4-1.8-19.1-6.2c-6.2-5.9-6.4-13.6-6.4-14.5l-0.5-42.4l0.1-0.6
		c2.2-14.4-11.3-31.3-17-36.9c-47.5-37.9-44.8-86.5-44.4-90.5c2.9-60.2,33.3-89.3,58.2-103.1c26.9-14.9,52.9-15.4,54-15.4l0.3,0
		l0.2,0c61.4,3.1,90.2,35.6,103.6,62.3c14.3,28.6,14.1,56.1,14.1,57.3c-1,45.9-29.5,75.4-30.7,76.6l-0.4,0.4l-0.5,0.4
		c-30.9,22.7-33.8,46.4-34,48.8v38.6c0,9-2.5,15.8-7.5,20.3C174.9,329.1,169.3,329.6,166.8,329.6z M109.5,314.3l57.5,0
		c0.4,0,1.6-0.2,2.6-1.1c1.5-1.5,2.3-4.6,2.3-8.8l0-39.3c0.1-1.3,2.1-32.2,39.7-60.1c3.1-3.4,25.2-28.8,26-65.8
		c0-0.2,0.1-25.4-12.7-50.7c-16.8-33.1-47.1-51-90.1-53.3c-2.4,0.1-24.7,1.2-47.1,13.8c-31,17.4-47.8,47.8-49.8,90.3l0,0.3
		c-0.1,1.8-3.1,44.1,39,77.5l0.5,0.5c1,1,25.2,24.5,21.9,49.8l0.5,41.2c0.2,2.7,2,5.9,9.6,5.6L109.5,314.3z"/>
	<path d="M158,366.1h-40.4c-9.9,0-17.9-8-17.9-17.9v-21.2c0-7,5.7-12.8,12.8-12.8h50.6c7,0,12.8,5.7,12.8,12.8v21.2
		C175.8,358.1,167.8,366.1,158,366.1z M115,329.6v18.6c0,1.4,1.1,2.6,2.6,2.6H158c1.4,0,2.6-1.1,2.6-2.6v-18.6H115z"/>
	<rect x="92" y="275" width="87.5" height="15.3"/>
	<path d="M69.6,150c0,0-0.1,0-0.1,0c-4.2-0.1-7.6-3.5-7.6-7.8c0.5-39.1,22.1-58.8,40.1-68.5c19-10.2,37.8-11.3,38.6-11.4
		c4.2-0.2,7.8,3,8.1,7.2c0.2,4.2-3,7.8-7.2,8.1l0,0c-2.6,0.2-63.3,4.4-64.2,64.8C77.2,146.7,73.8,150,69.6,150z"/>
</g>
</svg>
