<?xml version="1.0" encoding="utf-8"?>
<!-- Generator: Adobe Illustrator 24.1.0, SVG Export Plug-In . SVG Version: 6.00 Build 0)  -->
<svg version="1.1" id="Laag_1" xmlns="http://www.w3.org/2000/svg" xmlns:xlink="http://www.w3.org/1999/xlink" x="0px" y="0px"
	 viewBox="0 0 400 400" style="enable-background:new 0 0 400 400;" xml:space="preserve">
<g>
	<g>
		<path d="M68.7,380c-0.1,0-0.1,0-0.2,0c-3.3,0-6.5-1.4-8.8-3.8l-36-36c-2.4-2.4-3.7-5.6-3.7-8.9c0-3.4,1.3-6.5,3.7-8.9l21.6-21.6
			c5-5,12.8-5,17.8,0l36.1,36.1c2.4,2.4,3.7,5.6,3.7,8.9c0,3.4-1.3,6.5-3.7,8.9l-21.6,21.6C75.3,378.6,72.1,380,68.7,380z M36,331.2
			L68.8,364L87,345.7L54.3,313L36,331.2z"/>
		<path d="M104.1,357.3c-3.2,0-6.4-1.2-8.8-3.6l-49.1-48.9c-4.6-4.5-4.9-11.9-0.7-16.8L202,104.9c2.2-2.6,5.5-4.2,8.9-4.3
			c3.4-0.1,6.8,1.2,9.3,3.6l75.6,75.6c2.4,2.4,3.8,5.8,3.6,9.3c-0.1,3.4-1.7,6.7-4.3,8.9l-183,156.4
			C109.8,356.3,106.9,357.3,104.1,357.3z M105.9,343.1L105.9,343.1C105.9,343.1,105.9,343.1,105.9,343.1z M58.5,295.9l45.7,45.5
			l179.1-153l-71.7-71.6L58.5,295.9z"/>
		<path d="M294.6,196.3l-0.6-15c19-0.8,36.6-8.3,49.5-21.2c28.6-28.6,28.6-75.1,0-103.7c-28.6-28.6-75.1-28.6-103.7,0
			c-13.2,13.2-20.8,30.8-21.4,49.5l-15-0.5c0.7-22.5,9.9-43.7,25.8-59.6c34.4-34.4,90.5-34.4,124.9,0c34.4,34.4,34.4,90.5,0,124.9
			C338.6,186.3,317.4,195.4,294.6,196.3z"/>
		<rect x="284.2" y="27.5" transform="matrix(0.7071 -0.7071 0.7071 0.7071 8.8627 237.9864)" width="15" height="161.6"/>
	</g>
	<g>
		<path d="M261.9,367.3c-4.1,0-7.5-3.4-7.5-7.5s3.4-7.5,7.5-7.5c49.9,0,90.5-40.6,90.5-90.5c0-4.1,3.4-7.5,7.5-7.5s7.5,3.4,7.5,7.5
			C367.4,320,320.1,367.3,261.9,367.3z"/>
		<path d="M261.9,330.5c-4.1,0-7.5-3.4-7.5-7.5s3.4-7.5,7.5-7.5c29.6,0,53.7-24.1,53.7-53.7c0-4.1,3.4-7.5,7.5-7.5s7.5,3.4,7.5,7.5
			C330.7,299.7,299.8,330.5,261.9,330.5z"/>
		<path d="M261.9,293.8c-4.1,0-7.5-3.4-7.5-7.5s3.4-7.5,7.5-7.5c9.4,0,17-7.6,17-17c0-4.1,3.4-7.5,7.5-7.5s7.5,3.4,7.5,7.5
			C293.9,279.5,279.6,293.8,261.9,293.8z"/>
	</g>
	<g>
		<path d="M39.9,145.3c-4.1,0-7.5-3.4-7.5-7.5c0-58.1,47.3-105.5,105.5-105.5c4.1,0,7.5,3.4,7.5,7.5s-3.4,7.5-7.5,7.5
			c-49.9,0-90.5,40.6-90.5,90.5C47.4,141.9,44.1,145.3,39.9,145.3z"/>
		<path d="M76.7,145.3c-4.1,0-7.5-3.4-7.5-7.5C69.2,99.9,100,69,137.9,69c4.1,0,7.5,3.4,7.5,7.5S142,84,137.9,84
			c-29.6,0-53.7,24.1-53.7,53.7C84.2,141.9,80.8,145.3,76.7,145.3z"/>
		<path d="M113.4,145.3c-4.1,0-7.5-3.4-7.5-7.5c0-17.6,14.4-32,32-32c4.1,0,7.5,3.4,7.5,7.5s-3.4,7.5-7.5,7.5c-9.4,0-17,7.6-17,17
			C120.9,141.9,117.5,145.3,113.4,145.3z"/>
	</g>
</g>
</svg>
