<svg xmlns="http://www.w3.org/2000/svg" viewBox="0 0 27.41 35.42"><defs><style>.cls-1{fill:#444;}</style></defs><title>women_in_business</title><g id="Layer_2" data-name="Layer 2"><g id="Layer_1-2" data-name="Layer 1"><path class="cls-1" d="M13.75,31.32h0a.7.7,0,0,1-.63-.42L9.4,22.37a.7.7,0,0,1,.19-.81,2.07,2.07,0,0,0,.21-.21A3.24,3.24,0,0,0,10.56,19,.7.7,0,1,1,12,18.84a4.61,4.61,0,0,1-1.07,3.4l2.9,6.68,3.11-6.56-.08-.08a4.88,4.88,0,0,1-1-3.44.7.7,0,1,1,1.4.1,3.41,3.41,0,0,0,.62,2.4,2.33,2.33,0,0,0,.32.29.7.7,0,0,1,.21.86l-4,8.43A.7.7,0,0,1,13.75,31.32Z"/><path class="cls-1" d="M26.27,35.42h-.13a.7.7,0,0,1-.56-.82c1.28-6.72.26-9.5-8-11.72a.7.7,0,1,1,.36-1.35c8.44,2.26,10.55,5.38,9,13.33A.7.7,0,0,1,26.27,35.42Z"/><path class="cls-1" d="M1.38,35.42a.7.7,0,0,1-.68-.54C-1,27.72.28,25,6.54,22.63l3.27-1.2a.7.7,0,0,1,.48,1.31L7,23.95C1.41,26,.48,28,2.06,34.55a.7.7,0,0,1-.52.84Z"/><path class="cls-1" d="M22.32,33H17.86a.7.7,0,0,1,0-1.4h4.46a.7.7,0,0,1,0,1.4Z"/><path class="cls-1" d="M14.24,20.29c-3.56,0-6.45-3.2-6.45-7.14,0-3.32,0-6.46,4-6.46,2.19,0,4.85-.46,5.54-1.47a.7.7,0,0,1,.52-.31.68.68,0,0,1,.56.21c1.35,1.39,2.24,5.2,2.24,7.11C20.63,16,17.9,20.29,14.24,20.29Zm3.57-13.6c-1.7,1.29-5,1.4-6,1.4-2.39,0-2.59,1.24-2.59,5.06,0,3.17,2.27,5.74,5.05,5.74s5-3.58,5-6.66A14,14,0,0,0,17.81,6.68Z"/><path class="cls-1" d="M23.52,24.65A.7.7,0,0,1,23,23.49c1.16-1.36,1-2.8.69-4.79a23.64,23.64,0,0,1-.29-3.32c0-4.2,0-9.42-2.78-12.08-1.48-1.41-3.62-2-6.55-1.88C5,1.86,4.56,6.09,4.56,13.55c0,4.39.1,7.63,1.38,9.31a.7.7,0,1,1-1.11.85c-1.55-2-1.67-5.35-1.67-10.16C3.16,6.86,3.16.54,14,0c3.33-.16,5.81.58,7.58,2.27,3.22,3.07,3.22,8.62,3.22,13.09a22.27,22.27,0,0,0,.27,3.13c.3,2.18.56,4.06-1,5.89A.7.7,0,0,1,23.52,24.65Z"/></g></g></svg>