<svg xmlns="http://www.w3.org/2000/svg" viewBox="0 0 33.57 34.66"><defs><style>.cls-1{fill:#444;}</style></defs><title>work_family_balance</title><g id="Layer_2" data-name="Layer 2"><g id="Layer_1-2" data-name="Layer 1"><path class="cls-1" d="M3.26,11.27A.7.7,0,0,1,3,9.91L14.47,5.73A.7.7,0,1,1,15,7L3.5,11.22A.69.69,0,0,1,3.26,11.27Z"/><path class="cls-1" d="M18.73,5.63a.7.7,0,0,1-.24-1.36L30.07,0a.7.7,0,1,1,.48,1.31L19,5.58A.69.69,0,0,1,18.73,5.63Z"/><path class="cls-1" d="M16.79,34.66a.7.7,0,0,1-.7-.7V7.84a.7.7,0,0,1,1.4,0V34A.7.7,0,0,1,16.79,34.66Z"/><path class="cls-1" d="M25,34.66H8.61a.7.7,0,0,1,0-1.4H25a.7.7,0,0,1,0,1.4Z"/><path class="cls-1" d="M16.79,8.54a2.72,2.72,0,1,1,2.72-2.72A2.73,2.73,0,0,1,16.79,8.54Zm0-4a1.32,1.32,0,1,0,1.32,1.32A1.32,1.32,0,0,0,16.79,4.49Z"/><path class="cls-1" d="M12.48,26.39H.7A.7.7,0,1,1,.7,25H12.48a.7.7,0,0,1,0,1.4Z"/><path class="cls-1" d="M6.59,31.23a7,7,0,0,1-6.21-4,2.94,2.94,0,0,1-.13-2.64C1.12,22,2,20.06,2.85,18.15s1.69-3.81,2.54-6.24l0-.07a1.42,1.42,0,0,1,2.71.1l4.8,12.51a3.1,3.1,0,0,1-.16,2.82A7,7,0,0,1,6.59,31.23Zm.13-18.88C5.85,14.84,5,16.81,4.13,18.71S2.42,22.56,1.57,25a1.57,1.57,0,0,0,0,1.53h0a5.66,5.66,0,0,0,5,3.28,5.67,5.67,0,0,0,4.93-3.21,1.72,1.72,0,0,0,.07-1.7L6.79,12.38Z"/><path class="cls-1" d="M32.87,19.07H21.1a.7.7,0,0,1,0-1.4H32.87a.7.7,0,1,1,0,1.4Z"/><path class="cls-1" d="M27,23.91a7,7,0,0,1-6.21-4h0a2.93,2.93,0,0,1-.13-2.64c.87-2.52,1.75-4.5,2.6-6.42S24.94,7,25.78,4.58l0-.06a1.42,1.42,0,0,1,2.71.1l4.8,12.51A3.1,3.1,0,0,1,33.15,20,7,7,0,0,1,27,23.91ZM27.11,5c-.86,2.49-1.74,4.46-2.59,6.37S22.82,15.24,22,17.7a1.57,1.57,0,0,0,0,1.53h0a5.66,5.66,0,0,0,5,3.28,5.67,5.67,0,0,0,4.93-3.21A1.72,1.72,0,0,0,32,17.6L27.18,5.05Z"/></g></g></svg>