<?xml version="1.0" encoding="utf-8"?>
<!-- Generator: Adobe Illustrator 24.1.0, SVG Export Plug-In . SVG Version: 6.00 Build 0)  -->
<svg version="1.1" id="Laag_1" xmlns="http://www.w3.org/2000/svg" xmlns:xlink="http://www.w3.org/1999/xlink" x="0px" y="0px"
	 viewBox="0 0 400 400" style="enable-background:new 0 0 400 400;" xml:space="preserve">
<g>
	<path d="M299.4,184.8c-3.3,0-6.5-1.3-8.8-3.7l-71.7-71.7c-2.4-2.4-3.7-5.5-3.7-8.8c0-3.3,1.3-6.5,3.7-8.8L287,23.6
		c2.4-2.4,5.5-3.7,8.8-3.7s6.5,1.3,8.8,3.7l71.7,71.7c4.9,4.9,4.9,12.8,0,17.7l-68.1,68.1C305.9,183.5,302.7,184.8,299.4,184.8z
		 M231.2,100.6l68.2,68.2l64.6-64.6L295.8,36L231.2,100.6z"/>
	<path d="M181.3,324.4c-3.2,0-6.4-1.2-8.8-3.7l-93.2-93.2c-2.4-2.4-3.7-5.5-3.7-8.8s1.3-6.5,3.7-8.8L201.1,88.1
		c2.4-2.4,5.5-3.7,8.8-3.7s6.5,1.3,8.8,3.7l93.2,93.2l0,0c2.4,2.4,3.7,5.5,3.7,8.8c0,3.3-1.3,6.5-3.7,8.8L190.1,320.8
		C187.7,323.2,184.5,324.4,181.3,324.4z M91.6,218.7l89.6,89.6l118.3-118.3l-89.6-89.6L91.6,218.7z M301.3,191.9
		C301.3,191.9,301.3,191.9,301.3,191.9L301.3,191.9z"/>
	<path d="M82.2,375.3c-3.3,0-6.5-1.3-8.9-3.7l-45-45c-3.8-3.8-4.8-9.7-2.4-14.5l47.9-95.7c1.2-2.4,3.6-4.2,6.3-4.6
		c2.7-0.4,5.5,0.5,7.4,2.4l98.3,98.3c1.9,1.9,2.8,4.7,2.4,7.4c-0.4,2.7-2.2,5-4.6,6.3L87.8,374C86,374.9,84.1,375.3,82.2,375.3z
		 M83.9,361L83.9,361C83.9,361,83.9,361,83.9,361z M40.2,317.3l42.5,42.5l86.1-43.1l-85.5-85.5L40.2,317.3z"/>
	<path d="M27.5,380c-1.9,0-3.8-0.7-5.3-2.2c-2.9-2.9-2.9-7.7,0-10.6l28.6-28.6c2.9-2.9,7.7-2.9,10.6,0c2.9,2.9,2.9,7.7,0,10.6
		l-28.6,28.6C31.3,379.3,29.4,380,27.5,380z"/>
	<path d="M209,218.9c-7.3,0-14.3-2.9-19.4-8.1v0v0l-0.4-0.4c-10.7-10.7-10.7-28.2,0-38.9L271.8,89c2.4-2.4,5.5-3.7,8.8-3.7
		s6.5,1.3,8.8,3.7l21.6,21.6c4.9,4.9,4.9,12.8,0,17.7l-82.6,82.6C223.3,216,216.3,218.9,209,218.9z M280.6,101.4l-80.8,80.8
		c-4.9,4.9-4.9,12.8,0,17.7l0.4,0.4c2.4,2.4,5.5,3.7,8.8,3.7s6.5-1.3,8.8-3.7l80.8-80.8L280.6,101.4z"/>
</g>
</svg>
