<svg id="HMA" xmlns="http://www.w3.org/2000/svg" viewBox="0 0 640 140"><g id="Ebene_2" data-name="Ebene 2"><g id="Ebene_1-2" data-name="Ebene 1-2"><path d="M136.36,21a14.09,14.09,0,1,0-28.17,0v.44L46.78,41.27a14,14,0,1,0-7,21.26l40.33,50.93a14.09,14.09,0,1,0,22.13-5.17L123.65,35A14,14,0,0,0,136.36,21Zm-43.57,83.6a14,14,0,0,0-6.24,1.56L47.16,56.3a14.09,14.09,0,0,0,2-5.86l62.71-20a14.26,14.26,0,0,0,2.19,2l-21.2,72.19Z" style="fill:#56b366;fill-rule:evenodd"/></g></g><path d="M167.77,36.12H193c12.91,0,21.85,7.3,21.85,19.42,0,12.92-9.36,19.84-22.41,19.84H176.71v27.38h-8.89Zm8.89,31.77h15.4c9.07,0,13.71-4.39,13.71-12.16s-5.57-12.17-13.39-12.17H176.71Z" style="fill:#56b366"/><path d="M224.81,67.43V54.23h8.24c0,1.36.28,5.15.28,9.87a17,17,0,0,1,16.28-11v8.33c-10,.28-16.28,5.57-16.28,17.83v23.39h-8.52Z" style="fill:#56b366"/><path d="M299.26,78.33c0,14-8.05,25.55-22.88,25.55-14,0-22.32-10.72-22.32-25.36s8.23-25.46,22.88-25.46C290.32,53.06,299.26,63.12,299.26,78.33Zm-36.59,0c0,10.72,5.38,18.48,14,18.48s14-7.39,14-18.39-5-18.48-14-18.48-14,7.49-14,18.48Z" style="fill:#56b366"/><path d="M304,54.14h8.42V39.86h8.33V54.14h10.72v6.78H320.74V89.37c0,4.68,1.17,7.21,5.57,7.21a22.05,22.05,0,0,0,4.21-.38v6.32a22.24,22.24,0,0,1-7.3.84c-7.58,0-10.81-3.93-10.81-12V61H304Z" style="fill:#56b366"/><path d="M381.85,78.33c0,14-8.05,25.55-22.88,25.55-14,0-22.32-10.72-22.32-25.36s8.24-25.46,22.88-25.46C373,53.06,381.85,63.12,381.85,78.33Zm-36.59,0c0,10.72,5.38,18.48,14,18.48s14-7.39,14-18.39-5-18.48-14-18.48-14,7.49-14,18.48Z" style="fill:#56b366"/><path d="M392.76,66.49V54.23h8.14a72.89,72.89,0,0,1,.37,8,15.21,15.21,0,0,1,15.21-9.08c9.36,0,16.29,5.57,16.29,18.48V102.8h-8.43V72.62c0-7.39-2.85-12.26-10.25-12.26-9.35,0-12.82,7-12.82,16.75v25.65h-8.42Z" style="fill:#56b366"/><path d="M460.09,102.76,435.85,36.12h9.36l11.7,33.22c3.46,9.78,6.88,19.61,8.33,25.74h0c1.45-5.47,5.15-15.81,8.7-25.45L486.2,36.12h9.08L470.2,102.76Z" style="fill:#56b366"/><path d="M505.58,36.12h25.27c12.91,0,21.85,7.3,21.85,19.42,0,12.92-9.36,19.84-22.42,19.84H514.47v27.38h-8.89Zm8.89,31.77h15.39c9.08,0,13.71-4.39,13.71-12.16S538,43.56,530.14,43.56H514.42Z" style="fill:#56b366"/><path d="M565.43,102.76V36.12h11.7c9.36,15.63,30.37,48.76,34.06,56.15h0c-.65-8.51-.56-19-.56-29.85V36.12H619v66.64h-10.9c-8.8-14.46-30.47-50.07-34.58-57.56h0c.46,7.58.46,18.72.46,30.93v26.63Z" style="fill:#56b366"/></svg>