<svg xmlns="http://www.w3.org/2000/svg" width="390.934" height="285.316" viewBox="0 0 390.934 285.316"><defs><style>.a{fill:#32de84;}.b{fill:#00838f;}.c{fill:#00acc1;}.d{fill:#ff9800;}.e{fill:#f57c00;}.f{fill:#114064;}.g{fill:#f7b794;}.h{fill:#1d5b8a;}.i{fill:#163560;}.j{fill:#266ba9;}.k{fill:#f4a269;}.l{fill:#431b73;}.m{fill:#ed985f;}.n{fill:#3aa6c3;}</style></defs><g transform="translate(12380 17849.999)"><g transform="translate(-12446.977 -18111.916)"><g transform="translate(66.976 369.842)"><path d="M-401.992,527.946c-5.7,0-11.562,4.568-11.562,12.563,0,7.309,5.153,12.472,11.562,12.472a9.293,9.293,0,0,0,7.647-3.55v1.548a1.632,1.632,0,0,0,1.548,1.548h3.823V528.493h-5.371v3.05a9.307,9.307,0,0,0-7.647-3.6Zm.957,4.914c4.693,0,7.154,4.127,7.154,7.647,0,3.921-2.922,7.644-7.144,7.644-3.529,0-7.064-2.858-7.064-7.7C-408.089,536.089-405.047,532.861-401.036,532.861Z" transform="translate(413.554 -516.207)"/><path d="M-363.332,552.521a1.5,1.5,0,0,1-1.548-1.547V528.488h5.371v2.974a8.378,8.378,0,0,1,7.245-3.528,8.976,8.976,0,0,1,9.142,9.2v15.385h-3.732a1.645,1.645,0,0,1-1.639-1.639V538.32c0-2.465-1.51-5.458-5-5.458-3.769,0-6.013,3.561-6.013,6.915v12.745Z" transform="translate(395.377 -516.202)"/><path d="M-312.055,521.11c-5.7,0-11.561,4.568-11.561,12.563,0,7.309,5.153,12.472,11.561,12.472a9.293,9.293,0,0,0,7.647-3.55v1.548a1.632,1.632,0,0,0,1.548,1.548h3.823v-36.05h-5.371v15.066a9.307,9.307,0,0,0-7.647-3.6Zm.957,4.914c4.693,0,7.154,4.127,7.154,7.647,0,3.921-2.922,7.644-7.144,7.644-3.529,0-7.064-2.858-7.064-7.7C-318.152,529.252-315.11,526.024-311.1,526.024Z" transform="translate(379.967 -509.37)"/><path d="M-273.395,552.688a1.5,1.5,0,0,1-1.548-1.548V528.655h5.371v4.006a6.619,6.619,0,0,1,6.464-4.279,11.212,11.212,0,0,1,1.912.182v5.553a7.732,7.732,0,0,0-2.549-.455c-3.769,0-5.826,3.561-5.826,6.915v12.112Z" transform="translate(361.79 -516.37)"/><path d="M-201.91,552.851a1.5,1.5,0,0,1-1.548-1.547V528.818h5.371v24.033Z" transform="translate(335.094 -516.532)"/><path d="M-176.64,521.11c-5.7,0-11.562,4.568-11.562,12.563,0,7.309,5.153,12.472,11.562,12.472a9.293,9.293,0,0,0,7.647-3.55v1.548a1.632,1.632,0,0,0,1.548,1.548h3.823v-36.05h-5.371v15.066a9.306,9.306,0,0,0-7.647-3.6Zm.957,4.914c4.692,0,7.154,4.127,7.154,7.647,0,3.921-2.922,7.644-7.144,7.644-3.529,0-7.064-2.858-7.064-7.7C-182.737,529.252-179.7,526.024-175.683,526.024Z" transform="translate(329.397 -509.37)"/><circle cx="3.551" cy="3.551" r="3.551" transform="translate(130.733)"/><path d="M-237.862,527.933a12.371,12.371,0,0,0-12.528,12.528,12.231,12.231,0,0,0,12.515,12.516,12.4,12.4,0,0,0,12.709-12.469A12.48,12.48,0,0,0-237.862,527.933Zm.02,5.016a7.253,7.253,0,0,1,7.207,7.527,7.362,7.362,0,0,1-7.2,7.571,7.3,7.3,0,0,1-7.188-7.5A7.24,7.24,0,0,1-237.842,532.949Z" transform="translate(352.621 -516.202)"/></g><path class="a" d="M190.377,289.907,204.119,266.1a2.792,2.792,0,0,0-1.01-3.805,2.755,2.755,0,0,0-3.787,1.01L185.4,287.418a86.875,86.875,0,0,0-70.876,0L100.6,263.306a2.784,2.784,0,0,0-4.815,2.8l13.742,23.805c-23.7,12.841-39.748,36.826-42.4,64.906H232.795c-2.651-28.08-18.7-52.066-42.417-64.906Zm-78.45,41.642a6.943,6.943,0,1,1,6.943-6.943A6.946,6.946,0,0,1,111.927,331.548Zm76.052,0a6.943,6.943,0,1,1,6.943-6.943A6.946,6.946,0,0,1,187.979,331.548Z" transform="translate(-0.057)"/></g><g transform="translate(-12282.082 -17737.346)"><g transform="translate(0 0)"><path class="b" d="M632.444,838.452s-5.5-6.408-.34-10.477c0,0,3.767-2.279,6.837-2.095,0,0-4.351,7.293-2.943,8.02s4.262-8.476,4.262-8.476,8.57-.831,11.332.494c0,0-7.325,5.993-5.782,6.343s9.455-5.526,9.455-5.526,7.976,1.359,7.555,6.221-3.173,6.366-4.382,6.236-8.278-2.82-8.429-1.83,4.1,4.229,7.077,4.38c0,0-5.622,6.192-9.36,4.41s-4.063-4.631-6.393-5.694-4.318-1.057-3.357.023,5.178,2.14,6.51,4.495,2.528,3.945-1.339,3.364-10.152-3.41-10.425-6.645Z" transform="translate(-581.175 -700.54)"/><path class="c" d="M646.142,877.438S624.479,876.6,619.7,882.8a15.625,15.625,0,0,1-4.314,6.052l-.508,1.382s3.753-3.955,5.1-4.2C619.97,886.035,617.87,878.363,646.142,877.438Z" transform="translate(-568.426 -744.885)"/><path class="c" d="M590.254,950.118a13.6,13.6,0,0,0-4.974,9.578l.845.075s1.485-6.343,4.169-8.834S590.254,950.118,590.254,950.118Z" transform="translate(-543.298 -806.154)"/><path class="c" d="M339.484,732.628s8.739-4.893,4.661-11.533c0,0-3.264-4.078-6.76-5.126,0,0,1.864,9.9,0,10.134s-1.281-11.176-1.281-11.176-9.206-4.427-12.819-4.078c0,0,5.71,9.666,3.845,9.435s-8.274-10.018-8.274-10.018-9.439-1.747-10.954,3.844.932,8.384,2.328,8.734,10.372.233,10.14,1.4-6.293,3.03-9.67,1.982c0,0,3.729,9.2,8.623,8.736s6.409-3.495,9.44-3.727,5.243.583,3.729,1.4-6.648.267-9.09,2.347-4.428,3.36.116,4.292,12.7.349,14.334-3.146Z" transform="translate(-307.425 -602.774)"/><path class="b" d="M339.13,748.71s24.477,7.922,27.269,16.775a18.561,18.561,0,0,0,2.33,8.5v1.747s-2.569-5.942-3.962-6.757C364.767,768.978,370.244,761.289,339.13,748.71Z" transform="translate(-334.34 -635.631)"/><path class="b" d="M528.429,909.965a16.113,16.113,0,0,1,1.623,12.7l-.972-.26s.943-7.681-1.032-11.545S528.429,909.965,528.429,909.965Z" transform="translate(-494.044 -771.607)"/><path class="c" d="M569.093,647.483s-11.521-6.449-6.139-15.2c0,0,4.3-5.374,8.914-6.756,0,0-2.457,13.051,0,13.359s1.691-14.741,1.691-14.741,12.124-5.836,16.894-5.372c0,0-7.527,12.746-5.069,12.437S596.291,618,596.291,618s12.442-2.3,14.44,5.067-1.23,11.056-3.073,11.516-13.671.3-13.364,1.842,8.295,3.992,12.749,2.61c0,0-4.915,12.131-11.367,11.516s-8.449-4.606-12.442-4.913-6.912.769-4.917,1.843,8.763.352,11.983,3.093,5.837,4.431-.151,5.659-16.744.461-18.886-4.146Z" transform="translate(-523.13 -524.377)"/><path class="b" d="M630.318,668.7s-32.264,10.441-35.946,22.111a24.529,24.529,0,0,1-3.072,11.21v2.3s3.38-7.831,5.223-8.911C596.523,695.417,589.3,685.283,630.318,668.7Z" transform="translate(-548.409 -567.705)"/><path class="b" d="M574.37,881.244a21.259,21.259,0,0,0-2.139,16.743l1.281-.343s-1.243-10.119,1.36-15.218S574.37,881.244,574.37,881.244Z" transform="translate(-531.479 -746.928)"/><path class="d" d="M482.267,1005.36a22.564,22.564,0,0,0,22.568-22.56H459.7A22.564,22.564,0,0,0,482.267,1005.36Z" transform="translate(-436.693 -834.366)"/><path class="e" d="M503.271,1005.183a22.9,22.9,0,0,1-2.8.172A22.564,22.564,0,0,1,477.9,982.8h5.605a22.567,22.567,0,0,0,19.766,22.383Z" transform="translate(-452.143 -834.366)"/><path class="d" d="M503.4,1124.123H457.64a2.784,2.784,0,0,1,2.783-2.783h40.19A2.784,2.784,0,0,1,503.4,1124.123Z" transform="translate(-434.944 -951.982)"/><rect class="e" width="46.391" height="0.692" transform="translate(22.266 148.434)"/><path class="f" d="M2086.62,1075.572s.467,7.54,1.927,7.648c.195.015,7.4.015,7.4.015l9.2-.054a2.985,2.985,0,0,0-2.75-2.684c-2.689-.468-7.19-2.359-8.821-5.911C2091.866,1070.846,2086.62,1075.572,2086.62,1075.572Z" transform="translate(-1817.799 -911.066)"/><path class="g" d="M2044.977,498.75s4.344,2.469,5.559,2.469,5.989-.923,7.32-.243a15.56,15.56,0,0,1,4.191,4.307c.813,1.607-3.271.9-5.2-.471a1.221,1.221,0,0,0-.964-.2c-1,.219-3.078.6-4.08.225-1.349-.5-8.452-1.057-8.452-1.057Z" transform="translate(-1781.067 -423.422)"/><path class="h" d="M1835.38,251s4.5,31.992,11.959,34.857c3.679,1.415,19.944,4.62,24.749,4.942,0,0,1.179-.956.892-4.845,0,0-17.036-6.251-19.456-9.651-3.6-5.061,2.236-20.673-2.283-25.425S1839.108,244.078,1835.38,251Z" transform="translate(-1604.519 -209.295)"/><path class="b" d="M1813.117,616.79a56.143,56.143,0,0,0,4.4,6.287c4.835,6.106,10.109,11.143,11.03,15.9a21.536,21.536,0,0,0,.85,3.048c.384,1.091.857,2.237,1.4,3.422a105.508,105.508,0,0,0,8.192,14c5.3,7.854,10.286,14.4,10.286,14.4l9.141-.39c-.366-.915-4.353-11.758-9.686-25.006-2.167-5.378-4.469-11.1-6.692-16.613q-.444-1.106-.885-2.2c-.678-1.689-1.348-3.351-2-4.969l-9-22.353s-20.02-7.573-22.1-2.655C1806.345,603.71,1807.741,607.672,1813.117,616.79Z" transform="translate(-1580.739 -507.689)"/><path class="i" d="M1914.024,946.58s-6.359,4.078-5.741,5.41c.082.177,3.6,6.467,3.6,6.467l4.533,8a2.983,2.983,0,0,0,1-3.708c-.9-2.575-1.446-7.426.864-10.581C1920.708,948.854,1914.024,946.58,1914.024,946.58Z" transform="translate(-1666.371 -803.616)"/><path class="c" d="M1831.289,663.165s-3.974-3.5-4.675-6.074c0,0,16.374-19.61,19.926-24.006.163-.2.121-.423-.094-.666-2.682-3.021-32.474-9.166-36.368-15.223a18.74,18.74,0,0,1-2.517-5.8,13.7,13.7,0,0,1-.184-6.247l29.754-.861s24.779,15.42,27.579,25.934S1831.289,663.165,1831.289,663.165Z" transform="translate(-1580.525 -513.023)"/><path class="b" d="M1848.955,640.042c-2.682-3.021-32.474-9.166-36.368-15.222a18.733,18.733,0,0,1-2.517-5.8v-3.764l12.646-1.988s3.587,11.025,14.2,15.166C1846.873,632.311,1848.757,639.186,1848.955,640.042Z" transform="translate(-1583.033 -520.646)"/><path class="g" d="M1862,184.713c-6.019,1.548-16-4.02-16-4.02a14.758,14.758,0,0,0,5.311-8.32c.073-.288.137-.583.2-.887l3.091-.655,4.6,4.117a39.39,39.39,0,0,1-.68,4.649c-.1.512-.213,1.057-.346,1.649A14.155,14.155,0,0,1,1862,184.713Z" transform="translate(-1613.535 -145.029)"/><path class="j" d="M1802.924,251.721c.861,11.592-.272,29.22.705,32.274.845,2.634,10.463,1.068,14.3.189,1.422-.326,3.143-.79,4.92-1.34,4.959-1.536,10.362-3.727,10.941-5.354a1.317,1.317,0,0,0,.054-.187,1.5,1.5,0,0,0-.011-.681,11.593,11.593,0,0,1-1.026-3.776c-.1-2.293-.083-4.992-.169-7.894a9.768,9.768,0,0,0-.044-1.009v-.307c-.083-3.237-.254-6.645-.453-10.016-.125-2.114-.269-4.22-.436-6.23a83.24,83.24,0,0,0-1.786-12.73,20.44,20.44,0,0,0-6.569-10.137l-1.83-1.568a10.52,10.52,0,0,1-6.639-.885c-2.363-1.121-3.173-1.926-3.591-1.622C1805.83,224.653,1801.905,237.55,1802.924,251.721Z" transform="translate(-1576.83 -187.097)"/><path class="h" d="M1856.457,382.51c4.959-1.536,10.362-3.727,10.941-5.354a1.311,1.311,0,0,0,.054-.187c0-.227,0-.453-.01-.681a11.593,11.593,0,0,1-1.026-3.776c-.1-2.293-.083-4.992-.169-7.894a9.735,9.735,0,0,0-.044-1.009v-.314l-20.045-25.524S1832.677,365.812,1856.457,382.51Z" transform="translate(-1610.437 -286.755)"/><path class="k" d="M1889.045,174.947a39.378,39.378,0,0,1-.68,4.649c-4.49-1.451-6.526-5.505-7.206-7.224.073-.288.138-.583.2-.887l3.091-.655Z" transform="translate(-1643.382 -145.029)"/><path class="g" d="M1888.087,117.421s-9.791-1.634-8.68-7.713.6-10.383,6.894-9.6,7.086,3.323,7.209,5.446S1890.661,117.686,1888.087,117.421Z" transform="translate(-1641.819 -84.911)"/><rect class="d" width="0.905" height="23.764" transform="translate(285.672 84.801) rotate(-162)"/><rect class="d" width="24.945" height="1.492" transform="translate(285.665 84.824) rotate(-178.78)"/><path class="g" d="M2036.38,540.374s8.008,2.114,11.018,1.891,5.5-1.651,5.883-2.4,1.173-2.069-.873-1.825-4.835.68-4.927.286,1.662-.355,1.662-.355.53-.77-.137-.8-2.615-.556-3.339-.195-1.39,1.7-1.919,1.642-6.705-2.782-6.705-2.782Z" transform="translate(-1775.15 -454.911)"/><path class="j" d="M1848.53,263.843s.948,32.294,8.043,35.964c3.5,1.812,19.308,6.787,24.054,7.638,0,0,1.275-.82,1.419-4.717,0,0-16.242-8.091-18.272-11.737-3.022-5.427,4.5-20.3.533-25.524S1853,257.38,1848.53,263.843Z" transform="translate(-1615.682 -220.83)"/><path class="f" d="M1869.6,89.144a4.629,4.629,0,0,1,1.175-3.28s-.453-2.092.379-2.436,1,1.414,1.379,1.137a8.454,8.454,0,0,0,2.792-3.516c.724-1.93,7.352.408,8.124.755s3.256-.927,3.739-1.963a14.511,14.511,0,0,1-2-1.93c-.621-.828-4.966-6.411-11.03-4.825s-6.9,4.481-6.551,6.963S1867.114,88.317,1869.6,89.144Z" transform="translate(-1631.822 -61.807)"/><path class="e" d="M658.125,260.294l5.225-.5a.959.959,0,0,1,.976.586l3.943,9.489a.959.959,0,0,1-.793,1.323l-5.439.518a.958.958,0,0,1-.984-.6l-3.732-9.515a.959.959,0,0,1,.8-1.3Z" transform="translate(-604.4 -220.554)"/><path class="j" d="M892.332,576.873l-2.773,1.469s-14.987-15.886-18.593-31.129a23.592,23.592,0,0,1-.627-7.953s-.219-.69-.6-1.912c-.017-.053-.033-.107-.051-.163-.166-.535-.366-1.164-.589-1.879-.722-2.3-1.718-5.455-2.85-9.044-2.609-8.26-8.576-26.884-11.125-34.633L873.452,485s2.082,4.745,5.069,17.64c.461,1.684.923,3.545,1.36,5.573.488,2.3.944,4.809,1.324,7.521a115.156,115.156,0,0,1,1.094,15.44c.01,2.308-.045,4.7-.183,7.169a31.613,31.613,0,0,0,.674,6.967C885.1,557.858,892.332,576.873,892.332,576.873Z" transform="translate(-772.368 -411.749)"/><path class="l" d="M1083.736,1096.583h-14.807a6.161,6.161,0,0,1,.418-3.969c.861-1.422.532-2.232-.105-3.409a5.756,5.756,0,0,0,2.494.47,5.216,5.216,0,0,0,2.2-.775,53.228,53.228,0,0,0,4.222,4.433C1079.122,1094.028,1083.439,1093.78,1083.736,1096.583Z" transform="translate(-953.74 -924.441)"/><path class="h" d="M881.244,515.735l-11.51,21.446c-.166-.535-.366-1.164-.589-1.879-.722-2.3-1.718-5.455-2.85-9.044-2.609-8.26-8.576-26.884-11.125-34.633L873.494,485s2.082,4.745,5.069,17.64c.461,1.684.923,3.545,1.36,5.573C880.408,510.511,880.865,513.022,881.244,515.735Z" transform="translate(-772.41 -411.749)"/><path class="g" d="M659.178,328.513c-.092.08-4.483-4.407-6.828-6.893l2.348-1.43,12.825,8.048Z" transform="translate(-600.235 -271.831)"/><path class="f" d="M852.854,1105.333a9.577,9.577,0,0,0,.621,4.635h6.139a7.765,7.765,0,0,0-1.511-4.131C856.547,1103.538,852.854,1105.333,852.854,1105.333Z" transform="translate(-770.394 -937.826)"/><path class="f" d="M867.095,3.813c.083-.393,1.13-4.593,7.65-3.688,0,0-3.253-.174-4.048,1.131,0,0,2.472-1.359,4.141-.489s2.17,4.14,2,5.159-1.719,4.131-2.89,4.215a3.477,3.477,0,0,1-1.36-.234,15.251,15.251,0,0,1,.6,1.705c1.659,5.754-1.908,10.479-4,9.53-1.34-.613-2.155,1.714-2.155,1.714L855.32,9.437S862.134-.055,867.095,3.813Z" transform="translate(-772.538 0.003)"/><path class="g" d="M853.86,160.849a16.82,16.82,0,0,0,5.853,2.491c9.022,2.084,12.479-5.538,13.778-10.77a7.764,7.764,0,0,0-3.057-.939c-.653-.077-1.339-.128-1.907-.151-1.012-.776-2.522-3.951-2.856-8.879l-.424.113-7.11,1.941s.326,2.265.485,4.4c.124,1.672.151,3.268-.174,3.659-.555.119-.887.2-.887.2h0A45.813,45.813,0,0,0,853.86,160.849Z" transform="translate(-771.298 -121.062)"/><path class="m" d="M882.17,145.258s.326,2.258.485,4.4c4.028-.4,5.892-4.236,6.625-6.343Z" transform="translate(-795.331 -121.665)"/><path class="g" d="M851.842,78.011s9.561-.527,9.141-6.473.53-10.021-5.59-9.935-7.147,2.438-7.49,4.457S849.342,78,851.842,78.011Z" transform="translate(-766.205 -52.297)"/><path class="f" d="M843.78,55.839c1.348-1.894,2.491-1.581,3.155-1.089a6.7,6.7,0,0,1,8.683.755,11.351,11.351,0,0,0,4.2,6.445s-1.662,1.208-5.75.453a6.828,6.828,0,0,1-3.41-2.009,22.323,22.323,0,0,0,4.17,4.407c-4.953-1.871-7.355-8.4-7.6-9.089a7.535,7.535,0,0,0-1.883,2.929c-.369,1.548-.358,4.682-1.275,4.64C844.069,63.28,841.759,58.68,843.78,55.839Z" transform="translate(-762.038 -45.404)"/><path class="g" d="M799.364,200.66s15.576-3.776,22.349,1.8l-3.391,47.187-30.463-7.357s.858-2.986,6.7-10.926S797.853,211.782,799.364,200.66Z" transform="translate(-715.27 -169.293)"/><path class="j" d="M799.053,475.527s-.018.16-.05.465c-.014.13-.032.288-.051.474-.132,1.223-.379,3.569-.7,6.621-.835,8-2.147,20.856-3.042,31-.7,7.932-1.144,14.211-.906,15.218.722,3.034,0,39.3,0,39.3-2.588,1.242-6.515,0-6.515,0s-6.893-32.679-5.927-37.22a15.621,15.621,0,0,0-.648-8.419c-5.353-24.928-4.767-38.744-3.7-45.364a28.107,28.107,0,0,1,.916-4.039,8.568,8.568,0,0,1,.367-.992A25.225,25.225,0,0,1,799.053,475.527Z" transform="translate(-705.883 -400.423)"/><path class="h" d="M812.917,485.4a30.065,30.065,0,0,1-10.685,2.309,35.865,35.865,0,0,1-8.792-.835,40.622,40.622,0,0,1-11.95-4.646,28.125,28.125,0,0,1,.916-4.039c3.6-2.56,12.488-.11,19.752,2.6l.774.295C808.495,483.222,812.917,485.4,812.917,485.4Z" transform="translate(-709.863 -405.052)"/><path class="j" d="M731.284,217.933c-.755,5.677-3.761,12.623-4.835,16.363,0,0,1.795,12.981.082,16.546a1.577,1.577,0,0,1-.731.819c-6.346,2.767-31.09.08-32.134-7.9-.379-2.9,9.422-13.093,9.993-14.33.237-.512.49-2.17-.659-5.608-1.629,5.02-4.638,10.817-7.663,11.806-3.324,1.087-16.469-8.708-16.469-8.708s-.076-1.189,1.586-2.315a10.148,10.148,0,0,1,3.525-.967l8.408,3.761c1.058-1.8,3.685-14.291,6.619-19.927,2.207-4.238,8.1-4.851,8.1-4.851s2.452,3.888,8.384,3.336,7.015-4.181,7.015-4.181,5.261.7,6.882,2.006C729.661,204.012,732.269,210.5,731.284,217.933Z" transform="translate(-622.745 -171.304)"/><path class="h" d="M942.766,325.093s1.8,12.981.082,16.546c-4.628-2.321-10.661-7.334-8.825-15.165,2.667-11.379,13.579-17.743,13.579-17.743C946.849,314.407,943.84,321.353,942.766,325.093Z" transform="translate(-839.062 -262.102)"/><path class="g" d="M915.678,359.29s-6.588.955-7.113,1.447-2.344,3.347-2.115,4.341.2,2.018.6,1.947,1.719-2.595,2.216-2.711.907-.453.967-.234-1.011,1.284-.958,1.586.9-.051,1.275-.637,1.325-.877,1.467-1.241.795-1.575,1.682-1.519S915.678,359.29,915.678,359.29Z" transform="translate(-815.925 -305.025)"/><path class="g" d="M961.733,357.58l-6.411.258-2.192,2.989,8.718.292Z" transform="translate(-855.569 -303.574)"/><path class="j" d="M967.639,201.78s7.641.906,9.744,4.181c2.661,4.141,12.057,17.872,11.855,22.028,0,0-5.855,2.33-21.593,1.081,0,0-.286-2.38,3.022-4.288,0,0,8.449-1.157,9.38-1.977l-6.273-6.664Z" transform="translate(-867.886 -171.304)"/><path class="d" d="M650.6,260.976l5.223-.5a.963.963,0,0,1,.978.587l3.943,9.489a.957.957,0,0,1-.795,1.322l-5.439.52a.96.96,0,0,1-.984-.6l-3.732-9.515a.958.958,0,0,1,.805-1.3Z" transform="translate(-598.013 -221.132)"/><path class="g" d="M645.146,290.634s-1.38-2.379-1.277-2.965,1.532-3.3,2.266-3.573c1.31-.483,3.15-.782,2.644.6-.334.906-1.662,2.229-1.426,2.643a5.617,5.617,0,0,1,.142,1.868Z" transform="translate(-593.031 -240.844)"/><path class="e" d="M1740.736,706.606c-1.872,11.99-14.113,19.634-26.668,19.634H1689.2l1.946-69.891s23.721-7.612,29.685-.372c5.22,6.343,19.379,31.457,20.124,46.32A21.094,21.094,0,0,1,1740.736,706.606Z" transform="translate(-1480.426 -554.251)"/><path class="d" d="M1593.39,670.33s33.542-17.117,39.9-5.936c3.374,5.937,12.658,29.62,13.345,44.483.665,14.442-11.852,23.939-24.728,23.939h-22.867Z" transform="translate(-1399.092 -560.831)"/><path class="d" d="M1228.07,431.589c-.282,1.454-3,2.8-7.029,4-.71.21-1.461.415-2.247.618-13.719,3.5-38.016,5.457-40.333,4.424-3.2-1.427-22.842-71.187-22.842-71.187s18.749-.7,33.64-1.048c5.094-.115,9.735-.19,13.021-.18a8.06,8.06,0,0,1,1.128.079,5.36,5.36,0,0,1,3.313,1.7c2.4,2.575,2.993,7.662,5.211,13.291,2.2,5.56,4.889,12.5,7.444,19.383.657,1.775,1.307,3.545,1.935,5.286q.268.739.529,1.468C1225.619,419.974,1228.526,429.233,1228.07,431.589Z" transform="translate(-1027.465 -312.601)"/><path class="d" d="M1811.925,1006.938c-1.872,11.99-14.114,19.634-26.667,19.634h-12.2C1781.193,1021.054,1788.549,1004.069,1811.925,1006.938Z" transform="translate(-1551.615 -854.583)"/><path class="e" d="M1400.95,409.826c-.624-.1-1.428-.234-2.339-.388a2.119,2.119,0,0,1-.431-.586c-.367-.807-.116-3.125.3-5.783-2.555-6.886-5.249-13.824-7.444-19.383-2.218-5.623-2.813-10.71-5.211-13.291a5.361,5.361,0,0,0-3.314-1.695c-1.979.027-4.069.062-6.225.1a9.608,9.608,0,0,1-4.365,4.15c-10.173,5.353-2.626,16.384-2.626,16.384.073.05,4.037,7.925,4.037,7.925a6.208,6.208,0,0,1,1.434-2.788,64.7,64.7,0,0,0,3.085,12.958c-.719,3.637-2.568,9.053-3.55,13.194-.79,3.3-1.035,5.794.27,5.917a3.031,3.031,0,0,0,.483,0,6.728,6.728,0,0,0,.795,3.625c2.549,4.927,14.807,5.813,24.292,5.831,4.03-1.195,6.746-2.545,7.029-4C1407.633,429.646,1404.726,420.388,1400.95,409.826Z" transform="translate(-1206.572 -313.014)"/><path class="e" d="M1493.248,767.063c-4.8,6.667-12.165,10.939-20.366,10.808l-35.259.018H1420.73l19.006-62.571s48.107-4.785,54.038,1.595c2.756,2.962,4.3,16.375,5.167,29.9A31.24,31.24,0,0,1,1493.248,767.063Z" transform="translate(-1252.519 -605.819)"/><path class="d" d="M1588.164,1055.9c-4.8,6.667-12.165,10.939-20.366,10.808l-35.259.018c4.149-3.483,17.2-13.362,31.169-12.893C1574.3,1054.183,1582.709,1054.032,1588.164,1055.9Z" transform="translate(-1347.435 -894.654)"/><path class="g" d="M1582.8,435.06s2.93,4.335,4.6,13.442c1.463,7.979,2.747,10.924,4.861,12.561s13.887,6.466,13.887,6.466l-.879,2.063s-17.259-2.35-19.2-5.233-9.329-19.917-8.754-23.84S1582.8,435.06,1582.8,435.06Z" transform="translate(-1385.424 -369.352)"/><path class="g" d="M1888.313,998.127c-.151,1.683,2.188,2.092,4.9,2.228s1.893.69,5.613,1.359,5.21-.344,5.479-.847c.24-.446-1.49-1.142-3.324-1.93-.233-.1-.464-.2-.7-.3-2.074-.906-3.238-2.771-4.854-4.495-1.532-1.633-2.986-6.861-2.986-6.861l-5.056-1.078s1.42,4.7,1.913,6.713a6.218,6.218,0,0,1-.518,3.508,6.6,6.6,0,0,0-.471,1.705Z" transform="translate(-1648.671 -837.252)"/><path class="f" d="M1898.4,1057.821c2.719.134,1.893.69,5.613,1.359s5.21-.344,5.479-.847c.24-.445-1.49-1.142-3.324-1.93l-.029.032a10.6,10.6,0,0,1-5.634.068c-2.46-.669-4.835-2.138-6.535-2.613a6.587,6.587,0,0,0-.464,1.7C1893.342,1057.276,1895.688,1057.682,1898.4,1057.821Z" transform="translate(-1653.855 -894.718)"/><path class="n" d="M1523.394,647.191s33.585-2.527,39.908,1.462,16.469,50.445,16.469,50.445a4.12,4.12,0,0,1-2.023.652,17,17,0,0,1-4.164-.622s-14.573-20.79-15.6-26.026-.777-9.911-3.114-10.036-31.476,3.54-35.883-4.221a17.878,17.878,0,0,1-.765-15.445Z" transform="translate(-1334.082 -546.226)"/><path class="g" d="M1803.219,1033.828c-.151,1.683,2.188,2.09,4.9,2.226s1.895.69,5.613,1.359,5.209-.344,5.48-.846c.239-.453-1.49-1.143-3.333-1.932-.231-.1-.464-.2-.7-.3-2.073-.906-3.238-2.771-4.854-4.495-1.532-1.633-2.986-6.861-2.986-6.861l-5.054-1.078s1.419,4.7,1.911,6.715a6.224,6.224,0,0,1-.517,3.507A6.593,6.593,0,0,0,1803.219,1033.828Z" transform="translate(-1576.428 -867.56)"/><path class="f" d="M1813.3,1093.521c2.72.134,1.895.69,5.613,1.359s5.209-.344,5.48-.846c.239-.453-1.49-1.143-3.333-1.932l-.029.032a10.593,10.593,0,0,1-5.633.068c-2.461-.667-4.835-2.137-6.535-2.613a6.585,6.585,0,0,0-.465,1.7C1808.243,1092.974,1810.586,1093.385,1813.3,1093.521Z" transform="translate(-1581.608 -925.027)"/><path class="c" d="M1463.5,682.28s29.836,1.411,36,5.643,14.486,51.049,14.486,51.049a4.121,4.121,0,0,1-2.047.574,17.015,17.015,0,0,1-4.135-.785s-13.759-21.332-14.576-26.609-.388-9.933-2.72-10.149-31.59,2.314-35.691-5.612S1463.5,682.28,1463.5,682.28Z" transform="translate(-1280.765 -579.234)"/><path class="f" d="M1426.711,237.418a7.732,7.732,0,0,0-4.125-1.078,1.958,1.958,0,0,1,.906-.358,6.538,6.538,0,0,0-2.352.453c-9.693-4.5-12.238,10.044-12.252,13.46s-.255,7.333-5.426,10.053c-10.174,5.348-2.62,16.379-2.62,16.379.074.05,4.039,7.926,4.039,7.926-.068-2.767,13.589-16.429,20.5-20.332,1.771-2.265,2.623-6.417,2.687-6.744a18.089,18.089,0,0,1-1.769,6.144C1432.245,258.538,1430.22,239.733,1426.711,237.418Z" transform="translate(-1233.346 -200)"/><path class="g" d="M1508.3,402s2.635.115,5.412.379a21.018,21.018,0,0,1,4.967.831c2.63,1.1,2.354,5.753-3.164,4.89S1507.913,403.382,1508.3,402Z" transform="translate(-1326.819 -341.285)"/><path class="g" d="M1520.142,366.351c.033.018.787,4-2.825,3.844-2.372-.1-7.487-2.972-7.035-5,.215-.965,2.007-3.474,2.368-9.183l.432.116,7.252,1.945s-.322,2.3-.471,4.483C1519.734,364.385,1519.734,366.128,1520.142,366.351Z" transform="translate(-1328.516 -302.241)"/><path class="k" d="M1536.218,358.725s-.322,2.3-.471,4.483c-4.11-.39-6.035-4.288-6.787-6.428Z" transform="translate(-1344.397 -302.895)"/><path class="f" d="M1511.514,267.744a21.674,21.674,0,0,1-2.253-6.494c-.231-2.1,1.343-9.743,9.019-8.116a10.553,10.553,0,0,1,4.258,1.941c1.608,1.249,3.872,3.863.707,10.411l-.857,2.225Z" transform="translate(-1327.656 -214.71)"/><path class="g" d="M1532.586,290.007s-9.75-.489-9.353-6.553-.592-10.213,5.649-10.157,7.3,2.448,7.659,4.505S1535.132,289.977,1532.586,290.007Z" transform="translate(-1339.525 -232.019)"/><path class="f" d="M1516.127,266.394s-3.141,6.937-7.3,7.716-5.864-.435-5.864-.435a11.616,11.616,0,0,0,4.247-6.591S1514.342,262.879,1516.127,266.394Z" transform="translate(-1322.325 -224.97)"/><path class="f" d="M1585.48,271.907a8.6,8.6,0,0,1,2.266,3.3c.381,1.577.388,4.77,1.322,4.724,0,0,2.331-4.7.257-7.588C1587.127,269.28,1585.48,271.907,1585.48,271.907Z" transform="translate(-1392.376 -229.95)"/><path class="c" d="M1475.753,442.757c-.79.942-3.253,1.232-5.893,1.661a17.729,17.729,0,0,0-5.8,1.68c-3.514,2.063-15,9.035-18.364,8.718-1.305-.122-1.057-2.613-.27-5.916,1.244-5.218,3.848-12.463,3.848-15.615a91.389,91.389,0,0,1,1.337-10.439c.062-.376.125-.755.189-1.136,1.511-9.045,3.6-19.71,3.6-19.71s2.336,5.093,6.887,5.093,3.5-3.885,3.5-3.885,4.152.488,5.137,1.544a39.992,39.992,0,0,1,3.963,6.866s.1,1.584-3.824,2.339a51.426,51.426,0,0,1,1.07,7.166c.085,2.114-1.446,8.746-1.886,12.869a7.693,7.693,0,0,0,.061,3.125,6.065,6.065,0,0,0,2.4,1.98C1473.931,440.394,1476.694,441.635,1475.753,442.757Z" transform="translate(-1272.936 -341.285)"/><path class="n" d="M1471.717,534.45c2.519,4.292-6.829,5.588-8.378,6.494-3.515,2.063-14.263,9.542-17.628,9.225-1.305-.122-1.057-2.613-.27-5.916,1.243-5.218,3.848-12.463,3.848-15.615a91.441,91.441,0,0,1,1.337-10.439l4.051-3.889s4.341,11.216,8.479,13.054a34.88,34.88,0,0,0,6.1,1.985,7.7,7.7,0,0,0,.061,3.125A6.119,6.119,0,0,0,1471.717,534.45Z" transform="translate(-1272.945 -436.632)"/><path class="g" d="M1456.412,421.133s-3.463-2.1-6.813,1.885,2.38,32.5,7.343,33.969c5.512,1.627,21.435-.261,21.435-.261l-.3-2.488s-16.951-3.249-17.656-4.153S1458.178,421.592,1456.412,421.133Z" transform="translate(-1276.177 -357.058)"/><path class="c" d="M1441.979,402s-7.114.642-9.179,2.981-2.67,8.677-2.67,8.677,6.264,5.054,13.811,3.093Z" transform="translate(-1260.499 -341.285)"/><rect class="e" width="9.396" height="1.11" transform="translate(203.864 101.001)"/><path class="e" d="M1705.68,597.612c.09-.367,8.636-13.782,8.636-13.782h19.015l-9.537,13.421Z" transform="translate(-1494.416 -495.653)"/><path class="d" d="M1711,597.763c.092-.367,8.665-13.933,8.665-13.933h18.187l-9.066,13.933Z" transform="translate(-1498.932 -495.653)"/><path class="e" d="M1805.7,624.725a1.518,1.518,0,0,1-1.324.983.677.677,0,0,1-.645-.983,1.519,1.519,0,0,1,1.323-.985A.678.678,0,0,1,1805.7,624.725Z" transform="translate(-1577.602 -529.535)"/><path class="g" d="M1634.51,637.719s5.519-1.068,6.142-.8,4.095,3.382,3.74,4-1.781,1.068-3.383.535-5.075-.8-5.7-1.6A5.239,5.239,0,0,1,1634.51,637.719Z" transform="translate(-1433.999 -540.687)"/><path class="e" d="M1441.583,707.234c-2.017,11.63-13.082,19-24.426,19H1394.29l1.789-69.884s21.819-7.612,27.3-.372c4.8,6.343,17.829,31.457,18.507,46.32A22.628,22.628,0,0,1,1441.583,707.234Z" transform="translate(-1230.074 -554.251)"/><path class="d" d="M1467.245,1011.041c-2.017,11.629-13.082,19-24.425,19h-18.3C1433.086,1024.235,1444.62,1008.2,1467.245,1011.041Z" transform="translate(-1255.736 -858.057)"/><path class="d" d="M1085.485,483.2c-.172.012-.343.024-.514.033-.361.02-.725.032-1.088.038h-23.232v-.012l-1.321.016c-2.354.029-4.814.057-7.1.076l-1.13.011h-.411c-2.253.015-4.247.021-5.669.012a37.6,37.6,0,0,1-5.655-.437,25.216,25.216,0,0,1-6.3-1.8,20.611,20.611,0,0,1-2.005-1.018,19.492,19.492,0,0,1-2.479-1.69,22.456,22.456,0,0,1-5.276-6.192,33.777,33.777,0,0,1-2.741-5.972,57.684,57.684,0,0,1-2.405-9.581,124.2,124.2,0,0,1-1.532-18.042q-.094-4.18-.015-8.819.122-7.417.663-16.062c.5-8.1,1.269-17.041,2.284-26.884.926-8.988,1.993-15.269,3.548-16.7,2.29-2.114,7.068-2.96,10.392-3.3h0c2.064-.211,3.563-.228,3.563-.228,4.061,0,7.671,2.915,8.975,7.25,2.653,8.819,7.391,24.585,12.323,41.081.026.083.05.165.074.248q.426,1.421.852,2.848.064.218.131.435l.863-.385.03-.014c1.183-.524,2.52-1.1,3.965-1.683h0c.755-.3,1.524-.6,2.324-.917,2.257-.864,4.693-1.719,7.162-2.456,1.1-.328,2.2-.633,3.3-.906,1.408-.349,2.806-.643,4.167-.862l.12-.02.48-.073c5.872-.862,10.968-.264,13.076,3.453,3.374,5.955,12.657,29.708,13.343,44.615C1108.881,473.015,1097.636,482.293,1085.485,483.2Z" transform="translate(-909.427 -311.274)"/><path class="e" d="M1143.926,421.358s-11.737-47.8-12.584-51.816a3.031,3.031,0,0,0-2.712-2.6c2.063-.211,3.564-.228,3.564-.228,4.062,0,7.669,2.906,8.973,7.224,2.842,9.42,8.078,26.788,13.379,44.48C1154.279,418.407,1143.926,421.358,1143.926,421.358Z" transform="translate(-1004.553 -311.325)"/><path class="e" d="M1332.277,694.729c-3.141-5.189-.5-6.164-.985-17.79s-5.892-10.664-8.144-12.912a6.13,6.13,0,0,1-1.089-2.388l-.481.073-.119.02c-1.36.219-2.759.514-4.167.862-1.1.27-2.2.575-3.3.906-2.469.737-4.9,1.592-7.162,2.456-.8.3-1.576.613-2.324.917-1.945,12.2-4.951,66.85-4.951,66.85.026.027.048.051.074.076,2.455-.021,5.108-.05,7.633-.08l1.071-.015v.012H1325.6a.808.808,0,0,0,.069-.042l.048-.029c4.634-2.87,3.6-8.638,2.508-12.252-.44-3.865-2.147-8.391-3.543-12.6.432-1.281,1.041-2.013,3.652-2.977,2.9-1.068,3.663-5.632,3.663-5.632.775,2.04-1,4.857-1.044,4.933C1331.053,704.994,1335.384,699.859,1332.277,694.729Z" transform="translate(-1149.657 -561.711)"/><g transform="translate(96.906 81.249)"><path class="g" d="M1018.2,724.74s-17.41,7.582-20.57,7.44S975,726.255,975,726.255l.5,3.348s15.029,8.641,20.283,9.13c5.172.483,22.859-4.64,24.567-5.723S1023.165,725.836,1018.2,724.74Z" transform="translate(-971.041 -696.529)"/><path class="f" d="M1225.626,538.273s6.423-1.219,9.622,1.116c5.795,4.229,6.106,18.811,8.277,20.984s7.4,1.245,7.874,12.486-2.085,12.179.953,17.2-1.286,10.039-1.286,10.039,1.771-2.77,1.012-4.768c0,0-.737,4.412-3.542,5.446s-3.218,1.791-3.667,3.309c0,0-23.922-12.253-23.948-20.945s-4.7-17.3-2.408-21.066a8.329,8.329,0,0,0-1.15,3.4,4.479,4.479,0,0,1,1.011-5.1c2.39-2.459-2.8-7.552-2.035-13.442C1216.868,542.882,1219.708,538.449,1225.626,538.273Z" transform="translate(-1175.849 -537.955)"/><path class="g" d="M1246.94,676.989a16.787,16.787,0,0,0,5.853,2.489c9.022,2.084,12.479-5.538,13.776-10.77a7.725,7.725,0,0,0-3.057-.938c-.651-.077-1.337-.128-1.905-.151-1.012-.775-2.523-3.949-2.856-8.879l-.425.115-7.11,1.945s.325,2.266.485,4.394c.124,1.672.142,3.268-.174,3.659-.555.121-.888.2-.888.2h0A45.862,45.862,0,0,0,1246.94,676.989Z" transform="translate(-1201.893 -640.498)"/><path class="m" d="M1275.24,661.39s.328,2.256.487,4.394c4.028-.4,5.893-4.236,6.625-6.343Z" transform="translate(-1225.917 -641.092)"/><path class="g" d="M1244.922,594.142s9.563-.527,9.142-6.475.531-10.021-5.59-9.935-7.148,2.438-7.49,4.457S1242.424,594.125,1244.922,594.142Z" transform="translate(-1196.802 -571.724)"/><path class="f" d="M1233.486,571.97c1.348-1.9,2.492-1.583,3.155-1.09a6.7,6.7,0,0,1,8.682.755,11.4,11.4,0,0,0,4.2,6.445s-1.662,1.2-5.75.453a6.837,6.837,0,0,1-3.412-2.009,22.321,22.321,0,0,0,4.17,4.407c-4.951-1.871-7.355-8.4-7.6-9.088a7.5,7.5,0,0,0-1.884,2.923c-.367,1.549-1.952,3.969-2.871,3.927C1232.179,578.7,1231.465,574.805,1233.486,571.97Z" transform="translate(-1189.258 -564.83)"/><path class="c" d="M1236.5,740.672c.863-4.412,3.679-22.04.863-27.713-1.011-2.039-4.979-2.222-9.332-2.043-1.36.875-6.515,4.178-8.636,3.765l-.118-.027c-1-.251-1.375-.951-.542-1.556a18.973,18.973,0,0,0-4.835.3,35.739,35.739,0,0,0-5.59,2.394s2.055,3.709,5.084,4.984c-.515,4.6.249,6.636,5.03,17.274a20.212,20.212,0,0,1-.546,17.086s23.776,19.109,23.907,9.379C1241.885,757.193,1235.4,746.311,1236.5,740.672Z" transform="translate(-1169.1 -684.748)"/><path class="h" d="M1138.91,847.745a4.416,4.416,0,0,1-3.173-1.935l-.368-.553c-2.706-4.1-3.759-16.638-9.847-30-1.482-3.253-6.8-3.838-8.255-7.515,0,0-3.572-11.918,6.837-12.27s27.876,33.162,28.151,36.677C1152.515,835.557,1159.13,850.025,1138.91,847.745Z" transform="translate(-1091.309 -756.578)"/><path class="f" d="M990,1096.583h14.807a6.149,6.149,0,0,0-.419-3.969c-.861-1.422-.53-2.232.107-3.409a5.763,5.763,0,0,1-2.5.47,5.259,5.259,0,0,1-2.2-.775,53.489,53.489,0,0,1-4.22,4.433C994.62,1094.028,990.3,1093.78,990,1096.583Z" transform="translate(-983.775 -1005.69)"/><path class="n" d="M1258.692,755.33s1.928,17.536-10.576,21.211-16.055-16.135-5.958-17.56A97.313,97.313,0,0,0,1258.692,755.33Z" transform="translate(-1192.854 -722.499)"/><path class="h" d="M1057.207,796.281c-.893,6.685-4.382,27.79-10.521,38.08-1.982,3.323,4.986,5.179,5.028,5.17.935-.245,2.493-1.735,3.212-2.382,4.986-4.495,15.109-17.218,15.109-27.424,0-4.975.086-14.476-3.532-16.891C1064.282,791.346,1057.56,793.626,1057.207,796.281Z" transform="translate(-1031.595 -753.939)"/><path class="j" d="M1197.421,843.2s-.549-.764-1.511-2.214c-1.139-1.725-2.4-5.12-3.928-9.471-1.606-4.569-3.513-10.189-5.893-16.037-.734-1.812-1.511-3.625-2.346-5.455-1.482-3.253-5.562-2.8-7.012-6.481,0,0-5.663-12.747,4.746-13.1s30.188,34.1,31.324,37.436C1214.045,831.535,1220.116,846.7,1197.421,843.2Z" transform="translate(-1140.987 -752.309)"/><path class="f" d="M1062,1096.583h14.807a6.151,6.151,0,0,0-.418-3.969c-.861-1.422-.53-2.232.107-3.409a5.768,5.768,0,0,1-2.5.47,5.26,5.26,0,0,1-2.2-.775,53.227,53.227,0,0,1-4.221,4.433C1066.616,1094.028,1062.3,1093.78,1062,1096.583Z" transform="translate(-1044.896 -1005.69)"/><path class="h" d="M1253.222,916.785c-1.606-4.569-3.513-10.188-5.893-16.037.622-4.43,1.964-8.307,4.221-9.868C1251.548,890.88,1257.022,907.835,1253.222,916.785Z" transform="translate(-1202.224 -837.577)"/><path class="j" d="M1126.954,797.3c-.893,6.685-2.148,28.26-8.295,38.554-1.981,3.323,4.986,5.179,5.03,5.17.935-.245,2.493-1.735,3.21-2.382,4.986-4.495,15.109-17.218,15.109-27.424,0-4.975-5.84-14.078-9.46-16.493A3.635,3.635,0,0,0,1126.954,797.3Z" transform="translate(-1092.693 -755.427)"/><path class="e" d="M958.371,668.64l15.173-1.612a.978.978,0,0,1,1.018.625l5.429,14.259a.979.979,0,0,1-.876,1.326l-15.055.6a.982.982,0,0,1-.943-.6l-5.545-13.247a.979.979,0,0,1,.8-1.352Z" transform="translate(-956.181 -647.529)"/><path class="d" d="M949.669,669.577l15.174-1.607a.981.981,0,0,1,1.018.625l5.429,14.257a.979.979,0,0,1-.876,1.326l-15.055.6a.978.978,0,0,1-.943-.6l-5.545-13.255a.979.979,0,0,1,.8-1.347Z" transform="translate(-948.797 -648.329)"/><path class="e" d="M1009.895,717.541a.623.623,0,0,1,.586-.921,1.457,1.457,0,0,1,1.257.921.623.623,0,0,1-.586.921A1.458,1.458,0,0,1,1009.895,717.541Z" transform="translate(-1000.613 -689.636)"/><path class="e" d="M957.413,685.013a.306.306,0,0,1,.287-.453.716.716,0,0,1,.618.453.306.306,0,0,1-.287.453A.715.715,0,0,1,957.413,685.013Z" transform="translate(-956.086 -662.418)"/><path class="g" d="M1125.566,724.74s-21.027,7.74-24.187,7.582c-2.041-.1-19.016-6.067-19.016-6.067l-1.523,2.882s16.52,10.615,21.064,10.562c8.966-.1,24.1-5.6,25.8-6.688S1130.529,725.836,1125.566,724.74Z" transform="translate(-1060.889 -696.529)"/><path class="g" d="M1029.654,721.167s-1.523-2.344-3.04-2.417-4.138,1.033-5.036,1.208-3.448,1-2.689,2.241,4.276,1.51,5.793,1.24a7.118,7.118,0,0,1,3.449.6Z" transform="translate(-1008.181 -691.442)"/><path class="g" d="M1053.217,711.46s-2.417-1.106-3.1-1.313-.552,0-.344.657,1.449,1.276,1.449,1.482S1053.217,711.46,1053.217,711.46Z" transform="translate(-1034.371 -684.075)"/><path class="g" d="M964.595,712.329s1.523-2.406,2.018-2.5c1.518-.3,1.518,1.7,1.2,2.986-.346,1.382-1.511,2.687-1.839,2.567S964.236,713.6,964.595,712.329Z" transform="translate(-962.159 -683.843)"/><path class="g" d="M964.323,729.75a4.024,4.024,0,0,0,2.077,4.107Z" transform="translate(-961.946 -700.783)"/><path class="c" d="M1305.16,725.806a11.55,11.55,0,0,0,8.34,7.305s10.666-3.283,5.354-10.548C1318.855,722.565,1313.6,718.666,1305.16,725.806Z" transform="translate(-1251.317 -693.781)"/></g></g></g></g></svg>