<svg id="Capa_1" data-name="Capa 1" xmlns="http://www.w3.org/2000/svg" width="377.91" height="272.39" viewBox="0 0 377.91 272.39"><circle cx="100.28" cy="100.48" r="100.28" style="fill:#ff3131"/><path d="M138.71,238.21s-5.44-6.35-.34-10.37c0,0,3.73-2.26,6.76-2.08,0,0-4.3,7.22-2.91,7.94s4.22-8.39,4.22-8.39,8.48-.82,11.21.49c0,0-7.25,5.93-5.72,6.28s9.36-5.47,9.36-5.47,7.89,1.35,7.47,6.16-3.14,6.3-4.33,6.17-8.2-2.79-8.34-1.81,4,4.18,7,4.33c0,0-5.56,6.12-9.26,4.36s-4-4.58-6.33-5.63-4.27-1-3.32,0,5.13,2.12,6.44,4.45,2.5,3.9-1.32,3.33-10.05-3.38-10.32-6.58Z" style="fill:#00838f"/><path d="M164.87,232.9s-21.44-.82-26.16,5.3a15.24,15.24,0,0,1-4.27,6l-.5,1.37s3.72-3.91,5-4.15C139,241.41,136.9,233.82,164.87,232.9Z" style="fill:#00acc1"/><path d="M134.44,244.19a13.5,13.5,0,0,0-4.93,9.48l.84.08s1.47-6.28,4.13-8.74S134.44,244.19,134.44,244.19Z" style="fill:#00acc1"/><path d="M119.7,230.23s8.64-4.84,4.61-11.41c0,0-3.23-4-6.69-5.07,0,0,1.84,9.8,0,10s-1.27-11.06-1.27-11.06-9.11-4.38-12.68-4c0,0,5.65,9.57,3.8,9.34s-8.18-9.92-8.18-9.92S90,206.38,88.45,211.9s.92,8.3,2.3,8.64,10.27.23,10,1.38-6.23,3-9.57,2c0,0,3.69,9.11,8.53,8.65s6.34-3.46,9.34-3.69,5.19.58,3.69,1.38-6.58.27-9,2.33-4.38,3.32.11,4.24,12.57.35,14.19-3.11Z" style="fill:#00acc1"/><path d="M92.71,213.63s24.22,7.84,27,16.6a18.4,18.4,0,0,0,2.3,8.42v1.73s-2.54-5.88-3.92-6.69C118.08,233.69,123.5,226.08,92.71,213.63Z" style="fill:#00838f"/><path d="M122,238.65a15.89,15.89,0,0,1,1.6,12.56l-1-.25s.93-7.6-1-11.43S122,238.65,122,238.65Z" style="fill:#00838f"/><path d="M133.45,223.56s-11.4-6.39-6.07-15c0,0,4.25-5.31,8.82-6.68,0,0-2.43,12.91,0,13.22s1.67-14.59,1.67-14.59,12-5.77,16.72-5.31c0,0-7.45,12.61-5,12.3s10.79-13.06,10.79-13.06,12.31-2.28,14.29,5-1.22,10.94-3,11.4-13.53.29-13.22,1.82,8.2,4,12.61,2.58c0,0-4.86,12-11.25,11.4s-8.36-4.56-12.31-4.86-6.84.76-4.86,1.82,8.67.35,11.85,3.06,5.78,4.39-.15,5.6-16.56.46-18.68-4.1Z" style="fill:#00acc1"/><path d="M169,201.68S137.08,212,133.43,223.56a24.3,24.3,0,0,1-3,11.09v2.25s3.35-7.75,5.17-8.82C135.58,228.11,128.44,218.09,169,201.68Z" style="fill:#00838f"/><path d="M130.41,234.65a21,21,0,0,0-2.11,16.56l1.27-.33s-1.23-10,1.34-15.06S130.41,234.65,130.41,234.65Z" style="fill:#00838f"/><path d="M133.07,270.9a22.32,22.32,0,0,0,22.33-22.31H110.74a22.32,22.32,0,0,0,22.32,22.32Z" style="fill:#ff9800"/><path d="M138.57,270.76a19.86,19.86,0,0,1-2.78.17,22.31,22.31,0,0,1-22.33-22.31H119a22.31,22.31,0,0,0,19.56,22.14Z" style="fill:#f57c00"/><path d="M155.71,272.08H110.43a2.76,2.76,0,0,1,2.76-2.76H153A2.76,2.76,0,0,1,155.71,272.08Z" style="fill:#ff9800"/><rect x="110.01" y="248.62" width="45.9" height="0.68" style="fill:#f57c00"/><path d="M354,264.52s.46,7.46,1.91,7.57h7.32l9.11,0a3,3,0,0,0-2.72-2.66c-2.66-.46-7.12-2.33-8.73-5.84C359.16,259.84,354,264.52,354,264.52Z" style="fill:#114064"/><path d="M349.11,176.28s4.3,2.44,5.5,2.44,5.93-.91,7.25-.24a15.87,15.87,0,0,1,4.15,4.26c.8,1.59-3.24.89-5.15-.46a1.23,1.23,0,0,0-1-.2c-1,.22-3,.59-4,.22-1.34-.49-8.37-1-8.37-1Z" style="fill:#f7b794"/><path d="M316.41,143s4.45,31.66,11.83,34.49c3.64,1.4,19.74,4.58,24.49,4.89,0,0,1.17-.94.88-4.79,0,0-16.85-6.19-19.25-9.55-3.56-5,2.22-20.45-2.26-25.16S320.1,136.16,316.41,143Z" style="fill:#1d5b8a"/><path d="M317.91,209.7a55.88,55.88,0,0,0,4.35,6.22c4.79,6,10,11,10.92,15.74a19.34,19.34,0,0,0,.84,3c.38,1.08.85,2.22,1.39,3.39a104.18,104.18,0,0,0,8.1,13.85c5.25,7.77,10.18,14.25,10.18,14.25l9-.38c-.36-.91-4.31-11.64-9.58-24.75-2.15-5.32-4.42-11-6.62-16.44-.3-.72-.59-1.45-.88-2.17-.67-1.67-1.33-3.31-2-4.92l-8.91-22.11s-19.7-7.48-21.79-2.62C311.21,196.76,312.59,200.68,317.91,209.7Z" style="fill:#00838f"/><path d="M333,243.21s-6.3,4-5.69,5.35c.08.17,3.56,6.4,3.56,6.4l4.49,7.92a3,3,0,0,0,1-3.67c-.89-2.55-1.43-7.35.86-10.47C339.64,245.46,333,243.21,333,243.21Z" style="fill:#163560"/><path d="M336.1,250.31s-3.93-3.47-4.62-6c0,0,16.2-19.41,19.71-23.76.17-.19.12-.42-.09-.66-2.65-3-32.13-9.07-36-15.06a18.24,18.24,0,0,1-2.49-5.74,13.59,13.59,0,0,1-.19-6.18l29.45-.85s24.51,15.26,27.28,25.66S336.1,250.31,336.1,250.31Z" style="fill:#00acc1"/><path d="M351.1,219.9c-2.65-3-32.13-9.07-36-15.06a18.57,18.57,0,0,1-2.49-5.74v-3.72l12.51-2s3.55,10.91,14.05,15C349,212.23,350.91,219,351.1,219.9Z" style="fill:#00838f"/><path d="M333.83,141c-6,1.53-15.83-4-15.83-4a14.63,14.63,0,0,0,5.25-8.23c.07-.29.14-.58.2-.88l3.06-.65,4.55,4.08a37.51,37.51,0,0,1-.68,4.6c-.09.5-.21,1-.34,1.63A14.17,14.17,0,0,1,333.83,141Z" style="fill:#f7b794"/><path d="M311.69,165.69c.85,11.47-.27,28.91.7,31.93.84,2.61,10.35,1.06,14.15.19,1.41-.32,3.11-.78,4.87-1.33,4.91-1.52,10.25-3.68,10.83-5.29a1.05,1.05,0,0,0,.05-.19,1.52,1.52,0,0,0,0-.67,11.52,11.52,0,0,1-1-3.74c-.09-2.27-.08-4.94-.16-7.81a8.37,8.37,0,0,0-.05-1v-.3c-.08-3.21-.25-6.58-.44-9.91-.13-2.1-.27-4.18-.44-6.17a82.39,82.39,0,0,0-1.76-12.59,20.33,20.33,0,0,0-6.5-10l-1.82-1.55a10.32,10.32,0,0,1-6.56-.87c-2.34-1.11-3.14-1.91-3.56-1.61C314.57,138.9,310.68,151.66,311.69,165.69Z" style="fill:#266ba9"/><path d="M331.41,196.49c4.91-1.52,10.25-3.69,10.83-5.3a1.21,1.21,0,0,0,.05-.18v-.68a11.53,11.53,0,0,1-1-3.73c-.1-2.27-.08-4.94-.16-7.81a6.63,6.63,0,0,0-.05-1v-.31l-19.83-25.26S307.88,180,331.41,196.49Z" style="fill:#1d5b8a"/><path d="M331.06,131.35a41.8,41.8,0,0,1-.68,4.6c-4.44-1.44-6.45-5.45-7.13-7.15.08-.29.14-.58.2-.88l3.06-.65Z" style="fill:#f4a269"/><path d="M331.65,133.9s-9.68-1.62-8.58-7.63.59-10.28,6.81-9.5,7,3.29,7.14,5.39S334.2,134.17,331.65,133.9Z" style="fill:#f7b794"/><rect x="362.1" y="173.88" width="23.51" height="0.9" transform="translate(92.52 476.01) rotate(-72)" style="fill:#ff9800"/><rect x="357.57" y="172.33" width="1.48" height="24.68" transform="translate(166.05 538.97) rotate(-88.78)" style="fill:#ff9800"/><path d="M346.46,186.31s7.92,2.09,10.9,1.87,5.45-1.63,5.82-2.37,1.16-2-.86-1.81-4.78.68-4.88.29,1.65-.35,1.65-.35.52-.77-.14-.8-2.59-.55-3.3-.19-1.38,1.68-1.9,1.62-6.64-2.75-6.64-2.75Z" style="fill:#f7b794"/><path d="M318.38,144.3s.93,32,7.95,35.59c3.47,1.79,19.11,6.72,23.8,7.56,0,0,1.27-.82,1.41-4.67,0,0-16.07-8-18.08-11.61-3-5.37,4.45-20.09.53-25.26S322.79,137.9,318.38,144.3Z" style="fill:#266ba9"/><path d="M323.25,128.79a4.59,4.59,0,0,1,1.16-3.24s-.44-2.07.38-2.41,1,1.4,1.37,1.12a8.41,8.41,0,0,0,2.76-3.48c.72-1.91,7.28.41,8,.75s3.22-.92,3.7-1.94a13.9,13.9,0,0,1-2-1.91c-.61-.82-4.91-6.35-10.91-4.78s-6.82,4.44-6.48,6.89S320.79,128,323.25,128.79Z" style="fill:#114064"/><path d="M141.13,141.07l5.17-.49a.94.94,0,0,1,1,.58l3.9,9.38a1,1,0,0,1-.51,1.24.9.9,0,0,1-.27.07l-5.39.51a.93.93,0,0,1-1-.59l-3.69-9.41a1,1,0,0,1,.54-1.23,1,1,0,0,1,.25-.06Z" style="fill:#f57c00"/><path d="M206.68,265.13l-2.75,1.46s-14.83-15.69-18.39-30.81a22.93,22.93,0,0,1-.62-7.87s-.22-.68-.6-1.89v-.16c-.17-.53-.36-1.15-.58-1.86l-2.82-8.95c-2.59-8.17-8.49-26.6-11-34.27L188,174.22s2.06,4.7,5,17.46c.46,1.67.92,3.51,1.35,5.51.48,2.28.93,4.76,1.31,7.45a113,113,0,0,1,1.09,15.26c0,2.29,0,4.65-.18,7.1a31.21,31.21,0,0,0,.67,6.89C199.52,246.32,206.68,265.13,206.68,265.13Z" style="fill:#266ba9"/><path d="M216.6,272.08H202a6.12,6.12,0,0,1,.42-3.93c.85-1.41.52-2.21-.11-3.38a5.67,5.67,0,0,0,2.47.47,5.19,5.19,0,0,0,2.18-.77,51,51,0,0,0,4.18,4.39C212,269.55,216.31,269.3,216.6,272.08Z" style="fill:#431b73"/><path d="M195.67,204.64,184.28,225.9c-.17-.53-.37-1.15-.59-1.86-.71-2.28-1.7-5.4-2.82-8.95-2.58-8.17-8.48-26.6-11-34.27l18.13-6.6s2.06,4.7,5,17.46c.46,1.67.92,3.51,1.35,5.51C194.84,199.47,195.29,202,195.67,204.64Z" style="fill:#1d5b8a"/><path d="M146.3,157.83c-.09.08-4.44-4.36-6.76-6.82l2.33-1.41,12.69,8Z" style="fill:#f7b794"/><path d="M169.57,267.49a9.45,9.45,0,0,0,.61,4.59h6.08a7.76,7.76,0,0,0-1.5-4.09C173.22,265.71,169.57,267.49,169.57,267.49Z" style="fill:#114064"/><path d="M181.54,105.52c.08-.39,1.12-4.55,7.57-3.65,0,0-3.22-.17-4,1.12,0,0,2.45-1.35,4.1-.49s2.15,4.1,2,5.11-1.7,4.09-2.86,4.17a3.29,3.29,0,0,1-1.35-.23,13.08,13.08,0,0,1,.6,1.69c1.64,5.69-1.89,10.36-4,9.43-1.32-.61-2.13,1.69-2.13,1.69l-11.59-13.28S176.63,101.69,181.54,105.52Z" style="fill:#114064"/><path d="M169.67,141.11a16.8,16.8,0,0,0,5.79,2.47c8.93,2.06,12.35-5.48,13.64-10.66a7.78,7.78,0,0,0-3-.93c-.64-.08-1.32-.13-1.88-.15-1-.77-2.5-3.91-2.83-8.79l-.42.12-7,1.92s.33,2.24.48,4.34c.13,1.66.15,3.24-.17,3.63l-.88.19h0A46,46,0,0,0,169.67,141.11Z" style="fill:#f7b794"/><path d="M173.9,125.09s.32,2.23.48,4.35c4-.4,5.83-4.2,6.56-6.28Z" style="fill:#ed985f"/><path d="M172.71,127.19s9.46-.53,9-6.41.52-9.91-5.54-9.83-7.07,2.41-7.41,4.41S170.24,127.17,172.71,127.19Z" style="fill:#f7b794"/><path d="M168.86,112.07c1.33-1.88,2.47-1.57,3.12-1.08a6.62,6.62,0,0,1,8.6.75,11.09,11.09,0,0,0,4.15,6.37s-1.65,1.2-5.69.45a6.67,6.67,0,0,1-3.38-2,22,22,0,0,0,4.13,4.37c-4.9-1.86-7.28-8.31-7.52-9a7.38,7.38,0,0,0-1.86,2.9c-.37,1.53-.36,4.63-1.26,4.59C169.14,119.43,166.86,114.9,168.86,112.07Z" style="fill:#114064"/><path d="M171.18,132.78s15.42-3.74,22.12,1.78l-3.36,46.69L159.8,174s.85-3,6.63-10.82S169.69,143.78,171.18,132.78Z" style="fill:#f7b794"/><path d="M180.17,176.06v.46a4,4,0,0,0,0,.47c-.13,1.21-.38,3.53-.7,6.55-.82,7.92-2.12,20.64-3,30.67-.69,7.85-1.13,14.07-.89,15.06.71,3,0,38.88,0,38.88-2.56,1.23-6.45,0-6.45,0s-6.82-32.33-5.86-36.82a15.46,15.46,0,0,0-.65-8.33c-5.29-24.67-4.71-38.34-3.66-44.89a27.55,27.55,0,0,1,.91-4,9.19,9.19,0,0,1,.36-1A25,25,0,0,1,180.17,176.06Z" style="fill:#266ba9"/><path d="M190,181.25a29.83,29.83,0,0,1-10.58,2.28,35.32,35.32,0,0,1-8.7-.82,40.19,40.19,0,0,1-11.82-4.6,27.55,27.55,0,0,1,.91-4c3.55-2.53,12.35-.11,19.54,2.58l.77.29C185.57,179.09,190,181.25,190,181.25Z" style="fill:#1d5b8a"/><path d="M195.37,147.9c-.75,5.62-3.72,12.49-4.78,16.19,0,0,1.78,12.85.08,16.37a1.55,1.55,0,0,1-.72.81c-6.28,2.74-30.77.08-31.8-7.81-.38-2.86,9.32-13,9.89-14.18.23-.51.48-2.15-.65-5.55-1.62,5-4.59,10.71-7.59,11.69-3.29,1.07-16.29-8.62-16.29-8.62s-.08-1.18,1.57-2.29a10.09,10.09,0,0,1,3.48-1l8.33,3.72c1-1.78,3.64-14.14,6.54-19.72,2.19-4.19,8-4.8,8-4.8s2.43,3.85,8.3,3.31,6.94-4.14,6.94-4.14,5.21.69,6.81,2C193.77,134.11,196.35,140.52,195.37,147.9Z" style="fill:#266ba9"/><path d="M190.59,164.07s1.78,12.85.08,16.37c-4.58-2.29-10.55-7.25-8.73-15,2.64-11.27,13.43-17.56,13.43-17.56C194.63,153.5,191.65,160.37,190.59,164.07Z" style="fill:#1d5b8a"/><path d="M186.68,155.44s-6.52.94-7,1.43-2.32,3.31-2.09,4.29.19,2,.59,1.93,1.71-2.57,2.2-2.68.89-.45,1-.23-1,1.27-.94,1.57.89,0,1.26-.63,1.31-.87,1.45-1.23.79-1.56,1.66-1.51S186.68,155.44,186.68,155.44Z" style="fill:#f7b794"/><path d="M193,155.18l-6.34.26-2.17,3,8.62.29Z" style="fill:#f7b794"/><path d="M186.68,131.9s7.56.9,9.64,4.14c2.63,4.09,11.93,17.68,11.73,21.79,0,0-5.79,2.31-21.37,1.07,0,0-.28-2.35,3-4.24,0,0,8.36-1.15,9.29-2l-6.21-6.59Z" style="fill:#266ba9"/><path d="M140,141.17l5.17-.5a1,1,0,0,1,1,.58l3.9,9.39a1,1,0,0,1-.5,1.24h0a.68.68,0,0,1-.28.07l-5.38.51a.93.93,0,0,1-1-.59l-3.69-9.42a.94.94,0,0,1,.51-1.21h0a.54.54,0,0,1,.25-.06Z" style="fill:#ff9800"/><path d="M139.54,151s-1.36-2.35-1.26-2.93,1.51-3.27,2.24-3.54c1.3-.48,3.12-.77,2.62.59-.33.9-1.65,2.21-1.41,2.62a5.77,5.77,0,0,1,.14,1.85Z" style="fill:#f7b794"/><path d="M345.55,252.5c-1.85,11.86-14,19.42-26.39,19.42h-24.6l1.92-69.16s23.48-7.53,29.38-.36c5.16,6.27,19.17,31.12,19.91,45.83A21,21,0,0,1,345.55,252.5Z" style="fill:#f57c00"/><path d="M280.23,210.09s33.19-16.94,39.48-5.87c3.34,5.87,12.53,29.31,13.21,44,.65,14.29-11.73,23.69-24.47,23.69H285.82Z" style="fill:#ff9800"/><path d="M286.47,219.48c-.28,1.44-3,2.78-7,4-.71.21-1.45.41-2.23.61-13.57,3.46-37.61,5.4-39.91,4.38-3.16-1.42-22.6-70.44-22.6-70.44s18.55-.69,33.29-1c5-.11,9.63-.19,12.88-.18a8.44,8.44,0,0,1,1.12.08,5.33,5.33,0,0,1,3.28,1.68c2.37,2.55,3,7.58,5.15,13.15s4.85,12.37,7.37,19.18c.65,1.76,1.29,3.51,1.92,5.23.17.49.35,1,.52,1.45C284.05,208,286.92,217.15,286.47,219.48Z" style="fill:#ff9800"/><path d="M345.55,252.5c-1.85,11.86-14,19.42-26.39,19.42H307.09C315.14,266.46,322.42,249.66,345.55,252.5Z" style="fill:#ff9800"/><path d="M280.31,197.54l-2.32-.39a1.88,1.88,0,0,1-.42-.58c-.37-.8-.12-3.09.29-5.72-2.52-6.82-5.19-13.68-7.36-19.18s-2.79-10.6-5.16-13.15a5.33,5.33,0,0,0-3.28-1.68l-6.16.1a9.5,9.5,0,0,1-4.32,4.11c-10.06,5.29-2.59,16.21-2.59,16.21l4,7.84a6.24,6.24,0,0,1,1.42-2.76,63.31,63.31,0,0,0,3,12.82c-.71,3.6-2.54,9-3.51,13.06-.78,3.27-1,5.73.27,5.85a1.85,1.85,0,0,0,.47,0,6.7,6.7,0,0,0,.8,3.59c2.52,4.87,14.65,5.75,24,5.77,4-1.19,6.68-2.52,7-4C286.92,217.15,284.05,208,280.31,197.54Z" style="fill:#f57c00"/><path d="M326.17,261.29c-4.75,6.6-12,10.83-20.15,10.7h-51.6l18.8-61.91s47.61-4.73,53.47,1.58c2.73,2.93,4.26,16.2,5.12,29.58A31,31,0,0,1,326.17,261.29Z" style="fill:#f57c00"/><path d="M326.17,261.29c-4.75,6.6-12,10.83-20.15,10.7H271.13c4.11-3.44,17-13.22,30.84-12.75C312.46,259.6,320.78,259.45,326.17,261.29Z" style="fill:#ff9800"/><path d="M283.28,166.76s2.9,4.29,4.55,13.3c1.45,7.9,2.72,10.81,4.81,12.43s13.74,6.4,13.74,6.4l-.87,2s-17.07-2.33-19-5.18-9.23-19.71-8.66-23.59S283.28,166.76,283.28,166.76Z" style="fill:#f7b794"/><path d="M325.1,260.9c-.15,1.66,2.16,2.07,4.85,2.2s1.88.68,5.55,1.35,5.16-.34,5.42-.84-1.47-1.13-3.29-1.91l-.69-.3c-2.05-.89-3.2-2.74-4.8-4.44s-3-6.79-3-6.79l-5-1.07s1.41,4.65,1.9,6.64a6.26,6.26,0,0,1-.52,3.47,6.62,6.62,0,0,0-.46,1.69Z" style="fill:#f7b794"/><path d="M330,263.13c2.69.13,1.88.68,5.55,1.35s5.16-.34,5.42-.84-1.47-1.13-3.29-1.91h0a10.47,10.47,0,0,1-5.58.07c-2.43-.67-4.78-2.12-6.47-2.59a6.15,6.15,0,0,0-.45,1.68C325,262.59,327.27,263,330,263.13Z" style="fill:#114064"/><path d="M275.29,201.65s33.23-2.5,39.49,1.45S331.08,253,331.08,253a4.09,4.09,0,0,1-2,.65A16.43,16.43,0,0,1,325,253s-14.42-20.57-15.44-25.75-.77-9.81-3.08-9.93-31.15,3.5-35.51-4.18a17.7,17.7,0,0,1-.75-15.28Z" style="fill:#3aa6c3"/><path d="M312.38,266.26c-.15,1.67,2.17,2.07,4.85,2.21s1.88.68,5.56,1.34,5.15-.34,5.42-.84-1.48-1.13-3.3-1.91l-.69-.29c-2.05-.9-3.21-2.75-4.81-4.45s-3-6.79-3-6.79l-5-1.07s1.4,4.66,1.89,6.65a6.18,6.18,0,0,1-.51,3.47A6.55,6.55,0,0,0,312.38,266.26Z" style="fill:#f7b794"/><path d="M317.23,268.47c2.69.13,1.88.68,5.56,1.34s5.15-.34,5.42-.84-1.48-1.13-3.3-1.91h0a10.43,10.43,0,0,1-5.57.07c-2.44-.66-4.79-2.11-6.47-2.58a6.54,6.54,0,0,0-.46,1.68C312.23,267.9,314.55,268.33,317.23,268.47Z" style="fill:#114064"/><path d="M268.79,203.71s29.52,1.39,35.62,5.58,14.33,50.51,14.33,50.51a4,4,0,0,1-2,.57,16.71,16.71,0,0,1-4.09-.78S299,238.49,298.2,233.27s-.38-9.83-2.69-10.05-31.26,2.29-35.32-5.55S268.79,203.71,268.79,203.71Z" style="fill:#00acc1"/><path d="M279.31,138.77a7.72,7.72,0,0,0-4.08-1.07,1.92,1.92,0,0,1,.89-.35,6.14,6.14,0,0,0-2.32.45c-9.6-4.45-12.12,9.93-12.13,13.31s-.25,7.26-5.37,9.95c-10.06,5.29-2.59,16.21-2.59,16.21l4,7.84c-.07-2.74,13.44-16.26,20.28-20.12,1.75-2.24,2.6-6.35,2.66-6.67a17.93,17.93,0,0,1-1.75,6.08C284.79,159.67,282.78,141.06,279.31,138.77Z" style="fill:#114064"/><path d="M267.55,161.82s2.61.11,5.35.37a21,21,0,0,1,4.92.83c2.6,1.08,2.33,5.69-3.13,4.84S267.17,163.19,267.55,161.82Z" style="fill:#f7b794"/><path d="M277.59,165.18s.78,4-2.8,3.8c-2.35-.1-7.41-2.94-7-5,.21-.95,2-3.43,2.34-9.09l.43.12,7.18,1.92s-.32,2.28-.47,4.44C277.18,163.24,277.18,165,277.59,165.18Z" style="fill:#f7b794"/><path d="M277.78,157s-.32,2.28-.47,4.43c-4.06-.38-6-4.24-6.71-6.36Z" style="fill:#f4a269"/><path d="M269.9,154.22a21.49,21.49,0,0,1-2.23-6.42c-.23-2.08,1.33-9.64,8.93-8a10.29,10.29,0,0,1,4.21,1.92c1.59,1.23,3.83,3.82.7,10.3l-.85,2.2Z" style="fill:#114064"/><path d="M279,159.12s-9.65-.48-9.26-6.48-.58-10.11,5.59-10,7.22,2.42,7.58,4.45S281.53,159.09,279,159.12Z" style="fill:#f7b794"/><path d="M279.74,142.74s-3.11,6.86-7.23,7.63-5.8-.43-5.8-.43a11.48,11.48,0,0,0,4.2-6.52S278,139.25,279.74,142.74Z" style="fill:#114064"/><path d="M279.05,143.26a8.55,8.55,0,0,1,2.24,3.26c.38,1.56.39,4.72,1.31,4.67,0,0,2.31-4.65.25-7.5C280.68,140.66,279.05,143.26,279.05,143.26Z" style="fill:#114064"/><path d="M288.66,202.15c-.78.93-3.22,1.22-5.83,1.64a17.66,17.66,0,0,0-5.73,1.67c-3.48,2-14.84,8.94-18.17,8.62-1.29-.12-1.05-2.58-.27-5.85,1.23-5.17,3.81-12.34,3.81-15.45a90,90,0,0,1,1.32-10.33c.06-.38.13-.75.19-1.13,1.49-8.95,3.57-19.5,3.57-19.5s2.31,5,6.81,5,3.46-3.84,3.46-3.84,4.11.48,5.09,1.52a39.61,39.61,0,0,1,3.92,6.8s.1,1.57-3.79,2.31a50.13,50.13,0,0,1,1.06,7.09c.09,2.1-1.43,8.66-1.86,12.74a7.31,7.31,0,0,0,.06,3.09,6,6,0,0,0,2.37,2C286.86,199.81,289.59,201,288.66,202.15Z" style="fill:#00acc1"/><path d="M284.66,198.53c2.49,4.25-6.76,5.54-8.29,6.42-3.48,2-14.12,9.45-17.44,9.13-1.3-.12-1.05-2.58-.27-5.85,1.23-5.16,3.81-12.33,3.81-15.45a90,90,0,0,1,1.32-10.33l4-3.85s4.29,11.1,8.39,12.92a34.08,34.08,0,0,0,6,2,7.65,7.65,0,0,0,.06,3.09A6,6,0,0,0,284.66,198.53Z" style="fill:#3aa6c3"/><path d="M266.32,165.15s-3.43-2.09-6.75,1.86,2.36,32.16,7.27,33.61c5.45,1.61,21.21-.26,21.21-.26l-.3-2.46s-16.77-3.21-17.47-4.11S268.06,165.6,266.32,165.15Z" style="fill:#f7b794"/><path d="M267.55,161.82s-7,.63-9.08,3-2.64,8.59-2.64,8.59,6.2,5,13.66,3.06Z" style="fill:#00acc1"/><rect x="289.7" y="201.68" width="9.3" height="1.1" style="fill:#f57c00"/><path d="M297,202.63c.09-.36,8.54-13.63,8.54-13.63h18.82l-9.44,13.28Z" style="fill:#f57c00"/><path d="M297.81,202.78c.1-.36,8.58-13.79,8.58-13.79h18l-9,13.79Z" style="fill:#ff9800"/><path d="M313.67,195.9a1.49,1.49,0,0,1-1.31,1,.68.68,0,0,1-.71-.63.71.71,0,0,1,.07-.35,1.52,1.52,0,0,1,1.31-1,.67.67,0,0,1,.71.61v0A.6.6,0,0,1,313.67,195.9Z" style="fill:#f57c00"/><path d="M286.38,197.75s5.46-1,6.08-.79,4.05,3.35,3.7,4-1.77,1-3.35.53-5-.8-5.64-1.59A4.87,4.87,0,0,1,286.38,197.75Z" style="fill:#f7b794"/><path d="M297.26,253.12c-2,11.51-12.94,18.8-24.17,18.8H250.47l1.77-69.15s21.59-7.53,27-.37c4.75,6.28,17.64,31.12,18.31,45.83A22.22,22.22,0,0,1,297.26,253.12Z" style="fill:#f57c00"/><path d="M297.26,253.12c-2,11.51-12.94,18.8-24.17,18.8H255C263.46,266.17,274.87,250.31,297.26,253.12Z" style="fill:#ff9800"/><path d="M262.18,271.9H236.29l-7,.08h-7.14a36.1,36.1,0,0,1-5.59-.43,25,25,0,0,1-6.24-1.78,19.64,19.64,0,0,1-4.46-2.67,22.1,22.1,0,0,1-5.22-6.13,33.5,33.5,0,0,1-2.71-5.9,57.3,57.3,0,0,1-2.38-9.49,122,122,0,0,1-1.55-17.8q-.09-4.14,0-8.73.12-7.34.66-15.89.74-12,2.26-26.6c.91-8.9,2-15.11,3.51-16.53,2.26-2.09,7-2.93,10.28-3.26h0c2-.21,3.52-.22,3.52-.22,4,0,7.59,2.88,8.88,7.17,2.63,8.72,7.32,24.32,12.2,40.65a.32.32,0,0,0,.07.24l.84,2.82c.05.15.09.29.13.43l.86-.38h0c1.17-.52,2.49-1.09,3.92-1.67h0l2.3-.9c2.23-.86,4.64-1.71,7.09-2.43,1.08-.33,2.17-.63,3.26-.9,1.39-.35,2.77-.64,4.12-.86H258l.47-.08c5.81-.85,10.86-.26,12.94,3.42,3.34,5.89,12.53,29.4,13.2,44.15C285.33,261.79,274.21,271,262.18,271.9Z" style="fill:#ff9800"/><path d="M225.88,210.62s-11.61-47.3-12.45-51.27a3,3,0,0,0-2.68-2.58c2-.21,3.53-.22,3.53-.22,4,0,7.59,2.87,8.88,7.14,2.81,9.33,8,26.51,13.24,44C236.13,207.7,225.88,210.62,225.88,210.62Z" style="fill:#f57c00"/><path d="M268.68,233.36c-3.11-5.13-.5-6.09-1-17.6s-5.83-10.55-8.06-12.77a6.07,6.07,0,0,1-1.07-2.37l-.48.08H258c-1.34.21-2.73.5-4.12.85-1.09.27-2.17.57-3.26.89-2.44.73-4.85,1.58-7.09,2.44-.79.29-1.56.6-2.3.9-1.92,12.07-4.9,66.15-4.9,66.15l.08.07,7.55-.07h18.25c4.59-2.84,3.56-8.54,2.48-12.12-.43-3.83-2.12-8.3-3.5-12.47.43-1.27,1-2,3.61-2.94,2.87-1.06,3.63-5.58,3.63-5.58.76,2-1,4.81-1,4.88C267.46,243.52,271.75,238.44,268.68,233.36Z" style="fill:#f57c00"/><path d="M230.53,210.05s-17.23,7.5-20.35,7.36-22.4-5.86-22.4-5.86l.49,3.31s14.87,8.55,20.07,9,22.62-4.59,24.31-5.67S235.44,211.14,230.53,210.05Z" style="fill:#f7b794"/><path d="M233.12,182.45s6.35-1.2,9.52,1.11c5.73,4.18,6,18.61,8.19,20.76s7.32,1.23,7.79,12.35-2.07,12,.94,17-1.27,9.93-1.27,9.93,1.75-2.74,1-4.72c0,0-.73,4.37-3.5,5.39s-3.19,1.77-3.63,3.28c0,0-23.67-12.13-23.7-20.73s-4.65-17.12-2.38-20.85a8.28,8.28,0,0,0-1.14,3.37,4.43,4.43,0,0,1,1-5.05c2.37-2.43-2.77-7.47-2-13.3C224.45,187,227.26,182.63,233.12,182.45Z" style="fill:#114064"/><path d="M228.44,218.24a16.35,16.35,0,0,0,5.79,2.47c8.92,2.06,12.35-5.48,13.63-10.66a7.78,7.78,0,0,0-3-.93c-.65-.07-1.33-.12-1.89-.15-1-.76-2.49-3.9-2.82-8.78l-.42.11-7,1.93s.32,2.24.48,4.34c.12,1.66.14,3.24-.17,3.63l-.88.19h0A44.73,44.73,0,0,0,228.44,218.24Z" style="fill:#f7b794"/><path d="M232.67,202.22s.32,2.23.48,4.35c4-.4,5.83-4.19,6.55-6.28Z" style="fill:#ed985f"/><path d="M231.48,204.32s9.46-.52,9-6.41S241,188,235,188.08s-7.07,2.41-7.41,4.41S229,204.3,231.48,204.32Z" style="fill:#f7b794"/><path d="M227.62,189.2c1.34-1.87,2.47-1.56,3.13-1.08a6.63,6.63,0,0,1,8.59.75,11.24,11.24,0,0,0,4.15,6.38s-1.64,1.18-5.69.45a6.71,6.71,0,0,1-3.37-2,21.84,21.84,0,0,0,4.12,4.36c-4.9-1.85-7.28-8.31-7.52-9a7.53,7.53,0,0,0-1.86,2.89c-.36,1.53-1.93,3.93-2.84,3.89C226.33,195.9,225.62,192,227.62,189.2Z" style="fill:#114064"/><path d="M250.55,237.47c.86-4.36,3.65-21.81.86-27.42-1-2-4.93-2.2-9.23-2-1.35.87-6.45,4.13-8.55,3.73h-.12c-1-.25-1.36-.94-.53-1.54a18.34,18.34,0,0,0-4.79.3,34.61,34.61,0,0,0-5.53,2.37s2,3.67,5,4.93c-.51,4.56.25,6.57,5,17.09a20,20,0,0,1-.54,16.91s23.52,18.91,23.65,9.28C255.88,253.82,249.46,243.05,250.55,237.47Z" style="fill:#00acc1"/><path d="M231,272.35a4.39,4.39,0,0,1-3.14-1.92l-.36-.55c-2.68-4.05-3.72-16.46-9.74-29.68-1.47-3.22-6.73-3.8-8.17-7.44,0,0-3.54-11.79,6.76-12.14s27.55,32.82,27.82,36.28S251,274.6,231,272.35Z" style="fill:#1d5b8a"/><path d="M190,272.08h14.65a6,6,0,0,0-.41-3.93c-.85-1.41-.52-2.21.11-3.38a5.67,5.67,0,0,1-2.47.47,5.14,5.14,0,0,1-2.18-.77,54.19,54.19,0,0,1-4.18,4.39C194.59,269.55,190.32,269.3,190,272.08Z" style="fill:#114064"/><path d="M249,214.62s1.91,17.35-10.47,21-15.88-16-5.89-17.38A94.48,94.48,0,0,0,249,214.62Z" style="fill:#3aa6c3"/><path d="M209.2,224c-.88,6.62-4.33,27.5-10.4,37.68-2,3.29,4.93,5.13,5,5.12.93-.24,2.47-1.72,3.18-2.36,4.93-4.44,15-17,15-27.13,0-4.93.09-14.33-3.5-16.72C216.21,219.15,209.55,221.41,209.2,224Z" style="fill:#1d5b8a"/><path d="M239.7,272.08s-.54-.76-1.49-2.2c-1.13-1.7-2.37-5.06-3.89-9.37-1.59-4.52-3.47-10.07-5.83-15.86-.72-1.8-1.49-3.59-2.32-5.4-1.47-3.22-5.5-2.78-6.94-6.41,0,0-5.6-12.62,4.7-13s29.87,33.75,31,37C256.15,260.53,262.16,275.54,239.7,272.08Z" style="fill:#266ba9"/><path d="M200.79,272.08h14.65a6,6,0,0,0-.42-3.93c-.85-1.41-.52-2.21.11-3.38a5.67,5.67,0,0,1-2.47.47,5.14,5.14,0,0,1-2.18-.77,51.5,51.5,0,0,1-4.18,4.43C205.35,269.55,201.08,269.3,200.79,272.08Z" style="fill:#114064"/><path d="M234.32,260.51c-1.58-4.52-3.47-10.08-5.82-15.87.61-4.38,1.94-8.21,4.17-9.76C232.67,234.9,238.08,251.66,234.32,260.51Z" style="fill:#1d5b8a"/><path d="M217.76,223.57c-.88,6.61-2.12,28-8.2,38.14-2,3.29,4.93,5.13,5,5.12.93-.24,2.47-1.72,3.18-2.36,4.93-4.44,14.95-17,14.95-27.13,0-4.93-5.78-13.93-9.36-16.32a3.6,3.6,0,0,0-5,1h0A3.52,3.52,0,0,0,217.76,223.57Z" style="fill:#266ba9"/><path d="M186,203l15-1.6a1,1,0,0,1,1,.62l5.38,14.11a1,1,0,0,1-.56,1.25.81.81,0,0,1-.31.06l-14.9.6a1,1,0,0,1-.93-.6l-5.49-13.1a1,1,0,0,1,.52-1.27A.83.83,0,0,1,186,203Z" style="fill:#f57c00"/><path d="M184.73,203.16l15-1.59a1,1,0,0,1,1,.62l5.37,14.11a1,1,0,0,1-.56,1.25.8.8,0,0,1-.3.06l-14.9.59a1,1,0,0,1-.93-.59l-5.49-13.11a1,1,0,0,1,.52-1.27l.27-.07Z" style="fill:#ff9800"/><path d="M193.05,209.75a.6.6,0,0,1,.23-.83h0a.65.65,0,0,1,.34-.07,1.46,1.46,0,0,1,1.24.91.62.62,0,0,1-.24.84.58.58,0,0,1-.34.07A1.41,1.41,0,0,1,193.05,209.75Z" style="fill:#f57c00"/><path d="M185.18,204.5a.3.3,0,0,1,.1-.41h0a.43.43,0,0,1,.16,0,.72.72,0,0,1,.61.45.3.3,0,0,1-.12.41h0a.22.22,0,0,1-.16,0A.66.66,0,0,1,185.18,204.5Z" style="fill:#f57c00"/><path d="M247.86,210.05s-20.81,7.66-23.93,7.5c-2-.09-18.82-6-18.82-6l-1.51,2.85s16.4,10.5,20.85,10.5c8.87-.1,23.84-5.54,25.53-6.62S252.77,211.14,247.86,210.05Z" style="fill:#f7b794"/><path d="M205.11,211.55s-1.51-2.32-3-2.39-4.09,1-5,1.2-3.41,1-2.66,2.21,4.23,1.5,5.73,1.23a7,7,0,0,1,3.41.6Z" style="fill:#f7b794"/><path d="M202.51,209.23s-2.39-1.09-3.07-1.29-.55,0-.34.65,1.43,1.26,1.43,1.46S202.51,209.23,202.51,209.23Z" style="fill:#f7b794"/><path d="M186.27,210.32s1.51-2.38,2-2.47c1.5-.29,1.5,1.68,1.19,3s-1.5,2.66-1.82,2.54S185.92,211.58,186.27,210.32Z" style="fill:#f7b794"/><path d="M186.21,210.8a4,4,0,0,0,2.06,4.06Z" style="fill:#f7b794"/><path d="M237.14,213.83a11.41,11.41,0,0,0,8.25,7.22s10.56-3.24,5.3-10.43C250.69,210.62,245.49,206.76,237.14,213.83Z" style="fill:#00acc1"/><path id="s" d="M54,56.45l14.52,44.7-38-27.63h47l-38,27.63Z" style="fill:#ff0"/><path id="s-2" data-name="s" d="M98.41,48.87,97,64.48,89,51.05l14.42,6.13L88.12,60.69Z" style="fill:#ff0"/><path id="s-3" data-name="s" d="M117.57,67.19,110.24,81,108,65.53l10.91,11.24L103.5,74.09Z" style="fill:#ff0"/><path id="s-4" data-name="s" d="M119.39,94.81l-12.33,9.65,4.3-15.06,5.37,14.71-13-8.74Z" style="fill:#ff0"/><path id="s-5" data-name="s" d="M98.09,106.39,97.36,122,88.75,109l14.66,5.52L88.3,118.63Z" style="fill:#ff0"/></svg>