<svg id="HMA" xmlns="http://www.w3.org/2000/svg" viewBox="0 0 640 140"><g id="g27"><path id="path12" d="M574.09,75.34a24.51,24.51,0,0,0-5-16.2,16.64,16.64,0,0,0-13.53-6,18.9,18.9,0,0,0-15.41,7,28.28,28.28,0,0,0-5.71,18.54,26.07,26.07,0,0,0,5.92,18.21,21.15,21.15,0,0,0,16.49,6.5,42,42,0,0,0,7.68-.64,35.94,35.94,0,0,0,7.59-2.44v-4a44.37,44.37,0,0,1-8,2.49,40.54,40.54,0,0,1-7.3.58,16.44,16.44,0,0,1-13.1-5.25,22.87,22.87,0,0,1-4.67-15.23h35ZM539.4,75a21.72,21.72,0,0,1,5-13.3,14.55,14.55,0,0,1,11.25-4.6,12.09,12.09,0,0,1,10.13,4.74A21,21,0,0,1,569.4,75ZM519.49,99.47a32.75,32.75,0,0,0,7.32-.71v3.56a23.29,23.29,0,0,1-7.41,1.07,12.08,12.08,0,0,1-9.49-3.43,15.85,15.85,0,0,1-3.05-10.77V57.93h-7.2V55.35l7.19-2,2.23-11h2.28V54.1H525.6v3.84H511.36V88.57a14,14,0,0,0,2,8.24A7.16,7.16,0,0,0,519.49,99.47ZM487,57.41a15.73,15.73,0,0,0-11.94-4.14A37.05,37.05,0,0,0,459.25,57l1.65,3.82a30.4,30.4,0,0,1,14-3.73A11,11,0,0,1,484,60.61,16.48,16.48,0,0,1,486.76,71v3.21l-9.25.27a32.21,32.21,0,0,0-17.12,4.13,12.49,12.49,0,0,0-5.92,11,13,13,0,0,0,4,10.11,15.79,15.79,0,0,0,11.12,3.66,20,20,0,0,0,9.13-1.94,22.94,22.94,0,0,0,7.52-6.61h.36l1.12,7.66H491V70.31A18.12,18.12,0,0,0,487,57.41Zm-.42,25.25A16.5,16.5,0,0,1,482.09,95a16.67,16.67,0,0,1-12.26,4.43A11.36,11.36,0,0,1,462,96.87a9,9,0,0,1-2.79-7.06,9.16,9.16,0,0,1,4.36-8.39,32,32,0,0,1,14.57-3.19l8.49-.35Zm-77.43,19.85L384.82,42.39h-.36c.24,3.69.35,7.45.36,11.3v48.8h-4.38V37.41h7.06l23.13,57.26h.27L434,37.41h6.87V102.5h-4.6V53.17q0-5.16.54-10.68h-.36l-24.42,60h-2.91Zm-45,0H353.56V72.23a13.19,13.19,0,0,0-2.3-8.5,8.87,8.87,0,0,0-7.3-2.8,11.6,11.6,0,0,0-9.73,3.91A21.63,21.63,0,0,0,331.15,78V102.5H320.66V53.26h8.21l1.48,6.45h.53a14.61,14.61,0,0,1,6.34-5.43,21.21,21.21,0,0,1,9.11-1.91q17.78,0,17.77,18v32.1ZM308.74,74.59a22.57,22.57,0,0,0-5.68-16.29,20.41,20.41,0,0,0-15.44-5.93,20.89,20.89,0,0,0-16.57,6.91,27.85,27.85,0,0,0-6,19,25.36,25.36,0,0,0,6.5,18.46,23.94,23.94,0,0,0,18,6.72,48.22,48.22,0,0,0,9-.76,32.69,32.69,0,0,0,7.77-2.58V91.57a43.68,43.68,0,0,1-8.1,2.75,38.47,38.47,0,0,1-8.15.82,13.6,13.6,0,0,1-10.32-3.85,16.15,16.15,0,0,1-3.88-11h32.92ZM276,72.67a15.11,15.11,0,0,1,3.6-9.22,10.58,10.58,0,0,1,8-3.16h0a10.14,10.14,0,0,1,7.86,3.14,13.59,13.59,0,0,1,2.94,9.24ZM257.51,102.5h-46.7V95.11l32.91-48.57h-32V37.41h44.91v7.48l-33,48.48h33.92v9.13Z" style="fill:#1a1a1a"/></g><path d="M131.56.77a185.22,185.22,0,0,1,41.28,4.72,93,93,0,0,1,10.73,3.18c5.87,2.21,7.78,5.25,7.16,11.43-2.3,22.76-7.45,44.81-16.64,65.82-7.52,17.18-17.55,32.64-31.86,45.05a90.73,90.73,0,0,1-8.08,6.26c-3.92,2.69-7.77,2.66-11.71,0-12.76-8.79-22.62-20.23-30.6-33.39-10.71-17.68-17.26-36.95-21.64-57a245.2,245.2,0,0,1-4.26-27.37c-.5-5,1.54-8.48,6.31-10.32A111.33,111.33,0,0,1,95.63,3.16,229.64,229.64,0,0,1,131.56.77Z" style="fill:#0089cd"/><path d="M127.76,11.42a174.39,174.39,0,0,1,47.65,6.45c3.16.91,3.83,1.67,3.45,4.88-3.34,27.94-10.7,54.58-26,78.56a96.4,96.4,0,0,1-21.43,23.92c-2.44,1.93-3.48,2-5.91.16C115.82,118,108.27,108.78,102,98.45c-10.75-17.68-17.12-37-21.17-57.16Q79,32,77.94,22.65c-.31-2.81.31-3.9,3.12-4.78a133.16,133.16,0,0,1,18.19-4.08A183.32,183.32,0,0,1,127.76,11.42Z" style="fill:#fefefe"/><path d="M128.34,22.75a153.63,153.63,0,0,1,35.11,3.71c2.76.64,3.21,1.17,2.78,3.9-3.24,20.1-8.8,39.46-18.59,57.44A99.11,99.11,0,0,1,130.51,111c-1.65,1.64-2.58,1.63-4.3,0-9.75-9.55-16.67-21-22.16-33.35-6.83-15.36-11-31.48-13.58-48-.29-1.87.3-2.68,2.35-3.1a166.89,166.89,0,0,1,31.58-3.65C125.71,22.74,127,22.75,128.34,22.75Z" style="fill:#0089cd"/><path d="M128.43,62.79V37c0-2.67.55-3.2,3.25-3.13a161.81,161.81,0,0,1,18.78,1.73c2.37.34,2.88,1,2.4,3.28C149,57,143.1,74.2,133,89.79c-.22.33-.42.67-.64,1a2.11,2.11,0,0,1-2.57.9,2,2,0,0,1-1.34-2.15c0-2.56,0-5.11,0-7.67Z" style="fill:#fefefe"/></svg>